<?xml version="1.0" encoding="utf-8"?>
<COLLADA xmlns="http://www.collada.org/2005/11/COLLADASchema" version="1.4.1" xmlns:xsi="http://www.w3.org/2001/XMLSchema-instance">
  <asset>
    <contributor>
      <authoring_tool>IfcOpenShell 0.8.1-c49ca69</authoring_tool>
    </contributor>
    <created>2025-04-25T00:40:09</created>
    <modified>2025-04-25T00:40:09</modified>
    <unit name="METER" meter="1"/>
    <up_axis>Z_UP</up_axis>
  </asset>
  <library_effects>
    <effect id="IfcMaterial-3732-fx">
      <profile_COMMON>
        <technique sid="common">
          <lambert/>
        </technique>
      </profile_COMMON>
    </effect>
  </library_effects>
  <library_materials>
    <material id="IfcMaterial-3732">
      <instance_effect url="#IfcMaterial-3732-fx"/>
    </material>
  </library_materials>
  <library_geometries>
    <geometry id="representation-1059909-material-3732">
      <mesh>
        <source id="representation-1059909-material-3732-positions">
          <float_array id="representation-1059909-material-3732-positions-array" count="72">-0.7023066311821687 8.217317402271874 2.919511023743351 -0.6523066311821688 8.217317402271874 2.919511023743351 -0.6523066311821688 7.067317402271871 3.555874660106988 -0.7023066311821687 7.067317402271871 3.555874660106988 -0.7023066311821687 7.067317402271871 3.555874660106988 -0.6523066311821688 7.067317402271871 3.555874660106988 -0.6523066311821688 7.067317402271872 3.098717017336075 -0.7023066311821687 7.067317402271872 3.098717017336075 -0.7023066311821687 7.067317402271872 3.098717017336075 -0.6523066311821688 7.067317402271872 3.098717017336075 -0.6523066311821688 8.217317402271874 2.462353380972438 -0.7023066311821687 8.217317402271874 2.462353380972438 -0.7023066311821687 8.217317402271874 2.462353380972438 -0.6523066311821688 8.217317402271874 2.462353380972438 -0.6523066311821688 8.217317402271874 2.919511023743351 -0.7023066311821687 8.217317402271874 2.919511023743351 -0.7023066311821687 8.217317402271874 2.919511023743351 -0.7023066311821687 7.067317402271871 3.555874660106988 -0.7023066311821687 7.067317402271872 3.098717017336075 -0.7023066311821687 8.217317402271874 2.462353380972438 -0.6523066311821688 8.217317402271874 2.919511023743351 -0.6523066311821688 7.067317402271871 3.555874660106988 -0.6523066311821688 7.067317402271872 3.098717017336075 -0.6523066311821688 8.217317402271874 2.462353380972438</float_array>
          <technique_common>
            <accessor source="#representation-1059909-material-3732-positions-array" count="24" stride="3">
              <param name="X" type="float"/>
              <param name="Y" type="float"/>
              <param name="Z" type="float"/>
            </accessor>
          </technique_common>
        </source>
        <source id="representation-1059909-material-3732-normals">
          <float_array id="representation-1059909-material-3732-normals-array" count="72">0 0.4841740634066232 0.8749717002991121 0 0.4841740634066232 0.8749717002991121 0 0.4841740634066232 0.8749717002991121 0 0.4841740634066232 0.8749717002991121 0 -1 -3.885780586188048e-16 0 -1 -3.885780586188048e-16 0 -1 -3.885780586188048e-16 0 -1 -3.885780586188048e-16 0 -0.4841740634066232 -0.8749717002991121 0 -0.4841740634066232 -0.8749717002991121 0 -0.4841740634066232 -0.8749717002991121 0 -0.4841740634066232 -0.8749717002991121 0 1 6.66133814775094e-16 0 1 6.66133814775094e-16 0 1 6.66133814775094e-16 0 1 6.66133814775094e-16 -1 0 0 -1 0 0 -1 0 0 -1 0 0 1 0 0 1 0 0 1 0 0 1 0 0</float_array>
          <technique_common>
            <accessor source="#representation-1059909-material-3732-normals-array" count="24" stride="3">
              <param name="X" type="float"/>
              <param name="Y" type="float"/>
              <param name="Z" type="float"/>
            </accessor>
          </technique_common>
        </source>
        <vertices id="representation-1059909-material-3732-vertices">
          <input semantic="POSITION" source="#representation-1059909-material-3732-positions"/>
        </vertices>
        <triangles material="IfcMaterial-3732" count="12">
          <input semantic="VERTEX" source="#representation-1059909-material-3732-vertices" offset="0"/>
          <input semantic="NORMAL" source="#representation-1059909-material-3732-normals" offset="1"/>
          <p>1 1 0 0 3 3 2 2 1 1 3 3 5 5 4 4 7 7 6 6 5 5 7 7 9 9 8 8 11 11 10 10 9 9 11 11 13 13 12 12 15 15 14 14 13 13 15 15 17 17 16 16 18 18 16 16 19 19 18 18 22 22 20 20 21 21 22 22 23 23 20 20</p>
        </triangles>
      </mesh>
    </geometry>
  </library_geometries>
  <library_visual_scenes>
    <visual_scene id="IfcOpenShell">
      <node id="project" name="project" type="NODE">
        <matrix>1 0 0 0 0 1 0 0 0 0 1 0 0 0 0 1</matrix>
        <node id="product-a61f50d9-1b06-47d0-9196-83196ee53d41" name="product-a61f50d9-1b06-47d0-9196-83196ee53d41" type="NODE">
          <matrix>1 0 0 -9.16521453857422 0 1 0 -1.61580014228821 0 0 1 -0.6543173789978029 0 0 0 1</matrix>
          <node id="product-a61f50d9-1b06-47d0-9196-83196ee53d42" name="product-a61f50d9-1b06-47d0-9196-83196ee53d42" type="NODE">
            <matrix>1 0 0 0 0 1 0 0 0 0 1 0 0 0 0 1</matrix>
            <node id="product-79503529-d2a7-11d3-9162-0000863f14a2" name="product-79503529-d2a7-11d3-9162-0000863f14a2" type="NODE">
              <matrix>1 0 0 0 0 1 0 0 0 0 1 0 0 0 0 1</matrix>
              <node id="product-23f27b65-2a18-4efe-9dcd-efa1bad834a2-body" name="product-23f27b65-2a18-4efe-9dcd-efa1bad834a2-body" type="NODE">
                <matrix>1 0 0 9.16521453857422 0 1 0 1.61580014228821 0 0 1 0.6543173789978029 0 0 0 1</matrix>
                <instance_geometry url="#representation-1059909-material-3732">
                  <bind_material>
                    <technique_common>
                      <instance_material symbol="IfcMaterial-3732" target="#IfcMaterial-3732"/>
                    </technique_common>
                  </bind_material>
                </instance_geometry>
              </node>
            </node>
          </node>
        </node>
      </node>
    </visual_scene>
  </library_visual_scenes>
  <scene>
    <instance_visual_scene url="#IfcOpenShell"/>
  </scene>
</COLLADA>