<?xml version="1.0" encoding="utf-8"?>
<COLLADA xmlns="http://www.collada.org/2005/11/COLLADASchema" version="1.4.1" xmlns:xsi="http://www.w3.org/2001/XMLSchema-instance">
  <asset>
    <contributor>
      <authoring_tool>IfcOpenShell 0.8.1-c49ca69</authoring_tool>
    </contributor>
    <created>2025-04-25T00:27:57</created>
    <modified>2025-04-25T00:27:57</modified>
    <unit name="METER" meter="1"/>
    <up_axis>Z_UP</up_axis>
  </asset>
  <library_effects>
    <effect id="IfcMaterial-3732-fx">
      <profile_COMMON>
        <technique sid="common">
          <lambert/>
        </technique>
      </profile_COMMON>
    </effect>
  </library_effects>
  <library_materials>
    <material id="IfcMaterial-3732">
      <instance_effect url="#IfcMaterial-3732-fx"/>
    </material>
  </library_materials>
  <library_geometries>
    <geometry id="representation-1059613-material-3732">
      <mesh>
        <source id="representation-1059613-material-3732-positions">
          <float_array id="representation-1059613-material-3732-positions-array" count="648">-0.6523066311821682 7.867317402271873 2.891304347826087 0.3476933688178316 7.867317402271873 2.891304347826087 0.3476933688178316 7.859103116557586 2.841304347826087 -0.6523066311821682 7.859103116557586 2.841304347826087 -0.6523066311821682 7.859103116557586 2.841304347826087 0.3476933688178316 7.859103116557586 2.841304347826087 0.3476933688178316 8.159103116557586 2.841304347826087 -0.6523066311821682 8.159103116557586 2.841304347826087 -0.6523066311821682 8.159103116557586 2.841304347826087 0.3476933688178316 8.159103116557586 2.841304347826087 0.3476933688178316 8.167317402271871 2.891304347826087 -0.6523066311821682 8.167317402271871 2.891304347826087 -0.6523066311821682 8.167317402271871 2.891304347826087 0.3476933688178316 8.167317402271871 2.891304347826087 0.3476933688178316 7.867317402271873 2.891304347826087 -0.6523066311821682 7.867317402271873 2.891304347826087 -0.6523066311821682 7.867317402271873 2.891304347826087 -0.6523066311821682 7.859103116557586 2.841304347826087 -0.6523066311821682 8.159103116557586 2.841304347826087 -0.6523066311821682 8.167317402271871 2.891304347826087 0.3476933688178316 7.867317402271873 2.891304347826087 0.3476933688178316 7.859103116557586 2.841304347826087 0.3476933688178316 8.159103116557586 2.841304347826087 0.3476933688178316 8.167317402271871 2.891304347826087 -0.652306631182168 8.159103116557586 2.841304347826087 0.3476933688178318 8.159103116557586 2.841304347826087 0.3476933688178318 8.146435553429176 2.841304347826087 -0.652306631182168 8.146435553429176 2.841304347826087 -0.652306631182168 8.146435553429176 2.841304347826087 0.3476933688178318 8.146435553429176 2.841304347826087 0.3476933688178318 8.121435553429178 2.689130434782609 -0.652306631182168 8.121435553429178 2.689130434782609 -0.652306631182168 8.121435553429178 2.689130434782609 0.3476933688178318 8.121435553429178 2.689130434782609 0.3476933688178318 8.134103116557588 2.689130434782609 -0.652306631182168 8.134103116557588 2.689130434782609 -0.652306631182168 8.134103116557588 2.689130434782609 0.3476933688178318 8.134103116557588 2.689130434782609 0.3476933688178318 8.159103116557586 2.841304347826087 -0.652306631182168 8.159103116557586 2.841304347826087 -0.652306631182168 8.159103116557586 2.841304347826087 -0.652306631182168 8.146435553429176 2.841304347826087 -0.652306631182168 8.121435553429178 2.689130434782609 -0.652306631182168 8.134103116557588 2.689130434782609 0.3476933688178318 8.159103116557586 2.841304347826087 0.3476933688178318 8.146435553429176 2.841304347826087 0.3476933688178318 8.121435553429178 2.689130434782609 0.3476933688178318 8.134103116557588 2.689130434782609 -0.6523066311821685 7.884103116557586 2.993478260869566 0.3476933688178316 7.884103116557586 2.993478260869566 0.3476933688178316 7.871435553429177 2.993478260869566 -0.6523066311821685 7.871435553429177 2.993478260869566 -0.6523066311821685 7.871435553429177 2.993478260869566 0.3476933688178316 7.871435553429177 2.993478260869566 0.3476933688178316 7.846435553429177 2.841304347826087 -0.6523066311821685 7.846435553429177 2.841304347826087 -0.6523066311821685 7.846435553429177 2.841304347826087 0.3476933688178316 7.846435553429177 2.841304347826087 0.3476933688178316 7.859103116557586 2.841304347826087 -0.6523066311821685 7.859103116557586 2.841304347826087 -0.6523066311821685 7.859103116557586 2.841304347826087 0.3476933688178316 7.859103116557586 2.841304347826087 0.3476933688178316 7.884103116557586 2.993478260869566 -0.6523066311821685 7.884103116557586 2.993478260869566 -0.6523066311821685 7.884103116557586 2.993478260869566 -0.6523066311821685 7.871435553429177 2.993478260869566 -0.6523066311821685 7.846435553429177 2.841304347826087 -0.6523066311821685 7.859103116557586 2.841304347826087 0.3476933688178316 7.884103116557586 2.993478260869566 0.3476933688178316 7.871435553429177 2.993478260869566 0.3476933688178316 7.846435553429177 2.841304347826087 0.3476933688178316 7.859103116557586 2.841304347826087 -0.6523066311821688 7.592317402271872 3.043478260869565 0.347693368817831 7.592317402271872 3.043478260869565 0.347693368817831 7.584103116557586 2.993478260869565 -0.6523066311821688 7.584103116557586 2.993478260869565 -0.6523066311821688 7.584103116557586 2.993478260869565 0.347693368817831 7.584103116557586 2.993478260869565 0.347693368817831 7.884103116557586 2.993478260869565 -0.6523066311821688 7.884103116557586 2.993478260869565 -0.6523066311821688 7.884103116557586 2.993478260869565 0.347693368817831 7.884103116557586 2.993478260869565 0.347693368817831 7.892317402271871 3.043478260869565 -0.6523066311821688 7.892317402271871 3.043478260869565 -0.6523066311821688 7.892317402271871 3.043478260869565 0.347693368817831 7.892317402271871 3.043478260869565 0.347693368817831 7.592317402271872 3.043478260869565 -0.6523066311821688 7.592317402271872 3.043478260869565 -0.6523066311821688 7.592317402271872 3.043478260869565 -0.6523066311821688 7.584103116557586 2.993478260869565 -0.6523066311821688 7.884103116557586 2.993478260869565 -0.6523066311821688 7.892317402271871 3.043478260869565 0.347693368817831 7.592317402271872 3.043478260869565 0.347693368817831 7.584103116557586 2.993478260869565 0.347693368817831 7.884103116557586 2.993478260869565 0.347693368817831 7.892317402271871 3.043478260869565 -0.6523066311821689 7.609103116557586 3.145652173913044 0.3476933688178313 7.609103116557586 3.145652173913044 0.3476933688178313 7.596435553429177 3.145652173913044 -0.6523066311821689 7.596435553429177 3.145652173913044 -0.6523066311821689 7.596435553429177 3.145652173913044 0.3476933688178313 7.596435553429177 3.145652173913044 0.3476933688178313 7.571435553429178 2.993478260869565 -0.6523066311821689 7.571435553429178 2.993478260869565 -0.6523066311821689 7.571435553429178 2.993478260869565 0.3476933688178313 7.571435553429178 2.993478260869565 0.3476933688178313 7.584103116557587 2.993478260869565 -0.6523066311821689 7.584103116557587 2.993478260869565 -0.6523066311821689 7.584103116557587 2.993478260869565 0.3476933688178313 7.584103116557587 2.993478260869565 0.3476933688178313 7.609103116557586 3.145652173913044 -0.6523066311821689 7.609103116557586 3.145652173913044 -0.6523066311821689 7.609103116557586 3.145652173913044 -0.6523066311821689 7.596435553429177 3.145652173913044 -0.6523066311821689 7.571435553429178 2.993478260869565 -0.6523066311821689 7.584103116557587 2.993478260869565 0.3476933688178313 7.609103116557586 3.145652173913044 0.3476933688178313 7.596435553429177 3.145652173913044 0.3476933688178313 7.571435553429178 2.993478260869565 0.3476933688178313 7.584103116557587 2.993478260869565 -0.6523066311821692 7.317317402271872 3.195652173913044 0.3476933688178306 7.317317402271872 3.195652173913044 0.3476933688178306 7.309103116557587 3.145652173913044 -0.6523066311821692 7.309103116557587 3.145652173913044 -0.6523066311821692 7.309103116557587 3.145652173913044 0.3476933688178306 7.309103116557587 3.145652173913044 0.3476933688178306 7.609103116557586 3.145652173913044 -0.6523066311821692 7.609103116557586 3.145652173913044 -0.6523066311821692 7.609103116557586 3.145652173913044 0.3476933688178306 7.609103116557586 3.145652173913044 0.3476933688178306 7.617317402271871 3.195652173913044 -0.6523066311821692 7.617317402271871 3.195652173913044 -0.6523066311821692 7.617317402271871 3.195652173913044 0.3476933688178306 7.617317402271871 3.195652173913044 0.3476933688178306 7.317317402271872 3.195652173913044 -0.6523066311821692 7.317317402271872 3.195652173913044 -0.6523066311821692 7.317317402271872 3.195652173913044 -0.6523066311821692 7.309103116557587 3.145652173913044 -0.6523066311821692 7.609103116557586 3.145652173913044 -0.6523066311821692 7.617317402271871 3.195652173913044 0.3476933688178306 7.317317402271872 3.195652173913044 0.3476933688178306 7.309103116557587 3.145652173913044 0.3476933688178306 7.609103116557586 3.145652173913044 0.3476933688178306 7.617317402271871 3.195652173913044 -0.6523066311821693 7.334103116557586 3.297826086956522 0.3476933688178305 7.334103116557586 3.297826086956522 0.3476933688178305 7.321435553429177 3.297826086956522 -0.6523066311821693 7.321435553429177 3.297826086956522 -0.6523066311821693 7.321435553429177 3.297826086956522 0.3476933688178305 7.321435553429177 3.297826086956522 0.3476933688178305 7.296435553429177 3.145652173913044 -0.6523066311821693 7.296435553429177 3.145652173913044 -0.6523066311821693 7.296435553429177 3.145652173913044 0.3476933688178305 7.296435553429177 3.145652173913044 0.3476933688178305 7.309103116557587 3.145652173913044 -0.6523066311821693 7.309103116557587 3.145652173913044 -0.6523066311821693 7.309103116557587 3.145652173913044 0.3476933688178305 7.309103116557587 3.145652173913044 0.3476933688178305 7.334103116557586 3.297826086956522 -0.6523066311821693 7.334103116557586 3.297826086956522 -0.6523066311821693 7.334103116557586 3.297826086956522 -0.6523066311821693 7.321435553429177 3.297826086956522 -0.6523066311821693 7.296435553429177 3.145652173913044 -0.6523066311821693 7.309103116557587 3.145652173913044 0.3476933688178305 7.334103116557586 3.297826086956522 0.3476933688178305 7.321435553429177 3.297826086956522 0.3476933688178305 7.296435553429177 3.145652173913044 0.3476933688178305 7.309103116557587 3.145652173913044 -0.6523066311821698 7.059103116557587 3.45 0.3476933688178304 7.059103116557587 3.45 0.3476933688178304 7.046435553429178 3.45 -0.6523066311821698 7.046435553429178 3.45 -0.6523066311821698 7.046435553429178 3.45 0.3476933688178304 7.046435553429178 3.45 0.3476933688178304 7.021435553429179 3.297826086956522 -0.6523066311821698 7.021435553429179 3.297826086956522 -0.6523066311821698 7.021435553429179 3.297826086956522 0.3476933688178304 7.021435553429179 3.297826086956522 0.3476933688178304 7.034103116557587 3.297826086956522 -0.6523066311821698 7.034103116557587 3.297826086956522 -0.6523066311821698 7.034103116557587 3.297826086956522 0.3476933688178304 7.034103116557587 3.297826086956522 0.3476933688178304 7.059103116557587 3.45 -0.6523066311821698 7.059103116557587 3.45 -0.6523066311821698 7.059103116557587 3.45 -0.6523066311821698 7.046435553429178 3.45 -0.6523066311821698 7.021435553429179 3.297826086956522 -0.6523066311821698 7.034103116557587 3.297826086956522 0.3476933688178304 7.059103116557587 3.45 0.3476933688178304 7.046435553429178 3.45 0.3476933688178304 7.021435553429179 3.297826086956522 0.3476933688178304 7.034103116557587 3.297826086956522 -0.6523066311821695 7.042317402271874 3.347826086956522 0.3476933688178303 7.042317402271874 3.347826086956522 0.3476933688178303 7.034103116557587 3.297826086956522 -0.6523066311821695 7.034103116557587 3.297826086956522 -0.6523066311821695 7.034103116557587 3.297826086956522 0.3476933688178303 7.034103116557587 3.297826086956522 0.3476933688178303 7.334103116557588 3.297826086956522 -0.6523066311821695 7.334103116557588 3.297826086956522 -0.6523066311821695 7.334103116557588 3.297826086956522 0.3476933688178303 7.334103116557588 3.297826086956522 0.3476933688178303 7.342317402271873 3.347826086956522 -0.6523066311821695 7.342317402271873 3.347826086956522 -0.6523066311821695 7.342317402271873 3.347826086956522 0.3476933688178303 7.342317402271873 3.347826086956522 0.3476933688178303 7.042317402271874 3.347826086956522 -0.6523066311821695 7.042317402271874 3.347826086956522 -0.6523066311821695 7.042317402271874 3.347826086956522 -0.6523066311821695 7.034103116557587 3.297826086956522 -0.6523066311821695 7.334103116557588 3.297826086956522 -0.6523066311821695 7.342317402271873 3.347826086956522 0.3476933688178303 7.042317402271874 3.347826086956522 0.3476933688178303 7.034103116557587 3.297826086956522 0.3476933688178303 7.334103116557588 3.297826086956522 0.3476933688178303 7.342317402271873 3.347826086956522</float_array>
          <technique_common>
            <accessor source="#representation-1059613-material-3732-positions-array" count="216" stride="3">
              <param name="X" type="float"/>
              <param name="Y" type="float"/>
              <param name="Z" type="float"/>
            </accessor>
          </technique_common>
        </source>
        <source id="representation-1059613-material-3732-normals">
          <float_array id="representation-1059613-material-3732-normals-array" count="648">0 -0.9867722681378304 0.1621125869083637 0 -0.9867722681378304 0.1621125869083637 0 -0.9867722681378304 0.1621125869083637 0 -0.9867722681378304 0.1621125869083637 0 0 -1 0 0 -1 0 0 -1 0 0 -1 0 0.9867722681378338 -0.1621125869083431 0 0.9867722681378338 -0.1621125869083431 0 0.9867722681378338 -0.1621125869083431 0 0.9867722681378338 -0.1621125869083431 0 0 1 0 0 1 0 0 1 0 0 1 -1 0 0 -1 0 0 -1 0 0 -1 0 0 1 0 0 1 0 0 1 0 0 1 0 0 0 0 1 0 0 1 0 0 1 0 0 1 0 -0.9867722681378316 0.1621125869083562 0 -0.9867722681378316 0.1621125869083562 0 -0.9867722681378316 0.1621125869083562 0 -0.9867722681378316 0.1621125869083562 0 0 -1 0 0 -1 0 0 -1 0 0 -1 0 0.9867722681378316 -0.1621125869083562 0 0.9867722681378316 -0.1621125869083562 0 0.9867722681378316 -0.1621125869083562 0 0.9867722681378316 -0.1621125869083562 -1 0 0 -1 0 0 -1 0 0 -1 0 0 1 0 0 1 0 0 1 0 0 1 0 0 0 0 1 0 0 1 0 0 1 0 0 1 0 -0.9867722681378316 0.1621125869083562 0 -0.9867722681378316 0.1621125869083562 0 -0.9867722681378316 0.1621125869083562 0 -0.9867722681378316 0.1621125869083562 0 0 -1 0 0 -1 0 0 -1 0 0 -1 0 0.9867722681378316 -0.1621125869083562 0 0.9867722681378316 -0.1621125869083562 0 0.9867722681378316 -0.1621125869083562 0 0.9867722681378316 -0.1621125869083562 -1 0 0 -1 0 0 -1 0 0 -1 0 0 1 0 0 1 0 0 1 0 0 1 0 0 0 -0.9867722681378303 0.1621125869083642 0 -0.9867722681378303 0.1621125869083642 0 -0.9867722681378303 0.1621125869083642 0 -0.9867722681378303 0.1621125869083642 0 0 -1 0 0 -1 0 0 -1 0 0 -1 0 0.9867722681378339 -0.1621125869083426 0 0.9867722681378339 -0.1621125869083426 0 0.9867722681378339 -0.1621125869083426 0 0.9867722681378339 -0.1621125869083426 0 0 1 0 0 1 0 0 1 0 0 1 -1 0 0 -1 0 0 -1 0 0 -1 0 0 1 0 0 1 0 0 1 0 0 1 0 0 0 0 1 0 0 1 0 0 1 0 0 1 0 -0.9867722681378316 0.1621125869083562 0 -0.9867722681378316 0.1621125869083562 0 -0.9867722681378316 0.1621125869083562 0 -0.9867722681378316 0.1621125869083562 0 0 -1 0 0 -1 0 0 -1 0 0 -1 0 0.9867722681378316 -0.1621125869083562 0 0.9867722681378316 -0.1621125869083562 0 0.9867722681378316 -0.1621125869083562 0 0.9867722681378316 -0.1621125869083562 -1 0 0 -1 0 0 -1 0 0 -1 0 0 1 0 0 1 0 0 1 0 0 1 0 0 0 -0.9867722681378303 0.1621125869083642 0 -0.9867722681378303 0.1621125869083642 0 -0.9867722681378303 0.1621125869083642 0 -0.9867722681378303 0.1621125869083642 0 0 -1 0 0 -1 0 0 -1 0 0 -1 0 0.9867722681378339 -0.1621125869083426 0 0.9867722681378339 -0.1621125869083426 0 0.9867722681378339 -0.1621125869083426 0 0.9867722681378339 -0.1621125869083426 0 0 1 0 0 1 0 0 1 0 0 1 -1 0 0 -1 0 0 -1 0 0 -1 0 0 1 0 0 1 0 0 1 0 0 1 0 0 0 0 1 0 0 1 0 0 1 0 0 1 0 -0.9867722681378316 0.1621125869083562 0 -0.9867722681378316 0.1621125869083562 0 -0.9867722681378316 0.1621125869083562 0 -0.9867722681378316 0.1621125869083562 0 0 -1 0 0 -1 0 0 -1 0 0 -1 0 0.9867722681378316 -0.1621125869083562 0 0.9867722681378316 -0.1621125869083562 0 0.9867722681378316 -0.1621125869083562 0 0.9867722681378316 -0.1621125869083562 -1 0 0 -1 0 0 -1 0 0 -1 0 0 1 0 0 1 0 0 1 0 0 1 0 0 0 0 1 0 0 1 0 0 1 0 0 1 0 -0.9867722681378316 0.1621125869083562 0 -0.9867722681378316 0.1621125869083562 0 -0.9867722681378316 0.1621125869083562 0 -0.9867722681378316 0.1621125869083562 0 0 -1 0 0 -1 0 0 -1 0 0 -1 0 0.9867722681378304 -0.1621125869083631 0 0.9867722681378304 -0.1621125869083631 0 0.9867722681378304 -0.1621125869083631 0 0.9867722681378304 -0.1621125869083631 -1 0 0 -1 0 0 -1 0 0 -1 0 0 1 0 0 1 0 0 1 0 0 1 0 0 0 -0.9867722681378304 0.1621125869083637 0 -0.9867722681378304 0.1621125869083637 0 -0.9867722681378304 0.1621125869083637 0 -0.9867722681378304 0.1621125869083637 0 0 -1 0 0 -1 0 0 -1 0 0 -1 0 0.9867722681378338 -0.1621125869083431 0 0.9867722681378338 -0.1621125869083431 0 0.9867722681378338 -0.1621125869083431 0 0.9867722681378338 -0.1621125869083431 0 0 1 0 0 1 0 0 1 0 0 1 -1 0 0 -1 0 0 -1 0 0 -1 0 0 1 0 0 1 0 0 1 0 0 1 0 0</float_array>
          <technique_common>
            <accessor source="#representation-1059613-material-3732-normals-array" count="216" stride="3">
              <param name="X" type="float"/>
              <param name="Y" type="float"/>
              <param name="Z" type="float"/>
            </accessor>
          </technique_common>
        </source>
        <vertices id="representation-1059613-material-3732-vertices">
          <input semantic="POSITION" source="#representation-1059613-material-3732-positions"/>
        </vertices>
        <triangles material="IfcMaterial-3732" count="108">
          <input semantic="VERTEX" source="#representation-1059613-material-3732-vertices" offset="0"/>
          <input semantic="NORMAL" source="#representation-1059613-material-3732-normals" offset="1"/>
          <p>1 1 0 0 3 3 2 2 1 1 3 3 5 5 4 4 7 7 6 6 5 5 7 7 9 9 8 8 11 11 10 10 9 9 11 11 13 13 12 12 15 15 14 14 13 13 15 15 17 17 16 16 18 18 16 16 19 19 18 18 22 22 20 20 21 21 22 22 23 23 20 20 25 25 24 24 27 27 26 26 25 25 27 27 29 29 28 28 31 31 30 30 29 29 31 31 33 33 32 32 35 35 34 34 33 33 35 35 37 37 36 36 39 39 38 38 37 37 39 39 41 41 40 40 43 43 41 41 43 43 42 42 47 47 44 44 45 45 46 46 47 47 45 45 49 49 48 48 51 51 50 50 49 49 51 51 53 53 52 52 55 55 54 54 53 53 55 55 57 57 56 56 59 59 58 58 57 57 59 59 61 61 60 60 63 63 62 62 61 61 63 63 65 65 64 64 67 67 65 65 67 67 66 66 71 71 68 68 69 69 70 70 71 71 69 69 73 73 72 72 75 75 74 74 73 73 75 75 77 77 76 76 79 79 78 78 77 77 79 79 81 81 80 80 83 83 82 82 81 81 83 83 85 85 84 84 87 87 86 86 85 85 87 87 89 89 88 88 90 90 88 88 91 91 90 90 94 94 92 92 93 93 94 94 95 95 92 92 97 97 96 96 99 99 98 98 97 97 99 99 101 101 100 100 103 103 102 102 101 101 103 103 105 105 104 104 107 107 106 106 105 105 107 107 109 109 108 108 111 111 110 110 109 109 111 111 113 113 112 112 115 115 113 113 115 115 114 114 119 119 116 116 117 117 118 118 119 119 117 117 121 121 120 120 123 123 122 122 121 121 123 123 125 125 124 124 127 127 126 126 125 125 127 127 129 129 128 128 131 131 130 130 129 129 131 131 133 133 132 132 135 135 134 134 133 133 135 135 137 137 136 136 138 138 136 136 139 139 138 138 142 142 140 140 141 141 142 142 143 143 140 140 145 145 144 144 147 147 146 146 145 145 147 147 149 149 148 148 151 151 150 150 149 149 151 151 153 153 152 152 155 155 154 154 153 153 155 155 157 157 156 156 159 159 158 158 157 157 159 159 161 161 160 160 163 163 161 161 163 163 162 162 167 167 164 164 165 165 166 166 167 167 165 165 169 169 168 168 171 171 170 170 169 169 171 171 173 173 172 172 175 175 174 174 173 173 175 175 177 177 176 176 179 179 178 178 177 177 179 179 181 181 180 180 183 183 182 182 181 181 183 183 185 185 184 184 187 187 185 185 187 187 186 186 191 191 188 188 189 189 190 190 191 191 189 189 193 193 192 192 195 195 194 194 193 193 195 195 197 197 196 196 199 199 198 198 197 197 199 199 201 201 200 200 203 203 202 202 201 201 203 203 205 205 204 204 207 207 206 206 205 205 207 207 209 209 208 208 210 210 208 208 211 211 210 210 214 214 212 212 213 213 214 214 215 215 212 212</p>
        </triangles>
      </mesh>
    </geometry>
  </library_geometries>
  <library_visual_scenes>
    <visual_scene id="IfcOpenShell">
      <node id="project" name="project" type="NODE">
        <matrix>1 0 0 0 0 1 0 0 0 0 1 0 0 0 0 1</matrix>
        <node id="product-a61f50d9-1b06-47d0-9196-83196ee53d41" name="product-a61f50d9-1b06-47d0-9196-83196ee53d41" type="NODE">
          <matrix>1 0 0 -9.16521453857422 0 1 0 -1.61580014228821 0 0 1 -0.6543173789978029 0 0 0 1</matrix>
          <node id="product-a61f50d9-1b06-47d0-9196-83196ee53d42" name="product-a61f50d9-1b06-47d0-9196-83196ee53d42" type="NODE">
            <matrix>1 0 0 0 0 1 0 0 0 0 1 0 0 0 0 1</matrix>
            <node id="product-79503529-d2a7-11d3-9162-0000863f14a2" name="product-79503529-d2a7-11d3-9162-0000863f14a2" type="NODE">
              <matrix>1 0 0 0 0 1 0 0 0 0 1 0 0 0 0 1</matrix>
              <node id="product-23f27b65-2a18-4efe-9dcd-efa1bad834bf-body" name="product-23f27b65-2a18-4efe-9dcd-efa1bad834bf-body" type="NODE">
                <matrix>1 0 0 9.16521453857422 0 1 0 1.61580014228821 0 0 1 0.6543173789978029 0 0 0 1</matrix>
                <instance_geometry url="#representation-1059613-material-3732">
                  <bind_material>
                    <technique_common>
                      <instance_material symbol="IfcMaterial-3732" target="#IfcMaterial-3732"/>
                    </technique_common>
                  </bind_material>
                </instance_geometry>
              </node>
            </node>
          </node>
        </node>
      </node>
    </visual_scene>
  </library_visual_scenes>
  <scene>
    <instance_visual_scene url="#IfcOpenShell"/>
  </scene>
</COLLADA>