<?xml version="1.0" encoding="utf-8"?>
<COLLADA xmlns="http://www.collada.org/2005/11/COLLADASchema" version="1.4.1" xmlns:xsi="http://www.w3.org/2001/XMLSchema-instance">
  <asset>
    <contributor>
      <authoring_tool>IfcOpenShell 0.8.1-c49ca69</authoring_tool>
    </contributor>
    <created>2025-04-25T00:28:03</created>
    <modified>2025-04-25T00:28:03</modified>
    <unit name="METER" meter="1"/>
    <up_axis>Z_UP</up_axis>
  </asset>
  <library_effects>
    <effect id="IfcMaterial-3732-fx">
      <profile_COMMON>
        <technique sid="common">
          <lambert/>
        </technique>
      </profile_COMMON>
    </effect>
  </library_effects>
  <library_materials>
    <material id="IfcMaterial-3732">
      <instance_effect url="#IfcMaterial-3732-fx"/>
    </material>
  </library_materials>
  <library_geometries>
    <geometry id="representation-1059258-material-3732">
      <mesh>
        <source id="representation-1059258-material-3732-positions">
          <float_array id="representation-1059258-material-3732-positions-array" count="1836">0 0.3 0.1521739130434782 1 0.3 0.1521739130434782 1 0.3082142857142862 0.1021739130434782 0 0.3082142857142881 0.1021739130434782 0 0.3 0.1521739130434782 1 0.3 0.1521739130434782 0 0 0.1521739130434782 1 0 0.1521739130434782 0 0.008214285714287061 0.1021739130434782 0 0.3082142857142881 0.1021739130434782 1 0.3082142857142862 0.1021739130434782 1 0.008214285714285285 0.1021739130434782 0 0.008214285714287061 0.1021739130434782 0 0 0.1521739130434782 0 0.3 0.1521739130434782 0 0.3082142857142881 0.1021739130434782 1 0.3082142857142862 0.1021739130434782 1 0.3 0.1521739130434782 1 0 0.1521739130434782 1 0.008214285714285285 0.1021739130434782 1 0.008214285714285285 0.1021739130434782 1 0 0.1521739130434782 0 0 0.1521739130434782 0 0.008214285714287061 0.1021739130434782 1 0.02088184884269495 0.1021739130434782 1 0.008214285714285285 0.1021739130434782 1 0.02499999999999991 0 1 0.03766756312840879 0 0 0.02499999999999991 0 0 0.008214285714287061 0.1021739130434782 0 0.02088184884269683 0.1021739130434782 0 0.03766756312841146 0 0 0.02499999999999991 0 1 0.02499999999999991 0 1 0.008214285714285285 0.1021739130434782 0 0.008214285714287061 0.1021739130434782 0 0.03766756312841146 0 1 0.03766756312840879 0 1 0.02499999999999991 0 0 0.02499999999999991 0 0 0.02088184884269683 0.1021739130434782 1 0.02088184884269495 0.1021739130434782 1 0.03766756312840879 0 0 0.03766756312841146 0 0 0.008214285714287061 0.1021739130434782 1 0.008214285714285285 0.1021739130434782 1 0.02088184884269495 0.1021739130434782 0 0.02088184884269683 0.1021739130434782 1 0.2958818488426968 0.2543478260869566 1 0.2832142857142871 0.2543478260869566 1 0.3082142857142862 0.1021739130434782 1 0.3208818488426959 0.1021739130434782 0 0.3082142857142881 0.1021739130434782 0 0.283214285714288 0.2543478260869566 0 0.2958818488426977 0.2543478260869566 0 0.3208818488426977 0.1021739130434782 0 0.3082142857142881 0.1021739130434782 1 0.3082142857142862 0.1021739130434782 1 0.2832142857142871 0.2543478260869566 0 0.283214285714288 0.2543478260869566 0 0.3208818488426977 0.1021739130434782 1 0.3208818488426959 0.1021739130434782 1 0.3082142857142862 0.1021739130434782 0 0.3082142857142881 0.1021739130434782 0 0.2958818488426977 0.2543478260869566 1 0.2958818488426968 0.2543478260869566 1 0.3208818488426959 0.1021739130434782 0 0.3208818488426977 0.1021739130434782 0 0.283214285714288 0.2543478260869566 1 0.2832142857142871 0.2543478260869566 1 0.2958818488426968 0.2543478260869566 0 0.2958818488426977 0.2543478260869566 1 0.575 0.3043478260869565 0 0.575 0.3043478260869565 0 0.275 0.3043478260869565 1 0.275 0.3043478260869565 0 0.283214285714288 0.2543478260869566 0 0.5832142857142871 0.2543478260869566 1 0.5832142857142844 0.2543478260869566 1 0.2832142857142871 0.2543478260869566 0 0.283214285714288 0.2543478260869566 0 0.275 0.3043478260869565 0 0.575 0.3043478260869565 0 0.5832142857142871 0.2543478260869566 1 0.5832142857142844 0.2543478260869566 1 0.575 0.3043478260869565 1 0.275 0.3043478260869565 1 0.2832142857142871 0.2543478260869566 1 0.575 0.3043478260869565 0 0.575 0.3043478260869565 1 0.5832142857142844 0.2543478260869566 0 0.5832142857142871 0.2543478260869566 1 0.2832142857142871 0.2543478260869566 1 0.275 0.3043478260869565 0 0.275 0.3043478260869565 0 0.283214285714288 0.2543478260869566 1 0.5708818488426968 0.4065217391304348 1 0.5582142857142871 0.4065217391304348 1 0.5832142857142871 0.2543478260869566 1 0.5958818488426969 0.2543478260869566 0 0.583214285714288 0.2543478260869566 0 0.5582142857142881 0.4065217391304348 0 0.5708818488426977 0.4065217391304348 0 0.5958818488426977 0.2543478260869566 0 0.583214285714288 0.2543478260869566 1 0.5832142857142871 0.2543478260869566 1 0.5582142857142871 0.4065217391304348 0 0.5582142857142881 0.4065217391304348 0 0.5958818488426977 0.2543478260869566 1 0.5958818488426969 0.2543478260869566 1 0.5832142857142871 0.2543478260869566 0 0.583214285714288 0.2543478260869566 0 0.5708818488426977 0.4065217391304348 1 0.5708818488426968 0.4065217391304348 1 0.5958818488426969 0.2543478260869566 0 0.5958818488426977 0.2543478260869566 0 0.5582142857142881 0.4065217391304348 1 0.5582142857142871 0.4065217391304348 1 0.5708818488426968 0.4065217391304348 0 0.5708818488426977 0.4065217391304348 1 0.8499999999999999 0.4565217391304348 0 0.8499999999999999 0.4565217391304348 0 0.55 0.4565217391304348 1 0.55 0.4565217391304348 0 0.5582142857142881 0.4065217391304348 0 0.8582142857142871 0.4065217391304348 1 0.8582142857142853 0.4065217391304348 1 0.5582142857142871 0.4065217391304348 0 0.5582142857142881 0.4065217391304348 0 0.55 0.4565217391304348 0 0.8499999999999999 0.4565217391304348 0 0.8582142857142871 0.4065217391304348 1 0.8582142857142853 0.4065217391304348 1 0.8499999999999999 0.4565217391304348 1 0.55 0.4565217391304348 1 0.5582142857142871 0.4065217391304348 1 0.8499999999999999 0.4565217391304348 0 0.8499999999999999 0.4565217391304348 1 0.8582142857142853 0.4065217391304348 0 0.8582142857142871 0.4065217391304348 1 0.5582142857142871 0.4065217391304348 1 0.55 0.4565217391304348 0 0.55 0.4565217391304348 0 0.5582142857142881 0.4065217391304348 1 0.8458818488426969 0.5586956521739131 1 0.8332142857142871 0.5586956521739131 1 0.8582142857142871 0.4065217391304348 1 0.8708818488426969 0.4065217391304348 0 0.858214285714288 0.4065217391304348 0 0.833214285714288 0.5586956521739131 0 0.8458818488426986 0.5586956521739131 0 0.8708818488426978 0.4065217391304348 0 0.858214285714288 0.4065217391304348 1 0.8582142857142871 0.4065217391304348 1 0.8332142857142871 0.5586956521739131 0 0.833214285714288 0.5586956521739131 0 0.8708818488426978 0.4065217391304348 1 0.8708818488426969 0.4065217391304348 1 0.8582142857142871 0.4065217391304348 0 0.858214285714288 0.4065217391304348 0 0.8458818488426986 0.5586956521739131 1 0.8458818488426969 0.5586956521739131 1 0.8708818488426969 0.4065217391304348 0 0.8708818488426978 0.4065217391304348 0 0.833214285714288 0.5586956521739131 1 0.8332142857142871 0.5586956521739131 1 0.8458818488426969 0.5586956521739131 0 0.8458818488426986 0.5586956521739131 1 1.125 0.608695652173913 0 1.125 0.608695652173913 0 0.825 0.608695652173913 1 0.825 0.608695652173913 0 0.833214285714288 0.5586956521739131 0 1.133214285714287 0.5586956521739131 1 1.133214285714285 0.5586956521739131 1 0.8332142857142871 0.5586956521739131 0 0.833214285714288 0.5586956521739131 0 0.825 0.608695652173913 0 1.125 0.608695652173913 0 1.133214285714287 0.5586956521739131 1 1.133214285714285 0.5586956521739131 1 1.125 0.608695652173913 1 0.825 0.608695652173913 1 0.8332142857142871 0.5586956521739131 1 1.125 0.608695652173913 0 1.125 0.608695652173913 1 1.133214285714285 0.5586956521739131 0 1.133214285714287 0.5586956521739131 1 0.8332142857142871 0.5586956521739131 1 0.825 0.608695652173913 0 0.825 0.608695652173913 0 0.833214285714288 0.5586956521739131 1 1.120881848842698 0.7108695652173914 1 1.108214285714288 0.7108695652173914 1 1.133214285714287 0.5586956521739131 1 1.145881848842697 0.5586956521739131 0 1.133214285714288 0.5586956521739131 0 1.108214285714289 0.7108695652173914 0 1.120881848842699 0.7108695652173914 0 1.145881848842699 0.5586956521739131 0 1.133214285714288 0.5586956521739131 1 1.133214285714287 0.5586956521739131 1 1.108214285714288 0.7108695652173914 0 1.108214285714289 0.7108695652173914 0 1.145881848842699 0.5586956521739131 1 1.145881848842697 0.5586956521739131 1 1.133214285714287 0.5586956521739131 0 1.133214285714288 0.5586956521739131 0 1.120881848842699 0.7108695652173914 1 1.120881848842698 0.7108695652173914 1 1.145881848842697 0.5586956521739131 0 1.145881848842699 0.5586956521739131 0 1.108214285714289 0.7108695652173914 1 1.108214285714288 0.7108695652173914 1 1.120881848842698 0.7108695652173914 0 1.120881848842699 0.7108695652173914 1 1.4 0.7608695652173913 0 1.4 0.7608695652173913 0 1.1 0.7608695652173913 1 1.1 0.7608695652173913 0 1.108214285714289 0.7108695652173914 0 1.408214285714288 0.7108695652173914 1 1.408214285714285 0.7108695652173914 1 1.108214285714288 0.7108695652173914 0 1.108214285714289 0.7108695652173914 0 1.1 0.7608695652173913 0 1.4 0.7608695652173913 0 1.408214285714288 0.7108695652173914 1 1.408214285714285 0.7108695652173914 1 1.4 0.7608695652173913 1 1.1 0.7608695652173913 1 1.108214285714288 0.7108695652173914 1 1.4 0.7608695652173913 0 1.4 0.7608695652173913 1 1.408214285714285 0.7108695652173914 0 1.408214285714288 0.7108695652173914 1 1.108214285714288 0.7108695652173914 1 1.1 0.7608695652173913 0 1.1 0.7608695652173913 0 1.108214285714289 0.7108695652173914 1 1.395881848842698 0.8630434782608696 1 1.383214285714288 0.8630434782608696 1 1.408214285714288 0.7108695652173914 1 1.420881848842698 0.7108695652173914 0 1.408214285714289 0.7108695652173914 0 1.383214285714289 0.8630434782608696 0 1.395881848842699 0.8630434782608696 0 1.420881848842699 0.7108695652173914 0 1.408214285714289 0.7108695652173914 1 1.408214285714288 0.7108695652173914 1 1.383214285714288 0.8630434782608696 0 1.383214285714289 0.8630434782608696 0 1.420881848842699 0.7108695652173914 1 1.420881848842698 0.7108695652173914 1 1.408214285714288 0.7108695652173914 0 1.408214285714289 0.7108695652173914 0 1.395881848842699 0.8630434782608696 1 1.395881848842698 0.8630434782608696 1 1.420881848842698 0.7108695652173914 0 1.420881848842699 0.7108695652173914 0 1.383214285714289 0.8630434782608696 1 1.383214285714288 0.8630434782608696 1 1.395881848842698 0.8630434782608696 0 1.395881848842699 0.8630434782608696 1 1.675 0.9130434782608696 0 1.675 0.9130434782608696 0 1.375 0.9130434782608696 1 1.375 0.9130434782608696 0 1.383214285714289 0.8630434782608696 0 1.683214285714288 0.8630434782608696 1 1.683214285714286 0.8630434782608696 1 1.383214285714288 0.8630434782608696 0 1.383214285714289 0.8630434782608696 0 1.375 0.9130434782608696 0 1.675 0.9130434782608696 0 1.683214285714288 0.8630434782608696 1 1.683214285714286 0.8630434782608696 1 1.675 0.9130434782608696 1 1.375 0.9130434782608696 1 1.383214285714288 0.8630434782608696 1 1.675 0.9130434782608696 0 1.675 0.9130434782608696 1 1.683214285714286 0.8630434782608696 0 1.683214285714288 0.8630434782608696 1 1.383214285714288 0.8630434782608696 1 1.375 0.9130434782608696 0 1.375 0.9130434782608696 0 1.383214285714289 0.8630434782608696 1 1.670881848842696 1.015217391304348 1 1.658214285714286 1.015217391304348 1 1.683214285714286 0.8630434782608696 1 1.695881848842696 0.8630434782608696 0 1.683214285714287 0.8630434782608696 0 1.658214285714287 1.015217391304348 0 1.670881848842697 1.015217391304348 0 1.695881848842697 0.8630434782608696 0 1.683214285714287 0.8630434782608696 1 1.683214285714286 0.8630434782608696 1 1.658214285714286 1.015217391304348 0 1.658214285714287 1.015217391304348 0 1.695881848842697 0.8630434782608696 1 1.695881848842696 0.8630434782608696 1 1.683214285714286 0.8630434782608696 0 1.683214285714287 0.8630434782608696 0 1.670881848842697 1.015217391304348 1 1.670881848842696 1.015217391304348 1 1.695881848842696 0.8630434782608696 0 1.695881848842697 0.8630434782608696 0 1.658214285714287 1.015217391304348 1 1.658214285714286 1.015217391304348 1 1.670881848842696 1.015217391304348 0 1.670881848842697 1.015217391304348 1 1.95 1.065217391304348 0 1.95 1.065217391304348 0 1.65 1.065217391304348 1 1.65 1.065217391304348 0 1.658214285714287 1.015217391304348 0 1.958214285714286 1.015217391304348 1 1.958214285714283 1.015217391304348 1 1.658214285714286 1.015217391304348 0 1.658214285714287 1.015217391304348 0 1.65 1.065217391304348 0 1.95 1.065217391304348 0 1.958214285714286 1.015217391304348 1 1.958214285714283 1.015217391304348 1 1.95 1.065217391304348 1 1.65 1.065217391304348 1 1.658214285714286 1.015217391304348 1 1.95 1.065217391304348 0 1.95 1.065217391304348 1 1.958214285714283 1.015217391304348 0 1.958214285714286 1.015217391304348 1 1.658214285714286 1.015217391304348 1 1.65 1.065217391304348 0 1.65 1.065217391304348 0 1.658214285714287 1.015217391304348 1 1.945881848842697 1.167391304347826 1 1.933214285714287 1.167391304347826 1 1.958214285714287 1.015217391304348 1 1.970881848842697 1.015217391304348 0 1.958214285714288 1.015217391304348 0 1.933214285714289 1.167391304347826 0 1.945881848842699 1.167391304347826 0 1.970881848842698 1.015217391304348 0 1.958214285714288 1.015217391304348 1 1.958214285714287 1.015217391304348 1 1.933214285714287 1.167391304347826 0 1.933214285714289 1.167391304347826 0 1.970881848842698 1.015217391304348 1 1.970881848842697 1.015217391304348 1 1.958214285714287 1.015217391304348 0 1.958214285714288 1.015217391304348 0 1.945881848842699 1.167391304347826 1 1.945881848842697 1.167391304347826 1 1.970881848842697 1.015217391304348 0 1.970881848842698 1.015217391304348 0 1.933214285714289 1.167391304347826 1 1.933214285714287 1.167391304347826 1 1.945881848842697 1.167391304347826 0 1.945881848842699 1.167391304347826 1 2.225 1.217391304347826 0 2.225 1.217391304347826 0 1.925 1.217391304347826 1 1.925 1.217391304347826 0 1.933214285714289 1.167391304347826 0 2.233214285714287 1.167391304347826 1 2.233214285714285 1.167391304347826 1 1.933214285714287 1.167391304347826 0 1.933214285714289 1.167391304347826 0 1.925 1.217391304347826 0 2.225 1.217391304347826 0 2.233214285714287 1.167391304347826 1 2.233214285714285 1.167391304347826 1 2.225 1.217391304347826 1 1.925 1.217391304347826 1 1.933214285714287 1.167391304347826 1 2.225 1.217391304347826 0 2.225 1.217391304347826 1 2.233214285714285 1.167391304347826 0 2.233214285714287 1.167391304347826 1 1.933214285714287 1.167391304347826 1 1.925 1.217391304347826 0 1.925 1.217391304347826 0 1.933214285714289 1.167391304347826 1 2.220881848842698 1.319565217391305 1 2.208214285714288 1.319565217391305 1 2.233214285714287 1.167391304347826 1 2.245881848842697 1.167391304347826 0 2.233214285714289 1.167391304347826 0 2.208214285714289 1.319565217391305 0 2.220881848842699 1.319565217391305 0 2.245881848842699 1.167391304347826 0 2.233214285714289 1.167391304347826 1 2.233214285714287 1.167391304347826 1 2.208214285714288 1.319565217391305 0 2.208214285714289 1.319565217391305 0 2.245881848842699 1.167391304347826 1 2.245881848842697 1.167391304347826 1 2.233214285714287 1.167391304347826 0 2.233214285714289 1.167391304347826 0 2.220881848842699 1.319565217391305 1 2.220881848842698 1.319565217391305 1 2.245881848842697 1.167391304347826 0 2.245881848842699 1.167391304347826 0 2.208214285714289 1.319565217391305 1 2.208214285714288 1.319565217391305 1 2.220881848842698 1.319565217391305 0 2.220881848842699 1.319565217391305 1 2.5 1.369565217391304 0 2.5 1.369565217391304 0 2.2 1.369565217391304 1 2.2 1.369565217391304 0 2.208214285714289 1.319565217391305 0 2.508214285714288 1.319565217391305 1 2.508214285714285 1.319565217391305 1 2.208214285714288 1.319565217391305 0 2.208214285714289 1.319565217391305 0 2.2 1.369565217391304 0 2.5 1.369565217391304 0 2.508214285714288 1.319565217391305 1 2.508214285714285 1.319565217391305 1 2.5 1.369565217391304 1 2.2 1.369565217391304 1 2.208214285714288 1.319565217391305 1 2.5 1.369565217391304 0 2.5 1.369565217391304 1 2.508214285714285 1.319565217391305 0 2.508214285714288 1.319565217391305 1 2.208214285714288 1.319565217391305 1 2.2 1.369565217391304 0 2.2 1.369565217391304 0 2.208214285714289 1.319565217391305 1 2.495881848842697 1.471739130434783 1 2.483214285714287 1.471739130434783 1 2.508214285714287 1.319565217391305 1 2.520881848842697 1.319565217391305 0 2.508214285714288 1.319565217391305 0 2.483214285714288 1.471739130434783 0 2.495881848842698 1.471739130434783 0 2.520881848842698 1.319565217391305 0 2.508214285714288 1.319565217391305 1 2.508214285714287 1.319565217391305 1 2.483214285714287 1.471739130434783 0 2.483214285714288 1.471739130434783 0 2.520881848842698 1.319565217391305 1 2.520881848842697 1.319565217391305 1 2.508214285714287 1.319565217391305 0 2.508214285714288 1.319565217391305 0 2.495881848842698 1.471739130434783 1 2.495881848842697 1.471739130434783 1 2.520881848842697 1.319565217391305 0 2.520881848842698 1.319565217391305 0 2.483214285714288 1.471739130434783 1 2.483214285714287 1.471739130434783 1 2.495881848842697 1.471739130434783 0 2.495881848842698 1.471739130434783 1 2.775 1.521739130434783 0 2.775 1.521739130434783 0 2.475 1.521739130434783 1 2.475 1.521739130434783 0 2.483214285714288 1.471739130434783 0 2.783214285714287 1.471739130434783 1 2.783214285714284 1.471739130434783 1 2.483214285714287 1.471739130434783 0 2.483214285714288 1.471739130434783 0 2.475 1.521739130434783 0 2.775 1.521739130434783 0 2.783214285714287 1.471739130434783 1 2.783214285714284 1.471739130434783 1 2.775 1.521739130434783 1 2.475 1.521739130434783 1 2.483214285714287 1.471739130434783 1 2.775 1.521739130434783 0 2.775 1.521739130434783 1 2.783214285714284 1.471739130434783 0 2.783214285714287 1.471739130434783 1 2.483214285714287 1.471739130434783 1 2.475 1.521739130434783 0 2.475 1.521739130434783 0 2.483214285714288 1.471739130434783 1 2.770881848842697 1.623913043478261 1 2.758214285714287 1.623913043478261 1 2.783214285714287 1.471739130434783 1 2.795881848842697 1.471739130434783 0 2.783214285714288 1.471739130434783 0 2.758214285714288 1.623913043478261 0 2.770881848842698 1.623913043478261 0 2.795881848842698 1.471739130434783 0 2.783214285714288 1.471739130434783 1 2.783214285714287 1.471739130434783 1 2.758214285714287 1.623913043478261 0 2.758214285714288 1.623913043478261 0 2.795881848842698 1.471739130434783 1 2.795881848842697 1.471739130434783 1 2.783214285714287 1.471739130434783 0 2.783214285714288 1.471739130434783 0 2.770881848842698 1.623913043478261 1 2.770881848842697 1.623913043478261 1 2.795881848842697 1.471739130434783 0 2.795881848842698 1.471739130434783 0 2.758214285714288 1.623913043478261 1 2.758214285714287 1.623913043478261 1 2.770881848842697 1.623913043478261 0 2.770881848842698 1.623913043478261 1 3.05 1.673913043478261 0 3.05 1.673913043478261 0 2.75 1.673913043478261 1 2.75 1.673913043478261 0 2.758214285714288 1.623913043478261 0 3.058214285714287 1.623913043478261 1 3.058214285714285 1.623913043478261 1 2.758214285714287 1.623913043478261 0 2.758214285714288 1.623913043478261 0 2.75 1.673913043478261 0 3.05 1.673913043478261 0 3.058214285714287 1.623913043478261 1 3.058214285714285 1.623913043478261 1 3.05 1.673913043478261 1 2.75 1.673913043478261 1 2.758214285714287 1.623913043478261 1 3.05 1.673913043478261 0 3.05 1.673913043478261 1 3.058214285714285 1.623913043478261 0 3.058214285714287 1.623913043478261 1 2.758214285714287 1.623913043478261 1 2.75 1.673913043478261 0 2.75 1.673913043478261 0 2.758214285714288 1.623913043478261 1 3.320881848842694 1.928260869565217 1 3.308214285714285 1.928260869565217 1 3.333214285714285 1.776086956521739 1 3.345881848842694 1.776086956521739 0 3.333214285714287 1.776086956521739 0 3.308214285714287 1.928260869565217 0 3.320881848842697 1.928260869565217 0 3.345881848842698 1.776086956521739 0 3.333214285714287 1.776086956521739 1 3.333214285714285 1.776086956521739 1 3.308214285714285 1.928260869565217 0 3.308214285714287 1.928260869565217 0 3.345881848842698 1.776086956521739 1 3.345881848842694 1.776086956521739 1 3.333214285714285 1.776086956521739 0 3.333214285714287 1.776086956521739 0 3.320881848842697 1.928260869565217 1 3.320881848842694 1.928260869565217 1 3.345881848842694 1.776086956521739 0 3.345881848842698 1.776086956521739 0 3.308214285714287 1.928260869565217 1 3.308214285714285 1.928260869565217 1 3.320881848842694 1.928260869565217 0 3.320881848842697 1.928260869565217 1 3.045881848842695 1.776086956521739 1 3.033214285714285 1.776086956521739 1 3.058214285714285 1.623913043478261 1 3.070881848842695 1.623913043478261 0 3.058214285714287 1.623913043478261 0 3.033214285714287 1.776086956521739 0 3.045881848842698 1.776086956521739 0 3.070881848842697 1.623913043478261 0 3.058214285714287 1.623913043478261 1 3.058214285714285 1.623913043478261 1 3.033214285714285 1.776086956521739 0 3.033214285714287 1.776086956521739 0 3.070881848842697 1.623913043478261 1 3.070881848842695 1.623913043478261 1 3.058214285714285 1.623913043478261 0 3.058214285714287 1.623913043478261 0 3.045881848842698 1.776086956521739 1 3.045881848842695 1.776086956521739 1 3.070881848842695 1.623913043478261 0 3.070881848842697 1.623913043478261 0 3.033214285714287 1.776086956521739 1 3.033214285714285 1.776086956521739 1 3.045881848842695 1.776086956521739 0 3.045881848842698 1.776086956521739 1 3.325 1.826086956521739 0 3.325 1.826086956521739 0 3.3 1.826086956521739 0 3.025 1.826086956521739 1 3.025 1.826086956521739 1 3.3 1.826086956521739 0 3.3 1.776086956521739 0 3.333214285714287 1.776086956521739 1 3.333214285714285 1.776086956521739 1 3.3 1.776086956521739 1 3.033214285714286 1.776086956521739 0 3.033214285714287 1.776086956521739 0 3.3 1.776086956521739 0 3.3 1.826086956521739 0 3.325 1.826086956521739 0 3.333214285714287 1.776086956521739 0 3.033214285714287 1.776086956521739 0 3.025 1.826086956521739 0 3.3 1.826086956521739 0 3.3 1.776086956521739 1 3.3 1.776086956521739 1 3.3 1.826086956521739 1 3.025 1.826086956521739 1 3.033214285714286 1.776086956521739 1 3.333214285714285 1.776086956521739 1 3.325 1.826086956521739 1 3.3 1.826086956521739 1 3.3 1.776086956521739 1 3.325 1.826086956521739 0 3.325 1.826086956521739 1 3.333214285714285 1.776086956521739 0 3.333214285714287 1.776086956521739 1 3.033214285714286 1.776086956521739 1 3.025 1.826086956521739 0 3.025 1.826086956521739 0 3.033214285714287 1.776086956521739</float_array>
          <technique_common>
            <accessor source="#representation-1059258-material-3732-positions-array" count="612" stride="3">
              <param name="X" type="float"/>
              <param name="Y" type="float"/>
              <param name="Z" type="float"/>
            </accessor>
          </technique_common>
        </source>
        <source id="representation-1059258-material-3732-normals">
          <float_array id="representation-1059258-material-3732-normals-array" count="1836">9.029623775127779e-16 0.9867722681378269 0.1621125869083849 9.029623775127779e-16 0.9867722681378269 0.1621125869083849 9.029623775127779e-16 0.9867722681378269 0.1621125869083849 9.029623775127779e-16 0.9867722681378269 0.1621125869083849 0 0 1 0 0 1 0 0 1 0 0 1 0 0 -1 0 0 -1 0 0 -1 0 0 -1 -1 0 0 -1 0 0 -1 0 0 -1 0 0 1 0 0 1 0 0 1 0 0 1 0 0 -8.960036318051809e-16 -0.9867722681378297 -0.162112586908368 -8.960036318051809e-16 -0.9867722681378297 -0.162112586908368 -8.960036318051809e-16 -0.9867722681378297 -0.162112586908368 -8.960036318051809e-16 -0.9867722681378297 -0.162112586908368 1 0 0 1 0 0 1 0 0 1 0 0 -1 0 0 -1 0 0 -1 0 0 -1 0 0 -8.963155837688645e-16 -0.9867722681378322 -0.1621125869083531 -8.963155837688645e-16 -0.9867722681378322 -0.1621125869083531 -8.963155837688645e-16 -0.9867722681378322 -0.1621125869083531 -8.963155837688645e-16 -0.9867722681378322 -0.1621125869083531 0 0 -1 0 0 -1 0 0 -1 0 0 -1 2.246024447645109e-15 0.9867722681378314 0.1621125869083573 2.246024447645109e-15 0.9867722681378314 0.1621125869083573 2.246024447645109e-15 0.9867722681378314 0.1621125869083573 2.246024447645109e-15 0.9867722681378314 0.1621125869083573 0 0 1 0 0 1 0 0 1 0 0 1 1 0 0 1 0 0 1 0 0 1 0 0 -1 0 0 -1 0 0 -1 0 0 -1 0 0 -1.36673167986972e-15 -0.9867722681378319 -0.1621125869083546 -1.36673167986972e-15 -0.9867722681378319 -0.1621125869083546 -1.36673167986972e-15 -0.9867722681378319 -0.1621125869083546 -1.36673167986972e-15 -0.9867722681378319 -0.1621125869083546 0 0 -1 0 0 -1 0 0 -1 0 0 -1 1.338609628843594e-15 0.9867722681378318 0.1621125869083553 1.338609628843594e-15 0.9867722681378318 0.1621125869083553 1.338609628843594e-15 0.9867722681378318 0.1621125869083553 1.338609628843594e-15 0.9867722681378318 0.1621125869083553 0 0 1 0 0 1 0 0 1 0 0 1 0 0 1 0 0 1 0 0 1 0 0 1 0 0 -1 0 0 -1 0 0 -1 0 0 -1 -1 0 0 -1 0 0 -1 0 0 -1 0 0 1 0 0 1 0 0 1 0 0 1 0 0 1.309509419520907e-15 0.9867722681378313 0.1621125869083583 1.309509419520907e-15 0.9867722681378313 0.1621125869083583 1.309509419520907e-15 0.9867722681378313 0.1621125869083583 1.309509419520907e-15 0.9867722681378313 0.1621125869083583 -4.667941505674948e-16 -0.9867722681378253 -0.1621125869083945 -4.667941505674948e-16 -0.9867722681378253 -0.1621125869083945 -4.667941505674948e-16 -0.9867722681378253 -0.1621125869083945 -4.667941505674948e-16 -0.9867722681378253 -0.1621125869083945 1 0 0 1 0 0 1 0 0 1 0 0 -1 0 0 -1 0 0 -1 0 0 -1 0 0 -9.336520940673802e-16 -0.9867722681378313 -0.1621125869083581 -9.336520940673802e-16 -0.9867722681378313 -0.1621125869083581 -9.336520940673802e-16 -0.9867722681378313 -0.1621125869083581 -9.336520940673802e-16 -0.9867722681378313 -0.1621125869083581 0 0 -1 0 0 -1 0 0 -1 0 0 -1 8.774079920151283e-16 0.9867722681378313 0.1621125869083581 8.774079920151283e-16 0.9867722681378313 0.1621125869083581 8.774079920151283e-16 0.9867722681378313 0.1621125869083581 8.774079920151283e-16 0.9867722681378313 0.1621125869083581 0 0 1 0 0 1 0 0 1 0 0 1 0 0 1 0 0 1 0 0 1 0 0 1 0 0 -1 0 0 -1 0 0 -1 0 0 -1 -1 0 0 -1 0 0 -1 0 0 -1 0 0 1 0 0 1 0 0 1 0 0 1 0 0 8.815651647755105e-16 0.9867722681378294 0.162112586908369 8.815651647755105e-16 0.9867722681378294 0.162112586908369 8.815651647755105e-16 0.9867722681378294 0.162112586908369 8.815651647755105e-16 0.9867722681378294 0.162112586908369 -4.910567291843636e-16 -0.9867722681378257 -0.1621125869083924 -4.910567291843636e-16 -0.9867722681378257 -0.1621125869083924 -4.910567291843636e-16 -0.9867722681378257 -0.1621125869083924 -4.910567291843636e-16 -0.9867722681378257 -0.1621125869083924 1 0 0 1 0 0 1 0 0 1 0 0 -1 0 0 -1 0 0 -1 0 0 -1 0 0 -8.77407992015128e-16 -0.9867722681378313 -0.162112586908358 -8.77407992015128e-16 -0.9867722681378313 -0.162112586908358 -8.77407992015128e-16 -0.9867722681378313 -0.162112586908358 -8.77407992015128e-16 -0.9867722681378313 -0.162112586908358 0 0 -1 0 0 -1 0 0 -1 0 0 -1 1.304863167612242e-15 0.9867722681378318 0.1621125869083552 1.304863167612242e-15 0.9867722681378318 0.1621125869083552 1.304863167612242e-15 0.9867722681378318 0.1621125869083552 1.304863167612242e-15 0.9867722681378318 0.1621125869083552 0 0 1 0 0 1 0 0 1 0 0 1 0 0 1 0 0 1 0 0 1 0 0 1 0 0 -1 0 0 -1 0 0 -1 0 0 -1 -1 0 0 -1 0 0 -1 0 0 -1 0 0 1 0 0 1 0 0 1 0 0 1 0 0 8.901240498704197e-16 0.9867722681378298 0.162112586908367 8.901240498704197e-16 0.9867722681378298 0.162112586908367 8.901240498704197e-16 0.9867722681378298 0.162112586908367 8.901240498704197e-16 0.9867722681378298 0.162112586908367 -4.26158052638627e-16 -0.9867722681378255 -0.1621125869083926 -4.26158052638627e-16 -0.9867722681378255 -0.1621125869083926 -4.26158052638627e-16 -0.9867722681378255 -0.1621125869083926 -4.26158052638627e-16 -0.9867722681378255 -0.1621125869083926 1 0 0 1 0 0 1 0 0 1 0 0 -1 0 0 -1 0 0 -1 0 0 -1 0 0 -9.673985552987321e-16 -0.9867722681378323 -0.1621125869083518 -9.673985552987321e-16 -0.9867722681378323 -0.1621125869083518 -9.673985552987321e-16 -0.9867722681378323 -0.1621125869083518 -9.673985552987321e-16 -0.9867722681378323 -0.1621125869083518 0 0 -1 0 0 -1 0 0 -1 0 0 -1 1.327360808433143e-15 0.9867722681378316 0.162112586908356 1.327360808433143e-15 0.9867722681378316 0.162112586908356 1.327360808433143e-15 0.9867722681378316 0.162112586908356 1.327360808433143e-15 0.9867722681378316 0.162112586908356 0 0 1 0 0 1 0 0 1 0 0 1 0 0 1 0 0 1 0 0 1 0 0 1 0 0 -1 0 0 -1 0 0 -1 0 0 -1 -1 0 0 -1 0 0 -1 0 0 -1 0 0 1 0 0 1 0 0 1 0 0 1 0 0 1.300950534425996e-15 0.9867722681378284 0.1621125869083755 1.300950534425996e-15 0.9867722681378284 0.1621125869083755 1.300950534425996e-15 0.9867722681378284 0.1621125869083755 1.300950534425996e-15 0.9867722681378284 0.1621125869083755 -4.462528263397137e-16 -0.9867722681378229 -0.1621125869084096 -4.462528263397137e-16 -0.9867722681378229 -0.1621125869084096 -4.462528263397137e-16 -0.9867722681378229 -0.1621125869084096 -4.462528263397137e-16 -0.9867722681378229 -0.1621125869084096 1 0 0 1 0 0 1 0 0 1 0 0 -1 0 0 -1 0 0 -1 0 0 -1 0 0 -8.774079920151283e-16 -0.9867722681378314 -0.1621125869083575 -8.774079920151283e-16 -0.9867722681378314 -0.1621125869083575 -8.774079920151283e-16 -0.9867722681378314 -0.1621125869083575 -8.774079920151283e-16 -0.9867722681378314 -0.1621125869083575 0 0 -1 0 0 -1 0 0 -1 0 0 -1 8.774079920151283e-16 0.9867722681378314 0.1621125869083575 8.774079920151283e-16 0.9867722681378314 0.1621125869083575 8.774079920151283e-16 0.9867722681378314 0.1621125869083575 8.774079920151283e-16 0.9867722681378314 0.1621125869083575 0 0 1 0 0 1 0 0 1 0 0 1 0 0 1 0 0 1 0 0 1 0 0 1 0 0 -1 0 0 -1 0 0 -1 0 0 -1 -1 0 0 -1 0 0 -1 0 0 -1 0 0 1 0 0 1 0 0 1 0 0 1 0 0 8.558885094907857e-16 0.986772268137827 0.1621125869083841 8.558885094907857e-16 0.986772268137827 0.1621125869083841 8.558885094907857e-16 0.986772268137827 0.1621125869083841 8.558885094907857e-16 0.986772268137827 0.1621125869083841 -4.321120596611699e-16 -0.9867722681378221 -0.162112586908414 -4.321120596611699e-16 -0.9867722681378221 -0.162112586908414 -4.321120596611699e-16 -0.9867722681378221 -0.162112586908414 -4.321120596611699e-16 -0.9867722681378221 -0.162112586908414 1 0 0 1 0 0 1 0 0 1 0 0 -1 0 0 -1 0 0 -1 0 0 -1 0 0 -8.774079920151288e-16 -0.9867722681378314 -0.1621125869083576 -8.774079920151288e-16 -0.9867722681378314 -0.1621125869083576 -8.774079920151288e-16 -0.9867722681378314 -0.1621125869083576 -8.774079920151288e-16 -0.9867722681378314 -0.1621125869083576 0 0 -1 0 0 -1 0 0 -1 0 0 -1 9.898961961196325e-16 0.9867722681378312 0.1621125869083589 9.898961961196325e-16 0.9867722681378312 0.1621125869083589 9.898961961196325e-16 0.9867722681378312 0.1621125869083589 9.898961961196325e-16 0.9867722681378312 0.1621125869083589 0 0 1 0 0 1 0 0 1 0 0 1 0 0 1 0 0 1 0 0 1 0 0 1 0 0 -1 0 0 -1 0 0 -1 0 0 -1 -1 0 0 -1 0 0 -1 0 0 -1 0 0 1 0 0 1 0 0 1 0 0 1 0 0 1.43789269594452e-15 0.9867722681378334 0.1621125869083446 1.43789269594452e-15 0.9867722681378334 0.1621125869083446 1.43789269594452e-15 0.9867722681378334 0.1621125869083446 1.43789269594452e-15 0.9867722681378334 0.1621125869083446 -4.179712929826282e-16 -0.9867722681378287 -0.1621125869083744 -4.179712929826282e-16 -0.9867722681378287 -0.1621125869083744 -4.179712929826282e-16 -0.9867722681378287 -0.1621125869083744 -4.179712929826282e-16 -0.9867722681378287 -0.1621125869083744 1 0 0 1 0 0 1 0 0 1 0 0 -1 0 0 -1 0 0 -1 0 0 -1 0 0 -1.394853730895843e-15 -0.9867722681378319 -0.1621125869083543 -1.394853730895843e-15 -0.9867722681378319 -0.1621125869083543 -1.394853730895843e-15 -0.9867722681378319 -0.1621125869083543 -1.394853730895843e-15 -0.9867722681378319 -0.1621125869083543 0 0 -1 0 0 -1 0 0 -1 0 0 -1 1.304863167612241e-15 0.9867722681378319 0.1621125869083543 1.304863167612241e-15 0.9867722681378319 0.1621125869083543 1.304863167612241e-15 0.9867722681378319 0.1621125869083543 1.304863167612241e-15 0.9867722681378319 0.1621125869083543 0 0 1 0 0 1 0 0 1 0 0 1 0 0 1 0 0 1 0 0 1 0 0 1 0 0 -1 0 0 -1 0 0 -1 0 0 -1 -1 0 0 -1 0 0 -1 0 0 -1 0 0 1 0 0 1 0 0 1 0 0 1 0 0 8.901240498704215e-16 0.9867722681378298 0.1621125869083673 8.901240498704215e-16 0.9867722681378298 0.1621125869083673 8.901240498704215e-16 0.9867722681378298 0.1621125869083673 8.901240498704215e-16 0.9867722681378298 0.1621125869083673 -9.642514373010822e-16 -0.9867722681378234 -0.1621125869084057 -9.642514373010822e-16 -0.9867722681378234 -0.1621125869084057 -9.642514373010822e-16 -0.9867722681378234 -0.1621125869084057 -9.642514373010822e-16 -0.9867722681378234 -0.1621125869084057 1 0 0 1 0 0 1 0 0 1 0 0 -1 0 0 -1 0 0 -1 0 0 -1 0 0 -1.304863167612243e-15 -0.9867722681378319 -0.1621125869083546 -1.304863167612243e-15 -0.9867722681378319 -0.1621125869083546 -1.304863167612243e-15 -0.9867722681378319 -0.1621125869083546 -1.304863167612243e-15 -0.9867722681378319 -0.1621125869083546 0 0 -1 0 0 -1 0 0 -1 0 0 -1 1.304863167612243e-15 0.9867722681378319 0.1621125869083546 1.304863167612243e-15 0.9867722681378319 0.1621125869083546 1.304863167612243e-15 0.9867722681378319 0.1621125869083546 1.304863167612243e-15 0.9867722681378319 0.1621125869083546 0 0 1 0 0 1 0 0 1 0 0 1 0 0 1 0 0 1 0 0 1 0 0 1 0 0 -1 0 0 -1 0 0 -1 0 0 -1 -1 0 0 -1 0 0 -1 0 0 -1 0 0 1 0 0 1 0 0 1 0 0 1 0 0 1.33518607480563e-15 0.9867722681378283 0.1621125869083759 1.33518607480563e-15 0.9867722681378283 0.1621125869083759 1.33518607480563e-15 0.9867722681378283 0.1621125869083759 1.33518607480563e-15 0.9867722681378283 0.1621125869083759 -4.239253000051697e-16 -0.9867722681378228 -0.1621125869084101 -4.239253000051697e-16 -0.9867722681378228 -0.1621125869084101 -4.239253000051697e-16 -0.9867722681378228 -0.1621125869084101 -4.239253000051697e-16 -0.9867722681378228 -0.1621125869084101 1 0 0 1 0 0 1 0 0 1 0 0 -1 0 0 -1 0 0 -1 0 0 -1 0 0 -8.549103511942286e-16 -0.9867722681378313 -0.1621125869083577 -8.549103511942286e-16 -0.9867722681378313 -0.1621125869083577 -8.549103511942286e-16 -0.9867722681378313 -0.1621125869083577 -8.549103511942286e-16 -0.9867722681378313 -0.1621125869083577 0 0 -1 0 0 -1 0 0 -1 0 0 -1 8.549103511942286e-16 0.9867722681378313 0.1621125869083577 8.549103511942286e-16 0.9867722681378313 0.1621125869083577 8.549103511942286e-16 0.9867722681378313 0.1621125869083577 8.549103511942286e-16 0.9867722681378313 0.1621125869083577 0 0 1 0 0 1 0 0 1 0 0 1 0 0 1 0 0 1 0 0 1 0 0 1 0 0 -1 0 0 -1 0 0 -1 0 0 -1 -1 0 0 -1 0 0 -1 0 0 -1 0 0 1 0 0 1 0 0 1 0 0 1 0 0 1.540599317083415e-15 0.9867722681378299 0.1621125869083667 1.540599317083415e-15 0.9867722681378299 0.1621125869083667 1.540599317083415e-15 0.9867722681378299 0.1621125869083667 1.540599317083415e-15 0.9867722681378299 0.1621125869083667 -4.269023035164453e-16 -0.9867722681378257 -0.1621125869083923 -4.269023035164453e-16 -0.9867722681378257 -0.1621125869083923 -4.269023035164453e-16 -0.9867722681378257 -0.1621125869083923 -4.269023035164453e-16 -0.9867722681378257 -0.1621125869083923 1 0 0 1 0 0 1 0 0 1 0 0 -1 0 0 -1 0 0 -1 0 0 -1 0 0 -8.999056328360286e-16 -0.986772268137831 -0.1621125869083602 -8.999056328360286e-16 -0.986772268137831 -0.1621125869083602 -8.999056328360286e-16 -0.986772268137831 -0.1621125869083602 -8.999056328360286e-16 -0.986772268137831 -0.1621125869083602 0 0 -1 0 0 -1 0 0 -1 0 0 -1 8.999056328360286e-16 0.986772268137831 0.1621125869083602 8.999056328360286e-16 0.986772268137831 0.1621125869083602 8.999056328360286e-16 0.986772268137831 0.1621125869083602 8.999056328360286e-16 0.986772268137831 0.1621125869083602 0 0 1 0 0 1 0 0 1 0 0 1 0 0 1 0 0 1 0 0 1 0 0 1 0 0 -1 0 0 -1 0 0 -1 0 0 -1 -1 0 0 -1 0 0 -1 0 0 -1 0 0 1 0 0 1 0 0 1 0 0 1 0 0 8.558885094907862e-16 0.9867722681378299 0.1621125869083667 8.558885094907862e-16 0.9867722681378299 0.1621125869083667 8.558885094907862e-16 0.9867722681378299 0.1621125869083667 8.558885094907862e-16 0.9867722681378299 0.1621125869083667 -4.641148474073486e-16 -0.9867722681378257 -0.1621125869083923 -4.641148474073486e-16 -0.9867722681378257 -0.1621125869083923 -4.641148474073486e-16 -0.9867722681378257 -0.1621125869083923 -4.641148474073486e-16 -0.9867722681378257 -0.1621125869083923 1 0 0 1 0 0 1 0 0 1 0 0 -1 0 0 -1 0 0 -1 0 0 -1 0 0 -1.754815984030257e-15 -0.9867722681378314 -0.1621125869083575 -1.754815984030257e-15 -0.9867722681378314 -0.1621125869083575 -1.754815984030257e-15 -0.9867722681378314 -0.1621125869083575 -1.754815984030257e-15 -0.9867722681378314 -0.1621125869083575 2.73884323037053e-16 0 -1 2.73884323037053e-16 0 -1 2.73884323037053e-16 0 -1 2.73884323037053e-16 0 -1 3.059679151642497e-15 0.986772268137831 0.1621125869083602 3.059679151642497e-15 0.986772268137831 0.1621125869083602 3.059679151642497e-15 0.986772268137831 0.1621125869083602 3.059679151642497e-15 0.986772268137831 0.1621125869083602 -2.738843230370626e-16 0 1 -2.738843230370626e-16 0 1 -2.738843230370626e-16 0 1 -2.738843230370626e-16 0 1 1 0 0 1 0 0 1 0 0 1 0 0 -1 0 0 -1 0 0 -1 0 0 -1 0 0 -1.934797110597461e-15 -0.986772268137831 -0.1621125869083602 -1.934797110597461e-15 -0.986772268137831 -0.1621125869083602 -1.934797110597461e-15 -0.986772268137831 -0.1621125869083602 -1.934797110597461e-15 -0.986772268137831 -0.1621125869083602 0 0 -1 0 0 -1 0 0 -1 0 0 -1 2.204768800448273e-15 0.9867722681378319 0.1621125869083546 2.204768800448273e-15 0.9867722681378319 0.1621125869083546 2.204768800448273e-15 0.9867722681378319 0.1621125869083546 2.204768800448273e-15 0.9867722681378319 0.1621125869083546 0 0 1 0 0 1 0 0 1 0 0 1 0 0 1 0 0 1 0 0 1 0 0 1 0 0 1 0 0 1 0 0 -1 0 0 -1 0 0 -1 0 0 -1 0 0 -1 0 0 -1 -1 0 0 -1 0 0 -1 0 0 -1 0 0 -1 0 0 -1 0 0 -1 0 0 -1 0 0 1 0 0 1 0 0 1 0 0 1 0 0 1 0 0 1 0 0 1 0 0 1 0 0 8.558885094907862e-16 0.9867722681378299 0.1621125869083667 8.558885094907862e-16 0.9867722681378299 0.1621125869083667 8.558885094907862e-16 0.9867722681378299 0.1621125869083667 8.558885094907862e-16 0.9867722681378299 0.1621125869083667 -6.49284465808487e-16 -0.9867722681378271 -0.1621125869083838 -6.49284465808487e-16 -0.9867722681378271 -0.1621125869083838 -6.49284465808487e-16 -0.9867722681378271 -0.1621125869083838 -6.49284465808487e-16 -0.9867722681378271 -0.1621125869083838</float_array>
          <technique_common>
            <accessor source="#representation-1059258-material-3732-normals-array" count="612" stride="3">
              <param name="X" type="float"/>
              <param name="Y" type="float"/>
              <param name="Z" type="float"/>
            </accessor>
          </technique_common>
        </source>
        <vertices id="representation-1059258-material-3732-vertices">
          <input semantic="POSITION" source="#representation-1059258-material-3732-positions"/>
        </vertices>
        <triangles material="IfcMaterial-3732" count="308">
          <input semantic="VERTEX" source="#representation-1059258-material-3732-vertices" offset="0"/>
          <input semantic="NORMAL" source="#representation-1059258-material-3732-normals" offset="1"/>
          <p>1 1 2 2 3 3 1 1 3 3 0 0 5 5 4 4 6 6 5 5 6 6 7 7 8 8 10 10 11 11 9 9 10 10 8 8 12 12 13 13 14 14 12 12 14 14 15 15 19 19 16 16 17 17 18 18 19 19 17 17 20 20 21 21 22 22 20 20 22 22 23 23 24 24 26 26 27 27 25 25 26 26 24 24 28 28 29 29 30 30 28 28 30 30 31 31 33 33 34 34 35 35 33 33 35 35 32 32 36 36 37 37 38 38 36 36 38 38 39 39 41 41 42 42 43 43 41 41 43 43 40 40 46 46 44 44 45 45 46 46 47 47 44 44 48 48 50 50 51 51 49 49 50 50 48 48 52 52 53 53 54 54 52 52 54 54 55 55 57 57 58 58 59 59 57 57 59 59 56 56 60 60 61 61 62 62 60 60 62 62 63 63 65 65 66 66 67 67 65 65 67 67 64 64 70 70 68 68 69 69 70 70 71 71 68 68 72 72 73 73 74 74 72 72 74 74 75 75 76 76 78 78 79 79 77 77 78 78 76 76 80 80 81 81 82 82 80 80 82 82 83 83 87 87 84 84 85 85 86 86 87 87 85 85 88 88 90 90 91 91 88 88 91 91 89 89 92 92 93 93 94 94 92 92 94 94 95 95 96 96 98 98 99 99 97 97 98 98 96 96 100 100 101 101 102 102 100 100 102 102 103 103 105 105 106 106 107 107 105 105 107 107 104 104 108 108 109 109 110 110 108 108 110 110 111 111 113 113 114 114 115 115 113 113 115 115 112 112 118 118 116 116 117 117 118 118 119 119 116 116 120 120 121 121 122 122 120 120 122 122 123 123 124 124 126 126 127 127 125 125 126 126 124 124 128 128 129 129 130 130 128 128 130 130 131 131 135 135 132 132 133 133 134 134 135 135 133 133 136 136 138 138 139 139 136 136 139 139 137 137 140 140 141 141 142 142 140 140 142 142 143 143 144 144 146 146 147 147 145 145 146 146 144 144 148 148 149 149 150 150 148 148 150 150 151 151 153 153 154 154 155 155 153 153 155 155 152 152 156 156 157 157 158 158 156 156 158 158 159 159 161 161 162 162 163 163 161 161 163 163 160 160 166 166 164 164 165 165 166 166 167 167 164 164 168 168 169 169 170 170 168 168 170 170 171 171 172 172 174 174 175 175 173 173 174 174 172 172 176 176 177 177 178 178 176 176 178 178 179 179 183 183 180 180 181 181 182 182 183 183 181 181 184 184 186 186 187 187 184 184 187 187 185 185 188 188 189 189 190 190 188 188 190 190 191 191 192 192 194 194 195 195 193 193 194 194 192 192 196 196 197 197 198 198 196 196 198 198 199 199 201 201 202 202 203 203 201 201 203 203 200 200 204 204 205 205 206 206 204 204 206 206 207 207 209 209 210 210 211 211 209 209 211 211 208 208 214 214 212 212 213 213 214 214 215 215 212 212 216 216 217 217 218 218 216 216 218 218 219 219 220 220 222 222 223 223 221 221 222 222 220 220 224 224 225 225 226 226 224 224 226 226 227 227 231 231 228 228 229 229 230 230 231 231 229 229 232 232 234 234 235 235 232 232 235 235 233 233 236 236 237 237 238 238 236 236 238 238 239 239 240 240 242 242 243 243 241 241 242 242 240 240 244 244 245 245 246 246 244 244 246 246 247 247 249 249 250 250 251 251 249 249 251 251 248 248 252 252 253 253 254 254 252 252 254 254 255 255 257 257 258 258 259 259 257 257 259 259 256 256 262 262 260 260 261 261 262 262 263 263 260 260 264 264 265 265 266 266 264 264 266 266 267 267 268 268 270 270 271 271 269 269 270 270 268 268 272 272 273 273 274 274 272 272 274 274 275 275 279 279 276 276 277 277 278 278 279 279 277 277 280 280 282 282 283 283 280 280 283 283 281 281 284 284 285 285 286 286 284 284 286 286 287 287 288 288 290 290 291 291 289 289 290 290 288 288 292 292 293 293 294 294 292 292 294 294 295 295 297 297 298 298 299 299 297 297 299 299 296 296 300 300 301 301 302 302 300 300 302 302 303 303 305 305 306 306 307 307 305 305 307 307 304 304 310 310 308 308 309 309 310 310 311 311 308 308 312 312 313 313 314 314 312 312 314 314 315 315 316 316 318 318 319 319 317 317 318 318 316 316 320 320 321 321 322 322 320 320 322 322 323 323 327 327 324 324 325 325 326 326 327 327 325 325 328 328 330 330 331 331 328 328 331 331 329 329 332 332 333 333 334 334 332 332 334 334 335 335 336 336 338 338 339 339 337 337 338 338 336 336 340 340 341 341 342 342 340 340 342 342 343 343 345 345 346 346 347 347 345 345 347 347 344 344 348 348 349 349 350 350 348 348 350 350 351 351 353 353 354 354 355 355 353 353 355 355 352 352 358 358 356 356 357 357 358 358 359 359 356 356 360 360 361 361 362 362 360 360 362 362 363 363 364 364 366 366 367 367 365 365 366 366 364 364 368 368 369 369 370 370 368 368 370 370 371 371 375 375 372 372 373 373 374 374 375 375 373 373 376 376 378 378 379 379 376 376 379 379 377 377 380 380 381 381 382 382 380 380 382 382 383 383 384 384 386 386 387 387 385 385 386 386 384 384 388 388 389 389 390 390 388 388 390 390 391 391 393 393 394 394 395 395 393 393 395 395 392 392 396 396 397 397 398 398 396 396 398 398 399 399 401 401 402 402 403 403 401 401 403 403 400 400 406 406 404 404 405 405 406 406 407 407 404 404 408 408 409 409 410 410 408 408 410 410 411 411 412 412 414 414 415 415 413 413 414 414 412 412 416 416 417 417 418 418 416 416 418 418 419 419 423 423 420 420 421 421 422 422 423 423 421 421 424 424 426 426 427 427 424 424 427 427 425 425 428 428 429 429 430 430 428 428 430 430 431 431 432 432 434 434 435 435 433 433 434 434 432 432 436 436 437 437 438 438 436 436 438 438 439 439 441 441 442 442 443 443 441 441 443 443 440 440 444 444 445 445 446 446 444 444 446 446 447 447 449 449 450 450 451 451 449 449 451 451 448 448 454 454 452 452 453 453 454 454 455 455 452 452 456 456 457 457 458 458 456 456 458 458 459 459 460 460 462 462 463 463 461 461 462 462 460 460 464 464 465 465 466 466 464 464 466 466 467 467 471 471 468 468 469 469 470 470 471 471 469 469 472 472 474 474 475 475 472 472 475 475 473 473 476 476 477 477 478 478 476 476 478 478 479 479 480 480 482 482 483 483 481 481 482 482 480 480 484 484 485 485 486 486 484 484 486 486 487 487 489 489 490 490 491 491 489 489 491 491 488 488 492 492 493 493 494 494 492 492 494 494 495 495 497 497 498 498 499 499 497 497 499 499 496 496 502 502 500 500 501 501 502 502 503 503 500 500 504 504 505 505 506 506 504 504 506 506 507 507 508 508 510 510 511 511 509 509 510 510 508 508 512 512 513 513 514 514 512 512 514 514 515 515 519 519 516 516 517 517 518 518 519 519 517 517 520 520 522 522 523 523 520 520 523 523 521 521 524 524 525 525 526 526 524 524 526 526 527 527 528 528 530 530 531 531 529 529 530 530 528 528 532 532 533 533 534 534 532 532 534 534 535 535 537 537 538 538 539 539 537 537 539 539 536 536 540 540 541 541 542 542 540 540 542 542 543 543 545 545 546 546 547 547 545 545 547 547 544 544 550 550 548 548 549 549 550 550 551 551 548 548 552 552 554 554 555 555 553 553 554 554 552 552 556 556 557 557 558 558 556 556 558 558 559 559 561 561 562 562 563 563 561 561 563 563 560 560 564 564 565 565 566 566 564 564 566 566 567 567 569 569 570 570 571 571 569 569 571 571 568 568 574 574 572 572 573 573 574 574 575 575 572 572 581 581 578 578 579 579 581 581 579 579 580 580 576 576 577 577 578 578 576 576 578 578 581 581 582 582 585 585 586 586 582 582 586 586 587 587 583 583 584 584 585 585 583 583 585 585 582 582 588 588 589 589 590 590 588 588 590 590 591 591 592 592 593 593 594 594 592 592 594 594 595 595 599 599 596 596 597 597 598 598 599 599 597 597 601 601 603 603 600 600 602 602 603 603 601 601 604 604 606 606 607 607 604 604 607 607 605 605 608 608 609 609 610 610 608 608 610 610 611 611</p>
        </triangles>
      </mesh>
    </geometry>
  </library_geometries>
  <library_visual_scenes>
    <visual_scene id="IfcOpenShell">
      <node id="project" name="project" type="NODE">
        <matrix>1 0 0 0 0 1 0 0 0 0 1 0 0 0 0 1</matrix>
        <node id="product-a61f50d9-1b06-47d0-9196-83196ee53d41" name="product-a61f50d9-1b06-47d0-9196-83196ee53d41" type="NODE">
          <matrix>1 0 0 -6.412907600402831 0 1 0 -6.443117141723631 0 0 1 -0.6543173789978029 0 0 0 1</matrix>
          <node id="product-a61f50d9-1b06-47d0-9196-83196ee53d42" name="product-a61f50d9-1b06-47d0-9196-83196ee53d42" type="NODE">
            <matrix>1 0 0 0 0 1 0 0 0 0 1 0 0 0 0 1</matrix>
            <node id="product-79503529-d2a7-11d3-9162-0000863f14a2" name="product-79503529-d2a7-11d3-9162-0000863f14a2" type="NODE">
              <matrix>1 0 0 0 0 1 0 0 0 0 1 0 0 0 0 1</matrix>
              <node id="product-23f27b65-2a18-4efe-9dcd-efa1bad83405-body" name="product-23f27b65-2a18-4efe-9dcd-efa1bad83405-body" type="NODE">
                <matrix>1 0 0 6.412907600402831 0 1 0 6.443117141723631 0 0 1 0.6543173789978029 0 0 0 1</matrix>
                <instance_geometry url="#representation-1059258-material-3732">
                  <bind_material>
                    <technique_common>
                      <instance_material symbol="IfcMaterial-3732" target="#IfcMaterial-3732"/>
                    </technique_common>
                  </bind_material>
                </instance_geometry>
              </node>
            </node>
          </node>
        </node>
      </node>
    </visual_scene>
  </library_visual_scenes>
  <scene>
    <instance_visual_scene url="#IfcOpenShell"/>
  </scene>
</COLLADA>