<?xml version="1.0" encoding="utf-8"?>
<COLLADA xmlns="http://www.collada.org/2005/11/COLLADASchema" version="1.4.1" xmlns:xsi="http://www.w3.org/2001/XMLSchema-instance">
  <asset>
    <contributor>
      <authoring_tool>IfcOpenShell 0.8.1-c49ca69</authoring_tool>
    </contributor>
    <created>2025-04-25T00:27:35</created>
    <modified>2025-04-25T00:27:35</modified>
    <unit name="METER" meter="1"/>
    <up_axis>Z_UP</up_axis>
  </asset>
  <library_effects>
    <effect id="IfcMaterial-3732-fx">
      <profile_COMMON>
        <technique sid="common">
          <lambert/>
        </technique>
      </profile_COMMON>
    </effect>
  </library_effects>
  <library_materials>
    <material id="IfcMaterial-3732">
      <instance_effect url="#IfcMaterial-3732-fx"/>
    </material>
  </library_materials>
  <library_geometries>
    <geometry id="representation-1059941-material-3732">
      <mesh>
        <source id="representation-1059941-material-3732-positions">
          <float_array id="representation-1059941-material-3732-positions-array" count="72">0 0.8629657681043627 0.4 0 0.103292025864579 0.4 0.04999999999999993 0.103292025864579 0.4 0.04999999999999993 0.9129657681043626 0.4 0 0.8629657681043627 0 0 0 0 0 0.103292025864579 0.4 0 0.8629657681043627 0.4 0.04999999999999993 0.9129657681043626 0 0.04999999999999993 0 0 0 0 0 0 0.8629657681043627 0 0.04999999999999993 0.9129657681043626 0.4 0.04999999999999993 0.103292025864579 0.4 0.04999999999999993 0 0 0.04999999999999993 0.9129657681043626 0 0.04999999999999993 0 0 0.04999999999999993 0.103292025864579 0.4 0 0.103292025864579 0.4 0 0 0 0 0.8629657681043627 0.4 0.04999999999999993 0.9129657681043626 0.4 0.04999999999999993 0.9129657681043626 0 0 0.8629657681043627 0</float_array>
          <technique_common>
            <accessor source="#representation-1059941-material-3732-positions-array" count="24" stride="3">
              <param name="X" type="float"/>
              <param name="Y" type="float"/>
              <param name="Z" type="float"/>
            </accessor>
          </technique_common>
        </source>
        <source id="representation-1059941-material-3732-normals">
          <float_array id="representation-1059941-material-3732-normals-array" count="72">-1.061163670511123e-15 0 1 -1.061163670511123e-15 0 1 -1.061163670511123e-15 0 1 -1.061163670511123e-15 0 1 -1 0 0 -1 0 0 -1 0 0 -1 0 0 0 0 -1 0 0 -1 0 0 -1 0 0 -1 1 0 0 1 0 0 1 0 0 1 0 0 0 -0.9682385295729332 0.2500282980993234 0 -0.9682385295729332 0.2500282980993234 0 -0.9682385295729332 0.2500282980993234 0 -0.9682385295729332 0.2500282980993234 -0.707106781186547 0.707106781186548 0 -0.707106781186547 0.707106781186548 0 -0.707106781186547 0.707106781186548 0 -0.707106781186547 0.707106781186548 0</float_array>
          <technique_common>
            <accessor source="#representation-1059941-material-3732-normals-array" count="24" stride="3">
              <param name="X" type="float"/>
              <param name="Y" type="float"/>
              <param name="Z" type="float"/>
            </accessor>
          </technique_common>
        </source>
        <vertices id="representation-1059941-material-3732-vertices">
          <input semantic="POSITION" source="#representation-1059941-material-3732-positions"/>
        </vertices>
        <triangles material="IfcMaterial-3732" count="12">
          <input semantic="VERTEX" source="#representation-1059941-material-3732-vertices" offset="0"/>
          <input semantic="NORMAL" source="#representation-1059941-material-3732-normals" offset="1"/>
          <p>0 0 1 1 2 2 3 3 0 0 2 2 6 6 7 7 4 4 5 5 6 6 4 4 11 11 8 8 9 9 11 11 9 9 10 10 13 13 14 14 15 15 13 13 15 15 12 12 16 16 17 17 18 18 16 16 18 18 19 19 22 22 20 20 21 21 22 22 23 23 20 20</p>
        </triangles>
      </mesh>
    </geometry>
  </library_geometries>
  <library_visual_scenes>
    <visual_scene id="IfcOpenShell">
      <node id="project" name="project" type="NODE">
        <matrix>1 0 0 0 0 1 0 0 0 0 1 0 0 0 0 1</matrix>
        <node id="product-a61f50d9-1b06-47d0-9196-83196ee53d41" name="product-a61f50d9-1b06-47d0-9196-83196ee53d41" type="NODE">
          <matrix>1 0 0 -9.51290798187256 0 1 0 -9.97015190124512 0 0 1 -3.04084157943725 0 0 0 1</matrix>
          <node id="product-a61f50d9-1b06-47d0-9196-83196ee53d42" name="product-a61f50d9-1b06-47d0-9196-83196ee53d42" type="NODE">
            <matrix>1 0 0 0 0 1 0 0 0 0 1 0 0 0 0 1</matrix>
            <node id="product-79503529-d2a7-11d3-9162-0000863f14a2" name="product-79503529-d2a7-11d3-9162-0000863f14a2" type="NODE">
              <matrix>1 0 0 0 0 1 0 0 0 0 1 0 0 0 0 1</matrix>
              <node id="product-23f27b65-2a18-4efe-9dcd-efa1bad834a1-body" name="product-23f27b65-2a18-4efe-9dcd-efa1bad834a1-body" type="NODE">
                <matrix>1 0 0 9.51290798187256 0 1 0 9.97015190124512 0 0 1 3.04084157943725 0 0 0 1</matrix>
                <instance_geometry url="#representation-1059941-material-3732">
                  <bind_material>
                    <technique_common>
                      <instance_material symbol="IfcMaterial-3732" target="#IfcMaterial-3732"/>
                    </technique_common>
                  </bind_material>
                </instance_geometry>
              </node>
            </node>
          </node>
        </node>
      </node>
    </visual_scene>
  </library_visual_scenes>
  <scene>
    <instance_visual_scene url="#IfcOpenShell"/>
  </scene>
</COLLADA>