<?xml version="1.0" encoding="utf-8"?>
<COLLADA xmlns="http://www.collada.org/2005/11/COLLADASchema" version="1.4.1" xmlns:xsi="http://www.w3.org/2001/XMLSchema-instance">
  <asset>
    <contributor>
      <authoring_tool>IfcOpenShell 0.8.1-c49ca69</authoring_tool>
    </contributor>
    <created>2025-04-25T00:40:18</created>
    <modified>2025-04-25T00:40:18</modified>
    <unit name="METER" meter="1"/>
    <up_axis>Z_UP</up_axis>
  </asset>
  <library_effects>
    <effect id="IfcMaterial-3732-fx">
      <profile_COMMON>
        <technique sid="common">
          <lambert/>
        </technique>
      </profile_COMMON>
    </effect>
  </library_effects>
  <library_materials>
    <material id="IfcMaterial-3732">
      <instance_effect url="#IfcMaterial-3732-fx"/>
    </material>
  </library_materials>
  <library_geometries>
    <geometry id="representation-1059522-material-3732">
      <mesh>
        <source id="representation-1059522-material-3732-positions">
          <float_array id="representation-1059522-material-3732-positions-array" count="666">0.3 1 2.130434782608696 0.3 0 2.130434782608696 0.3082142857142842 0 2.080434782608696 0.3082142857142883 1 2.080434782608696 0.3 1 2.130434782608696 0.3 0 2.130434782608696 0 1 2.130434782608696 0 0 2.130434782608696 0.008214285714285951 1 2.080434782608696 0.3082142857142883 1 2.080434782608696 0.3082142857142842 0 2.080434782608696 0.008214285714286173 0 2.080434782608696 0.008214285714285951 1 2.080434782608696 0 1 2.130434782608696 0.3 1 2.130434782608696 0.3082142857142883 1 2.080434782608696 0.3082142857142842 0 2.080434782608696 0.3 0 2.130434782608696 0 0 2.130434782608696 0.008214285714286173 0 2.080434782608696 0.008214285714286173 0 2.080434782608696 0 0 2.130434782608696 0 1 2.130434782608696 0.008214285714285951 1 2.080434782608696 0.02088184884269594 0 2.080434782608696 0.008214285714285951 0 2.080434782608696 0.03321428571428575 0 1.928260869565217 0.04588184884269586 0 1.928260869565217 0.03321428571428597 1 1.928260869565217 0.008214285714285951 1 2.080434782608696 0.02088184884269594 1 2.080434782608696 0.04588184884269541 1 1.928260869565217 0.03321428571428597 1 1.928260869565217 0.03321428571428575 0 1.928260869565217 0.008214285714285951 0 2.080434782608696 0.008214285714285951 1 2.080434782608696 0.04588184884269541 1 1.928260869565217 0.04588184884269586 0 1.928260869565217 0.03321428571428575 0 1.928260869565217 0.03321428571428597 1 1.928260869565217 0.02088184884269594 1 2.080434782608696 0.02088184884269594 0 2.080434782608696 0.04588184884269586 0 1.928260869565217 0.04588184884269541 1 1.928260869565217 0.008214285714285951 1 2.080434782608696 0.008214285714285951 0 2.080434782608696 0.02088184884269594 0 2.080434782608696 0.02088184884269594 1 2.080434782608696 0.2958818488426959 0 2.232608695652174 0.283214285714286 0 2.232608695652174 0.3082142857142857 0 2.080434782608696 0.3208818488426959 0 2.080434782608696 0.3082142857142859 1 2.080434782608696 0.283214285714286 1 2.232608695652174 0.2958818488426959 1 2.232608695652174 0.3208818488426955 1 2.080434782608696 0.3082142857142859 1 2.080434782608696 0.3082142857142857 0 2.080434782608696 0.283214285714286 0 2.232608695652174 0.283214285714286 1 2.232608695652174 0.3208818488426955 1 2.080434782608696 0.3208818488426959 0 2.080434782608696 0.3082142857142857 0 2.080434782608696 0.3082142857142859 1 2.080434782608696 0.2958818488426959 1 2.232608695652174 0.2958818488426959 0 2.232608695652174 0.3208818488426959 0 2.080434782608696 0.3208818488426955 1 2.080434782608696 0.283214285714286 1 2.232608695652174 0.283214285714286 0 2.232608695652174 0.2958818488426959 0 2.232608695652174 0.2958818488426959 1 2.232608695652174 0.575 0 2.282608695652174 0.575 1 2.282608695652174 0.275 1 2.282608695652174 0.275 0 2.282608695652174 0.2832142857142863 1 2.232608695652174 0.5832142857142882 1 2.232608695652174 0.5832142857142844 0 2.232608695652174 0.2832142857142867 0 2.232608695652174 0.2832142857142863 1 2.232608695652174 0.275 1 2.282608695652174 0.575 1 2.282608695652174 0.5832142857142882 1 2.232608695652174 0.5832142857142844 0 2.232608695652174 0.575 0 2.282608695652174 0.275 0 2.282608695652174 0.2832142857142867 0 2.232608695652174 0.575 0 2.282608695652174 0.575 1 2.282608695652174 0.5832142857142844 0 2.232608695652174 0.5832142857142882 1 2.232608695652174 0.2832142857142867 0 2.232608695652174 0.275 0 2.282608695652174 0.275 1 2.282608695652174 0.2832142857142863 1 2.232608695652174 0.5708818488426959 0 2.384782608695652 0.5582142857142862 0 2.384782608695652 0.583214285714286 0 2.232608695652174 0.5958818488426959 0 2.232608695652174 0.5832142857142862 1 2.232608695652174 0.5582142857142862 1 2.384782608695652 0.5708818488426959 1 2.384782608695652 0.5958818488426956 1 2.232608695652174 0.5832142857142862 1 2.232608695652174 0.583214285714286 0 2.232608695652174 0.5582142857142862 0 2.384782608695652 0.5582142857142862 1 2.384782608695652 0.5958818488426956 1 2.232608695652174 0.5958818488426959 0 2.232608695652174 0.583214285714286 0 2.232608695652174 0.5832142857142862 1 2.232608695652174 0.5708818488426959 1 2.384782608695652 0.5708818488426959 0 2.384782608695652 0.5958818488426959 0 2.232608695652174 0.5958818488426956 1 2.232608695652174 0.5582142857142862 1 2.384782608695652 0.5582142857142862 0 2.384782608695652 0.5708818488426959 0 2.384782608695652 0.5708818488426959 1 2.384782608695652 0.8499999999999999 0 2.434782608695652 0.8499999999999999 1 2.434782608695652 0.55 1 2.434782608695652 0.55 0 2.434782608695652 0.5582142857142864 1 2.384782608695652 0.8582142857142884 1 2.384782608695652 0.8582142857142844 0 2.384782608695652 0.5582142857142866 0 2.384782608695652 0.5582142857142864 1 2.384782608695652 0.55 1 2.434782608695652 0.8499999999999999 1 2.434782608695652 0.8582142857142884 1 2.384782608695652 0.8582142857142844 0 2.384782608695652 0.8499999999999999 0 2.434782608695652 0.55 0 2.434782608695652 0.5582142857142866 0 2.384782608695652 0.8499999999999999 0 2.434782608695652 0.8499999999999999 1 2.434782608695652 0.8582142857142844 0 2.384782608695652 0.8582142857142884 1 2.384782608695652 0.5582142857142866 0 2.384782608695652 0.55 0 2.434782608695652 0.55 1 2.434782608695652 0.5582142857142864 1 2.384782608695652 1.120881848842696 0 2.689130434782609 1.108214285714286 0 2.689130434782609 1.133214285714286 0 2.53695652173913 1.145881848842696 0 2.53695652173913 1.133214285714286 1 2.53695652173913 1.108214285714286 1 2.689130434782609 1.120881848842696 1 2.689130434782609 1.145881848842696 1 2.53695652173913 1.133214285714286 1 2.53695652173913 1.133214285714286 0 2.53695652173913 1.108214285714286 0 2.689130434782609 1.108214285714286 1 2.689130434782609 1.145881848842696 1 2.53695652173913 1.145881848842696 0 2.53695652173913 1.133214285714286 0 2.53695652173913 1.133214285714286 1 2.53695652173913 1.120881848842696 1 2.689130434782609 1.120881848842696 0 2.689130434782609 1.145881848842696 0 2.53695652173913 1.145881848842696 1 2.53695652173913 1.108214285714286 1 2.689130434782609 1.108214285714286 0 2.689130434782609 1.120881848842696 0 2.689130434782609 1.120881848842696 1 2.689130434782609 0.8458818488426936 0 2.53695652173913 0.8332142857142841 0 2.53695652173913 0.858214285714284 0 2.384782608695652 0.8708818488426937 0 2.384782608695652 0.8582142857142879 1 2.384782608695652 0.8332142857142879 1 2.53695652173913 0.8458818488426976 1 2.53695652173913 0.8708818488426977 1 2.384782608695652 0.8582142857142879 1 2.384782608695652 0.858214285714284 0 2.384782608695652 0.8332142857142841 0 2.53695652173913 0.8332142857142879 1 2.53695652173913 0.8708818488426977 1 2.384782608695652 0.8708818488426937 0 2.384782608695652 0.858214285714284 0 2.384782608695652 0.8582142857142879 1 2.384782608695652 0.8458818488426976 1 2.53695652173913 0.8458818488426936 0 2.53695652173913 0.8708818488426937 0 2.384782608695652 0.8708818488426977 1 2.384782608695652 0.8332142857142879 1 2.53695652173913 0.8332142857142841 0 2.53695652173913 0.8458818488426936 0 2.53695652173913 0.8458818488426976 1 2.53695652173913 1.125 0 2.58695652173913 1.125 1 2.58695652173913 1.1 1 2.58695652173913 0.825 1 2.58695652173913 0.825 0 2.58695652173913 1.1 1 2.53695652173913 1.133214285714286 1 2.53695652173913 1.133214285714286 0 2.53695652173913 0.8332142857142841 0 2.53695652173913 0.8332142857142879 1 2.53695652173913 1.1 1 2.53695652173913 1.1 1 2.58695652173913 1.125 1 2.58695652173913 1.133214285714286 1 2.53695652173913 0.8332142857142879 1 2.53695652173913 0.825 1 2.58695652173913 1.1 1 2.58695652173913 1.1 1 2.53695652173913 1.133214285714286 0 2.53695652173913 1.125 0 2.58695652173913 0.825 0 2.58695652173913 0.8332142857142841 0 2.53695652173913 1.125 0 2.58695652173913 1.125 1 2.58695652173913 1.133214285714286 0 2.53695652173913 1.133214285714286 1 2.53695652173913 0.8332142857142841 0 2.53695652173913 0.825 0 2.58695652173913 0.825 1 2.58695652173913 0.8332142857142879 1 2.53695652173913</float_array>
          <technique_common>
            <accessor source="#representation-1059522-material-3732-positions-array" count="222" stride="3">
              <param name="X" type="float"/>
              <param name="Y" type="float"/>
              <param name="Z" type="float"/>
            </accessor>
          </technique_common>
        </source>
        <source id="representation-1059522-material-3732-normals">
          <float_array id="representation-1059522-material-3732-normals-array" count="666">0.9867722681378298 -1.985661342018615e-15 0.1621125869083676 0.9867722681378298 -1.985661342018615e-15 0.1621125869083676 0.9867722681378298 -1.985661342018615e-15 0.1621125869083676 0.9867722681378298 -1.985661342018615e-15 0.1621125869083676 0 0 1 0 0 1 0 0 1 0 0 1 0 0 -1 0 0 -1 0 0 -1 0 0 -1 0 1 0 0 1 0 0 1 0 0 1 0 0 -1 0 0 -1 0 0 -1 0 0 -1 0 -0.9867722681378301 0 -0.1621125869083649 -0.9867722681378301 0 -0.1621125869083649 -0.9867722681378301 0 -0.1621125869083649 -0.9867722681378301 0 -0.1621125869083649 0 -1 0 0 -1 0 0 -1 0 0 -1 0 0 1 0 0 1 0 0 1 0 0 1 0 -0.9867722681378314 0 -0.162112586908357 -0.9867722681378314 0 -0.162112586908357 -0.9867722681378314 0 -0.162112586908357 -0.9867722681378314 0 -0.162112586908357 0 0 -1 0 0 -1 0 0 -1 0 0 -1 0.9867722681378315 2.249764082090069e-16 0.1621125869083562 0.9867722681378315 2.249764082090069e-16 0.1621125869083562 0.9867722681378315 2.249764082090069e-16 0.1621125869083562 0.9867722681378315 2.249764082090069e-16 0.1621125869083562 0 0 1 0 0 1 0 0 1 0 0 1 0 -1 0 0 -1 0 0 -1 0 0 -1 0 0 1 0 0 1 0 0 1 0 0 1 0 -0.9867722681378314 0 -0.1621125869083573 -0.9867722681378314 0 -0.1621125869083573 -0.9867722681378314 0 -0.1621125869083573 -0.9867722681378314 0 -0.1621125869083573 0 0 -1 0 0 -1 0 0 -1 0 0 -1 0.9867722681378315 2.249764082090076e-16 0.1621125869083566 0.9867722681378315 2.249764082090076e-16 0.1621125869083566 0.9867722681378315 2.249764082090076e-16 0.1621125869083566 0.9867722681378315 2.249764082090076e-16 0.1621125869083566 0 0 1 0 0 1 0 0 1 0 0 1 0 0 1 0 0 1 0 0 1 0 0 1 0 0 -1 0 0 -1 0 0 -1 0 0 -1 0 1 0 0 1 0 0 1 0 0 1 0 0 -1 0 0 -1 0 0 -1 0 0 -1 0 0.9867722681378294 -1.848719180500106e-15 0.1621125869083696 0.9867722681378294 -1.848719180500106e-15 0.1621125869083696 0.9867722681378294 -1.848719180500106e-15 0.1621125869083696 0.9867722681378294 -1.848719180500106e-15 0.1621125869083696 -0.9867722681378289 0 -0.1621125869083727 -0.9867722681378289 0 -0.1621125869083727 -0.9867722681378289 0 -0.1621125869083727 -0.9867722681378289 0 -0.1621125869083727 0 -1 0 0 -1 0 0 -1 0 0 -1 0 0 1 0 0 1 0 0 1 0 0 1 0 -0.9867722681378314 0 -0.1621125869083571 -0.9867722681378314 0 -0.1621125869083571 -0.9867722681378314 0 -0.1621125869083571 -0.9867722681378314 0 -0.1621125869083571 0 0 -1 0 0 -1 0 0 -1 0 0 -1 0.9867722681378315 0 0.1621125869083565 0.9867722681378315 0 0.1621125869083565 0.9867722681378315 0 0.1621125869083565 0.9867722681378315 0 0.1621125869083565 0 0 1 0 0 1 0 0 1 0 0 1 0 0 1 0 0 1 0 0 1 0 0 1 0 0 -1 0 0 -1 0 0 -1 0 0 -1 0 1 0 0 1 0 0 1 0 0 1 0 0 -1 0 0 -1 0 0 -1 0 0 -1 0 0.9867722681378287 -2.054132422777893e-15 0.1621125869083738 0.9867722681378287 -2.054132422777893e-15 0.1621125869083738 0.9867722681378287 -2.054132422777893e-15 0.1621125869083738 0.9867722681378287 -2.054132422777893e-15 0.1621125869083738 -0.9867722681378287 0 -0.1621125869083738 -0.9867722681378287 0 -0.1621125869083738 -0.9867722681378287 0 -0.1621125869083738 -0.9867722681378287 0 -0.1621125869083738 0 -1 0 0 -1 0 0 -1 0 0 -1 0 0 1 0 0 1 0 0 1 0 0 1 0 -0.9867722681378314 0 -0.1621125869083571 -0.9867722681378314 0 -0.1621125869083571 -0.9867722681378314 0 -0.1621125869083571 -0.9867722681378314 0 -0.1621125869083571 0 0 -1 0 0 -1 0 0 -1 0 0 -1 0.9867722681378312 0 0.1621125869083586 0.9867722681378312 0 0.1621125869083586 0.9867722681378312 0 0.1621125869083586 0.9867722681378312 0 0.1621125869083586 0 0 1 0 0 1 0 0 1 0 0 1 0 -1 0 0 -1 0 0 -1 0 0 -1 0 0 1 0 0 1 0 0 1 0 0 1 0 -0.9867722681378313 3.599622531344121e-15 -0.162112586908358 -0.9867722681378313 3.599622531344121e-15 -0.162112586908358 -0.9867722681378313 3.599622531344121e-15 -0.162112586908358 -0.9867722681378313 3.599622531344121e-15 -0.162112586908358 0 0 -1 0 0 -1 0 0 -1 0 0 -1 0.9867722681378313 -3.959584784478533e-15 0.1621125869083583 0.9867722681378313 -3.959584784478533e-15 0.1621125869083583 0.9867722681378313 -3.959584784478533e-15 0.1621125869083583 0.9867722681378313 -3.959584784478533e-15 0.1621125869083583 0 0 1 0 0 1 0 0 1 0 0 1 0 0 1 0 0 1 0 0 1 0 0 1 0 0 1 0 0 -1 0 0 -1 0 0 -1 0 0 -1 0 0 -1 0 1 0 0 1 0 0 1 0 0 1 0 0 1 0 0 1 0 0 1 0 0 1 0 0 -1 0 0 -1 0 0 -1 0 0 -1 0 0.9867722681378298 0 0.1621125869083673 0.9867722681378298 0 0.1621125869083673 0.9867722681378298 0 0.1621125869083673 0.9867722681378298 0 0.1621125869083673 -0.9867722681378304 1.780248099740844e-15 -0.1621125869083631 -0.9867722681378304 1.780248099740844e-15 -0.1621125869083631 -0.9867722681378304 1.780248099740844e-15 -0.1621125869083631 -0.9867722681378304 1.780248099740844e-15 -0.1621125869083631</float_array>
          <technique_common>
            <accessor source="#representation-1059522-material-3732-normals-array" count="222" stride="3">
              <param name="X" type="float"/>
              <param name="Y" type="float"/>
              <param name="Z" type="float"/>
            </accessor>
          </technique_common>
        </source>
        <vertices id="representation-1059522-material-3732-vertices">
          <input semantic="POSITION" source="#representation-1059522-material-3732-positions"/>
        </vertices>
        <triangles material="IfcMaterial-3732" count="112">
          <input semantic="VERTEX" source="#representation-1059522-material-3732-vertices" offset="0"/>
          <input semantic="NORMAL" source="#representation-1059522-material-3732-normals" offset="1"/>
          <p>1 1 2 2 3 3 1 1 3 3 0 0 4 4 6 6 7 7 4 4 7 7 5 5 8 8 9 9 10 10 8 8 10 10 11 11 14 14 12 12 13 13 14 14 15 15 12 12 17 17 18 18 19 19 16 16 17 17 19 19 20 20 21 21 22 22 20 20 22 22 23 23 26 26 24 24 25 25 27 27 24 24 26 26 30 30 28 28 29 29 30 30 31 31 28 28 33 33 34 34 35 35 33 33 35 35 32 32 39 39 36 36 37 37 39 39 37 37 38 38 41 41 42 42 43 43 41 41 43 43 40 40 47 47 44 44 45 45 47 47 45 45 46 46 50 50 48 48 49 49 51 51 48 48 50 50 54 54 52 52 53 53 54 54 55 55 52 52 57 57 58 58 59 59 57 57 59 59 56 56 63 63 60 60 61 61 63 63 61 61 62 62 65 65 66 66 67 67 65 65 67 67 64 64 71 71 68 68 69 69 71 71 69 69 70 70 73 73 74 74 75 75 73 73 75 75 72 72 76 76 77 77 78 78 76 76 78 78 79 79 82 82 80 80 81 81 82 82 83 83 80 80 85 85 86 86 87 87 84 84 85 85 87 87 88 88 90 90 91 91 88 88 91 91 89 89 92 92 93 93 94 94 92 92 94 94 95 95 98 98 96 96 97 97 99 99 96 96 98 98 102 102 100 100 101 101 102 102 103 103 100 100 105 105 106 106 107 107 105 105 107 107 104 104 111 111 108 108 109 109 111 111 109 109 110 110 113 113 114 114 115 115 113 113 115 115 112 112 119 119 116 116 117 117 119 119 117 117 118 118 121 121 122 122 123 123 121 121 123 123 120 120 124 124 125 125 126 126 124 124 126 126 127 127 130 130 128 128 129 129 130 130 131 131 128 128 133 133 134 134 135 135 132 132 133 133 135 135 136 136 138 138 139 139 136 136 139 139 137 137 140 140 141 141 142 142 140 140 142 142 143 143 146 146 144 144 145 145 147 147 144 144 146 146 150 150 148 148 149 149 150 150 151 151 148 148 153 153 154 154 155 155 153 153 155 155 152 152 159 159 156 156 157 157 159 159 157 157 158 158 161 161 162 162 163 163 161 161 163 163 160 160 167 167 164 164 165 165 167 167 165 165 166 166 170 170 168 168 169 169 171 171 168 168 170 170 174 174 172 172 173 173 174 174 175 175 172 172 177 177 178 178 179 179 177 177 179 179 176 176 183 183 180 180 181 181 183 183 181 181 182 182 185 185 186 186 187 187 185 185 187 187 184 184 191 191 188 188 189 189 191 191 189 189 190 190 194 194 195 195 196 196 194 194 196 196 192 192 193 193 194 194 192 192 197 197 198 198 199 199 197 197 199 199 200 200 201 201 197 197 200 200 204 204 202 202 203 203 204 204 205 205 202 202 208 208 206 206 207 207 208 208 209 209 206 206 211 211 212 212 213 213 210 210 211 211 213 213 214 214 216 216 217 217 214 214 217 217 215 215 218 218 219 219 220 220 218 218 220 220 221 221</p>
        </triangles>
      </mesh>
    </geometry>
  </library_geometries>
  <library_visual_scenes>
    <visual_scene id="IfcOpenShell">
      <node id="project" name="project" type="NODE">
        <matrix>1 0 0 0 0 1 0 0 0 0 1 0 0 0 0 1</matrix>
        <node id="product-a61f50d9-1b06-47d0-9196-83196ee53d41" name="product-a61f50d9-1b06-47d0-9196-83196ee53d41" type="NODE">
          <matrix>1 0 0 -7.412907600402831 0 1 0 -9.83311843872071 0 0 1 -0.6543173789978029 0 0 0 1</matrix>
          <node id="product-a61f50d9-1b06-47d0-9196-83196ee53d42" name="product-a61f50d9-1b06-47d0-9196-83196ee53d42" type="NODE">
            <matrix>1 0 0 0 0 1 0 0 0 0 1 0 0 0 0 1</matrix>
            <node id="product-79503529-d2a7-11d3-9162-0000863f14a2" name="product-79503529-d2a7-11d3-9162-0000863f14a2" type="NODE">
              <matrix>1 0 0 0 0 1 0 0 0 0 1 0 0 0 0 1</matrix>
              <node id="product-23f27b65-2a18-4efe-9dcd-efa1bad834ca-body" name="product-23f27b65-2a18-4efe-9dcd-efa1bad834ca-body" type="NODE">
                <matrix>1 0 0 7.412907600402831 0 1 0 9.83311843872071 0 0 1 0.6543173789978029 0 0 0 1</matrix>
                <instance_geometry url="#representation-1059522-material-3732">
                  <bind_material>
                    <technique_common>
                      <instance_material symbol="IfcMaterial-3732" target="#IfcMaterial-3732"/>
                    </technique_common>
                  </bind_material>
                </instance_geometry>
              </node>
            </node>
          </node>
        </node>
      </node>
    </visual_scene>
  </library_visual_scenes>
  <scene>
    <instance_visual_scene url="#IfcOpenShell"/>
  </scene>
</COLLADA>