<?xml version="1.0" encoding="utf-8"?>
<COLLADA xmlns="http://www.collada.org/2005/11/COLLADASchema" version="1.4.1" xmlns:xsi="http://www.w3.org/2001/XMLSchema-instance">
  <asset>
    <contributor>
      <authoring_tool>IfcOpenShell 0.8.1-c49ca69</authoring_tool>
    </contributor>
    <created>2025-04-25T00:28:20</created>
    <modified>2025-04-25T00:28:20</modified>
    <unit name="METER" meter="1"/>
    <up_axis>Z_UP</up_axis>
  </asset>
  <library_effects>
    <effect id="IfcSurfaceStyleRendering-521793-fx">
      <profile_COMMON>
        <technique sid="common">
          <lambert>
            <diffuse>
              <color>0.4784313725490196 0.4117647058823529 0.3568627450980392 1</color>
            </diffuse>
            <specular>
              <color>0.5 0.5 0.5 1</color>
            </specular>
            <shininess>
              <float>128</float>
            </shininess>
          </lambert>
        </technique>
      </profile_COMMON>
    </effect>
  </library_effects>
  <library_materials>
    <material id="IfcSurfaceStyleRendering-521793">
      <instance_effect url="#IfcSurfaceStyleRendering-521793-fx"/>
    </material>
  </library_materials>
  <library_geometries>
    <geometry id="representation-521797">
      <mesh>
        <source id="representation-521797-positions">
          <float_array id="representation-521797-positions-array" count="504">0 0.06030000000000146 1.7272 0 0.1746 1.7272 1.8288 0.1746 1.7272 1.8288 0.06030000000000146 1.7272 1.8288 0.06030000000000146 1.7272 1.8288 0.1746 1.7272 1.8288 0.1746 0 1.8288 0.06030000000000146 0 1.8288 0.06030000000000146 0 1.8288 0.1746 0 0 0.1746 0 0 0.06030000000000146 0 0 0.06030000000000146 0 0 0.1746 0 0 0.1746 1.7272 0 0.06030000000000146 1.7272 1.777999999999997 0.06030000000000146 0.558800000000007 1.777999999999997 0.1746 0.558800000000007 0.9397999999999956 0.1746 0.558800000000007 0.9397999999999956 0.06030000000000146 0.558800000000007 0.9397999999999956 0.06030000000000146 0.558800000000007 0.9397999999999956 0.1746 0.558800000000007 0.9397999999999955 0.1746 0.05080000000000939 0.9397999999999955 0.06030000000000146 0.05080000000000939 0.9397999999999955 0.06030000000000146 0.05080000000000939 0.9397999999999955 0.1746 0.05080000000000939 1.777999999999997 0.1746 0.05080000000000939 1.777999999999997 0.06030000000000146 0.05080000000000939 1.777999999999997 0.06030000000000146 0.05080000000000939 1.777999999999997 0.1746 0.05080000000000939 1.777999999999997 0.1746 0.558800000000007 1.777999999999997 0.06030000000000146 0.558800000000007 0.8889999999999962 0.06030000000000146 0.558800000000007 0.8889999999999962 0.1746 0.558800000000007 0.05079999999999418 0.1746 0.558800000000007 0.05079999999999418 0.06030000000000146 0.558800000000007 0.05079999999999418 0.06030000000000146 0.558800000000007 0.05079999999999418 0.1746 0.558800000000007 0.05079999999999418 0.1746 0.05080000000000939 0.05079999999999418 0.06030000000000146 0.05080000000000939 0.05079999999999418 0.06030000000000146 0.05080000000000939 0.05079999999999418 0.1746 0.05080000000000939 0.8889999999999962 0.1746 0.05080000000000939 0.8889999999999962 0.06030000000000146 0.05080000000000939 0.8889999999999962 0.06030000000000146 0.05080000000000939 0.8889999999999962 0.1746 0.05080000000000939 0.8889999999999962 0.1746 0.558800000000007 0.8889999999999962 0.06030000000000146 0.558800000000007 0.9397999999999954 0.06030000000000146 1.676400000000006 0.9397999999999954 0.1746 1.676400000000006 0.9397999999999954 0.1746 1.168400000000011 0.9397999999999954 0.06030000000000146 1.168400000000011 0.9397999999999954 0.06030000000000146 1.168400000000011 0.9397999999999954 0.1746 1.168400000000011 1.777999999999996 0.1746 1.168400000000011 1.777999999999996 0.06030000000000146 1.168400000000011 1.777999999999996 0.06030000000000146 1.168400000000011 1.777999999999996 0.1746 1.168400000000011 1.777999999999996 0.1746 1.676400000000006 1.777999999999996 0.06030000000000146 1.676400000000006 1.777999999999996 0.06030000000000146 1.676400000000006 1.777999999999996 0.1746 1.676400000000006 0.9397999999999954 0.1746 1.676400000000006 0.9397999999999954 0.06030000000000146 1.676400000000006 0.05079999999999396 0.06030000000000146 1.676400000000006 0.05079999999999396 0.1746 1.676400000000006 0.05079999999999396 0.1746 1.168400000000011 0.05079999999999396 0.06030000000000146 1.168400000000011 0.05079999999999396 0.06030000000000146 1.168400000000011 0.05079999999999396 0.1746 1.168400000000011 0.8889999999999955 0.1746 1.168400000000011 0.8889999999999955 0.06030000000000146 1.168400000000011 0.8889999999999955 0.06030000000000146 1.168400000000011 0.8889999999999955 0.1746 1.168400000000011 0.8889999999999955 0.1746 1.676400000000006 0.8889999999999955 0.06030000000000146 1.676400000000006 0.8889999999999955 0.06030000000000146 1.676400000000006 0.8889999999999955 0.1746 1.676400000000006 0.05079999999999396 0.1746 1.676400000000006 0.05079999999999396 0.06030000000000146 1.676400000000006 0.9397999999999954 0.06030000000000146 1.1176 0.9397999999999954 0.1746 1.1176 0.9397999999999954 0.1746 0.6096000000000002 0.9397999999999954 0.06030000000000146 0.6096000000000002 0.9397999999999954 0.06030000000000146 0.6096000000000002 0.9397999999999954 0.1746 0.6096000000000002 1.777999999999996 0.1746 0.6096000000000002 1.777999999999996 0.06030000000000146 0.6096000000000002 1.777999999999996 0.06030000000000146 0.6096000000000002 1.777999999999996 0.1746 0.6096000000000002 1.777999999999996 0.1746 1.1176 1.777999999999996 0.06030000000000146 1.1176 1.777999999999996 0.06030000000000146 1.1176 1.777999999999996 0.1746 1.1176 0.9397999999999954 0.1746 1.1176 0.9397999999999954 0.06030000000000146 1.1176 0.05079999999999396 0.06030000000000146 1.1176 0.05079999999999396 0.1746 1.1176 0.05079999999999396 0.1746 0.6096000000000002 0.05079999999999396 0.06030000000000146 0.6096000000000002 0.05079999999999396 0.06030000000000146 0.6096000000000002 0.05079999999999396 0.1746 0.6096000000000002 0.8889999999999955 0.1746 0.6096000000000002 0.8889999999999955 0.06030000000000146 0.6096000000000002 0.8889999999999955 0.06030000000000146 0.6096000000000002 0.8889999999999955 0.1746 0.6096000000000002 0.8889999999999955 0.1746 1.1176 0.8889999999999955 0.06030000000000146 1.1176 0.8889999999999955 0.06030000000000146 1.1176 0.8889999999999955 0.1746 1.1176 0.05079999999999396 0.1746 1.1176 0.05079999999999396 0.06030000000000146 1.1176 0 0.06030000000000146 1.7272 1.8288 0.06030000000000146 1.7272 1.8288 0.06030000000000146 0 0 0.06030000000000146 0 1.777999999999997 0.06030000000000146 0.558800000000007 0.9397999999999956 0.06030000000000146 0.558800000000007 0.9397999999999955 0.06030000000000146 0.05080000000000939 1.777999999999997 0.06030000000000146 0.05080000000000939 0.8889999999999962 0.06030000000000146 0.558800000000007 0.05079999999999418 0.06030000000000146 0.558800000000007 0.05079999999999418 0.06030000000000146 0.05080000000000939 0.8889999999999962 0.06030000000000146 0.05080000000000939 0.9397999999999954 0.06030000000000146 1.676400000000006 0.9397999999999954 0.06030000000000146 1.168400000000011 1.777999999999996 0.06030000000000146 1.168400000000011 1.777999999999996 0.06030000000000146 1.676400000000006 0.05079999999999396 0.06030000000000146 1.676400000000006 0.05079999999999396 0.06030000000000146 1.168400000000011 0.8889999999999955 0.06030000000000146 1.168400000000011 0.8889999999999955 0.06030000000000146 1.676400000000006 0.9397999999999954 0.06030000000000146 1.1176 0.9397999999999954 0.06030000000000146 0.6096000000000002 1.777999999999996 0.06030000000000146 0.6096000000000002 1.777999999999996 0.06030000000000146 1.1176 0.05079999999999396 0.06030000000000146 1.1176 0.05079999999999396 0.06030000000000146 0.6096000000000002 0.8889999999999955 0.06030000000000146 0.6096000000000002 0.8889999999999955 0.06030000000000146 1.1176 0 0.1746 1.7272 1.8288 0.1746 1.7272 1.8288 0.1746 0 0 0.1746 0 1.777999999999997 0.1746 0.558800000000007 0.9397999999999956 0.1746 0.558800000000007 0.9397999999999955 0.1746 0.05080000000000939 1.777999999999997 0.1746 0.05080000000000939 0.8889999999999962 0.1746 0.558800000000007 0.05079999999999418 0.1746 0.558800000000007 0.05079999999999418 0.1746 0.05080000000000939 0.8889999999999962 0.1746 0.05080000000000939 0.9397999999999954 0.1746 1.676400000000006 0.9397999999999954 0.1746 1.168400000000011 1.777999999999996 0.1746 1.168400000000011 1.777999999999996 0.1746 1.676400000000006 0.05079999999999396 0.1746 1.676400000000006 0.05079999999999396 0.1746 1.168400000000011 0.8889999999999955 0.1746 1.168400000000011 0.8889999999999955 0.1746 1.676400000000006 0.9397999999999954 0.1746 1.1176 0.9397999999999954 0.1746 0.6096000000000002 1.777999999999996 0.1746 0.6096000000000002 1.777999999999996 0.1746 1.1176 0.05079999999999396 0.1746 1.1176 0.05079999999999396 0.1746 0.6096000000000002 0.8889999999999955 0.1746 0.6096000000000002 0.8889999999999955 0.1746 1.1176</float_array>
          <technique_common>
            <accessor source="#representation-521797-positions-array" count="168" stride="3">
              <param name="X" type="float"/>
              <param name="Y" type="float"/>
              <param name="Z" type="float"/>
            </accessor>
          </technique_common>
        </source>
        <source id="representation-521797-normals">
          <float_array id="representation-521797-normals-array" count="504">0 0 1 0 0 1 0 0 1 0 0 1 1 0 0 1 0 0 1 0 0 1 0 0 0 0 -1 0 0 -1 0 0 -1 0 0 -1 -1 0 0 -1 0 0 -1 0 0 -1 0 0 0 0 -1 0 0 -1 0 0 -1 0 0 -1 1 0 -2.663551793822669e-16 1 0 -2.663551793822669e-16 1 0 -2.663551793822669e-16 1 0 -2.663551793822669e-16 0 0 1 0 0 1 0 0 1 0 0 1 -1 0 0 -1 0 0 -1 0 0 -1 0 0 0 0 -1 0 0 -1 0 0 -1 0 0 -1 1 0 0 1 0 0 1 0 0 1 0 0 0 0 1 0 0 1 0 0 1 0 0 1 -1 0 0 -1 0 0 -1 0 0 -1 0 0 1 0 0 1 0 0 1 0 0 1 0 0 0 0 1 0 0 1 0 0 1 0 0 1 -1 0 0 -1 0 0 -1 0 0 -1 0 0 0 0 -1 0 0 -1 0 0 -1 0 0 -1 1 0 0 1 0 0 1 0 0 1 0 0 0 0 1 0 0 1 0 0 1 0 0 1 -1 0 0 -1 0 0 -1 0 0 -1 0 0 0 0 -1 0 0 -1 0 0 -1 0 0 -1 1 0 0 1 0 0 1 0 0 1 0 0 0 0 1 0 0 1 0 0 1 0 0 1 -1 0 0 -1 0 0 -1 0 0 -1 0 0 0 0 -1 0 0 -1 0 0 -1 0 0 -1 1 0 0 1 0 0 1 0 0 1 0 0 0 0 1 0 0 1 0 0 1 0 0 1 -1 0 0 -1 0 0 -1 0 0 -1 0 0 0 0 -1 0 0 -1 0 0 -1 0 0 -1 0 -1 0 0 -1 0 0 -1 0 0 -1 0 0 -1 0 0 -1 0 0 -1 0 0 -1 0 0 -1 0 0 -1 0 0 -1 0 0 -1 0 0 -1 0 0 -1 0 0 -1 0 0 -1 0 0 -1 0 0 -1 0 0 -1 0 0 -1 0 0 -1 0 0 -1 0 0 -1 0 0 -1 0 0 -1 0 0 -1 0 0 -1 0 0 -1 0 0 1 0 0 1 0 0 1 0 0 1 0 0 1 0 0 1 0 0 1 0 0 1 0 0 1 0 0 1 0 0 1 0 0 1 0 0 1 0 0 1 0 0 1 0 0 1 0 0 1 0 0 1 0 0 1 0 0 1 0 0 1 0 0 1 0 0 1 0 0 1 0 0 1 0 0 1 0 0 1 0 0 1 0</float_array>
          <technique_common>
            <accessor source="#representation-521797-normals-array" count="168" stride="3">
              <param name="X" type="float"/>
              <param name="Y" type="float"/>
              <param name="Z" type="float"/>
            </accessor>
          </technique_common>
        </source>
        <vertices id="representation-521797-vertices">
          <input semantic="POSITION" source="#representation-521797-positions"/>
        </vertices>
        <triangles material="IfcSurfaceStyleRendering-521793" count="132">
          <input semantic="VERTEX" source="#representation-521797-vertices" offset="0"/>
          <input semantic="NORMAL" source="#representation-521797-normals" offset="1"/>
          <p>1 1 0 0 3 3 2 2 1 1 3 3 5 5 4 4 7 7 6 6 5 5 7 7 9 9 8 8 11 11 10 10 9 9 11 11 13 13 12 12 15 15 14 14 13 13 15 15 17 17 16 16 19 19 18 18 17 17 19 19 21 21 20 20 23 23 22 22 21 21 23 23 25 25 24 24 27 27 26 26 25 25 27 27 29 29 28 28 31 31 30 30 29 29 31 31 33 33 32 32 35 35 34 34 33 33 35 35 37 37 36 36 39 39 38 38 37 37 39 39 41 41 40 40 43 43 42 42 41 41 43 43 45 45 44 44 47 47 46 46 45 45 47 47 49 49 48 48 51 51 50 50 49 49 51 51 53 53 52 52 55 55 54 54 53 53 55 55 57 57 56 56 59 59 58 58 57 57 59 59 61 61 60 60 63 63 62 62 61 61 63 63 65 65 64 64 67 67 66 66 65 65 67 67 69 69 68 68 71 71 70 70 69 69 71 71 73 73 72 72 75 75 74 74 73 73 75 75 77 77 76 76 79 79 78 78 77 77 79 79 81 81 80 80 83 83 82 82 81 81 83 83 85 85 84 84 87 87 86 86 85 85 87 87 89 89 88 88 91 91 90 90 89 89 91 91 93 93 92 92 95 95 94 94 93 93 95 95 97 97 96 96 99 99 98 98 97 97 99 99 101 101 100 100 103 103 102 102 101 101 103 103 105 105 104 104 107 107 106 106 105 105 107 107 109 109 108 108 111 111 110 110 109 109 111 111 128 128 112 112 129 129 112 112 128 128 131 131 131 131 130 130 125 125 124 124 131 131 125 125 130 130 129 129 139 139 129 129 136 136 139 139 125 125 130 130 139 139 125 125 139 139 132 132 122 122 121 121 115 115 124 124 127 127 113 113 137 137 121 121 138 138 138 138 121 121 120 120 139 139 138 138 133 133 132 132 139 139 133 133 138 138 120 120 117 117 133 133 138 138 117 117 113 113 127 127 126 126 126 126 125 125 135 135 125 125 132 132 135 135 122 122 115 115 123 123 120 120 123 123 118 118 117 117 120 120 118 118 133 133 117 117 134 134 134 134 117 117 116 116 119 119 118 118 114 114 116 116 119 119 114 114 124 124 113 113 112 112 131 131 124 124 112 112 116 116 114 114 113 113 134 134 116 116 113 113 135 135 134 134 113 113 126 126 135 135 113 113 123 123 115 115 114 114 118 118 123 123 114 114 129 129 112 112 115 115 136 136 129 129 115 115 137 137 136 136 115 115 121 121 137 137 115 115 157 157 140 140 156 156 159 159 156 156 140 140 153 153 158 158 159 159 153 153 159 159 152 152 167 167 157 157 158 158 167 167 164 164 157 157 167 167 158 158 153 153 160 160 167 167 153 153 143 143 149 149 150 150 141 141 155 155 152 152 166 166 149 149 165 165 148 148 149 149 166 166 161 161 166 166 167 167 161 161 167 167 160 160 145 145 148 148 166 166 145 145 166 166 161 161 154 154 155 155 141 141 163 163 153 153 154 154 163 163 160 160 153 153 151 151 143 143 150 150 146 146 151 151 148 148 146 146 148 148 145 145 162 162 145 145 161 161 144 144 145 145 162 162 142 142 146 146 147 147 142 142 147 147 144 144 140 140 141 141 152 152 140 140 152 152 159 159 141 141 142 142 144 144 141 141 144 144 162 162 141 141 162 162 163 163 141 141 163 163 154 154 142 142 143 143 151 151 142 142 151 151 146 146 143 143 140 140 157 157 143 143 157 157 164 164 143 143 164 164 165 165 143 143 165 165 149 149</p>
        </triangles>
      </mesh>
    </geometry>
  </library_geometries>
  <library_visual_scenes>
    <visual_scene id="IfcOpenShell">
      <node id="project" name="project" type="NODE">
        <matrix>1 0 0 0 0 1 0 0 0 0 1 0 0 0 0 1</matrix>
        <node id="product-a61f50d9-1b06-47d0-9196-83196ee53d41" name="product-a61f50d9-1b06-47d0-9196-83196ee53d41" type="NODE">
          <matrix>1 0 0 -6.300786018371586 0 1 0 -1.6979763507843 0 0 1 -4.654317378997803 0 0 0 1</matrix>
          <node id="product-a61f50d9-1b06-47d0-9196-83196ee53d42" name="product-a61f50d9-1b06-47d0-9196-83196ee53d42" type="NODE">
            <matrix>1 0 0 0 0 1 0 0 0 0 1 0 0 0 0 1</matrix>
            <node id="product-44bd8488-e63e-11d3-918b-0000863f1984" name="product-44bd8488-e63e-11d3-918b-0000863f1984" type="NODE">
              <matrix>1 0 0 0 0 1 0 0 0 0 1 3.5 0 0 0 1</matrix>
              <node id="product-e1101115-ac30-429a-95ac-7e9efa47a81f" name="product-e1101115-ac30-429a-95ac-7e9efa47a81f" type="NODE">
                <matrix>7.549790126404311e-8 -0.9999999999999972 0 6.20078563690186 0.9999999999999972 7.549790126404311e-8 0 1.17237615585327 0 0 1 0.6543173789978027 0 0 0 1</matrix>
                <node id="product-2e2e754e-6385-8c54-2d2a-d0cc5fa134d0" name="product-2e2e754e-6385-8c54-2d2a-d0cc5fa134d0" type="NODE">
                  <matrix>0.9999999999999998 0 0 0.5256000000000028 0 0.9999999999999998 0 -0.1 0 0 1 0.5 0 0 0 1</matrix>
                  <node id="product-866c4410-b48e-4838-a9ab-ccb8dfddaef8-body" name="product-866c4410-b48e-4838-a9ab-ccb8dfddaef8-body" type="NODE">
                    <matrix>0.9999999999999998 0 0 2.024808450267508e-7 0 0.9999999999999998 0 -3.417880137033308e-7 0 0 1 0 0 0 0 1</matrix>
                    <instance_geometry url="#representation-521797">
                      <bind_material>
                        <technique_common>
                          <instance_material symbol="IfcSurfaceStyleRendering-521793" target="#IfcSurfaceStyleRendering-521793"/>
                        </technique_common>
                      </bind_material>
                    </instance_geometry>
                  </node>
                </node>
              </node>
            </node>
          </node>
        </node>
      </node>
    </visual_scene>
  </library_visual_scenes>
  <scene>
    <instance_visual_scene url="#IfcOpenShell"/>
  </scene>
</COLLADA>