<?xml version="1.0" encoding="utf-8"?>
<COLLADA xmlns="http://www.collada.org/2005/11/COLLADASchema" version="1.4.1" xmlns:xsi="http://www.w3.org/2001/XMLSchema-instance">
  <asset>
    <contributor>
      <authoring_tool>IfcOpenShell 0.8.1-c49ca69</authoring_tool>
    </contributor>
    <created>2025-04-25T00:28:46</created>
    <modified>2025-04-25T00:28:46</modified>
    <unit name="METER" meter="1"/>
    <up_axis>Z_UP</up_axis>
  </asset>
  <library_effects>
    <effect id="IfcSurfaceStyleRendering-1057591-fx">
      <profile_COMMON>
        <technique sid="common">
          <lambert>
            <diffuse>
              <color>0.5333333333333333 0.3882352941176471 0.2156862745098039 1</color>
            </diffuse>
            <specular>
              <color>0.5 0.5 0.5 1</color>
            </specular>
            <shininess>
              <float>128</float>
            </shininess>
          </lambert>
        </technique>
      </profile_COMMON>
    </effect>
  </library_effects>
  <library_materials>
    <material id="IfcSurfaceStyleRendering-1057591">
      <instance_effect url="#IfcSurfaceStyleRendering-1057591-fx"/>
    </material>
  </library_materials>
  <library_geometries>
    <geometry id="representation-1057597">
      <mesh>
        <source id="representation-1057597-positions">
          <float_array id="representation-1057597-positions-array" count="432">8.1601392309949e-15 0 1.83 8.1601392309949e-15 0.1369999999999725 1.83 0.9150000000000086 0.1369999999999725 1.83 0.9150000000000086 0 1.83 0.9150000000000086 0 1.83 0.9150000000000086 0.1369999999999725 1.83 0.9150000000000086 0.1369999999999725 0 0.9150000000000086 0 0 0.9150000000000086 0 0 0.9150000000000086 0.1369999999999725 0 8.1601392309949e-15 0.1369999999999725 0 8.1601392309949e-15 0 0 8.1601392309949e-15 0 0 8.1601392309949e-15 0.1369999999999725 0 8.1601392309949e-15 0.1369999999999725 1.83 8.1601392309949e-15 0 1.83 0.03200000000000846 0 1.798 0.03200000000000846 0.1369999999999725 1.798 0.03200000000000846 0.1369999999999725 0.03200000000000002 0.03200000000000846 0 0.03200000000000002 0.03200000000000846 0 0.03200000000000002 0.03200000000000846 0.1369999999999725 0.03200000000000002 0.8830000000000085 0.1369999999999725 0.03200000000000002 0.8830000000000085 0 0.03200000000000002 0.8830000000000085 0 0.03200000000000002 0.8830000000000085 0.1369999999999725 0.03200000000000002 0.8830000000000085 0.1369999999999725 1.798 0.8830000000000085 0 1.798 0.8830000000000085 0 1.798 0.8830000000000085 0.1369999999999725 1.798 0.03200000000000846 0.1369999999999725 1.798 0.03200000000000846 0 1.798 8.1601392309949e-15 0 1.83 0.9150000000000086 0 1.83 0.9150000000000086 0 0 8.1601392309949e-15 0 0 0.03200000000000846 0 1.798 0.03200000000000846 0 0.03200000000000002 0.8830000000000085 0 0.03200000000000002 0.8830000000000085 0 1.798 8.1601392309949e-15 0.1369999999999725 1.83 0.9150000000000086 0.1369999999999725 1.83 0.9150000000000086 0.1369999999999725 0 8.1601392309949e-15 0.1369999999999725 0 0.03200000000000846 0.1369999999999725 1.798 0.03200000000000846 0.1369999999999725 0.03200000000000002 0.8830000000000085 0.1369999999999725 0.03200000000000002 0.8830000000000085 0.1369999999999725 1.798 8.104628079763642e-15 0.137 1.83 8.104628079763642e-15 0.2000000000000274 1.83 0.9150000000000078 0.2000000000000274 1.83 0.9150000000000078 0.137 1.83 0.9150000000000078 0.137 1.83 0.9150000000000078 0.2000000000000274 1.83 0.9150000000000078 0.2000000000000274 0 0.9150000000000078 0.137 0 0.9150000000000078 0.137 0 0.9150000000000078 0.2000000000000274 0 8.104628079763642e-15 0.2000000000000274 0 8.104628079763642e-15 0.137 0 8.104628079763642e-15 0.137 0 8.104628079763642e-15 0.2000000000000274 0 8.104628079763642e-15 0.2000000000000274 1.83 8.104628079763642e-15 0.137 1.83 0.01900000000000678 0.137 1.811 0.01900000000000678 0.2000000000000274 1.811 0.01900000000000678 0.2000000000000274 0.01900000000000001 0.01900000000000678 0.137 0.01900000000000001 0.01900000000000678 0.137 0.01900000000000001 0.01900000000000678 0.2000000000000274 0.01900000000000001 0.8960000000000065 0.2000000000000274 0.01900000000000001 0.8960000000000065 0.137 0.01900000000000001 0.8960000000000065 0.137 0.01900000000000001 0.8960000000000065 0.2000000000000274 0.01900000000000001 0.8960000000000065 0.2000000000000274 1.811 0.8960000000000065 0.137 1.811 0.8960000000000065 0.137 1.811 0.8960000000000065 0.2000000000000274 1.811 0.01900000000000678 0.2000000000000274 1.811 0.01900000000000678 0.137 1.811 8.104628079763642e-15 0.137 1.83 0.9150000000000078 0.137 1.83 0.9150000000000078 0.137 0 8.104628079763642e-15 0.137 0 0.01900000000000678 0.137 1.811 0.01900000000000678 0.137 0.01900000000000001 0.8960000000000065 0.137 0.01900000000000001 0.8960000000000065 0.137 1.811 8.104628079763642e-15 0.2000000000000274 1.83 0.9150000000000078 0.2000000000000274 1.83 0.9150000000000078 0.2000000000000274 0 8.104628079763642e-15 0.2000000000000274 0 0.01900000000000678 0.2000000000000274 1.811 0.01900000000000678 0.2000000000000274 0.01900000000000001 0.8960000000000065 0.2000000000000274 0.01900000000000001 0.8960000000000065 0.2000000000000274 1.811 0.01900000000000667 0.137 1.811 0.01900000000000667 0.1810000000000274 1.811 0.8960000000000065 0.1810000000000274 1.811 0.8960000000000065 0.137 1.811 0.8960000000000065 0.137 1.811 0.8960000000000065 0.1810000000000274 1.811 0.8960000000000065 0.1810000000000274 0.01900000000000001 0.8960000000000065 0.137 0.01900000000000001 0.8960000000000065 0.137 0.01900000000000001 0.8960000000000065 0.1810000000000274 0.01900000000000001 0.01900000000000667 0.1810000000000274 0.01900000000000001 0.01900000000000667 0.137 0.01900000000000001 0.01900000000000667 0.137 0.01900000000000001 0.01900000000000667 0.1810000000000274 0.01900000000000001 0.01900000000000667 0.1810000000000274 1.811 0.01900000000000667 0.137 1.811 0.06300000000000693 0.137 1.767 0.06300000000000693 0.1810000000000274 1.767 0.06300000000000693 0.1810000000000274 0.06300000000000005 0.06300000000000693 0.137 0.06300000000000005 0.06300000000000693 0.137 0.06300000000000005 0.06300000000000693 0.1810000000000274 0.06300000000000005 0.8520000000000041 0.1810000000000274 0.06300000000000005 0.8520000000000041 0.137 0.06300000000000005 0.8520000000000041 0.137 0.06300000000000005 0.8520000000000041 0.1810000000000274 0.06300000000000005 0.8520000000000041 0.1810000000000274 1.767 0.8520000000000041 0.137 1.767 0.8520000000000041 0.137 1.767 0.8520000000000041 0.1810000000000274 1.767 0.06300000000000693 0.1810000000000274 1.767 0.06300000000000693 0.137 1.767 0.01900000000000667 0.137 1.811 0.8960000000000065 0.137 1.811 0.8960000000000065 0.137 0.01900000000000001 0.01900000000000667 0.137 0.01900000000000001 0.06300000000000693 0.137 1.767 0.06300000000000693 0.137 0.06300000000000005 0.8520000000000041 0.137 0.06300000000000005 0.8520000000000041 0.137 1.767 0.01900000000000667 0.1810000000000274 1.811 0.8960000000000065 0.1810000000000274 1.811 0.8960000000000065 0.1810000000000274 0.01900000000000001 0.01900000000000667 0.1810000000000274 0.01900000000000001 0.06300000000000693 0.1810000000000274 1.767 0.06300000000000693 0.1810000000000274 0.06300000000000005 0.8520000000000041 0.1810000000000274 0.06300000000000005 0.8520000000000041 0.1810000000000274 1.767</float_array>
          <technique_common>
            <accessor source="#representation-1057597-positions-array" count="144" stride="3">
              <param name="X" type="float"/>
              <param name="Y" type="float"/>
              <param name="Z" type="float"/>
            </accessor>
          </technique_common>
        </source>
        <source id="representation-1057597-normals">
          <float_array id="representation-1057597-normals-array" count="432">0 0 1 0 0 1 0 0 1 0 0 1 1 0 0 1 0 0 1 0 0 1 0 0 0 0 -1 0 0 -1 0 0 -1 0 0 -1 -1 0 0 -1 0 0 -1 0 0 -1 0 0 1 0 0 1 0 0 1 0 0 1 0 0 0 0 1 0 0 1 0 0 1 0 0 1 -1 0 0 -1 0 0 -1 0 0 -1 0 0 0 0 -1 0 0 -1 0 0 -1 0 0 -1 0 -1 0 0 -1 0 0 -1 0 0 -1 0 0 -1 0 0 -1 0 0 -1 0 0 -1 0 0 1 0 0 1 0 0 1 0 0 1 0 0 1 0 0 1 0 0 1 0 0 1 0 0 0 1 0 0 1 0 0 1 0 0 1 1 0 0 1 0 0 1 0 0 1 0 0 0 0 -1 0 0 -1 0 0 -1 0 0 -1 -1 0 0 -1 0 0 -1 0 0 -1 0 0 1 0 0 1 0 0 1 0 0 1 0 0 0 0 1 0 0 1 0 0 1 0 0 1 -1 0 0 -1 0 0 -1 0 0 -1 0 0 0 0 -1 0 0 -1 0 0 -1 0 0 -1 0 -1 0 0 -1 0 0 -1 0 0 -1 0 0 -1 0 0 -1 0 0 -1 0 0 -1 0 0 1 0 0 1 0 0 1 0 0 1 0 0 1 0 0 1 0 0 1 0 0 1 0 0 0 1 0 0 1 0 0 1 0 0 1 1 0 0 1 0 0 1 0 0 1 0 0 0 0 -1 0 0 -1 0 0 -1 0 0 -1 -1 0 0 -1 0 0 -1 0 0 -1 0 0 1 0 0 1 0 0 1 0 0 1 0 0 0 0 1 0 0 1 0 0 1 0 0 1 -1 0 0 -1 0 0 -1 0 0 -1 0 0 0 0 -1 0 0 -1 0 0 -1 0 0 -1 0 -1 0 0 -1 0 0 -1 0 0 -1 0 0 -1 0 0 -1 0 0 -1 0 0 -1 0 0 1 0 0 1 0 0 1 0 0 1 0 0 1 0 0 1 0 0 1 0 0 1 0</float_array>
          <technique_common>
            <accessor source="#representation-1057597-normals-array" count="144" stride="3">
              <param name="X" type="float"/>
              <param name="Y" type="float"/>
              <param name="Z" type="float"/>
            </accessor>
          </technique_common>
        </source>
        <vertices id="representation-1057597-vertices">
          <input semantic="POSITION" source="#representation-1057597-positions"/>
        </vertices>
        <triangles material="IfcSurfaceStyleRendering-1057591" count="96">
          <input semantic="VERTEX" source="#representation-1057597-vertices" offset="0"/>
          <input semantic="NORMAL" source="#representation-1057597-normals" offset="1"/>
          <p>1 1 0 0 3 3 2 2 1 1 3 3 5 5 4 4 7 7 6 6 5 5 7 7 9 9 8 8 11 11 10 10 9 9 11 11 13 13 12 12 15 15 14 14 13 13 15 15 17 17 16 16 19 19 18 18 17 17 19 19 21 21 20 20 23 23 22 22 21 21 23 23 25 25 24 24 27 27 26 26 25 25 27 27 29 29 28 28 31 31 30 30 29 29 31 31 36 36 39 39 33 33 32 32 36 36 33 33 32 32 35 35 37 37 36 36 32 32 37 37 38 38 37 37 34 34 39 39 38 38 34 34 37 37 35 35 34 34 33 33 39 39 34 34 41 41 47 47 44 44 41 41 44 44 40 40 45 45 43 43 40 40 45 45 40 40 44 44 42 42 45 45 46 46 42 42 46 46 47 47 42 42 43 43 45 45 42 42 47 47 41 41 49 49 48 48 51 51 50 50 49 49 51 51 53 53 52 52 55 55 54 54 53 53 55 55 57 57 56 56 59 59 58 58 57 57 59 59 61 61 60 60 63 63 62 62 61 61 63 63 65 65 64 64 67 67 66 66 65 65 67 67 69 69 68 68 71 71 70 70 69 69 71 71 73 73 72 72 75 75 74 74 73 73 75 75 77 77 76 76 79 79 78 78 77 77 79 79 80 80 84 84 87 87 80 80 87 87 81 81 85 85 84 84 83 83 84 84 80 80 83 83 85 85 83 83 86 86 87 87 86 86 82 82 81 81 87 87 82 82 86 86 83 83 82 82 95 95 92 92 88 88 89 89 95 95 88 88 91 91 92 92 93 93 91 91 88 88 92 92 94 94 91 91 93 93 90 90 94 94 95 95 90 90 95 95 89 89 90 90 91 91 94 94 97 97 96 96 99 99 98 98 97 97 99 99 101 101 100 100 103 103 102 102 101 101 103 103 105 105 104 104 107 107 106 106 105 105 107 107 109 109 108 108 111 111 110 110 109 109 111 111 113 113 112 112 115 115 114 114 113 113 115 115 117 117 116 116 119 119 118 118 117 117 119 119 121 121 120 120 123 123 122 122 121 121 123 123 125 125 124 124 127 127 126 126 125 125 127 127 128 128 132 132 135 135 128 128 135 135 129 129 128 128 131 131 133 133 132 132 128 128 133 133 133 133 131 131 134 134 135 135 134 134 130 130 129 129 135 135 130 130 134 134 131 131 130 130 143 143 140 140 136 136 137 137 143 143 136 136 141 141 139 139 136 136 141 141 136 136 140 140 142 142 139 139 141 141 138 138 142 142 143 143 138 138 143 143 137 137 138 138 139 139 142 142</p>
        </triangles>
      </mesh>
    </geometry>
  </library_geometries>
  <library_visual_scenes>
    <visual_scene id="IfcOpenShell">
      <node id="project" name="project" type="NODE">
        <matrix>1 0 0 0 0 1 0 0 0 0 1 0 0 0 0 1</matrix>
        <node id="product-a61f50d9-1b06-47d0-9196-83196ee53d41" name="product-a61f50d9-1b06-47d0-9196-83196ee53d41" type="NODE">
          <matrix>1 0 0 -15.22814750671387 0 1 0 -7.189876556396484 0 0 1 -4.454317569732666 0 0 0 1</matrix>
          <node id="product-a61f50d9-1b06-47d0-9196-83196ee53d42" name="product-a61f50d9-1b06-47d0-9196-83196ee53d42" type="NODE">
            <matrix>1 0 0 0 0 1 0 0 0 0 1 0 0 0 0 1</matrix>
            <node id="product-44bd8488-e63e-11d3-918b-0000863f1984" name="product-44bd8488-e63e-11d3-918b-0000863f1984" type="NODE">
              <matrix>1 0 0 0 0 1 0 0 0 0 1 3.5 0 0 0 1</matrix>
              <node id="product-e1101115-ac30-429a-95ac-7e9efa47af44" name="product-e1101115-ac30-429a-95ac-7e9efa47af44" type="NODE">
                <matrix>7.549790126404311e-8 0.9999999999999972 0 15.3281478881836 -0.9999999999999972 7.549790126404311e-8 0 7.773933410644531 0 0 1 0.6543173789978027 0 0 0 1</matrix>
                <node id="product-4808cf24-13da-1b1d-dcdf-09651851319a" name="product-4808cf24-13da-1b1d-dcdf-09651851319a" type="NODE">
                  <matrix>0.9999999999999998 0 0 0.5840569710452647 0 0.9999999999999998 0 -0.09999999999999931 0 0 1 0.2999999999999998 0 0 0 1</matrix>
                  <node id="product-866c4410-b48e-4838-a9ab-ccb8dfddaff1-body" name="product-866c4410-b48e-4838-a9ab-ccb8dfddaff1-body" type="NODE">
                    <matrix>0.9999999999999998 0 0 -1.243470385985988e-7 0 0.9999999999999998 0 -4.2556479356481e-7 0 0 1 1.907348634588857e-7 0 0 0 1</matrix>
                    <instance_geometry url="#representation-1057597">
                      <bind_material>
                        <technique_common>
                          <instance_material symbol="IfcSurfaceStyleRendering-1057591" target="#IfcSurfaceStyleRendering-1057591"/>
                        </technique_common>
                      </bind_material>
                    </instance_geometry>
                  </node>
                </node>
              </node>
            </node>
          </node>
        </node>
      </node>
    </visual_scene>
  </library_visual_scenes>
  <scene>
    <instance_visual_scene url="#IfcOpenShell"/>
  </scene>
</COLLADA>