<?xml version="1.0" encoding="utf-8"?>
<COLLADA xmlns="http://www.collada.org/2005/11/COLLADASchema" version="1.4.1" xmlns:xsi="http://www.w3.org/2001/XMLSchema-instance">
  <asset>
    <contributor>
      <authoring_tool>IfcOpenShell 0.8.1-c49ca69</authoring_tool>
    </contributor>
    <created>2025-04-25T00:28:23</created>
    <modified>2025-04-25T00:28:23</modified>
    <unit name="METER" meter="1"/>
    <up_axis>Z_UP</up_axis>
  </asset>
  <library_effects>
    <effect id="IfcMaterial-3732-fx">
      <profile_COMMON>
        <technique sid="common">
          <lambert/>
        </technique>
      </profile_COMMON>
    </effect>
  </library_effects>
  <library_materials>
    <material id="IfcMaterial-3732">
      <instance_effect url="#IfcMaterial-3732-fx"/>
    </material>
  </library_materials>
  <library_geometries>
    <geometry id="representation-1064546-material-3732">
      <mesh>
        <source id="representation-1064546-material-3732-positions">
          <float_array id="representation-1064546-material-3732-positions-array" count="672">1.385 0.415 0 1.42023141064542 0.415 0 1.435 0.4064733509625133 0 1.435 0.4 0 1.335 0.4 0 1.335 0.4078933068250901 0 1.385 0.415 0 1.42023141064542 0.415 0 1.385 0.415 2.08 -0.0149999999999999 0.415 2.08 -0.0149999999999999 0.415 0 -0.05023141064542058 0.415 0 -0.05023141064542058 0.415 2.115231410645426 1.42023141064542 0.415 2.115231410645426 1.385 0.415 0 1.335 0.4078933068250901 0 1.335 0.4078933068250901 2.03 1.385 0.415 2.08 1.335 0.4078933068250901 0 1.335 0.4 0 1.335 0.4 2.03 1.335 0.4078933068250901 2.03 1.335 0.4 0 1.435 0.4 0 1.435 0.4 2.13 -0.06499999999999994 0.4 2.13 -0.06499999999999994 0.4 0 0.03499999999999992 0.4 0 0.03499999999999992 0.4 2.03 1.335 0.4 2.03 1.435 0.4 0 1.435 0.4064733509625133 0 1.435 0.4064733509625132 2.13 1.435 0.4 2.13 1.435 0.4064733509625133 0 1.42023141064542 0.415 0 1.42023141064542 0.415 2.115231410645426 1.435 0.4064733509625132 2.13 1.335 0.4078933068250901 2.03 1.385 0.415 2.08 0.03499999999999992 0.4078933068250861 2.03 -0.0149999999999999 0.415 2.08 1.335 0.4 2.03 1.335 0.4078933068250901 2.03 0.03499999999999992 0.4 2.03 0.03499999999999992 0.4078933068250861 2.03 1.435 0.4064733509625132 2.13 1.435 0.4 2.13 -0.06499999999999994 0.4064733509625084 2.13 -0.06499999999999994 0.4 2.13 1.435 0.4064733509625132 2.13 1.42023141064542 0.415 2.115231410645426 -0.05023141064542058 0.415 2.115231410645426 -0.06499999999999994 0.4064733509625084 2.13 -0.06499999999999994 0.4064733509625084 0 -0.05023141064542058 0.415 0 -0.0149999999999999 0.415 0 0.03499999999999992 0.4078933068250861 0 0.03499999999999992 0.4 0 -0.06499999999999994 0.4 0 0.03499999999999992 0.4078933068250861 2.03 -0.0149999999999999 0.415 2.08 0.03499999999999992 0.4078933068250861 0 -0.0149999999999999 0.415 0 0.03499999999999992 0.4078933068250861 2.03 0.03499999999999992 0.4 2.03 0.03499999999999992 0.4 0 0.03499999999999992 0.4078933068250861 0 -0.06499999999999994 0.4064733509625084 2.13 -0.06499999999999994 0.4 2.13 -0.06499999999999994 0.4064733509625084 0 -0.06499999999999994 0.4 0 -0.06499999999999994 0.4064733509625084 2.13 -0.05023141064542058 0.415 2.115231410645426 -0.05023141064542058 0.415 0 -0.06499999999999994 0.4064733509625084 0 -0.0149999999999999 0.185 0 -0.05023141064542158 0.185 0 -0.06499999999999994 0.1935266490403798 0 -0.06499999999999994 0.2 0 0.03499999999999992 0.2 0 0.03499999999999992 0.1921066931778027 0 -0.0149999999999999 0.185 0 -0.05023141064542158 0.185 0 -0.0149999999999999 0.185 2.08 1.385 0.185 2.08 1.385 0.185 0 1.420231410645419 0.185 0 1.420231410645419 0.185 2.115231410645426 -0.05023141064542147 0.185 2.115231410645426 -0.0149999999999999 0.185 0 0.03499999999999992 0.1921066931778027 0 0.03499999999999992 0.1921066931778026 2.03 -0.0149999999999999 0.185 2.08 0.03499999999999992 0.1921066931778027 0 0.03499999999999992 0.2 0 0.03499999999999992 0.2 2.03 0.03499999999999992 0.1921066931778026 2.03 0.03499999999999992 0.2 0 -0.06499999999999994 0.2 0 -0.06499999999999994 0.2 2.13 1.435 0.2 2.13 1.435 0.2 0 1.335 0.2 0 1.335 0.2 2.03 0.03499999999999992 0.2 2.03 -0.06499999999999994 0.2 0 -0.06499999999999994 0.1935266490403798 0 -0.06499999999999994 0.1935266490403798 2.13 -0.06499999999999994 0.2 2.13 -0.06499999999999994 0.1935266490403798 0 -0.05023141064542158 0.185 0 -0.05023141064542147 0.185 2.115231410645426 -0.06499999999999994 0.1935266490403798 2.13 0.03499999999999992 0.1921066931778026 2.03 -0.0149999999999999 0.185 2.08 1.335 0.1921066931778026 2.03 1.385 0.185 2.08 0.03499999999999992 0.2 2.03 0.03499999999999992 0.1921066931778026 2.03 1.335 0.2 2.03 1.335 0.1921066931778026 2.03 -0.06499999999999994 0.1935266490403798 2.13 -0.06499999999999994 0.2 2.13 1.435 0.1935266490403798 2.13 1.435 0.2 2.13 -0.06499999999999994 0.1935266490403798 2.13 -0.05023141064542147 0.185 2.115231410645426 1.420231410645419 0.185 2.115231410645426 1.435 0.1935266490403798 2.13 1.435 0.1935266490403798 0 1.420231410645419 0.185 0 1.385 0.185 0 1.335 0.1921066931778027 0 1.335 0.2 0 1.435 0.2 0 1.335 0.1921066931778026 2.03 1.385 0.185 2.08 1.335 0.1921066931778027 0 1.385 0.185 0 1.335 0.1921066931778026 2.03 1.335 0.2 2.03 1.335 0.2 0 1.335 0.1921066931778027 0 1.435 0.1935266490403798 2.13 1.435 0.2 2.13 1.435 0.1935266490403798 0 1.435 0.2 0 1.435 0.1935266490403798 2.13 1.420231410645419 0.185 2.115231410645426 1.420231410645419 0.185 0 1.435 0.1935266490403798 0 0.07499999999999995 0.2 0 0 0.2 0 0 0.4 0 0.05999999999999994 0.4 0 0.05999999999999994 0.35 0 0.07499999999999995 0.35 0 0.07499999999999995 0.2 0 0 0.2 0 0.07499999999999995 0.2 2.015 1.295 0.2 2.015 1.295 0.2 0 1.37 0.2 0 1.37 0.2 2.09 0 0.2 2.09 0.07499999999999995 0.2 0 0.07499999999999995 0.35 0 0.07499999999999995 0.35 2.015 0.07499999999999995 0.2 2.015 0.07499999999999995 0.35 0 0.05999999999999994 0.35 0 0.05999999999999994 0.35 2.03 1.31 0.35 2.03 1.31 0.35 0 1.295 0.35 0 1.295 0.35 2.015 0.07499999999999995 0.35 2.015 0.05999999999999994 0.35 0 0.05999999999999994 0.4 0 0.05999999999999994 0.4 2.03 0.05999999999999994 0.35 2.03 0.05999999999999994 0.4 0 0 0.4 0 0 0.4 2.09 1.37 0.4 2.09 1.37 0.4 0 1.31 0.4 0 1.31 0.4 2.03 0.05999999999999994 0.4 2.03 0 0.4 0 0 0.2 0 0 0.2 2.09 0 0.4 2.09 1.37 0.4 2.09 1.37 0.2 2.09 1.37 0.2 0 1.37 0.4 0 1.37 0.4 0 1.37 0.2 0 1.295 0.2 0 1.295 0.35 0 1.31 0.35 0 1.31 0.4 0 1.295 0.35 2.015 1.295 0.2 2.015 1.295 0.35 0 1.295 0.2 0 1.31 0.4 2.03 1.31 0.35 2.03 1.31 0.4 0 1.31 0.35 0 0.07499999999999995 0.35 2.015 0.07499999999999995 0.2 2.015 1.295 0.35 2.015 1.295 0.2 2.015 0.05999999999999994 0.4 2.03 0.05999999999999994 0.35 2.03 1.31 0.4 2.03 1.31 0.35 2.03 0 0.4 2.09 0 0.2 2.09 1.37 0.2 2.09 1.37 0.4 2.09</float_array>
          <technique_common>
            <accessor source="#representation-1064546-material-3732-positions-array" count="224" stride="3">
              <param name="X" type="float"/>
              <param name="Y" type="float"/>
              <param name="Z" type="float"/>
            </accessor>
          </technique_common>
        </source>
        <source id="representation-1064546-material-3732-normals">
          <float_array id="representation-1064546-material-3732-normals-array" count="672">0 0 -1 0 0 -1 0 0 -1 0 0 -1 0 0 -1 0 0 -1 0 1 -1.024205708294085e-15 0 1 -1.024205708294085e-15 0 1 -1.024205708294085e-15 0 1 -1.024205708294085e-15 0 1 -1.024205708294085e-15 0 1 -1.024205708294085e-15 0 1 -1.024205708294085e-15 0 1 -1.024205708294085e-15 -0.1407195599860622 0.9900494964582978 0 -0.1407195599860622 0.9900494964582978 0 -0.1407195599860622 0.9900494964582978 0 -0.1407195599860622 0.9900494964582978 0 -1 0 0 -1 0 0 -1 0 0 -1 0 0 0 -1 0 0 -1 0 0 -1 0 0 -1 0 0 -1 0 0 -1 0 0 -1 0 0 -1 0 1 0 0 1 0 0 1 0 0 1 0 0 0.4999999999150777 0.8660254038334685 0 0.4999999999150777 0.8660254038334685 0 0.4999999999150777 0.8660254038334685 0 0.4999999999150777 0.8660254038334685 0 -1.475745215190266e-15 0.9900494964582925 -0.1407195599860993 -1.475745215190266e-15 0.9900494964582925 -0.1407195599860993 -1.475745215190266e-15 0.9900494964582925 -0.1407195599860993 -1.475745215190266e-15 0.9900494964582925 -0.1407195599860993 0 0 -1 0 0 -1 0 0 -1 0 0 -1 0 0 1 0 0 1 0 0 1 0 0 1 -1.353364210467925e-15 0.8660254038333154 0.4999999999153429 -1.353364210467925e-15 0.8660254038333154 0.4999999999153429 -1.353364210467925e-15 0.8660254038333154 0.4999999999153429 -1.353364210467925e-15 0.8660254038333154 0.4999999999153429 0 0 -1 0 0 -1 0 0 -1 0 0 -1 0 0 -1 0 0 -1 0.1407195599861412 0.9900494964582866 0 0.1407195599861412 0.9900494964582866 0 0.1407195599861412 0.9900494964582866 0 0.1407195599861412 0.9900494964582866 0 1 0 0 1 0 0 1 0 0 1 0 0 -1 0 0 -1 0 0 -1 0 0 -1 0 0 -0.4999999999153011 0.8660254038333395 0 -0.4999999999153011 0.8660254038333395 0 -0.4999999999153011 0.8660254038333395 0 -0.4999999999153011 0.8660254038333395 0 0 0 -1 0 0 -1 0 0 -1 0 0 -1 0 0 -1 0 0 -1 0 -1 0 0 -1 0 0 -1 0 0 -1 0 0 -1 0 0 -1 0 0 -1 0 0 -1 0 0.140719560042208 -0.9900494964503177 0 0.140719560042208 -0.9900494964503177 0 0.140719560042208 -0.9900494964503177 0 0.140719560042208 -0.9900494964503177 0 1 0 0 1 0 0 1 0 0 1 0 0 0 1 0 0 1 0 0 1 0 0 1 0 0 1 0 0 1 0 0 1 0 0 1 0 -1 0 0 -1 0 0 -1 0 0 -1 0 0 -0.5000000000423516 -0.8660254037599869 0 -0.5000000000423516 -0.8660254037599869 0 -0.5000000000423516 -0.8660254037599869 0 -0.5000000000423516 -0.8660254037599869 0 0 -0.9900494964503177 -0.1407195600422075 0 -0.9900494964503177 -0.1407195600422075 0 -0.9900494964503177 -0.1407195600422075 0 -0.9900494964503177 -0.1407195600422075 0 0 -1 0 0 -1 0 0 -1 0 0 -1 0 0 1 0 0 1 0 0 1 0 0 1 0 -0.8660254037599168 0.5000000000424731 0 -0.8660254037599168 0.5000000000424731 0 -0.8660254037599168 0.5000000000424731 0 -0.8660254037599168 0.5000000000424731 0 0 -1 0 0 -1 0 0 -1 0 0 -1 0 0 -1 0 0 -1 -0.1407195600422076 -0.9900494964503177 0 -0.1407195600422076 -0.9900494964503177 0 -0.1407195600422076 -0.9900494964503177 0 -0.1407195600422076 -0.9900494964503177 0 -1 0 0 -1 0 0 -1 0 0 -1 0 0 1 0 0 1 0 0 1 0 0 1 0 0 0.5000000000422902 -0.8660254037600223 0 0.5000000000422902 -0.8660254037600223 0 0.5000000000422902 -0.8660254037600223 0 0.5000000000422902 -0.8660254037600223 0 0 0 -1 0 0 -1 0 0 -1 0 0 -1 0 0 -1 0 0 -1 0 -1 0 0 -1 0 0 -1 0 0 -1 0 0 -1 0 0 -1 0 0 -1 0 0 -1 0 1 0 0 1 0 0 1 0 0 1 0 0 0 1 0 0 1 0 0 1 0 0 1 0 0 1 0 0 1 0 0 1 0 0 1 0 1 0 0 1 0 0 1 0 0 1 0 0 0 1 0 0 1 0 0 1 0 0 1 0 0 1 0 0 1 0 0 1 0 0 1 0 -1 0 0 -1 0 0 -1 0 0 -1 0 0 1 0 0 1 0 0 1 0 0 1 0 0 0 0 -1 0 0 -1 0 0 -1 0 0 -1 0 0 -1 0 0 -1 -1 0 0 -1 0 0 -1 0 0 -1 0 0 -1 0 0 -1 0 0 -1 0 0 -1 0 0 0 0 -1 0 0 -1 0 0 -1 0 0 -1 0 0 -1 0 0 -1 0 0 -1 0 0 -1 0 0 1 0 0 1 0 0 1 0 0 1</float_array>
          <technique_common>
            <accessor source="#representation-1064546-material-3732-normals-array" count="224" stride="3">
              <param name="X" type="float"/>
              <param name="Y" type="float"/>
              <param name="Z" type="float"/>
            </accessor>
          </technique_common>
        </source>
        <vertices id="representation-1064546-material-3732-vertices">
          <input semantic="POSITION" source="#representation-1064546-material-3732-positions"/>
        </vertices>
        <triangles material="IfcMaterial-3732" count="132">
          <input semantic="VERTEX" source="#representation-1064546-material-3732-vertices" offset="0"/>
          <input semantic="NORMAL" source="#representation-1064546-material-3732-normals" offset="1"/>
          <p>1 1 2 2 3 3 0 0 1 1 3 3 4 4 0 0 3 3 5 5 0 0 4 4 9 9 10 10 11 11 12 12 9 9 11 11 8 8 7 7 6 6 13 13 8 8 9 9 13 13 9 9 12 12 13 13 7 7 8 8 14 14 15 15 16 16 14 14 16 16 17 17 19 19 20 20 21 21 19 19 21 21 18 18 24 24 28 28 29 29 24 24 25 25 28 28 26 26 28 28 25 25 27 27 28 28 26 26 23 23 29 29 22 22 23 23 24 24 29 29 33 33 30 30 31 31 33 33 31 31 32 32 34 34 35 35 36 36 34 34 36 36 37 37 39 39 38 38 40 40 39 39 40 40 41 41 45 45 43 43 42 42 45 45 42 42 44 44 46 46 48 48 49 49 46 46 49 49 47 47 51 51 52 52 53 53 50 50 51 51 53 53 56 56 57 57 58 58 59 59 56 56 58 58 55 55 56 56 59 59 54 54 55 55 59 59 63 63 61 61 60 60 62 62 63 63 60 60 65 65 66 66 67 67 65 65 67 67 64 64 71 71 69 69 68 68 71 71 68 68 70 70 75 75 72 72 73 73 74 74 75 75 73 73 76 76 80 80 81 81 79 79 76 76 77 77 79 79 77 77 78 78 79 79 80 80 76 76 88 88 89 89 84 84 85 85 88 88 84 84 83 83 84 84 89 89 82 82 84 84 83 83 87 87 85 85 86 86 87 87 88 88 85 85 90 90 91 91 92 92 90 90 92 92 93 93 97 97 94 94 95 95 97 97 95 95 96 96 105 105 98 98 99 99 105 105 99 99 100 100 104 104 102 102 103 103 104 104 105 105 100 100 101 101 104 104 100 100 101 101 102 102 104 104 107 107 108 108 109 109 107 107 109 109 106 106 110 110 111 111 112 112 110 110 112 112 113 113 116 116 115 115 114 114 116 116 117 117 115 115 118 118 120 120 121 121 118 118 121 121 119 119 125 125 123 123 122 122 125 125 122 122 124 124 128 128 126 126 127 127 128 128 129 129 126 126 135 135 130 130 131 131 132 132 135 135 131 131 134 134 132 132 133 133 134 134 135 135 132 132 139 139 137 137 136 136 138 138 139 139 136 136 143 143 140 140 141 141 143 143 141 141 142 142 144 144 146 146 147 147 144 144 147 147 145 145 151 151 148 148 149 149 150 150 151 151 149 149 156 156 152 152 153 153 156 156 157 157 152 152 154 154 155 155 156 156 154 154 156 156 153 153 164 164 160 160 161 161 164 164 165 165 160 160 159 159 160 160 165 165 158 158 160 160 159 159 163 163 161 161 162 162 163 163 164 164 161 161 169 169 166 166 167 167 169 169 167 167 168 168 177 177 170 170 171 171 172 172 177 177 171 171 176 176 174 174 175 175 176 176 177 177 172 172 173 173 176 176 172 172 173 173 174 174 176 176 181 181 178 178 179 179 181 181 179 179 180 180 189 189 182 182 183 183 189 189 183 183 184 184 188 188 186 186 187 187 188 188 189 189 184 184 185 185 188 188 184 184 185 185 186 186 188 188 191 191 192 192 193 193 191 191 193 193 190 190 195 195 196 196 197 197 195 195 197 197 194 194 202 202 198 198 199 199 202 202 199 199 200 200 201 201 202 202 200 200 203 203 198 198 202 202 207 207 205 205 204 204 207 207 204 204 206 206 211 211 209 209 208 208 211 211 208 208 210 210 212 212 214 214 215 215 212 212 215 215 213 213 216 216 218 218 219 219 216 216 219 219 217 217 223 223 220 220 221 221 223 223 221 221 222 222</p>
        </triangles>
      </mesh>
    </geometry>
  </library_geometries>
  <library_visual_scenes>
    <visual_scene id="IfcOpenShell">
      <node id="project" name="project" type="NODE">
        <matrix>1 0 0 0 0 1 0 0 0 0 1 0 0 0 0 1</matrix>
        <node id="product-a61f50d9-1b06-47d0-9196-83196ee53d41" name="product-a61f50d9-1b06-47d0-9196-83196ee53d41" type="NODE">
          <matrix>1 0 0 -5.900786399841316 0 1 0 -6.457376480102538 0 0 1 -0.6543173789978029 0 0 0 1</matrix>
          <node id="product-a61f50d9-1b06-47d0-9196-83196ee53d42" name="product-a61f50d9-1b06-47d0-9196-83196ee53d42" type="NODE">
            <matrix>1 0 0 0 0 1 0 0 0 0 1 0 0 0 0 1</matrix>
            <node id="product-79503529-d2a7-11d3-9162-0000863f14a2" name="product-79503529-d2a7-11d3-9162-0000863f14a2" type="NODE">
              <matrix>1 0 0 0 0 1 0 0 0 0 1 0 0 0 0 1</matrix>
              <node id="product-e1101115-ac30-429a-95ac-7e9efa47843d" name="product-e1101115-ac30-429a-95ac-7e9efa47843d" type="NODE">
                <matrix>7.549790126404311e-8 -0.9999999999999972 0 6.20078563690186 0.9999999999999972 7.549790126404311e-8 0 1.17237615585327 0 0 1 0.6543173789978029 0 0 0 1</matrix>
                <node id="product-3d17b133-3ca2-f896-4885-e0ebde588e9e" name="product-3d17b133-3ca2-f896-4885-e0ebde588e9e" type="NODE">
                  <matrix>0 0.9999999999999998 0 0.4434239018576686 -0.9999999999999998 0 0 -2.964428782697074 0 0 1 0 0 0 0 1</matrix>
                  <node id="product-8f7875d6-1dfd-4348-bc09-b4c6606cf629-body" name="product-8f7875d6-1dfd-4348-bc09-b4c6606cf629-body" type="NODE">
                    <matrix>1.509958025280859e-7 0.9999999999999885 0 -3.26442841876405 -0.9999999999999885 1.509958025280859e-7 0 4.841576399742271 0 0 1 0 0 0 0 1</matrix>
                    <instance_geometry url="#representation-1064546-material-3732">
                      <bind_material>
                        <technique_common>
                          <instance_material symbol="IfcMaterial-3732" target="#IfcMaterial-3732"/>
                        </technique_common>
                      </bind_material>
                    </instance_geometry>
                  </node>
                </node>
              </node>
            </node>
          </node>
        </node>
      </node>
    </visual_scene>
  </library_visual_scenes>
  <scene>
    <instance_visual_scene url="#IfcOpenShell"/>
  </scene>
</COLLADA>