<?xml version="1.0" encoding="utf-8"?>
<COLLADA xmlns="http://www.collada.org/2005/11/COLLADASchema" version="1.4.1" xmlns:xsi="http://www.w3.org/2001/XMLSchema-instance">
  <asset>
    <contributor>
      <authoring_tool>IfcOpenShell 0.8.1-c49ca69</authoring_tool>
    </contributor>
    <created>2025-04-25T00:40:15</created>
    <modified>2025-04-25T00:40:15</modified>
    <unit name="METER" meter="1"/>
    <up_axis>Z_UP</up_axis>
  </asset>
  <library_effects>
    <effect id="IfcSurfaceStyleRendering-1064302-fx">
      <profile_COMMON>
        <technique sid="common">
          <lambert>
            <diffuse>
              <color>0.6352941176470587 0.6352941176470587 0.6352941176470587 1</color>
            </diffuse>
            <specular>
              <color>0.5 0.5 0.5 1</color>
            </specular>
            <shininess>
              <float>128</float>
            </shininess>
          </lambert>
        </technique>
      </profile_COMMON>
    </effect>
  </library_effects>
  <library_materials>
    <material id="IfcSurfaceStyleRendering-1064302">
      <instance_effect url="#IfcSurfaceStyleRendering-1064302-fx"/>
    </material>
  </library_materials>
  <library_geometries>
    <geometry id="representation-1064306">
      <mesh>
        <source id="representation-1064306-positions">
          <float_array id="representation-1064306-positions-array" count="288">0.9652000000000093 0.1285749999999999 0 0.9652000000000093 0.1730249999999999 0 1.016 0.1730249999999999 0 1.016 0.02697499999999997 0 0.9652000000000093 0.02697499999999997 0 0.9652000000000093 0.07142499999999996 0 0.9493250000000105 0.07142499999999996 0 0.9493250000000105 0.1285749999999999 0 0.9652000000000093 0.1285749999999999 0 0.9652000000000093 0.1730249999999999 0 0.9652000000000058 0.1285750000000001 2.1336 0.9652000000000058 0.173025 2.133599999999995 0.9652000000000093 0.1285749999999999 0 0.9493250000000105 0.1285749999999999 0 0.9493250000000071 0.1285750000000001 2.117725000000029 0.06667500000000237 0.1285750000000001 2.117725000000029 0.06667499999999892 0.1285749999999999 0 0.05080000000000006 0.1285749999999999 0 0.05080000000000362 0.1285750000000001 2.1336 0.9652000000000058 0.1285750000000001 2.1336 0.9493250000000105 0.1285749999999999 0 0.9493250000000105 0.07142499999999996 0 0.9493250000000069 0.07142499999999996 2.117725000000029 0.9493250000000071 0.1285750000000001 2.117725000000029 0.9493250000000105 0.07142499999999996 0 0.9652000000000093 0.07142499999999996 0 0.9652000000000058 0.07142499999999996 2.1336 0.05080000000000362 0.07142499999999996 2.1336 0.05080000000000006 0.07142499999999984 0 0.06667499999999892 0.07142499999999984 0 0.06667500000000237 0.07142499999999996 2.117725000000029 0.9493250000000069 0.07142499999999996 2.117725000000029 0.9652000000000093 0.07142499999999996 0 0.9652000000000093 0.02697499999999997 0 0.9652000000000058 0.02697499999999997 2.1336 0.9652000000000058 0.07142499999999996 2.1336 0.9652000000000093 0.02697499999999997 0 1.016 0.02697499999999997 0 1.016 0.02697499999999997 2.1844 0 0.02697499999999997 2.1844 0 0.02697499999999986 0 0.05080000000000006 0.02697499999999986 0 0.0508000000000035 0.02697499999999997 2.1336 0.9652000000000058 0.02697499999999997 2.1336 1.016 0.02697499999999997 0 1.016 0.1730249999999999 0 1.016 0.173025 2.1844 1.016 0.02697499999999997 2.1844 1.016 0.1730249999999999 0 0.9652000000000093 0.1730249999999999 0 0.9652000000000058 0.173025 2.133599999999995 0.05080000000000362 0.173025 2.133599999999995 0.05080000000000006 0.1730249999999999 0 0 0.1730249999999999 0 0 0.173025 2.1844 1.016 0.173025 2.1844 0.05080000000000006 0.1730249999999999 0 0.05080000000000006 0.1285749999999999 0 0.05080000000000362 0.173025 2.133599999999995 0.05080000000000362 0.1285750000000001 2.1336 0 0.1730249999999999 0 0.05080000000000006 0.1730249999999999 0 0.05080000000000006 0.1285749999999999 0 0.06667499999999892 0.1285749999999999 0 0.06667499999999892 0.07142499999999984 0 0.05080000000000006 0.07142499999999984 0 0.05080000000000006 0.02697499999999986 0 0 0.02697499999999986 0 0.06667499999999892 0.07142499999999984 0 0.06667499999999892 0.1285749999999999 0 0.06667500000000237 0.1285750000000001 2.117725000000029 0.06667500000000237 0.07142499999999996 2.117725000000029 0.05080000000000006 0.07142499999999984 0 0.05080000000000362 0.07142499999999996 2.1336 0.0508000000000035 0.02697499999999997 2.1336 0.05080000000000006 0.02697499999999986 0 0 0.173025 2.1844 0 0.1730249999999999 0 0 0.02697499999999986 0 0 0.02697499999999997 2.1844 0 0.173025 2.1844 0 0.02697499999999997 2.1844 1.016 0.02697499999999997 2.1844 1.016 0.173025 2.1844 0.9652000000000058 0.02697499999999997 2.1336 0.9652000000000058 0.07142499999999996 2.1336 0.0508000000000035 0.02697499999999997 2.1336 0.05080000000000362 0.07142499999999996 2.1336 0.9493250000000069 0.07142499999999996 2.117725000000029 0.9493250000000071 0.1285750000000001 2.117725000000029 0.06667500000000237 0.07142499999999996 2.117725000000029 0.06667500000000237 0.1285750000000001 2.117725000000029 0.05080000000000362 0.1285750000000001 2.1336 0.9652000000000058 0.1285750000000001 2.1336 0.05080000000000362 0.173025 2.133599999999995 0.9652000000000058 0.173025 2.133599999999995</float_array>
          <technique_common>
            <accessor source="#representation-1064306-positions-array" count="96" stride="3">
              <param name="X" type="float"/>
              <param name="Y" type="float"/>
              <param name="Z" type="float"/>
            </accessor>
          </technique_common>
        </source>
        <source id="representation-1064306-normals">
          <float_array id="representation-1064306-normals-array" count="288">0 0 -1 0 0 -1 0 0 -1 0 0 -1 0 0 -1 0 0 -1 0 0 -1 0 0 -1 -1 0 -1.665126396138219e-15 -1 0 -1.665126396138219e-15 -1 0 -1.665126396138219e-15 -1 0 -1.665126396138219e-15 1.07845678625387e-15 1 0 1.07845678625387e-15 1 0 1.07845678625387e-15 1 0 1.07845678625387e-15 1 0 1.07845678625387e-15 1 0 1.07845678625387e-15 1 0 1.07845678625387e-15 1 0 1.07845678625387e-15 1 0 -1 3.669310155305767e-15 -1.625183334161866e-15 -1 3.669310155305767e-15 -1.625183334161866e-15 -1 3.669310155305767e-15 -1.625183334161866e-15 -1 3.669310155305767e-15 -1.625183334161866e-15 0 -1 0 0 -1 0 0 -1 0 0 -1 0 0 -1 0 0 -1 0 0 -1 0 0 -1 0 -1 0 -1.665126396138218e-15 -1 0 -1.665126396138218e-15 -1 0 -1.665126396138218e-15 -1 0 -1.665126396138218e-15 0 -1 0 0 -1 0 0 -1 0 0 -1 0 0 -1 0 0 -1 0 0 -1 0 0 -1 0 1 0 0 1 0 0 1 0 0 1 0 0 0 1 0 0 1 0 0 1 0 0 1 0 0 1 0 0 1 0 0 1 0 0 1 0 1 -7.316535416102282e-16 -1.634230496209873e-15 1 -7.316535416102282e-16 -1.634230496209873e-15 1 -7.316535416102282e-16 -1.634230496209873e-15 1 -7.316535416102282e-16 -1.634230496209873e-15 0 0 -1 0 0 -1 0 0 -1 0 0 -1 0 0 -1 0 0 -1 0 0 -1 0 0 -1 1 -6.879956541198311e-16 -1.615353596253629e-15 1 -6.879956541198311e-16 -1.615353596253629e-15 1 -6.879956541198311e-16 -1.615353596253629e-15 1 -6.879956541198311e-16 -1.615353596253629e-15 1 -5.853228332881813e-16 -1.600082396289069e-15 1 -5.853228332881813e-16 -1.600082396289069e-15 1 -5.853228332881813e-16 -1.600082396289069e-15 1 -5.853228332881813e-16 -1.600082396289069e-15 -1 0 0 -1 0 0 -1 0 0 -1 0 0 0 0 1 0 0 1 0 0 1 0 0 1 0 0 -1 0 0 -1 0 0 -1 0 0 -1 0 0 -1 0 0 -1 0 0 -1 0 0 -1 0 -9.990758376829312e-14 -1 0 -9.990758376829312e-14 -1 0 -9.990758376829312e-14 -1 0 -9.990758376829312e-14 -1</float_array>
          <technique_common>
            <accessor source="#representation-1064306-normals-array" count="96" stride="3">
              <param name="X" type="float"/>
              <param name="Y" type="float"/>
              <param name="Z" type="float"/>
            </accessor>
          </technique_common>
        </source>
        <vertices id="representation-1064306-vertices">
          <input semantic="POSITION" source="#representation-1064306-positions"/>
        </vertices>
        <triangles material="IfcSurfaceStyleRendering-1064302" count="60">
          <input semantic="VERTEX" source="#representation-1064306-vertices" offset="0"/>
          <input semantic="NORMAL" source="#representation-1064306-normals" offset="1"/>
          <p>5 5 3 3 4 4 0 0 2 2 3 3 0 0 3 3 5 5 7 7 5 5 6 6 7 7 0 0 5 5 1 1 2 2 0 0 8 8 10 10 11 11 8 8 11 11 9 9 19 19 14 14 15 15 19 19 15 15 18 18 17 17 18 18 15 15 16 16 17 17 15 15 12 12 13 13 14 14 12 12 14 14 19 19 22 22 20 20 21 21 22 22 23 23 20 20 26 26 30 30 31 31 26 26 27 27 30 30 28 28 30 30 27 27 29 29 30 30 28 28 25 25 31 31 24 24 25 25 26 26 31 31 33 33 34 34 35 35 33 33 35 35 32 32 42 42 43 43 38 38 39 39 42 42 38 38 37 37 38 38 43 43 36 36 37 37 43 43 40 40 41 41 42 42 40 40 42 42 39 39 47 47 44 44 45 45 47 47 45 45 46 46 51 51 52 52 53 53 54 54 51 51 53 53 50 50 48 48 49 49 55 55 50 50 51 51 55 55 51 51 54 54 55 55 48 48 50 50 58 58 57 57 56 56 59 59 57 57 58 58 67 67 65 65 66 66 62 62 63 63 64 64 62 62 64 64 65 65 60 60 61 61 62 62 60 60 62 62 65 65 60 60 65 65 67 67 71 71 68 68 69 69 71 71 69 69 70 70 74 74 72 72 73 73 74 74 75 75 72 72 78 78 76 76 77 77 78 78 79 79 76 76 83 83 80 80 81 81 83 83 81 81 82 82 87 87 85 85 84 84 87 87 84 84 86 86 91 91 89 89 88 88 91 91 88 88 90 90 92 92 94 94 95 95 92 92 95 95 93 93</p>
        </triangles>
      </mesh>
    </geometry>
  </library_geometries>
  <library_visual_scenes>
    <visual_scene id="IfcOpenShell">
      <node id="project" name="project" type="NODE">
        <matrix>1 0 0 0 0 1 0 0 0 0 1 0 0 0 0 1</matrix>
        <node id="product-a61f50d9-1b06-47d0-9196-83196ee53d41" name="product-a61f50d9-1b06-47d0-9196-83196ee53d41" type="NODE">
          <matrix>1 0 0 -6.100785255432134 0 1 0 -7.648376464843749 0 0 1 -4.154317378997803 0 0 0 1</matrix>
          <node id="product-a61f50d9-1b06-47d0-9196-83196ee53d42" name="product-a61f50d9-1b06-47d0-9196-83196ee53d42" type="NODE">
            <matrix>1 0 0 0 0 1 0 0 0 0 1 0 0 0 0 1</matrix>
            <node id="product-44bd8488-e63e-11d3-918b-0000863f1984" name="product-44bd8488-e63e-11d3-918b-0000863f1984" type="NODE">
              <matrix>1 0 0 0 0 1 0 0 0 0 1 3.5 0 0 0 1</matrix>
              <node id="product-e1101115-ac30-429a-95ac-7e9efa47a81f" name="product-e1101115-ac30-429a-95ac-7e9efa47a81f" type="NODE">
                <matrix>7.549790126404311e-8 -0.9999999999999972 0 6.20078563690186 0.9999999999999972 7.549790126404311e-8 0 1.17237615585327 0 0 1 0.6543173789978027 0 0 0 1</matrix>
                <node id="product-22a21d55-c347-570f-3347-74244a238090" name="product-22a21d55-c347-570f-3347-74244a238090" type="NODE">
                  <matrix>0.9999999999999998 0 0 6.476 0 0.9999999999999998 0 0.09999999999999997 0 0 1 0 0 0 0 1</matrix>
                  <node id="product-8f7875d6-1dfd-4348-bc09-b4c6606cf762-body" name="product-8f7875d6-1dfd-4348-bc09-b4c6606cf762-body" type="NODE">
                    <matrix>-0.9999999999999885 1.509958025280859e-7 0 3.014406404611739e-7 -1.509958025280859e-7 -0.9999999999999885 0 8.703941581907995e-7 0 0 1 0 0 0 0 1</matrix>
                    <instance_geometry url="#representation-1064306">
                      <bind_material>
                        <technique_common>
                          <instance_material symbol="IfcSurfaceStyleRendering-1064302" target="#IfcSurfaceStyleRendering-1064302"/>
                        </technique_common>
                      </bind_material>
                    </instance_geometry>
                  </node>
                </node>
              </node>
            </node>
          </node>
        </node>
      </node>
    </visual_scene>
  </library_visual_scenes>
  <scene>
    <instance_visual_scene url="#IfcOpenShell"/>
  </scene>
</COLLADA>