<?xml version="1.0" encoding="utf-8"?>
<COLLADA xmlns="http://www.collada.org/2005/11/COLLADASchema" version="1.4.1" xmlns:xsi="http://www.w3.org/2001/XMLSchema-instance">
  <asset>
    <contributor>
      <authoring_tool>IfcOpenShell 0.8.1-c49ca69</authoring_tool>
    </contributor>
    <created>2025-04-25T00:40:13</created>
    <modified>2025-04-25T00:40:13</modified>
    <unit name="METER" meter="1"/>
    <up_axis>Z_UP</up_axis>
  </asset>
  <library_effects>
    <effect id="IfcSurfaceStyleRendering-521240-fx">
      <profile_COMMON>
        <technique sid="common">
          <lambert>
            <diffuse>
              <color>0.5999999999999999 0.2980392156862745 0.1686274509803922 1</color>
            </diffuse>
            <specular>
              <color>0.5 0.5 0.5 1</color>
            </specular>
            <shininess>
              <float>128</float>
            </shininess>
          </lambert>
        </technique>
      </profile_COMMON>
    </effect>
  </library_effects>
  <library_materials>
    <material id="IfcSurfaceStyleRendering-521240">
      <instance_effect url="#IfcSurfaceStyleRendering-521240-fx"/>
    </material>
  </library_materials>
  <library_geometries>
    <geometry id="representation-577342">
      <mesh>
        <source id="representation-577342-positions">
          <float_array id="representation-577342-positions-array" count="288">-0.07599999999999995 0.2254000000000124 0 -0.07599999999999995 0.2004000000000124 0 0 0.2004000000000124 0 0 0.2254000000000124 0 0 0.2254000000000124 0 0 0.2004000000000124 0 0 0.2004000000000124 2.032 0 0.2254000000000124 2.032 0 0.2254000000000124 2.032 0 0.2004000000000124 2.032 0.762 0.2004000000000124 2.032 0.762 0.2254000000000124 2.032 0.762 0.2254000000000124 2.032 0.762 0.2004000000000124 2.032 0.762 0.2004000000000124 0 0.762 0.2254000000000124 0 0.762 0.2254000000000124 0 0.762 0.2004000000000124 0 0.838 0.2004000000000124 0 0.838 0.2254000000000124 0 0.838 0.2254000000000124 0 0.838 0.2004000000000124 0 0.838 0.2004000000000124 2.108 0.838 0.2254000000000124 2.108 0.838 0.2254000000000124 2.108 0.838 0.2004000000000124 2.108 -0.07599999999999995 0.2004000000000124 2.108 -0.07599999999999995 0.2254000000000124 2.108 -0.07599999999999995 0.2254000000000124 2.108 -0.07599999999999995 0.2004000000000124 2.108 -0.07599999999999995 0.2004000000000124 0 -0.07599999999999995 0.2254000000000124 0 -0.07599999999999995 0.2254000000000124 0 0 0.2254000000000124 0 0 0.2254000000000124 2.032 0.762 0.2254000000000124 2.032 0.762 0.2254000000000124 0 0.838 0.2254000000000124 0 0.838 0.2254000000000124 2.108 -0.07599999999999995 0.2254000000000124 2.108 -0.07599999999999995 0.2004000000000124 0 0 0.2004000000000124 0 0 0.2004000000000124 2.032 0.762 0.2004000000000124 2.032 0.762 0.2004000000000124 0 0.838 0.2004000000000124 0 0.838 0.2004000000000124 2.108 -0.07599999999999995 0.2004000000000124 2.108 0.838 0 0 0.838 -0.02499999999998947 0 0.838 -0.02499999999998947 2.108 0.838 0 2.108 0.838 0 2.108 0.838 -0.02499999999998947 2.108 -0.07599999999999995 -0.02499999999998947 2.108 -0.07599999999999995 0 2.108 -0.07599999999999995 0 2.108 -0.07599999999999995 -0.02499999999998947 2.108 -0.07599999999999995 -0.02499999999998947 0 -0.07599999999999995 0 0 -0.07599999999999995 0 0 -0.07599999999999995 -0.02499999999998947 0 0 -0.02499999999998947 0 0 0 0 0 0 0 0 -0.02499999999998947 0 0 -0.02499999999998947 2.032 0 0 2.032 0 0 2.032 0 -0.02499999999998947 2.032 0.762 -0.02499999999998947 2.032 0.762 0 2.032 0.762 0 2.032 0.762 -0.02499999999998947 2.032 0.762 -0.02499999999998947 0 0.762 0 0 0.762 0 0 0.762 -0.02499999999998947 0 0.838 -0.02499999999998947 0 0.838 0 0 0.838 0 0 0.838 0 2.108 -0.07599999999999995 0 2.108 -0.07599999999999995 0 0 0 0 0 0 0 2.032 0.762 0 2.032 0.762 0 0 0.838 -0.02499999999998947 0 0.838 -0.02499999999998947 2.108 -0.07599999999999995 -0.02499999999998947 2.108 -0.07599999999999995 -0.02499999999998947 0 0 -0.02499999999998947 0 0 -0.02499999999998947 2.032 0.762 -0.02499999999998947 2.032 0.762 -0.02499999999998947 0</float_array>
          <technique_common>
            <accessor source="#representation-577342-positions-array" count="96" stride="3">
              <param name="X" type="float"/>
              <param name="Y" type="float"/>
              <param name="Z" type="float"/>
            </accessor>
          </technique_common>
        </source>
        <source id="representation-577342-normals">
          <float_array id="representation-577342-normals-array" count="288">0 0 -1 0 0 -1 0 0 -1 0 0 -1 1 0 0 1 0 0 1 0 0 1 0 0 0 0 -1 0 0 -1 0 0 -1 0 0 -1 -1 0 0 -1 0 0 -1 0 0 -1 0 0 0 0 -1 0 0 -1 0 0 -1 0 0 -1 1 0 0 1 0 0 1 0 0 1 0 0 0 0 1 0 0 1 0 0 1 0 0 1 -1 0 0 -1 0 0 -1 0 0 -1 0 0 0 1 0 0 1 0 0 1 0 0 1 0 0 1 0 0 1 0 0 1 0 0 1 0 0 -1 0 0 -1 0 0 -1 0 0 -1 0 0 -1 0 0 -1 0 0 -1 0 0 -1 0 1 0 0 1 0 0 1 0 0 1 0 0 0 0 1 0 0 1 0 0 1 0 0 1 -1 0 0 -1 0 0 -1 0 0 -1 0 0 0 0 -1 0 0 -1 0 0 -1 0 0 -1 1 0 0 1 0 0 1 0 0 1 0 0 0 0 -1 0 0 -1 0 0 -1 0 0 -1 -1 0 0 -1 0 0 -1 0 0 -1 0 0 0 0 -1 0 0 -1 0 0 -1 0 0 -1 0 1 0 0 1 0 0 1 0 0 1 0 0 1 0 0 1 0 0 1 0 0 1 0 0 -1 0 0 -1 0 0 -1 0 0 -1 0 0 -1 0 0 -1 0 0 -1 0 0 -1 0</float_array>
          <technique_common>
            <accessor source="#representation-577342-normals-array" count="96" stride="3">
              <param name="X" type="float"/>
              <param name="Y" type="float"/>
              <param name="Z" type="float"/>
            </accessor>
          </technique_common>
        </source>
        <vertices id="representation-577342-vertices">
          <input semantic="POSITION" source="#representation-577342-positions"/>
        </vertices>
        <triangles material="IfcSurfaceStyleRendering-521240" count="56">
          <input semantic="VERTEX" source="#representation-577342-vertices" offset="0"/>
          <input semantic="NORMAL" source="#representation-577342-normals" offset="1"/>
          <p>1 1 0 0 3 3 2 2 1 1 3 3 5 5 4 4 7 7 6 6 5 5 7 7 9 9 8 8 11 11 10 10 9 9 11 11 13 13 12 12 15 15 14 14 13 13 15 15 17 17 16 16 19 19 18 18 17 17 19 19 21 21 20 20 23 23 22 22 21 21 23 23 25 25 24 24 27 27 26 26 25 25 27 27 29 29 28 28 31 31 30 30 29 29 31 31 33 33 32 32 34 34 32 32 39 39 34 34 37 37 36 36 35 35 35 35 34 34 38 38 34 34 39 39 38 38 37 37 35 35 38 38 42 42 40 40 41 41 42 42 47 47 40 40 43 43 44 44 45 45 46 46 42 42 43 43 46 46 47 47 42 42 46 46 43 43 45 45 49 49 48 48 51 51 50 50 49 49 51 51 53 53 52 52 55 55 54 54 53 53 55 55 57 57 56 56 59 59 58 58 57 57 59 59 61 61 60 60 63 63 62 62 61 61 63 63 65 65 64 64 67 67 66 66 65 65 67 67 69 69 68 68 71 71 70 70 69 69 71 71 73 73 72 72 75 75 74 74 73 73 75 75 77 77 76 76 79 79 78 78 77 77 79 79 81 81 80 80 86 86 80 80 87 87 86 86 84 84 83 83 85 85 86 86 85 85 82 82 81 81 86 86 82 82 85 85 83 83 82 82 94 94 88 88 89 89 94 94 95 95 88 88 93 93 91 91 92 92 90 90 93 93 94 94 90 90 94 94 89 89 90 90 91 91 93 93</p>
        </triangles>
      </mesh>
    </geometry>
  </library_geometries>
  <library_visual_scenes>
    <visual_scene id="IfcOpenShell">
      <node id="project" name="project" type="NODE">
        <matrix>1 0 0 0 0 1 0 0 0 0 1 0 0 0 0 1</matrix>
        <node id="product-a61f50d9-1b06-47d0-9196-83196ee53d41" name="product-a61f50d9-1b06-47d0-9196-83196ee53d41" type="NODE">
          <matrix>1 0 0 -10.78314781188961 0 1 0 -7.672376632690434 0 0 1 -0.6543173789978029 0 0 0 1</matrix>
          <node id="product-a61f50d9-1b06-47d0-9196-83196ee53d42" name="product-a61f50d9-1b06-47d0-9196-83196ee53d42" type="NODE">
            <matrix>1 0 0 0 0 1 0 0 0 0 1 0 0 0 0 1</matrix>
            <node id="product-79503529-d2a7-11d3-9162-0000863f14a2" name="product-79503529-d2a7-11d3-9162-0000863f14a2" type="NODE">
              <matrix>1 0 0 0 0 1 0 0 0 0 1 0 0 0 0 1</matrix>
              <node id="product-e1101115-ac30-429a-95ac-7e9efa41c28c" name="product-e1101115-ac30-429a-95ac-7e9efa41c28c" type="NODE">
                <matrix>-0.9999999999999962 8.742277657347552e-8 0 15.7481479644775 -8.742277657347552e-8 -0.9999999999999962 0 7.77237701416016 0 0 1 0.6543173789978029 0 0 0 1</matrix>
                <node id="product-3ec311cc-83f9-2bbe-bc6e-7948ab1282f7" name="product-3ec311cc-83f9-2bbe-bc6e-7948ab1282f7" type="NODE">
                  <matrix>1 0 0 4.965000000000001 0 1 0 0.1000000000000003 0 0 1 0 0 0 0 1</matrix>
                  <node id="product-e1101115-ac30-429a-95ac-7e9efa41c244-body" name="product-e1101115-ac30-429a-95ac-7e9efa41c244-body" type="NODE">
                    <matrix>-0.9999999999999962 -8.742277657347552e-8 0 1.613301837225814e-7 8.742277657347552e-8 -0.9999999999999962 0 -5.25843731932133e-8 0 0 1 0 0 0 0 1</matrix>
                    <instance_geometry url="#representation-577342">
                      <bind_material>
                        <technique_common>
                          <instance_material symbol="IfcSurfaceStyleRendering-521240" target="#IfcSurfaceStyleRendering-521240"/>
                        </technique_common>
                      </bind_material>
                    </instance_geometry>
                  </node>
                </node>
              </node>
            </node>
          </node>
        </node>
      </node>
    </visual_scene>
  </library_visual_scenes>
  <scene>
    <instance_visual_scene url="#IfcOpenShell"/>
  </scene>
</COLLADA>