<?xml version="1.0" encoding="utf-8"?>
<COLLADA xmlns="http://www.collada.org/2005/11/COLLADASchema" version="1.4.1" xmlns:xsi="http://www.w3.org/2001/XMLSchema-instance">
  <asset>
    <contributor>
      <authoring_tool>IfcOpenShell 0.8.1-c49ca69</authoring_tool>
    </contributor>
    <created>2025-04-25T00:28:26</created>
    <modified>2025-04-25T00:28:26</modified>
    <unit name="METER" meter="1"/>
    <up_axis>Z_UP</up_axis>
  </asset>
  <library_effects>
    <effect id="IfcMaterial-3732-fx">
      <profile_COMMON>
        <technique sid="common">
          <lambert/>
        </technique>
      </profile_COMMON>
    </effect>
  </library_effects>
  <library_materials>
    <material id="IfcMaterial-3732">
      <instance_effect url="#IfcMaterial-3732-fx"/>
    </material>
  </library_materials>
  <library_geometries>
    <geometry id="representation-521124-material-3732">
      <mesh>
        <source id="representation-521124-material-3732-positions">
          <float_array id="representation-521124-material-3732-positions-array" count="672">-0.06499999999999994 0.2064733509615511 0 -0.05023141064543934 0.2149999999999999 0 -0.0149999999999999 0.2149999999999999 0 0.03499999999999992 0.207893306824128 0 0.03499999999999992 0.2 0 -0.06499999999999994 0.2 0 -0.0149999999999999 0.2149999999999999 2.08 -0.0149999999999999 0.2149999999999999 0 -0.05023141064543934 0.2149999999999999 0 -0.05023141064543945 0.2149999999999999 2.115231410645426 1.420231410645401 0.2149999999999999 2.115231410645426 1.420231410645401 0.2149999999999999 0 1.385 0.2149999999999999 0 1.385 0.2149999999999999 2.08 0.03499999999999992 0.207893306824128 2.03 0.03499999999999992 0.207893306824128 0 -0.0149999999999999 0.2149999999999999 0 -0.0149999999999999 0.2149999999999999 2.08 0.03499999999999992 0.2 2.03 0.03499999999999992 0.2 0 0.03499999999999992 0.207893306824128 0 0.03499999999999992 0.207893306824128 2.03 -0.06499999999999994 0.2 2.13 -0.06499999999999994 0.2 0 0.03499999999999992 0.2 0 0.03499999999999992 0.2 2.03 1.335 0.2 2.03 1.335 0.2 0 1.435 0.2 0 1.435 0.2 2.13 -0.06499999999999994 0.2064733509615511 2.13 -0.06499999999999994 0.2064733509615511 0 -0.06499999999999994 0.2 0 -0.06499999999999994 0.2 2.13 -0.05023141064543945 0.2149999999999999 2.115231410645426 -0.05023141064543934 0.2149999999999999 0 -0.06499999999999994 0.2064733509615511 0 -0.06499999999999994 0.2064733509615511 2.13 1.335 0.2078933068241239 2.03 0.03499999999999992 0.207893306824128 2.03 -0.0149999999999999 0.2149999999999999 2.08 1.385 0.2149999999999999 2.08 1.335 0.2 2.03 0.03499999999999992 0.2 2.03 0.03499999999999992 0.207893306824128 2.03 1.335 0.2078933068241239 2.03 1.435 0.2064733509615463 2.13 -0.06499999999999994 0.2064733509615511 2.13 -0.06499999999999994 0.2 2.13 1.435 0.2 2.13 1.420231410645401 0.2149999999999999 2.115231410645426 -0.05023141064543945 0.2149999999999999 2.115231410645426 -0.06499999999999994 0.2064733509615511 2.13 1.435 0.2064733509615463 2.13 1.385 0.2149999999999999 0 1.420231410645401 0.2149999999999999 0 1.435 0.2064733509615463 0 1.435 0.2 0 1.335 0.2 0 1.335 0.2078933068241239 0 1.335 0.2078933068241239 0 1.335 0.2078933068241239 2.03 1.385 0.2149999999999999 2.08 1.385 0.2149999999999999 0 1.335 0.2 0 1.335 0.2 2.03 1.335 0.2078933068241239 2.03 1.335 0.2078933068241239 0 1.435 0.2064733509615463 0 1.435 0.2064733509615463 2.13 1.435 0.2 2.13 1.435 0.2 0 1.420231410645401 0.2149999999999999 0 1.420231410645401 0.2149999999999999 2.115231410645426 1.435 0.2064733509615463 2.13 1.435 0.2064733509615463 0 1.435 -0.006473350960582102 0 1.420231410645402 -0.0149999999999999 0 1.385 -0.0149999999999999 0 1.335 -0.007893306823159362 0 1.335 0 0 1.435 0 0 1.385 -0.0149999999999999 2.08 1.385 -0.0149999999999999 0 1.420231410645402 -0.0149999999999999 0 1.420231410645402 -0.0149999999999999 2.115231410645426 -0.05023141064543834 -0.0149999999999999 2.115231410645426 -0.05023141064543834 -0.0149999999999999 0 -0.0149999999999999 -0.0149999999999999 0 -0.0149999999999999 -0.0149999999999999 2.08 1.335 -0.007893306823159362 2.03 1.335 -0.007893306823159362 0 1.385 -0.0149999999999999 0 1.385 -0.0149999999999999 2.08 1.335 0 2.03 1.335 0 0 1.335 -0.007893306823159362 0 1.335 -0.007893306823159362 2.03 1.435 0 2.13 1.435 0 0 1.335 0 0 1.335 0 2.03 0.03499999999999992 0 2.03 0.03499999999999992 0 0 -0.06499999999999994 0 0 -0.06499999999999994 0 2.13 1.435 -0.006473350960582102 2.13 1.435 -0.006473350960582102 0 1.435 0 0 1.435 0 2.13 1.420231410645402 -0.0149999999999999 2.115231410645426 1.420231410645402 -0.0149999999999999 0 1.435 -0.006473350960582102 0 1.435 -0.006473350960582102 2.13 0.03499999999999992 -0.007893306823159362 2.03 1.335 -0.007893306823159362 2.03 1.385 -0.0149999999999999 2.08 -0.0149999999999999 -0.0149999999999999 2.08 0.03499999999999992 0 2.03 1.335 0 2.03 1.335 -0.007893306823159362 2.03 0.03499999999999992 -0.007893306823159362 2.03 -0.06499999999999994 -0.006473350960582102 2.13 1.435 -0.006473350960582102 2.13 1.435 0 2.13 -0.06499999999999994 0 2.13 -0.05023141064543834 -0.0149999999999999 2.115231410645426 1.420231410645402 -0.0149999999999999 2.115231410645426 1.435 -0.006473350960582102 2.13 -0.06499999999999994 -0.006473350960582102 2.13 -0.0149999999999999 -0.0149999999999999 0 -0.05023141064543834 -0.0149999999999999 0 -0.06499999999999994 -0.006473350960582102 0 -0.06499999999999994 0 0 0.03499999999999992 0 0 0.03499999999999992 -0.007893306823159362 0 0.03499999999999992 -0.007893306823159362 0 0.03499999999999992 -0.007893306823159362 2.03 -0.0149999999999999 -0.0149999999999999 2.08 -0.0149999999999999 -0.0149999999999999 0 0.03499999999999992 0 0 0.03499999999999992 0 2.03 0.03499999999999992 -0.007893306823159362 2.03 0.03499999999999992 -0.007893306823159362 0 -0.06499999999999994 -0.006473350960582102 0 -0.06499999999999994 -0.006473350960582102 2.13 -0.06499999999999994 0 2.13 -0.06499999999999994 0 0 -0.05023141064543834 -0.0149999999999999 0 -0.05023141064543834 -0.0149999999999999 2.115231410645426 -0.06499999999999994 -0.006473350960582102 2.13 -0.06499999999999994 -0.006473350960582102 0 1.37 0.2 0 1.37 0 0 1.295 0 0 1.295 0.15 0 1.31 0.15 0 1.31 0.2 0 1.295 0 2.015 1.295 0 0 1.37 0 0 1.37 0 2.09 0 0 2.09 0 0 0 0.07499999999999995 0 0 0.07499999999999995 0 2.015 1.295 0.15 2.015 1.295 0.15 0 1.295 0 0 1.295 0 2.015 1.31 0.15 2.03 1.31 0.15 0 1.295 0.15 0 1.295 0.15 2.015 0.07499999999999995 0.15 2.015 0.07499999999999995 0.15 0 0.05999999999999994 0.15 0 0.05999999999999994 0.15 2.03 1.31 0.2 2.03 1.31 0.2 0 1.31 0.15 0 1.31 0.15 2.03 1.37 0.2 2.09 1.37 0.2 0 1.31 0.2 0 1.31 0.2 2.03 0.05999999999999994 0.2 2.03 0.05999999999999994 0.2 0 0 0.2 0 0 0.2 2.09 1.37 0 2.09 1.37 0 0 1.37 0.2 0 1.37 0.2 2.09 0 0 0 0 0 2.09 0 0.2 2.09 0 0.2 0 0.07499999999999995 0 0 0 0 0 0 0.2 0 0.05999999999999994 0.2 0 0.05999999999999994 0.15 0 0.07499999999999995 0.15 0 0.07499999999999995 0.15 0 0.07499999999999995 0.15 2.015 0.07499999999999995 0 2.015 0.07499999999999995 0 0 0.05999999999999994 0.2 0 0.05999999999999994 0.2 2.03 0.05999999999999994 0.15 2.03 0.05999999999999994 0.15 0 0.07499999999999995 0.15 2.015 1.295 0.15 2.015 1.295 0 2.015 0.07499999999999995 0 2.015 0.05999999999999994 0.2 2.03 1.31 0.2 2.03 1.31 0.15 2.03 0.05999999999999994 0.15 2.03 0 0 2.09 1.37 0 2.09 1.37 0.2 2.09 0 0.2 2.09</float_array>
          <technique_common>
            <accessor source="#representation-521124-material-3732-positions-array" count="224" stride="3">
              <param name="X" type="float"/>
              <param name="Y" type="float"/>
              <param name="Z" type="float"/>
            </accessor>
          </technique_common>
        </source>
        <source id="representation-521124-material-3732-normals">
          <float_array id="representation-521124-material-3732-normals-array" count="672">0 0 -1 0 0 -1 0 0 -1 0 0 -1 0 0 -1 0 0 -1 0 1 0 0 1 0 0 1 0 0 1 0 0 1 0 0 1 0 0 1 0 0 1 0 0.1407195600047351 0.9900494964556437 0 0.1407195600047351 0.9900494964556437 0 0.1407195600047351 0.9900494964556437 0 0.1407195600047351 0.9900494964556437 0 1 0 0 1 0 0 1 0 0 1 0 0 0 -1 0 0 -1 0 0 -1 0 0 -1 0 0 -1 0 0 -1 0 0 -1 0 0 -1 0 -1 0 0 -1 0 0 -1 0 0 -1 0 0 -0.4999999999578786 0.8660254038087573 0 -0.4999999999578786 0.8660254038087573 0 -0.4999999999578786 0.8660254038087573 0 -0.4999999999578786 0.8660254038087573 0 1.475745215186309e-15 0.9900494964556382 -0.1407195600047749 1.475745215186309e-15 0.9900494964556382 -0.1407195600047749 1.475745215186309e-15 0.9900494964556382 -0.1407195600047749 1.475745215186309e-15 0.9900494964556382 -0.1407195600047749 -3.381099211168853e-16 0 -1 -3.381099211168853e-16 0 -1 -3.381099211168853e-16 0 -1 -3.381099211168853e-16 0 -1 0 0 1 0 0 1 0 0 1 0 0 1 1.369801832418826e-15 0.8660254038088891 0.4999999999576504 1.369801832418826e-15 0.8660254038088891 0.4999999999576504 1.369801832418826e-15 0.8660254038088891 0.4999999999576504 1.369801832418826e-15 0.8660254038088891 0.4999999999576504 0 0 -1 0 0 -1 0 0 -1 0 0 -1 0 0 -1 0 0 -1 -0.1407195600048142 0.9900494964556325 0 -0.1407195600048142 0.9900494964556325 0 -0.1407195600048142 0.9900494964556325 0 -0.1407195600048142 0.9900494964556325 0 -1 0 0 -1 0 0 -1 0 0 -1 0 0 1 0 0 1 0 0 1 0 0 1 0 0 0.4999999999571208 0.8660254038091949 0 0.4999999999571208 0.8660254038091949 0 0.4999999999571208 0.8660254038091949 0 0.4999999999571208 0.8660254038091949 0 0 0 -1 0 0 -1 0 0 -1 0 0 -1 0 0 -1 0 0 -1 0 -1 0 0 -1 0 0 -1 0 0 -1 0 0 -1 0 0 -1 0 0 -1 0 0 -1 0 -0.1407195600235345 -0.9900494964529716 0 -0.1407195600235345 -0.9900494964529716 0 -0.1407195600235345 -0.9900494964529716 0 -0.1407195600235345 -0.9900494964529716 0 -1 0 0 -1 0 0 -1 0 0 -1 0 0 0 1 0 0 1 0 0 1 0 0 1 0 0 1 0 0 1 0 0 1 0 0 1 0 1 0 0 1 0 0 1 0 0 1 0 0 0.4999999999995489 -0.866025403784699 0 0.4999999999995489 -0.866025403784699 0 0.4999999999995489 -0.866025403784699 0 0.4999999999995489 -0.866025403784699 0 0 -0.9900494964529715 -0.1407195600235353 0 -0.9900494964529715 -0.1407195600235353 0 -0.9900494964529715 -0.1407195600235353 0 -0.9900494964529715 -0.1407195600235353 0 0 -1 0 0 -1 0 0 -1 0 0 -1 0 0 1 0 0 1 0 0 1 0 0 1 0 -0.8660254037843467 0.5000000000001593 0 -0.8660254037843467 0.5000000000001593 0 -0.8660254037843467 0.5000000000001593 0 -0.8660254037843467 0.5000000000001593 0 0 -1 0 0 -1 0 0 -1 0 0 -1 0 0 -1 0 0 -1 0.1407195600235349 -0.9900494964529716 0 0.1407195600235349 -0.9900494964529716 0 0.1407195600235349 -0.9900494964529716 0 0.1407195600235349 -0.9900494964529716 0 1 0 0 1 0 0 1 0 0 1 0 0 -1 0 0 -1 0 0 -1 0 0 -1 0 0 -0.5000000000004664 -0.8660254037841694 0 -0.5000000000004664 -0.8660254037841694 0 -0.5000000000004664 -0.8660254037841694 0 -0.5000000000004664 -0.8660254037841694 0 0 0 -1 0 0 -1 0 0 -1 0 0 -1 0 0 -1 0 0 -1 0 -1 0 0 -1 0 0 -1 0 0 -1 0 0 -1 0 0 -1 0 0 -1 0 0 -1 0 -1 0 0 -1 0 0 -1 0 0 -1 0 0 0 1 3.504491870660192e-16 0 1 3.504491870660192e-16 0 1 3.504491870660192e-16 0 1 3.504491870660192e-16 0 1 3.504491870660192e-16 0 1 3.504491870660192e-16 0 1 3.504491870660192e-16 0 1 3.504491870660192e-16 -1 0 0 -1 0 0 -1 0 0 -1 0 0 0 1 0 0 1 0 0 1 0 0 1 0 0 1 0 0 1 0 0 1 0 0 1 0 1 0 0 1 0 0 1 0 0 1 0 0 -1 0 0 -1 0 0 -1 0 0 -1 0 0 0 0 -1 0 0 -1 0 0 -1 0 0 -1 0 0 -1 0 0 -1 1 0 0 1 0 0 1 0 0 1 0 0 1 0 0 1 0 0 1 0 0 1 0 0 0 0 -1 0 0 -1 0 0 -1 0 0 -1 0 0 -1 0 0 -1 0 0 -1 0 0 -1 0 0 1 0 0 1 0 0 1 0 0 1</float_array>
          <technique_common>
            <accessor source="#representation-521124-material-3732-normals-array" count="224" stride="3">
              <param name="X" type="float"/>
              <param name="Y" type="float"/>
              <param name="Z" type="float"/>
            </accessor>
          </technique_common>
        </source>
        <vertices id="representation-521124-material-3732-vertices">
          <input semantic="POSITION" source="#representation-521124-material-3732-positions"/>
        </vertices>
        <triangles material="IfcMaterial-3732" count="132">
          <input semantic="VERTEX" source="#representation-521124-material-3732-vertices" offset="0"/>
          <input semantic="NORMAL" source="#representation-521124-material-3732-normals" offset="1"/>
          <p>2 2 3 3 4 4 5 5 2 2 4 4 1 1 2 2 5 5 0 0 1 1 5 5 6 6 7 7 8 8 6 6 8 8 9 9 13 13 11 11 12 12 10 10 13 13 6 6 10 10 6 6 9 9 10 10 11 11 13 13 16 16 17 17 14 14 15 15 16 16 14 14 18 18 19 19 20 20 18 18 20 20 21 21 29 29 25 25 26 26 29 29 22 22 25 25 23 23 25 25 22 22 24 24 25 25 23 23 28 28 26 26 27 27 28 28 29 29 26 26 32 32 30 30 31 31 32 32 33 33 30 30 36 36 37 37 34 34 35 35 36 36 34 34 41 41 38 38 39 39 41 41 39 39 40 40 44 44 42 42 43 43 44 44 45 45 42 42 46 46 47 47 48 48 46 46 48 48 49 49 50 50 51 51 52 52 53 53 50 50 52 52 55 55 56 56 57 57 54 54 55 55 57 57 58 58 54 54 57 57 59 59 54 54 58 58 63 63 60 60 61 61 63 63 61 61 62 62 64 64 65 65 66 66 64 64 66 66 67 67 70 70 68 68 69 69 70 70 71 71 68 68 75 75 72 72 73 73 75 75 73 73 74 74 81 81 76 76 77 77 78 78 81 81 77 77 80 80 78 78 79 79 80 80 81 81 78 78 85 85 86 86 89 89 82 82 85 85 89 89 87 87 89 89 86 86 88 88 89 89 87 87 84 84 82 82 83 83 84 84 85 85 82 82 92 92 93 93 90 90 91 91 92 92 90 90 96 96 94 94 95 95 96 96 97 97 94 94 102 102 103 103 104 104 102 102 104 104 105 105 101 101 99 99 100 100 98 98 101 101 102 102 98 98 102 102 105 105 98 98 99 99 101 101 106 106 107 107 108 108 106 106 108 108 109 109 112 112 113 113 110 110 111 111 112 112 110 110 115 115 116 116 117 117 115 115 117 117 114 114 118 118 119 119 120 120 118 118 120 120 121 121 124 124 122 122 123 123 124 124 125 125 122 122 127 127 128 128 129 129 127 127 129 129 126 126 130 130 134 134 135 135 133 133 130 130 131 131 133 133 131 131 132 132 133 133 134 134 130 130 139 139 136 136 137 137 139 139 137 137 138 138 142 142 140 140 141 141 142 142 143 143 140 140 144 144 145 145 146 146 144 144 146 146 147 147 151 151 148 148 149 149 151 151 149 149 150 150 156 156 152 152 153 153 156 156 153 153 154 154 155 155 156 156 154 154 157 157 152 152 156 156 161 161 165 165 158 158 161 161 162 162 165 165 163 163 165 165 162 162 164 164 165 165 163 163 160 160 158 158 159 159 160 160 161 161 158 158 168 168 166 166 167 167 168 168 169 169 166 166 174 174 175 175 176 176 174 174 176 176 177 177 173 173 171 171 172 172 173 173 174 174 177 177 170 170 173 173 177 177 170 170 171 171 173 173 180 180 178 178 179 179 180 180 181 181 178 178 186 186 187 187 188 188 186 186 188 188 189 189 185 185 183 183 184 184 185 185 186 186 189 189 182 182 185 185 189 189 182 182 183 183 185 185 190 190 191 191 192 192 190 190 192 192 193 193 194 194 195 195 196 196 194 194 196 196 197 197 202 202 198 198 199 199 202 202 203 203 198 198 200 200 201 201 202 202 200 200 202 202 199 199 206 206 204 204 205 205 206 206 207 207 204 204 210 210 208 208 209 209 210 210 211 211 208 208 212 212 213 213 214 214 212 212 214 214 215 215 216 216 217 217 218 218 216 216 218 218 219 219 222 222 220 220 221 221 222 222 223 223 220 220</p>
        </triangles>
      </mesh>
    </geometry>
  </library_geometries>
  <library_visual_scenes>
    <visual_scene id="IfcOpenShell">
      <node id="project" name="project" type="NODE">
        <matrix>1 0 0 0 0 1 0 0 0 0 1 0 0 0 0 1</matrix>
        <node id="product-a61f50d9-1b06-47d0-9196-83196ee53d41" name="product-a61f50d9-1b06-47d0-9196-83196ee53d41" type="NODE">
          <matrix>1 0 0 -14.32814788818363 0 1 0 -4.037376403808587 0 0 1 -0.6543173789978029 0 0 0 1</matrix>
          <node id="product-a61f50d9-1b06-47d0-9196-83196ee53d42" name="product-a61f50d9-1b06-47d0-9196-83196ee53d42" type="NODE">
            <matrix>1 0 0 0 0 1 0 0 0 0 1 0 0 0 0 1</matrix>
            <node id="product-79503529-d2a7-11d3-9162-0000863f14a2" name="product-79503529-d2a7-11d3-9162-0000863f14a2" type="NODE">
              <matrix>1 0 0 0 0 1 0 0 0 0 1 0 0 0 0 1</matrix>
              <node id="product-e1101115-ac30-429a-95ac-7e9efa4780bf" name="product-e1101115-ac30-429a-95ac-7e9efa4780bf" type="NODE">
                <matrix>7.549790126404311e-8 0.9999999999999972 0 14.2281475067139 -0.9999999999999972 7.549790126404311e-8 0 5.73237609863281 0 0 1 0.6543173789978029 0 0 0 1</matrix>
                <node id="product-48d5a60b-d881-b99d-4e8a-54210ab1b033" name="product-48d5a60b-d881-b99d-4e8a-54210ab1b033" type="NODE">
                  <matrix>0 -0.9999999999999998 0 4.116576098142307 0.9999999999999998 0 0 -5.062933190729053 0 0 1 0 0 0 0 1</matrix>
                  <node id="product-e1101115-ac30-429a-95ac-7e9efa402f3d-body" name="product-e1101115-ac30-429a-95ac-7e9efa402f3d-body" type="NODE">
                    <matrix>1.509958025280859e-7 -0.9999999999999885 0 5.162933444229861 0.9999999999999885 1.509958025280859e-7 0 2.42157639576827 0 0 1 0 0 0 0 1</matrix>
                    <instance_geometry url="#representation-521124-material-3732">
                      <bind_material>
                        <technique_common>
                          <instance_material symbol="IfcMaterial-3732" target="#IfcMaterial-3732"/>
                        </technique_common>
                      </bind_material>
                    </instance_geometry>
                  </node>
                </node>
              </node>
            </node>
          </node>
        </node>
      </node>
    </visual_scene>
  </library_visual_scenes>
  <scene>
    <instance_visual_scene url="#IfcOpenShell"/>
  </scene>
</COLLADA>