<?xml version="1.0" encoding="utf-8"?>
<COLLADA xmlns="http://www.collada.org/2005/11/COLLADASchema" version="1.4.1" xmlns:xsi="http://www.w3.org/2001/XMLSchema-instance">
  <asset>
    <contributor>
      <authoring_tool>IfcOpenShell 0.8.1-c49ca69</authoring_tool>
    </contributor>
    <created>2025-04-25T00:27:28</created>
    <modified>2025-04-25T00:27:28</modified>
    <unit name="METER" meter="1"/>
    <up_axis>Z_UP</up_axis>
  </asset>
  <library_effects>
    <effect id="IfcSurfaceStyleRendering-521240-fx">
      <profile_COMMON>
        <technique sid="common">
          <lambert>
            <diffuse>
              <color>0.5999999999999999 0.2980392156862745 0.1686274509803922 1</color>
            </diffuse>
            <specular>
              <color>0.5 0.5 0.5 1</color>
            </specular>
            <shininess>
              <float>128</float>
            </shininess>
          </lambert>
        </technique>
      </profile_COMMON>
    </effect>
    <effect id="IfcSurfaceStyleRendering-521304-fx">
      <profile_COMMON>
        <technique sid="common">
          <lambert>
            <diffuse>
              <color>0.4470588235294118 0.3215686274509804 0.2 1</color>
            </diffuse>
            <specular>
              <color>0.5 0.5 0.5 1</color>
            </specular>
            <shininess>
              <float>128</float>
            </shininess>
          </lambert>
        </technique>
      </profile_COMMON>
    </effect>
  </library_effects>
  <library_materials>
    <material id="IfcSurfaceStyleRendering-521240">
      <instance_effect url="#IfcSurfaceStyleRendering-521240-fx"/>
    </material>
    <material id="IfcSurfaceStyleRendering-521304">
      <instance_effect url="#IfcSurfaceStyleRendering-521304-fx"/>
    </material>
  </library_materials>
  <library_geometries>
    <geometry id="representation-577273">
      <mesh>
        <source id="representation-577273-positions">
          <float_array id="representation-577273-positions-array" count="936">-0.07599999999999995 0.2 2.108 -0.07599999999999995 0.2249999999999997 2.108 0.838 0.2249999999999997 2.108 0.838 0.2 2.108 0.838 0.2 2.108 0.838 0.2249999999999997 2.108 0.838 0.2249999999999997 0 0.838 0.2 0 0.838 0.2 0 0.838 0.2249999999999997 0 0.762 0.2249999999999997 0 0.762 0.2 0 0.762 0.2 0 0.762 0.2249999999999997 0 0.762 0.2249999999999997 2.032 0.762 0.2 2.032 0.762 0.2 2.032 0.762 0.2249999999999997 2.032 0 0.2249999999999997 2.032 0 0.2 2.032 0 0.2 2.032 0 0.2249999999999997 2.032 0 0.2249999999999997 0 0 0.2 0 0 0.2 0 0 0.2249999999999997 0 -0.07599999999999995 0.2249999999999997 0 -0.07599999999999995 0.2 0 -0.07599999999999995 0.2 0 -0.07599999999999995 0.2249999999999997 0 -0.07599999999999995 0.2249999999999997 2.108 -0.07599999999999995 0.2 2.108 -0.07599999999999995 0.2 2.108 0.838 0.2 2.108 0.838 0.2 0 0.762 0.2 0 0.762 0.2 2.032 0 0.2 2.032 0 0.2 0 -0.07599999999999995 0.2 0 -0.07599999999999995 0.2249999999999997 2.108 0.838 0.2249999999999997 2.108 0.838 0.2249999999999997 0 0.762 0.2249999999999997 0 0.762 0.2249999999999997 2.032 0 0.2249999999999997 2.032 0 0.2249999999999997 0 -0.07599999999999995 0.2249999999999997 0 0.838 -0.02499999999999991 2.108 0.838 2.8796409701215e-16 2.108 0.838 2.8796409701215e-16 0 0.838 -0.02499999999999991 0 0.838 -0.02499999999999991 0 0.838 2.8796409701215e-16 0 0.762 2.8796409701215e-16 0 0.762 -0.02499999999999991 0 0.762 -0.02499999999999991 0 0.762 2.8796409701215e-16 0 0.762 2.8796409701215e-16 2.032 0.762 -0.02499999999999991 2.032 0.762 -0.02499999999999991 2.032 0.762 2.8796409701215e-16 2.032 0 2.8796409701215e-16 2.032 0 -0.02499999999999991 2.032 0 -0.02499999999999991 2.032 0 2.8796409701215e-16 2.032 0 2.8796409701215e-16 0 0 -0.02499999999999991 0 0 -0.02499999999999991 0 0 2.8796409701215e-16 0 -0.07599999999999995 2.8796409701215e-16 0 -0.07599999999999995 -0.02499999999999991 0 -0.07599999999999995 -0.02499999999999991 0 -0.07599999999999995 2.8796409701215e-16 0 -0.07599999999999995 2.8796409701215e-16 2.108 -0.07599999999999995 -0.02499999999999991 2.108 -0.07599999999999995 -0.02499999999999991 2.108 -0.07599999999999995 2.8796409701215e-16 2.108 0.838 2.8796409701215e-16 2.108 0.838 -0.02499999999999991 2.108 0.838 -0.02499999999999991 2.108 0.838 -0.02499999999999991 0 0.762 -0.02499999999999991 0 0.762 -0.02499999999999991 2.032 0 -0.02499999999999991 2.032 0 -0.02499999999999991 0 -0.07599999999999995 -0.02499999999999991 0 -0.07599999999999995 -0.02499999999999991 2.108 0.838 2.8796409701215e-16 2.108 0.838 2.8796409701215e-16 0 0.762 2.8796409701215e-16 0 0.762 2.8796409701215e-16 2.032 0 2.8796409701215e-16 2.032 0 2.8796409701215e-16 0 -0.07599999999999995 2.8796409701215e-16 0 -0.07599999999999995 2.8796409701215e-16 2.108 0.6599999999999996 0.1617000000000012 1.143 0.6599999999999996 0.1617000000000012 1.90699999999994 0.6599999999999996 0.1873000000000012 1.90699999999994 0.6599999999999996 0.1873000000000012 1.143 0.6599999999999996 0.1873000000000012 1.143 0.6599999999999996 0.1873000000000012 1.90699999999994 0.1020000000000004 0.1873000000000012 1.90699999999994 0.1020000000000004 0.1873000000000012 1.143 0.1020000000000004 0.1873000000000012 1.143 0.1020000000000004 0.1873000000000012 1.90699999999994 0.1020000000000004 0.1617000000000012 1.90699999999994 0.1020000000000004 0.1617000000000012 1.143 0.1020000000000004 0.1617000000000012 1.143 0.1020000000000004 0.1617000000000012 1.90699999999994 0.6599999999999996 0.1617000000000012 1.90699999999994 0.6599999999999996 0.1617000000000012 1.143 0.6599999999999996 0.1617000000000012 1.143 0.6599999999999996 0.1873000000000012 1.143 0.1020000000000004 0.1873000000000012 1.143 0.1020000000000004 0.1617000000000012 1.143 0.6599999999999996 0.1617000000000012 1.90699999999994 0.6599999999999996 0.1873000000000012 1.90699999999994 0.1020000000000004 0.1873000000000012 1.90699999999994 0.1020000000000004 0.1617000000000012 1.90699999999994 0.6600000000000031 0.1617000000000007 0.175 0.6600000000000031 0.1617000000000007 0.6873999999999966 0.6600000000000031 0.1873000000000006 0.6873999999999966 0.6600000000000031 0.1873000000000006 0.175 0.6600000000000031 0.1873000000000006 0.175 0.6600000000000031 0.1873000000000006 0.6873999999999966 0.431999999999997 0.1873000000000006 0.6873999999999966 0.431999999999997 0.1873000000000006 0.175 0.431999999999997 0.1873000000000006 0.175 0.431999999999997 0.1873000000000006 0.6873999999999966 0.431999999999997 0.1617000000000007 0.6873999999999966 0.431999999999997 0.1617000000000007 0.175 0.431999999999997 0.1617000000000007 0.175 0.431999999999997 0.1617000000000007 0.6873999999999966 0.6600000000000031 0.1617000000000007 0.6873999999999966 0.6600000000000031 0.1617000000000007 0.175 0.6600000000000031 0.1617000000000007 0.175 0.6600000000000031 0.1873000000000006 0.175 0.431999999999997 0.1873000000000006 0.175 0.431999999999997 0.1617000000000007 0.175 0.6600000000000031 0.1617000000000007 0.6873999999999966 0.6600000000000031 0.1873000000000006 0.6873999999999966 0.431999999999997 0.1873000000000006 0.6873999999999966 0.431999999999997 0.1617000000000007 0.6873999999999966 0.6599999999999996 0.1617000000000012 0.7873999999999967 0.6599999999999996 0.1617000000000012 1.043000000000061 0.6599999999999996 0.1873000000000012 1.043000000000061 0.6599999999999996 0.1873000000000012 0.7873999999999967 0.6599999999999996 0.1873000000000012 0.7873999999999967 0.6599999999999996 0.1873000000000012 1.043000000000061 0.1020000000000004 0.1873000000000012 1.043000000000061 0.1020000000000004 0.1873000000000012 0.7873999999999967 0.1020000000000004 0.1873000000000012 0.7873999999999967 0.1020000000000004 0.1873000000000012 1.043000000000061 0.1020000000000004 0.1617000000000012 1.043000000000061 0.1020000000000004 0.1617000000000012 0.7873999999999967 0.1020000000000004 0.1617000000000012 0.7873999999999967 0.1020000000000004 0.1617000000000012 1.043000000000061 0.6599999999999996 0.1617000000000012 1.043000000000061 0.6599999999999996 0.1617000000000012 0.7873999999999967 0.6599999999999996 0.1617000000000012 0.7873999999999967 0.6599999999999996 0.1873000000000012 0.7873999999999967 0.1020000000000004 0.1873000000000012 0.7873999999999967 0.1020000000000004 0.1617000000000012 0.7873999999999967 0.6599999999999996 0.1617000000000012 1.043000000000061 0.6599999999999996 0.1873000000000012 1.043000000000061 0.1020000000000004 0.1873000000000012 1.043000000000061 0.1020000000000004 0.1617000000000012 1.043000000000061 0.3299999999999974 0.1617000000000017 0.175 0.3299999999999974 0.1617000000000017 0.6873999999999964 0.3299999999999974 0.1873000000000017 0.6873999999999964 0.3299999999999974 0.1873000000000017 0.175 0.3299999999999974 0.1873000000000017 0.175 0.3299999999999974 0.1873000000000017 0.6873999999999964 0.1020000000000026 0.1873000000000017 0.6873999999999964 0.1020000000000026 0.1873000000000017 0.175 0.1020000000000026 0.1873000000000017 0.175 0.1020000000000026 0.1873000000000017 0.6873999999999964 0.1020000000000026 0.1617000000000017 0.6873999999999964 0.1020000000000026 0.1617000000000017 0.175 0.1020000000000026 0.1617000000000017 0.175 0.1020000000000026 0.1617000000000017 0.6873999999999964 0.3299999999999974 0.1617000000000017 0.6873999999999964 0.3299999999999974 0.1617000000000017 0.175 0.3299999999999974 0.1617000000000017 0.175 0.3299999999999974 0.1873000000000017 0.175 0.1020000000000026 0.1873000000000017 0.175 0.1020000000000026 0.1617000000000017 0.175 0.3299999999999974 0.1617000000000017 0.6873999999999964 0.3299999999999974 0.1873000000000017 0.6873999999999964 0.1020000000000026 0.1873000000000017 0.6873999999999964 0.1020000000000026 0.1617000000000017 0.6873999999999964 0 0.149 2.032 0 0.2 2.032 0.762 0.2 2.032 0.762 0.149 2.032 0.762 0.149 2.032 0.762 0.2 2.032 0.762 0.2 0 0.762 0.149 0 0.762 0.149 0 0.762 0.2 0 0 0.2 0 0 0.149 0 0 0.149 0 0 0.2 0 0 0.2 2.032 0 0.149 2.032 0.1019999999999999 0.149 1.907 0.1019999999999999 0.2 1.907 0.1019999999999999 0.2 1.143 0.1019999999999999 0.149 1.143 0.1019999999999999 0.149 1.143 0.1019999999999999 0.2 1.143 0.66 0.2 1.143 0.66 0.149 1.143 0.66 0.149 1.143 0.66 0.2 1.143 0.66 0.2 1.907 0.66 0.149 1.907 0.66 0.149 1.907 0.66 0.2 1.907 0.1019999999999999 0.2 1.907 0.1019999999999999 0.149 1.907 0.1019999999999999 0.149 1.043 0.1019999999999999 0.2 1.043 0.1019999999999999 0.2 0.7873999999999974 0.1019999999999999 0.149 0.7873999999999974 0.1019999999999999 0.149 0.7873999999999974 0.1019999999999999 0.2 0.7873999999999974 0.66 0.2 0.7873999999999974 0.66 0.149 0.7873999999999974 0.66 0.149 0.7873999999999974 0.66 0.2 0.7873999999999974 0.66 0.2 1.043 0.66 0.149 1.043 0.66 0.149 1.043 0.66 0.2 1.043 0.1019999999999999 0.2 1.043 0.1019999999999999 0.149 1.043 0.33 0.149 0.6873999999999973 0.33 0.2 0.6873999999999973 0.1019999999999999 0.2 0.6873999999999973 0.1019999999999999 0.149 0.6873999999999973 0.1019999999999999 0.149 0.6873999999999973 0.1019999999999999 0.2 0.6873999999999973 0.1019999999999999 0.2 0.175 0.1019999999999999 0.149 0.175 0.1019999999999999 0.149 0.175 0.1019999999999999 0.2 0.175 0.33 0.2 0.175 0.33 0.149 0.175 0.33 0.149 0.175 0.33 0.2 0.175 0.33 0.2 0.6873999999999973 0.33 0.149 0.6873999999999973 0.66 0.149 0.6873999999999973 0.66 0.2 0.6873999999999973 0.432 0.2 0.6873999999999973 0.432 0.149 0.6873999999999973 0.432 0.149 0.6873999999999973 0.432 0.2 0.6873999999999973 0.432 0.2 0.175 0.432 0.149 0.175 0.432 0.149 0.175 0.432 0.2 0.175 0.66 0.2 0.175 0.66 0.149 0.175 0.66 0.149 0.175 0.66 0.2 0.175 0.66 0.2 0.6873999999999973 0.66 0.149 0.6873999999999973 0 0.149 2.032 0.762 0.149 2.032 0.762 0.149 0 0 0.149 0 0.1019999999999999 0.149 1.907 0.1019999999999999 0.149 1.143 0.66 0.149 1.143 0.66 0.149 1.907 0.1019999999999999 0.149 1.043 0.1019999999999999 0.149 0.7873999999999974 0.66 0.149 0.7873999999999974 0.66 0.149 1.043 0.33 0.149 0.6873999999999973 0.1019999999999999 0.149 0.6873999999999973 0.1019999999999999 0.149 0.175 0.33 0.149 0.175 0.66 0.149 0.6873999999999973 0.432 0.149 0.6873999999999973 0.432 0.149 0.175 0.66 0.149 0.175 0 0.2 2.032 0.762 0.2 2.032 0.762 0.2 0 0 0.2 0 0.1019999999999999 0.2 1.907 0.1019999999999999 0.2 1.143 0.66 0.2 1.143 0.66 0.2 1.907 0.1019999999999999 0.2 1.043 0.1019999999999999 0.2 0.7873999999999974 0.66 0.2 0.7873999999999974 0.66 0.2 1.043 0.33 0.2 0.6873999999999973 0.1019999999999999 0.2 0.6873999999999973 0.1019999999999999 0.2 0.175 0.33 0.2 0.175 0.66 0.2 0.6873999999999973 0.432 0.2 0.6873999999999973 0.432 0.2 0.175 0.66 0.2 0.175</float_array>
          <technique_common>
            <accessor source="#representation-577273-positions-array" count="312" stride="3">
              <param name="X" type="float"/>
              <param name="Y" type="float"/>
              <param name="Z" type="float"/>
            </accessor>
          </technique_common>
        </source>
        <source id="representation-577273-normals">
          <float_array id="representation-577273-normals-array" count="936">0 0 1 0 0 1 0 0 1 0 0 1 1 0 0 1 0 0 1 0 0 1 0 0 0 0 -1 0 0 -1 0 0 -1 0 0 -1 -1 0 0 -1 0 0 -1 0 0 -1 0 0 0 0 -1 0 0 -1 0 0 -1 0 0 -1 1 0 0 1 0 0 1 0 0 1 0 0 0 0 -1 0 0 -1 0 0 -1 0 0 -1 -1 0 0 -1 0 0 -1 0 0 -1 0 0 0 -1 0 0 -1 0 0 -1 0 0 -1 0 0 -1 0 0 -1 0 0 -1 0 0 -1 0 0 1 0 0 1 0 0 1 0 0 1 0 0 1 0 0 1 0 0 1 0 0 1 0 1 0 0 1 0 0 1 0 0 1 0 0 0 0 -1 0 0 -1 0 0 -1 0 0 -1 -1 0 0 -1 0 0 -1 0 0 -1 0 0 0 0 -1 0 0 -1 0 0 -1 0 0 -1 1 0 0 1 0 0 1 0 0 1 0 0 0 0 -1 0 0 -1 0 0 -1 0 0 -1 -1 0 0 -1 0 0 -1 0 0 -1 0 0 0 0 1 0 0 1 0 0 1 0 0 1 0 -1 0 0 -1 0 0 -1 0 0 -1 0 0 -1 0 0 -1 0 0 -1 0 0 -1 0 0 1 0 0 1 0 0 1 0 0 1 0 0 1 0 0 1 0 0 1 0 0 1 0 1 0 0 1 0 0 1 0 0 1 0 0 0 1 0 0 1 0 0 1 0 0 1 0 -1 0 0 -1 0 0 -1 0 0 -1 0 0 0 -1 0 0 -1 0 0 -1 0 0 -1 0 0 0 -1 0 0 -1 0 0 -1 0 0 -1 0 0 1 0 0 1 0 0 1 0 0 1 1 0 0 1 0 0 1 0 0 1 0 0 0 1 0 0 1 0 0 1 0 0 1 0 -1 0 0 -1 0 0 -1 0 0 -1 0 0 0 -1 0 0 -1 0 0 -1 0 0 -1 0 0 0 -1 0 0 -1 0 0 -1 0 0 -1 0 0 1 0 0 1 0 0 1 0 0 1 1 0 0 1 0 0 1 0 0 1 0 0 0 1 0 0 1 0 0 1 0 0 1 0 -1 0 0 -1 0 0 -1 0 0 -1 0 0 0 -1 0 0 -1 0 0 -1 0 0 -1 0 0 0 -1 0 0 -1 0 0 -1 0 0 -1 0 0 1 0 0 1 0 0 1 0 0 1 1 0 0 1 0 0 1 0 0 1 0 0 0 1 0 0 1 0 0 1 0 0 1 0 -1 0 0 -1 0 0 -1 0 0 -1 0 0 0 -1 0 0 -1 0 0 -1 0 0 -1 0 0 0 -1 0 0 -1 0 0 -1 0 0 -1 0 0 1 0 0 1 0 0 1 0 0 1 0 0 1 0 0 1 0 0 1 0 0 1 1 0 0 1 0 0 1 0 0 1 0 0 0 0 -1 0 0 -1 0 0 -1 0 0 -1 -1 0 0 -1 0 0 -1 0 0 -1 0 0 1 0 0 1 0 0 1 0 0 1 0 0 0 0 1 0 0 1 0 0 1 0 0 1 -1 0 0 -1 0 0 -1 0 0 -1 0 0 0 0 -1 0 0 -1 0 0 -1 0 0 -1 1 0 0 1 0 0 1 0 0 1 0 0 0 0 1 0 0 1 0 0 1 0 0 1 -1 0 0 -1 0 0 -1 0 0 -1 0 0 0 0 -1 0 0 -1 0 0 -1 0 0 -1 0 0 -1 0 0 -1 0 0 -1 0 0 -1 1 0 0 1 0 0 1 0 0 1 0 0 0 0 1 0 0 1 0 0 1 0 0 1 -1 0 0 -1 0 0 -1 0 0 -1 0 0 0 0 -1 0 0 -1 0 0 -1 0 0 -1 1 0 0 1 0 0 1 0 0 1 0 0 0 0 1 0 0 1 0 0 1 0 0 1 -1 0 0 -1 0 0 -1 0 0 -1 0 0 0 -1 0 0 -1 0 0 -1 0 0 -1 0 0 -1 0 0 -1 0 0 -1 0 0 -1 0 0 -1 0 0 -1 0 0 -1 0 0 -1 0 0 -1 0 0 -1 0 0 -1 0 0 -1 0 0 -1 0 0 -1 0 0 -1 0 0 -1 0 0 1 0 0 1 0 0 1 0 0 1 0 0 1 0 0 1 0 0 1 0 0 1 0 0 1 0 0 1 0 0 1 0 0 1 0 0 1 0 0 1 0 0 1 0 0 1 0 0 1 0 0 1 0 0 1 0 0 1 0</float_array>
          <technique_common>
            <accessor source="#representation-577273-normals-array" count="312" stride="3">
              <param name="X" type="float"/>
              <param name="Y" type="float"/>
              <param name="Z" type="float"/>
            </accessor>
          </technique_common>
        </source>
        <vertices id="representation-577273-vertices">
          <input semantic="POSITION" source="#representation-577273-positions"/>
        </vertices>
        <triangles material="IfcSurfaceStyleRendering-521240" count="56">
          <input semantic="VERTEX" source="#representation-577273-vertices" offset="0"/>
          <input semantic="NORMAL" source="#representation-577273-normals" offset="1"/>
          <p>1 1 0 0 3 3 2 2 1 1 3 3 5 5 4 4 7 7 6 6 5 5 7 7 9 9 8 8 11 11 10 10 9 9 11 11 13 13 12 12 15 15 14 14 13 13 15 15 17 17 16 16 19 19 18 18 17 17 19 19 21 21 20 20 23 23 22 22 21 21 23 23 25 25 24 24 27 27 26 26 25 25 27 27 29 29 28 28 31 31 30 30 29 29 31 31 37 37 36 36 33 33 32 32 37 37 33 33 37 37 32 32 39 39 37 37 39 39 38 38 36 36 35 35 34 34 33 33 36 36 34 34 41 41 44 44 45 45 41 41 45 45 40 40 47 47 40 40 45 45 46 46 47 47 45 45 42 42 43 43 44 44 42 42 44 44 41 41 49 49 48 48 51 51 50 50 49 49 51 51 53 53 52 52 55 55 54 54 53 53 55 55 57 57 56 56 59 59 58 58 57 57 59 59 61 61 60 60 63 63 62 62 61 61 63 63 65 65 64 64 67 67 66 66 65 65 67 67 69 69 68 68 71 71 70 70 69 69 71 71 73 73 72 72 75 75 74 74 73 73 75 75 77 77 76 76 79 79 78 78 77 77 79 79 84 84 83 83 87 87 83 83 80 80 87 87 80 80 83 83 81 81 81 81 83 83 82 82 85 85 84 84 86 86 84 84 87 87 86 86 95 95 91 91 92 92 95 95 88 88 91 91 89 89 91 91 88 88 90 90 91 91 89 89 94 94 92 92 93 93 94 94 95 95 92 92</p>
        </triangles>
        <triangles material="IfcSurfaceStyleRendering-521304" count="140">
          <input semantic="VERTEX" source="#representation-577273-vertices" offset="0"/>
          <input semantic="NORMAL" source="#representation-577273-normals" offset="1"/>
          <p>97 97 96 96 99 99 98 98 97 97 99 99 101 101 100 100 103 103 102 102 101 101 103 103 105 105 104 104 107 107 106 106 105 105 107 107 109 109 108 108 111 111 110 110 109 109 111 111 113 113 112 112 114 114 112 112 115 115 114 114 118 118 116 116 117 117 118 118 119 119 116 116 121 121 120 120 123 123 122 122 121 121 123 123 125 125 124 124 127 127 126 126 125 125 127 127 129 129 128 128 131 131 130 130 129 129 131 131 133 133 132 132 135 135 134 134 133 133 135 135 137 137 136 136 138 138 136 136 139 139 138 138 142 142 140 140 141 141 142 142 143 143 140 140 145 145 144 144 147 147 146 146 145 145 147 147 149 149 148 148 151 151 150 150 149 149 151 151 153 153 152 152 155 155 154 154 153 153 155 155 157 157 156 156 159 159 158 158 157 157 159 159 161 161 160 160 162 162 160 160 163 163 162 162 166 166 164 164 165 165 166 166 167 167 164 164 169 169 168 168 171 171 170 170 169 169 171 171 173 173 172 172 175 175 174 174 173 173 175 175 177 177 176 176 179 179 178 178 177 177 179 179 181 181 180 180 183 183 182 182 181 181 183 183 185 185 184 184 186 186 184 184 187 187 186 186 190 190 188 188 189 189 190 190 191 191 188 188 193 193 192 192 195 195 194 194 193 193 195 195 197 197 196 196 199 199 198 198 197 197 199 199 201 201 200 200 203 203 202 202 201 201 203 203 205 205 204 204 207 207 206 206 205 205 207 207 209 209 208 208 211 211 210 210 209 209 211 211 213 213 212 212 215 215 214 214 213 213 215 215 217 217 216 216 219 219 218 218 217 217 219 219 221 221 220 220 223 223 222 222 221 221 223 223 225 225 224 224 227 227 226 226 225 225 227 227 229 229 228 228 231 231 230 230 229 229 231 231 233 233 232 232 235 235 234 234 233 233 235 235 237 237 236 236 239 239 238 238 237 237 239 239 241 241 240 240 243 243 242 242 241 241 243 243 245 245 244 244 247 247 246 246 245 245 247 247 249 249 248 248 251 251 250 250 249 249 251 251 253 253 252 252 255 255 254 254 253 253 255 255 257 257 256 256 259 259 258 258 257 257 259 259 261 261 260 260 263 263 262 262 261 261 263 263 265 265 264 264 267 267 266 266 265 265 267 267 269 269 268 268 271 271 270 270 269 269 271 271 273 273 272 272 279 279 272 272 276 276 279 279 276 276 272 272 277 277 273 273 279 279 278 278 278 278 277 277 283 283 277 277 280 280 283 283 281 281 285 285 284 284 282 282 289 289 288 288 286 286 285 285 275 275 286 286 275 275 287 287 284 284 287 287 290 290 289 289 284 284 290 290 291 291 290 290 274 274 288 288 291 291 274 274 287 287 275 275 274 274 290 290 287 287 274 274 288 288 274 274 273 273 282 282 288 288 273 273 283 283 282 282 273 273 278 278 283 283 273 273 277 277 272 272 275 275 280 280 277 277 275 275 281 281 280 280 275 275 285 285 281 281 275 275 289 289 282 282 281 281 284 284 289 289 281 281 299 299 292 292 293 293 299 299 296 296 292 292 297 297 292 292 296 296 298 298 299 299 293 293 303 303 297 297 298 298 303 303 300 300 297 297 304 304 305 305 301 301 308 308 309 309 302 302 295 295 305 305 306 306 307 307 295 295 306 306 310 310 307 307 304 304 310 310 304 304 309 309 294 294 310 310 311 311 294 294 311 311 308 308 294 294 295 295 307 307 294 294 307 307 310 310 293 293 294 294 308 308 293 293 308 308 302 302 293 293 302 302 303 303 293 293 303 303 298 298 295 295 292 292 297 297 295 295 297 297 300 300 295 295 300 300 301 301 295 295 301 301 305 305 301 301 302 302 309 309 301 301 309 309 304 304</p>
        </triangles>
      </mesh>
    </geometry>
  </library_geometries>
  <library_visual_scenes>
    <visual_scene id="IfcOpenShell">
      <node id="project" name="project" type="NODE">
        <matrix>1 0 0 0 0 1 0 0 0 0 1 0 0 0 0 1</matrix>
        <node id="product-a61f50d9-1b06-47d0-9196-83196ee53d41" name="product-a61f50d9-1b06-47d0-9196-83196ee53d41" type="NODE">
          <matrix>1 0 0 -11.92814731597898 0 1 0 -7.554933547973637 0 0 1 -4.154317378997803 0 0 0 1</matrix>
          <node id="product-a61f50d9-1b06-47d0-9196-83196ee53d42" name="product-a61f50d9-1b06-47d0-9196-83196ee53d42" type="NODE">
            <matrix>1 0 0 0 0 1 0 0 0 0 1 0 0 0 0 1</matrix>
            <node id="product-44bd8488-e63e-11d3-918b-0000863f1984" name="product-44bd8488-e63e-11d3-918b-0000863f1984" type="NODE">
              <matrix>1 0 0 0 0 1 0 0 0 0 1 3.5 0 0 0 1</matrix>
              <node id="product-e1101115-ac30-429a-95ac-7e9efa4029a6" name="product-e1101115-ac30-429a-95ac-7e9efa4029a6" type="NODE">
                <matrix>7.549790126404311e-8 -0.9999999999999972 0 12.0281476974487 0.9999999999999972 7.549790126404311e-8 0 5.93237686157227 0 0 1 0.6543173789978027 0 0 0 1</matrix>
                <node id="product-6bcb61ed-2c2a-62e8-0c57-131c0c5236a4" name="product-6bcb61ed-2c2a-62e8-0c57-131c0c5236a4" type="NODE">
                  <matrix>0.9999999999999998 0 0 1.622556971045268 0 0.9999999999999998 0 0.09999999999999986 0 0 1 0 0 0 0 1</matrix>
                  <node id="product-e1101115-ac30-429a-95ac-7e9efa41d9fd-body" name="product-e1101115-ac30-429a-95ac-7e9efa41d9fd-body" type="NODE">
                    <matrix>-0.9999999999999885 1.509958025280859e-7 0 -2.921937259605193e-7 -1.509958025280859e-7 -0.9999999999999885 0 5.039693490639462e-7 0 0 1 0 0 0 0 1</matrix>
                    <instance_geometry url="#representation-577273">
                      <bind_material>
                        <technique_common>
                          <instance_material symbol="IfcSurfaceStyleRendering-521240" target="#IfcSurfaceStyleRendering-521240"/>
                          <instance_material symbol="IfcSurfaceStyleRendering-521304" target="#IfcSurfaceStyleRendering-521304"/>
                        </technique_common>
                      </bind_material>
                    </instance_geometry>
                  </node>
                </node>
              </node>
            </node>
          </node>
        </node>
      </node>
    </visual_scene>
  </library_visual_scenes>
  <scene>
    <instance_visual_scene url="#IfcOpenShell"/>
  </scene>
</COLLADA>