<?xml version="1.0" encoding="utf-8"?>
<COLLADA xmlns="http://www.collada.org/2005/11/COLLADASchema" version="1.4.1" xmlns:xsi="http://www.w3.org/2001/XMLSchema-instance">
  <asset>
    <contributor>
      <authoring_tool>IfcOpenShell 0.8.1-c49ca69</authoring_tool>
    </contributor>
    <created>2025-04-25T00:27:32</created>
    <modified>2025-04-25T00:27:32</modified>
    <unit name="METER" meter="1"/>
    <up_axis>Z_UP</up_axis>
  </asset>
  <library_effects>
    <effect id="IfcSurfaceStyleRendering-521240-fx">
      <profile_COMMON>
        <technique sid="common">
          <lambert>
            <diffuse>
              <color>0.5999999999999999 0.2980392156862745 0.1686274509803922 1</color>
            </diffuse>
            <specular>
              <color>0.5 0.5 0.5 1</color>
            </specular>
            <shininess>
              <float>128</float>
            </shininess>
          </lambert>
        </technique>
      </profile_COMMON>
    </effect>
  </library_effects>
  <library_materials>
    <material id="IfcSurfaceStyleRendering-521240">
      <instance_effect url="#IfcSurfaceStyleRendering-521240-fx"/>
    </material>
  </library_materials>
  <library_geometries>
    <geometry id="representation-521892">
      <mesh>
        <source id="representation-521892-positions">
          <float_array id="representation-521892-positions-array" count="288">0 0.2 2.032 0 0.2250000000000123 2.032 0 0.2250000000000123 0 0 0.2 0 0 0.2 0 0 0.2250000000000123 0 -0.07600000000000006 0.2250000000000123 0 -0.07600000000000006 0.2 0 -0.07600000000000006 0.2 0 -0.07600000000000006 0.2250000000000123 0 -0.07600000000000006 0.2250000000000123 2.108 -0.07600000000000006 0.2 2.108 -0.07600000000000006 0.2 2.108 -0.07600000000000006 0.2250000000000123 2.108 1.806 0.2250000000000123 2.108 1.806 0.2 2.108 1.806 0.2 2.108 1.806 0.2250000000000123 2.108 1.806 0.2250000000000123 0 1.806 0.2 0 1.806 0.2 0 1.806 0.2250000000000123 0 1.73 0.2250000000000123 0 1.73 0.2 0 1.73 0.2 0 1.73 0.2250000000000123 0 1.73 0.2250000000000123 2.032 1.73 0.2 2.032 1.73 0.2 2.032 1.73 0.2250000000000123 2.032 0 0.2250000000000123 2.032 0 0.2 2.032 0 0.2 2.032 0 0.2 0 -0.07600000000000006 0.2 0 -0.07600000000000006 0.2 2.108 1.806 0.2 2.108 1.806 0.2 0 1.73 0.2 0 1.73 0.2 2.032 0 0.2250000000000123 2.032 0 0.2250000000000123 0 -0.07600000000000006 0.2250000000000123 0 -0.07600000000000006 0.2250000000000123 2.108 1.806 0.2250000000000123 2.108 1.806 0.2250000000000123 0 1.73 0.2250000000000123 0 1.73 0.2250000000000123 2.032 0 -0.02499999999999991 2.032 0 -1.229918944467556e-14 2.032 0 -1.229918944467556e-14 0 0 -0.02499999999999991 0 0 -0.02499999999999991 0 0 -1.229918944467556e-14 0 -0.07600000000000006 -1.229918944467556e-14 0 -0.07600000000000006 -0.02499999999999991 0 -0.07600000000000006 -0.02499999999999991 0 -0.07600000000000006 -1.229918944467556e-14 0 -0.07600000000000006 -1.229918944467556e-14 2.108 -0.07600000000000006 -0.02499999999999991 2.108 -0.07600000000000006 -0.02499999999999991 2.108 -0.07600000000000006 -1.229918944467556e-14 2.108 1.806 -1.229918944467556e-14 2.108 1.806 -0.02499999999999991 2.108 1.806 -0.02499999999999991 2.108 1.806 -1.229918944467556e-14 2.108 1.806 -1.229918944467556e-14 0 1.806 -0.02499999999999991 0 1.806 -0.02499999999999991 0 1.806 -1.229918944467556e-14 0 1.73 -1.229918944467556e-14 0 1.73 -0.02499999999999991 0 1.73 -0.02499999999999991 0 1.73 -1.229918944467556e-14 0 1.73 -1.229918944467556e-14 2.032 1.73 -0.02499999999999991 2.032 1.73 -0.02499999999999991 2.032 1.73 -1.229918944467556e-14 2.032 0 -1.229918944467556e-14 2.032 0 -0.02499999999999991 2.032 0 -0.02499999999999991 2.032 0 -0.02499999999999991 0 -0.07600000000000006 -0.02499999999999991 0 -0.07600000000000006 -0.02499999999999991 2.108 1.806 -0.02499999999999991 2.108 1.806 -0.02499999999999991 0 1.73 -0.02499999999999991 0 1.73 -0.02499999999999991 2.032 0 -1.229918944467556e-14 2.032 0 -1.229918944467556e-14 0 -0.07600000000000006 -1.229918944467556e-14 0 -0.07600000000000006 -1.229918944467556e-14 2.108 1.806 -1.229918944467556e-14 2.108 1.806 -1.229918944467556e-14 0 1.73 -1.229918944467556e-14 0 1.73 -1.229918944467556e-14 2.032</float_array>
          <technique_common>
            <accessor source="#representation-521892-positions-array" count="96" stride="3">
              <param name="X" type="float"/>
              <param name="Y" type="float"/>
              <param name="Z" type="float"/>
            </accessor>
          </technique_common>
        </source>
        <source id="representation-521892-normals">
          <float_array id="representation-521892-normals-array" count="288">1 0 0 1 0 0 1 0 0 1 0 0 0 0 -1 0 0 -1 0 0 -1 0 0 -1 -1 0 0 -1 0 0 -1 0 0 -1 0 0 0 0 1 0 0 1 0 0 1 0 0 1 1 0 0 1 0 0 1 0 0 1 0 0 0 0 -1 0 0 -1 0 0 -1 0 0 -1 -1 0 0 -1 0 0 -1 0 0 -1 0 0 0 0 -1 0 0 -1 0 0 -1 0 0 -1 0 -1 0 0 -1 0 0 -1 0 0 -1 0 0 -1 0 0 -1 0 0 -1 0 0 -1 0 0 1 0 0 1 0 0 1 0 0 1 0 0 1 0 0 1 0 0 1 0 0 1 0 1 0 0 1 0 0 1 0 0 1 0 0 0 0 -1 0 0 -1 0 0 -1 0 0 -1 -1 0 0 -1 0 0 -1 0 0 -1 0 0 0 0 1 0 0 1 0 0 1 0 0 1 1 0 0 1 0 0 1 0 0 1 0 0 0 0 -1 0 0 -1 0 0 -1 0 0 -1 -1 0 0 -1 0 0 -1 0 0 -1 0 0 0 0 -1 0 0 -1 0 0 -1 0 0 -1 0 -1 0 0 -1 0 0 -1 0 0 -1 0 0 -1 0 0 -1 0 0 -1 0 0 -1 0 0 1 0 0 1 0 0 1 0 0 1 0 0 1 0 0 1 0 0 1 0 0 1 0</float_array>
          <technique_common>
            <accessor source="#representation-521892-normals-array" count="96" stride="3">
              <param name="X" type="float"/>
              <param name="Y" type="float"/>
              <param name="Z" type="float"/>
            </accessor>
          </technique_common>
        </source>
        <vertices id="representation-521892-vertices">
          <input semantic="POSITION" source="#representation-521892-positions"/>
        </vertices>
        <triangles material="IfcSurfaceStyleRendering-521240" count="56">
          <input semantic="VERTEX" source="#representation-521892-vertices" offset="0"/>
          <input semantic="NORMAL" source="#representation-521892-normals" offset="1"/>
          <p>1 1 0 0 3 3 2 2 1 1 3 3 5 5 4 4 7 7 6 6 5 5 7 7 9 9 8 8 11 11 10 10 9 9 11 11 13 13 12 12 15 15 14 14 13 13 15 15 17 17 16 16 19 19 18 18 17 17 19 19 21 21 20 20 23 23 22 22 21 21 23 23 25 25 24 24 27 27 26 26 25 25 27 27 29 29 28 28 31 31 30 30 29 29 31 31 36 36 35 35 32 32 39 39 36 36 32 32 36 36 39 39 37 37 37 37 39 39 38 38 33 33 32 32 34 34 32 32 35 35 34 34 40 40 43 43 44 44 40 40 44 44 47 47 45 45 47 47 44 44 46 46 47 47 45 45 42 42 40 40 41 41 42 42 43 43 40 40 49 49 48 48 51 51 50 50 49 49 51 51 53 53 52 52 55 55 54 54 53 53 55 55 57 57 56 56 59 59 58 58 57 57 59 59 61 61 60 60 63 63 62 62 61 61 63 63 65 65 64 64 67 67 66 66 65 65 67 67 69 69 68 68 71 71 70 70 69 69 71 71 73 73 72 72 75 75 74 74 73 73 75 75 77 77 76 76 79 79 78 78 77 77 79 79 84 84 83 83 80 80 87 87 84 84 80 80 84 84 87 87 85 85 85 85 87 87 86 86 81 81 80 80 82 82 80 80 83 83 82 82 88 88 91 91 92 92 88 88 92 92 95 95 93 93 95 95 92 92 94 94 95 95 93 93 90 90 88 88 89 89 90 90 91 91 88 88</p>
        </triangles>
      </mesh>
    </geometry>
  </library_geometries>
  <library_visual_scenes>
    <visual_scene id="IfcOpenShell">
      <node id="project" name="project" type="NODE">
        <matrix>1 0 0 0 0 1 0 0 0 0 1 0 0 0 0 1</matrix>
        <node id="product-a61f50d9-1b06-47d0-9196-83196ee53d41" name="product-a61f50d9-1b06-47d0-9196-83196ee53d41" type="NODE">
          <matrix>1 0 0 -14.56814765930177 0 1 0 -10.05893325805661 0 0 1 -4.154317378997803 0 0 0 1</matrix>
          <node id="product-a61f50d9-1b06-47d0-9196-83196ee53d42" name="product-a61f50d9-1b06-47d0-9196-83196ee53d42" type="NODE">
            <matrix>1 0 0 0 0 1 0 0 0 0 1 0 0 0 0 1</matrix>
            <node id="product-44bd8488-e63e-11d3-918b-0000863f1984" name="product-44bd8488-e63e-11d3-918b-0000863f1984" type="NODE">
              <matrix>1 0 0 0 0 1 0 0 0 0 1 3.5 0 0 0 1</matrix>
              <node id="product-e1101115-ac30-429a-95ac-7e9efa47afe5" name="product-e1101115-ac30-429a-95ac-7e9efa47afe5" type="NODE">
                <matrix>7.549790126404311e-8 0.9999999999999972 0 14.6681480407715 -0.9999999999999972 7.549790126404311e-8 0 11.1723766326904 0 0 1 0.6543173789978027 0 0 0 1</matrix>
                <node id="product-f7d00c80-62a5-e843-b461-ce41ceab983d" name="product-f7d00c80-62a5-e843-b461-ce41ceab983d" type="NODE">
                  <matrix>0.9999999999999998 0 0 1.113443028954703 0 0.9999999999999998 0 -0.1000000000000006 0 0 1 0 0 0 0 1</matrix>
                  <node id="product-e1101115-ac30-429a-95ac-7e9efa406cf6-body" name="product-e1101115-ac30-429a-95ac-7e9efa406cf6-body" type="NODE">
                    <matrix>0.9999999999999998 0 0 3.381292618594465e-7 0 0.9999999999999998 0 -4.655323670928181e-7 0 0 1 0 0 0 0 1</matrix>
                    <instance_geometry url="#representation-521892">
                      <bind_material>
                        <technique_common>
                          <instance_material symbol="IfcSurfaceStyleRendering-521240" target="#IfcSurfaceStyleRendering-521240"/>
                        </technique_common>
                      </bind_material>
                    </instance_geometry>
                  </node>
                </node>
              </node>
            </node>
          </node>
        </node>
      </node>
    </visual_scene>
  </library_visual_scenes>
  <scene>
    <instance_visual_scene url="#IfcOpenShell"/>
  </scene>
</COLLADA>