<?xml version="1.0" encoding="utf-8"?>
<COLLADA xmlns="http://www.collada.org/2005/11/COLLADASchema" version="1.4.1" xmlns:xsi="http://www.w3.org/2001/XMLSchema-instance">
  <asset>
    <contributor>
      <authoring_tool>IfcOpenShell 0.8.1-c49ca69</authoring_tool>
    </contributor>
    <created>2025-04-25T00:29:13</created>
    <modified>2025-04-25T00:29:13</modified>
    <unit name="METER" meter="1"/>
    <up_axis>Z_UP</up_axis>
  </asset>
  <library_effects>
    <effect id="IfcSurfaceStyleRendering-521704-fx">
      <profile_COMMON>
        <technique sid="common">
          <lambert>
            <diffuse>
              <color>0.8666666666666666 0.8470588235294117 0.8078431372549019 1</color>
            </diffuse>
            <specular>
              <color>0.5 0.5 0.5 1</color>
            </specular>
            <shininess>
              <float>64</float>
            </shininess>
          </lambert>
        </technique>
      </profile_COMMON>
    </effect>
    <effect id="IfcSurfaceStyleRendering-521717-fx">
      <profile_COMMON>
        <technique sid="common">
          <lambert>
            <diffuse>
              <color>0.6666666666666666 0.3411764705882353 0.05098039215686267 1</color>
            </diffuse>
            <specular>
              <color>0.5 0.5 0.5 1</color>
            </specular>
            <shininess>
              <float>64</float>
            </shininess>
          </lambert>
        </technique>
      </profile_COMMON>
    </effect>
  </library_effects>
  <library_materials>
    <material id="IfcSurfaceStyleRendering-521704">
      <instance_effect url="#IfcSurfaceStyleRendering-521704-fx"/>
    </material>
    <material id="IfcSurfaceStyleRendering-521717">
      <instance_effect url="#IfcSurfaceStyleRendering-521717-fx"/>
    </material>
  </library_materials>
  <library_geometries>
    <geometry id="representation-521724">
      <mesh>
        <source id="representation-521724-positions">
          <float_array id="representation-521724-positions-array" count="828">1.65 -0.385 0.03016462586462154 1.65 -0.385 0.04572034234051725 1.65 -0.515 0.05938389292515333 1.65 -0.515 0.06965420233815577 1.65 -0.52 0.06965420233815577 1.65 -0.52 0.0546542023381642 1.65 -0.39 0.040990651753528 1.65 -0.39 0.03069014704094996 0.04999999999999993 -0.515 0.05938389292515333 0.04999999999999993 -0.385 0.04572034234051725 0.04999999999999993 -0.385 0.03016462586462154 0.04999999999999993 -0.39 0.03069014704094996 0.04999999999999993 -0.39 0.040990651753528 0.04999999999999993 -0.52 0.0546542023381642 0.04999999999999993 -0.52 0.06965420233815577 0.04999999999999993 -0.515 0.06965420233815577 0.04999999999999993 -0.515 0.05938389292515333 1.65 -0.515 0.05938389292515333 1.65 -0.385 0.04572034234051725 0.04999999999999993 -0.385 0.04572034234051725 0.04999999999999993 -0.515 0.06965420233815577 1.65 -0.515 0.06965420233815577 1.65 -0.515 0.05938389292515333 0.04999999999999993 -0.515 0.05938389292515333 0.04999999999999993 -0.52 0.06965420233815577 1.65 -0.52 0.06965420233815577 1.65 -0.515 0.06965420233815577 0.04999999999999993 -0.515 0.06965420233815577 0.04999999999999993 -0.52 0.0546542023381642 1.65 -0.52 0.0546542023381642 1.65 -0.52 0.06965420233815577 0.04999999999999993 -0.52 0.06965420233815577 0.04999999999999993 -0.39 0.040990651753528 1.65 -0.39 0.040990651753528 1.65 -0.52 0.0546542023381642 0.04999999999999993 -0.52 0.0546542023381642 0.04999999999999993 -0.39 0.03069014704094996 1.65 -0.39 0.03069014704094996 1.65 -0.39 0.040990651753528 0.04999999999999993 -0.39 0.040990651753528 0.04999999999999993 -0.385 0.03016462586462154 1.65 -0.385 0.03016462586462154 1.65 -0.39 0.03069014704094996 0.04999999999999993 -0.39 0.03069014704094996 0.04999999999999993 -0.385 0.04572034234051725 1.65 -0.385 0.04572034234051725 1.65 -0.385 0.03016462586462154 0.04999999999999993 -0.385 0.03016462586462154 0.04999999999999993 -0.3860274206971241 0.04982278998657885 0.04999999999999993 -0.385 0.04714626756114337 0.04999999999999993 -0.385 0.04572034234051725 0.04999999999999993 -0.515 0.05938389292515333 0.04999999999999993 -0.515 0.06441143432297091 0.04999999999999993 -0.3885818861459631 0.05112435514261648 0.05499999999999993 -0.3885818861459631 0.05112435514261648 0.05499999999999993 -0.515 0.06441143432297091 0.05499999999999993 -0.515 0.05938389292515333 0.05499999999999993 -0.385 0.04572034234051725 0.05499999999999993 -0.385 0.04714626756114337 0.05499999999999993 -0.3860274206971241 0.04982278998657885 0.05499999999999993 -0.515 0.05938389292515333 0.04999999999999993 -0.515 0.05938389292515333 0.04999999999999993 -0.385 0.04572034234051725 0.05499999999999993 -0.385 0.04572034234051725 0.05499999999999993 -0.515 0.06441143432297091 0.04999999999999993 -0.515 0.06441143432297091 0.04999999999999993 -0.515 0.05938389292515333 0.05499999999999993 -0.515 0.05938389292515333 0.05499999999999993 -0.3885818861459631 0.05112435514261648 0.04999999999999993 -0.3885818861459631 0.05112435514261648 0.04999999999999993 -0.515 0.06441143432297091 0.05499999999999993 -0.515 0.06441143432297091 0.04999999999999993 -0.3860274206971241 0.04982278998657885 0.04999999999999993 -0.3885818861459631 0.05112435514261648 0.05499999999999993 -0.3885818861459631 0.05112435514261648 0.05499999999999993 -0.3860274206971241 0.04982278998657885 0.05499999999999993 -0.3860274206971241 0.04982278998657885 0.04999999999999993 -0.3860274206971241 0.04982278998657885 0.05499999999999993 -0.385 0.04714626756114337 0.04999999999999993 -0.385 0.04714626756114337 0.05499999999999993 -0.385 0.04572034234051725 0.04999999999999993 -0.385 0.04572034234051725 0.04999999999999993 -0.385 0.04714626756114337 0.05499999999999993 -0.385 0.04714626756114337 1.645 -0.3860274206971268 0.04982278998657885 1.645 -0.385 0.04714626756114337 1.645 -0.385 0.04572034234051725 1.645 -0.515 0.05938389292515333 1.645 -0.515 0.06441143432297091 1.645 -0.3885818861459656 0.05112435514261648 1.65 -0.3885818861459656 0.05112435514261648 1.65 -0.515 0.06441143432297091 1.65 -0.515 0.05938389292515333 1.65 -0.385 0.04572034234051725 1.65 -0.385 0.04714626756114337 1.65 -0.3860274206971268 0.04982278998657885 1.65 -0.515 0.05938389292515333 1.645 -0.515 0.05938389292515333 1.645 -0.385 0.04572034234051725 1.65 -0.385 0.04572034234051725 1.65 -0.515 0.06441143432297091 1.645 -0.515 0.06441143432297091 1.645 -0.515 0.05938389292515333 1.65 -0.515 0.05938389292515333 1.65 -0.3885818861459656 0.05112435514261648 1.645 -0.3885818861459656 0.05112435514261648 1.645 -0.515 0.06441143432297091 1.65 -0.515 0.06441143432297091 1.645 -0.3860274206971268 0.04982278998657885 1.645 -0.3885818861459656 0.05112435514261648 1.65 -0.3885818861459656 0.05112435514261648 1.65 -0.3860274206971268 0.04982278998657885 1.65 -0.3860274206971268 0.04982278998657885 1.645 -0.3860274206971268 0.04982278998657885 1.65 -0.385 0.04714626756114337 1.645 -0.385 0.04714626756114337 1.65 -0.385 0.04572034234051725 1.645 -0.385 0.04572034234051725 1.645 -0.385 0.04714626756114337 1.65 -0.385 0.04714626756114337 0.03999999999999992 -0.5 0.06965420233815577 0.04999999999999993 -0.5 0.06965420233815577 0.04999999999999993 -0.55 0.06965420233815577 0.03999999999999992 -0.55 0.06965420233815577 0.04999999999999993 -0.55 1.319654202338155 0.04999999999999993 -0.55 0.06965420233815577 0.04999999999999993 -0.5 0.06965420233815577 0.04999999999999993 -0.5 1.319654202338155 0.03999999999999992 -0.55 1.329654202338155 0.03999999999999992 -0.55 0.06965420233815577 0.04999999999999993 -0.55 0.06965420233815577 0.04999999999999993 -0.55 1.319654202338155 1.65 -0.55 1.319654202338154 1.65 -0.55 0.06965420233815577 1.66 -0.55 0.06965420233815577 1.66 -0.55 1.329654202338155 0.03999999999999992 -0.5 1.329654202338155 0.03999999999999992 -0.5 0.06965420233815577 0.03999999999999992 -0.55 0.06965420233815577 0.03999999999999992 -0.55 1.329654202338155 0.04999999999999993 -0.5 1.319654202338155 0.04999999999999993 -0.5 0.06965420233815577 0.03999999999999992 -0.5 0.06965420233815577 0.03999999999999992 -0.5 1.329654202338155 1.66 -0.5 1.329654202338155 1.66 -0.5 0.06965420233815577 1.65 -0.5 0.06965420233815577 1.65 -0.5 1.319654202338155 1.65 -0.55 0.06965420233815577 1.65 -0.55 1.319654202338154 1.65 -0.5 1.319654202338155 1.65 -0.5 0.06965420233815577 1.65 -0.5 0.06965420233815577 1.65 -0.55 0.06965420233815577 1.66 -0.5 0.06965420233815577 1.66 -0.55 0.06965420233815577 1.66 -0.5 0.06965420233815577 1.66 -0.5 1.329654202338155 1.66 -0.55 1.329654202338155 1.66 -0.55 0.06965420233815577 1.65 -0.55 1.319654202338154 0.04999999999999993 -0.55 1.319654202338155 0.04999999999999993 -0.5 1.319654202338155 1.65 -0.5 1.319654202338155 1.66 -0.5 1.329654202338155 0.03999999999999992 -0.5 1.329654202338155 0.03999999999999992 -0.55 1.329654202338155 1.66 -0.55 1.329654202338155 1.7 -0.5999999999999999 0.06965420233815577 0 -0.5999999999999999 0.06965420233815577 0 -0.55 0.06965420233815577 0.04999999999999993 -0.55 0.06965420233815577 0.04999999999999993 -0.5 0.06965420233815577 1.65 -0.5 0.069654202338156 1.65 -0.55 0.06965420233815577 1.7 -0.55 0.06965420233815577 0 -0.55 1.369654202338154 0 -0.55 0.06965420233815577 0 -0.5999999999999999 0.06965420233815577 0 -0.5999999999999999 1.369654202338154 0.04999999999999993 -0.55 0.06965420233815577 0 -0.55 0.06965420233815577 0 -0.55 1.369654202338154 1.7 -0.55 1.369654202338154 1.7 -0.55 0.06965420233815577 1.65 -0.55 0.06965420233815577 1.65 -0.55 0.109030344824444 0.04999999999999993 -0.55 0.1090303448244599 1.635 -0.55 1.304654202338154 0.06499999999999994 -0.55 1.304654202338154 0.06499999999999994 -0.55 0.1346542023381553 1.635 -0.55 0.1346542023381553 0.04999999999999993 -0.55 0.1090303448244599 0.04999999999999993 -0.55 0.06965420233815577 0.04999999999999993 -0.4899999999999999 0.09295339327858942 0.04999999999999993 -0.4899999999999999 0.06465420233815544 0.04999999999999993 -0.5 0.06465420233815544 0.04999999999999993 -0.5 0.06965420233815577 1.65 -0.5 0.069654202338156 0.04999999999999993 -0.5 0.06965420233815577 0.04999999999999993 -0.5 0.06465420233815544 1.65 -0.5 0.06465420233815544 1.65 -0.55 0.06965420233815577 1.65 -0.5 0.069654202338156 1.65 -0.5 0.06465420233815544 1.65 -0.4899999999999999 0.06465420233815544 1.65 -0.4899999999999999 0.09295339327858942 1.65 -0.55 0.109030344824444 1.7 -0.5999999999999999 0.06965420233815577 1.7 -0.55 0.06965420233815577 1.7 -0.55 1.369654202338154 1.7 -0.5999999999999999 1.369654202338154 0 -0.5999999999999999 1.369654202338154 0 -0.5999999999999999 0.06965420233815577 1.7 -0.5999999999999999 0.06965420233815577 1.7 -0.5999999999999999 1.369654202338154 0.04999999999999993 -0.5999999999999999 1.319654202338155 1.65 -0.5999999999999999 1.319654202338154 1.65 -0.5999999999999999 0.1196542023381558 0.04999999999999993 -0.5999999999999999 0.1196542023381558 0.06499999999999994 -0.55 0.1346542023381553 0.06499999999999994 -0.55 1.304654202338154 0.06499999999999994 -0.56 1.304654202338154 0.06499999999999994 -0.56 0.1346542023381553 0.06499999999999994 -0.56 0.1346542023381553 0.06499999999999994 -0.55 0.1346542023381553 1.635 -0.56 0.1346542023381553 1.635 -0.55 0.1346542023381553 1.635 -0.56 1.304654202338154 1.635 -0.56 0.1346542023381553 1.635 -0.55 1.304654202338154 1.635 -0.55 0.1346542023381553 1.65 -0.4899999999999999 0.09295339327858942 0.04999999999999993 -0.4899999999999999 0.09295339327858942 0.04999999999999993 -0.55 0.1090303448244599 1.65 -0.55 0.109030344824444 1.65 -0.56 0.1196542023381558 1.65 -0.56 1.319654202338155 0.04999999999999993 -0.56 1.319654202338155 0.04999999999999993 -0.56 0.1196542023381558 0.06499999999999994 -0.56 0.1346542023381553 0.06499999999999994 -0.56 1.304654202338154 1.635 -0.56 1.304654202338154 1.635 -0.56 0.1346542023381553 0.04999999999999993 -0.56 0.1196542023381558 0.04999999999999993 -0.5999999999999999 0.1196542023381558 0.04999999999999993 -0.56 1.319654202338155 0.04999999999999993 -0.5999999999999999 1.319654202338155 0.04999999999999993 -0.56 0.1196542023381558 0.04999999999999993 -0.5999999999999999 0.1196542023381558 1.65 -0.5999999999999999 0.1196542023381558 1.65 -0.56 0.1196542023381558 1.65 -0.5999999999999999 0.1196542023381558 1.65 -0.5999999999999999 1.319654202338154 1.65 -0.56 1.319654202338155 1.65 -0.56 0.1196542023381558 1.65 -0.4899999999999999 0.06465420233815544 0.04999999999999993 -0.4899999999999999 0.06465420233815544 0.04999999999999993 -0.4899999999999999 0.09295339327858942 1.65 -0.4899999999999999 0.09295339327858942 1.65 -0.5 0.06465420233815544 0.04999999999999993 -0.5 0.06465420233815544 0.04999999999999993 -0.4899999999999999 0.06465420233815544 1.65 -0.4899999999999999 0.06465420233815544 0.06499999999999994 -0.56 1.304654202338154 0.06499999999999994 -0.55 1.304654202338154 1.635 -0.55 1.304654202338154 1.635 -0.56 1.304654202338154 0.04999999999999993 -0.56 1.319654202338155 0.04999999999999993 -0.5999999999999999 1.319654202338155 1.65 -0.56 1.319654202338155 1.65 -0.5999999999999999 1.319654202338154 1.7 -0.5999999999999999 1.369654202338154 1.7 -0.55 1.369654202338154 0 -0.55 1.369654202338154 0 -0.5999999999999999 1.369654202338154</float_array>
          <technique_common>
            <accessor source="#representation-521724-positions-array" count="276" stride="3">
              <param name="X" type="float"/>
              <param name="Y" type="float"/>
              <param name="Z" type="float"/>
            </accessor>
          </technique_common>
        </source>
        <source id="representation-521724-normals">
          <float_array id="representation-521724-normals-array" count="828">1 9.759230360588656e-15 0 1 9.759230360588656e-15 0 1 9.759230360588656e-15 0 1 9.759230360588656e-15 0 1 9.759230360588656e-15 0 1 9.759230360588656e-15 0 1 9.759230360588656e-15 0 1 9.759230360588656e-15 0 -1 0 0 -1 0 0 -1 0 0 -1 0 0 -1 0 0 -1 0 0 -1 0 0 -1 0 0 0 0.1045284632683962 0.9945218953681952 0 0.1045284632683962 0.9945218953681952 0 0.1045284632683962 0.9945218953681952 0 0.1045284632683962 0.9945218953681952 0 1 0 0 1 0 0 1 0 0 1 0 0 0 1 0 0 1 0 0 1 0 0 1 0 -1 0 0 -1 0 0 -1 0 0 -1 0 0 -0.1045284632683963 -0.9945218953681952 0 -0.1045284632683963 -0.9945218953681952 0 -0.1045284632683963 -0.9945218953681952 0 -0.1045284632683963 -0.9945218953681952 0 -1 0 0 -1 0 0 -1 0 0 -1 0 0 -0.104528463267657 -0.9945218953682729 0 -0.104528463267657 -0.9945218953682729 0 -0.104528463267657 -0.9945218953682729 0 -0.104528463267657 -0.9945218953682729 0 1 0 0 1 0 0 1 0 0 1 0 -1 0 0 -1 0 0 -1 0 0 -1 0 0 -1 0 0 -1 0 0 1 0 0 1 0 0 1 0 0 1 0 0 1 0 0 1 0 0 0 -0.1045284632683962 -0.9945218953681953 0 -0.1045284632683962 -0.9945218953681953 0 -0.1045284632683962 -0.9945218953681953 0 -0.1045284632683962 -0.9945218953681953 0 -1 0 0 -1 0 0 -1 0 0 -1 0 0 0.1045284632676273 0.994521895368276 0 0.1045284632676273 0.994521895368276 0 0.1045284632676273 0.994521895368276 0 0.1045284632676273 0.994521895368276 0 0.4539904997395431 0.8910065241883696 0 0.4539904997395431 0.8910065241883696 0 0.4539904997395431 0.8910065241883696 0 0.4539904997395431 0.8910065241883696 0 0.9335804266099613 0.3583679492515515 0 0.9335804266099613 0.3583679492515515 0 0.9335804266099613 0.3583679492515515 0 0.9335804266099613 0.3583679492515515 0 1 0 0 1 0 0 1 0 0 1 0 -1 -6.005920755523915e-15 0 -1 -6.005920755523915e-15 0 -1 -6.005920755523915e-15 0 -1 -6.005920755523915e-15 0 -1 -6.005920755523915e-15 0 -1 -6.005920755523915e-15 0 1 1.334649056783091e-15 0 1 1.334649056783091e-15 0 1 1.334649056783091e-15 0 1 1.334649056783091e-15 0 1 1.334649056783091e-15 0 1 1.334649056783091e-15 0 0 -0.1045284632683937 -0.9945218953681955 0 -0.1045284632683937 -0.9945218953681955 0 -0.1045284632683937 -0.9945218953681955 0 -0.1045284632683937 -0.9945218953681955 0 -1 0 0 -1 0 0 -1 0 0 -1 0 0 0.1045284632676289 0.9945218953682759 0 0.1045284632676289 0.9945218953682759 0 0.1045284632676289 0.9945218953682759 0 0.1045284632676289 0.9945218953682759 3.711633449757448e-15 0.453990499739577 0.8910065241883524 3.711633449757448e-15 0.453990499739577 0.8910065241883524 3.711633449757448e-15 0.453990499739577 0.8910065241883524 3.711633449757448e-15 0.453990499739577 0.8910065241883524 5.199886001380148e-15 0.9335804266096543 0.3583679492523513 5.199886001380148e-15 0.9335804266096543 0.3583679492523513 5.199886001380148e-15 0.9335804266096543 0.3583679492523513 5.199886001380148e-15 0.9335804266096543 0.3583679492523513 0 1 0 0 1 0 0 1 0 0 1 0 0 0 -1 0 0 -1 0 0 -1 0 0 -1 1 0 0 1 0 0 1 0 0 1 0 0 0 -1 0 0 -1 0 0 -1 0 0 -1 0 0 -1 0 0 -1 0 0 -1 0 0 -1 0 -1 0 0 -1 0 0 -1 0 0 -1 0 0 0 1 0 0 1 0 0 1 0 0 1 0 0 1 0 0 1 0 0 1 0 0 1 0 -1 -7.105427357601004e-15 0 -1 -7.105427357601004e-15 0 -1 -7.105427357601004e-15 0 -1 -7.105427357601004e-15 0 0 0 -1 0 0 -1 0 0 -1 0 0 -1 1 0 0 1 0 0 1 0 0 1 0 0 0 2.220446049250311e-15 -1 0 2.220446049250311e-15 -1 0 2.220446049250311e-15 -1 0 2.220446049250311e-15 -1 0 0 1 0 0 1 0 0 1 0 0 1 0 1.345724878333522e-15 -1 0 1.345724878333522e-15 -1 0 1.345724878333522e-15 -1 0 1.345724878333522e-15 -1 0 1.345724878333522e-15 -1 0 1.345724878333522e-15 -1 0 1.345724878333522e-15 -1 0 1.345724878333522e-15 -1 -1 0 0 -1 0 0 -1 0 0 -1 0 0 0 1 0 0 1 0 0 1 0 0 1 0 0 1 0 0 1 0 0 1 0 0 1 0 0 1 0 0 1 0 0 1 0 0 1 0 -1 0 0 -1 0 0 -1 0 0 -1 0 0 -1 0 0 -1 0 0 0 -1 0 0 -1 0 0 -1 0 0 -1 0 1 0 0 1 0 0 1 0 0 1 0 0 1 0 0 1 0 0 1 0 0 1 0 0 1 0 0 1 0 0 0 -1 0 0 -1 0 0 -1 0 0 -1 0 0 -1 0 0 -1 0 0 -1 0 0 -1 0 1 0 0 1 0 0 1 0 0 1 0 0 0 0 1 0 0 1 0 0 1 0 0 1 -1 0 0 -1 0 0 -1 0 0 -1 0 0 4.782482215572677e-15 0.2588190451024482 0.9659258262890877 4.782482215572677e-15 0.2588190451024482 0.9659258262890877 4.782482215572677e-15 0.2588190451024482 0.9659258262890877 4.782482215572677e-15 0.2588190451024482 0.9659258262890877 0 -1 0 0 -1 0 0 -1 0 0 -1 0 0 -1 0 0 -1 0 0 -1 0 0 -1 0 1 0 0 1 0 0 1 0 0 1 0 0 0 0 1 0 0 1 0 0 1 0 0 1 -1 0 0 -1 0 0 -1 0 0 -1 0 0 0 1 0 0 1 0 0 1 0 0 1 0 0 0 -1 0 0 -1 0 0 -1 0 0 -1 0 0 -1 0 0 -1 0 0 -1 0 0 -1 0 5.551115123125798e-15 -1 0 5.551115123125798e-15 -1 0 5.551115123125798e-15 -1 0 5.551115123125798e-15 -1 0 -2.220446049250314e-15 1 0 -2.220446049250314e-15 1 0 -2.220446049250314e-15 1 0 -2.220446049250314e-15 1</float_array>
          <technique_common>
            <accessor source="#representation-521724-normals-array" count="276" stride="3">
              <param name="X" type="float"/>
              <param name="Y" type="float"/>
              <param name="Z" type="float"/>
            </accessor>
          </technique_common>
        </source>
        <vertices id="representation-521724-vertices">
          <input semantic="POSITION" source="#representation-521724-positions"/>
        </vertices>
        <triangles material="IfcSurfaceStyleRendering-521704" count="68">
          <input semantic="VERTEX" source="#representation-521724-vertices" offset="0"/>
          <input semantic="NORMAL" source="#representation-521724-normals" offset="1"/>
          <p>4 4 5 5 2 2 3 3 4 4 2 2 6 6 7 7 0 0 1 1 6 6 0 0 1 1 2 2 6 6 5 5 6 6 2 2 10 10 12 12 9 9 11 11 12 12 10 10 8 8 14 14 15 15 13 13 14 14 8 8 8 8 9 9 13 13 13 13 9 9 12 12 19 19 16 16 17 17 19 19 17 17 18 18 21 21 22 22 23 23 21 21 23 23 20 20 26 26 24 24 25 25 26 26 27 27 24 24 29 29 30 30 31 31 29 29 31 31 28 28 35 35 32 32 33 33 35 35 33 33 34 34 37 37 38 38 39 39 37 37 39 39 36 36 43 43 40 40 41 41 43 43 41 41 42 42 45 45 46 46 47 47 45 45 47 47 44 44 53 53 48 48 49 49 53 53 49 49 50 50 51 51 53 53 50 50 52 52 53 53 51 51 54 54 57 57 58 58 54 54 58 58 59 59 56 56 57 57 54 54 55 55 56 56 54 54 61 61 62 62 63 63 61 61 63 63 60 60 67 67 64 64 65 65 67 67 65 65 66 66 69 69 70 70 71 71 69 69 71 71 68 68 72 72 73 73 74 74 72 72 74 74 75 75 76 76 78 78 79 79 76 76 79 79 77 77 83 83 80 80 81 81 83 83 81 81 82 82 89 89 84 84 85 85 89 89 85 85 86 86 87 87 89 89 86 86 88 88 89 89 87 87 90 90 91 91 92 92 90 90 92 92 93 93 90 90 93 93 94 94 95 95 90 90 94 94 97 97 98 98 99 99 97 97 99 99 96 96 103 103 100 100 101 101 103 103 101 101 102 102 105 105 106 106 107 107 105 105 107 107 104 104 108 108 109 109 110 110 108 108 110 110 111 111 112 112 114 114 115 115 112 112 115 115 113 113 119 119 116 116 117 117 119 119 117 117 118 118</p>
        </triangles>
        <triangles material="IfcSurfaceStyleRendering-521717" count="100">
          <input semantic="VERTEX" source="#representation-521724-vertices" offset="0"/>
          <input semantic="NORMAL" source="#representation-521724-normals" offset="1"/>
          <p>120 120 121 121 122 122 120 120 122 122 123 123 127 127 124 124 125 125 127 127 125 125 126 126 129 129 131 131 128 128 130 130 131 131 129 129 132 132 135 135 128 128 132 132 128 128 131 131 134 134 132 132 133 133 134 134 135 135 132 132 138 138 136 136 137 137 138 138 139 139 136 136 140 140 141 141 142 142 143 143 140 140 142 142 147 147 145 145 146 146 144 144 147 147 140 140 144 144 145 145 147 147 144 144 140 140 143 143 149 149 150 150 151 151 149 149 151 151 148 148 152 152 154 154 155 155 152 152 155 155 153 153 158 158 156 156 157 157 158 158 159 159 156 156 161 161 162 162 163 163 161 161 163 163 160 160 164 164 165 165 166 166 164 164 166 166 167 167 168 168 174 174 175 175 171 171 172 172 173 173 171 171 173 173 174 174 169 169 170 170 171 171 169 169 174 174 168 168 169 169 171 171 174 174 178 178 176 176 177 177 178 178 179 179 176 176 187 187 180 180 181 181 190 190 187 187 181 181 189 189 181 181 182 182 189 189 190 190 181 181 184 184 185 185 186 186 184 184 186 186 191 191 183 183 188 188 189 189 183 183 191 191 188 188 183 183 189 189 182 182 183 183 184 184 191 191 186 186 187 187 190 190 186 186 190 190 191 191 197 197 195 195 196 196 194 194 195 195 197 197 192 192 197 197 193 193 192 192 194 194 197 197 201 201 198 198 199 199 201 201 199 199 200 200 203 203 204 204 205 205 206 206 203 203 205 205 207 207 202 202 203 203 207 207 203 203 206 206 211 211 208 208 209 209 211 211 209 209 210 210 219 219 212 212 213 213 219 219 216 216 212 212 215 215 212 212 216 216 217 217 215 215 216 216 214 214 217 217 218 218 214 214 218 218 219 219 214 214 219 219 213 213 214 214 215 215 217 217 222 222 220 220 221 221 222 222 223 223 220 220 227 227 225 225 224 224 227 227 224 224 226 226 229 229 228 228 230 230 229 229 230 230 231 231 233 233 234 234 235 235 233 233 235 235 232 232 240 240 238 238 239 239 240 240 241 241 238 238 242 242 237 237 238 238 242 242 238 238 241 241 236 236 242 242 243 243 236 236 243 243 240 240 236 236 237 237 242 242 236 236 240 240 239 239 247 247 245 245 244 244 247 247 244 244 246 246 251 251 248 248 249 249 251 251 249 249 250 250 255 255 253 253 254 254 252 252 253 253 255 255 259 259 256 256 257 257 259 259 257 257 258 258 262 262 260 260 261 261 262 262 263 263 260 260 265 265 266 266 267 267 265 265 267 267 264 264 269 269 268 268 270 270 269 269 270 270 271 271 274 274 272 272 273 273 274 274 275 275 272 272</p>
        </triangles>
      </mesh>
    </geometry>
  </library_geometries>
  <library_visual_scenes>
    <visual_scene id="IfcOpenShell">
      <node id="project" name="project" type="NODE">
        <matrix>1 0 0 0 0 1 0 0 0 0 1 0 0 0 0 1</matrix>
        <node id="product-a61f50d9-1b06-47d0-9196-83196ee53d41" name="product-a61f50d9-1b06-47d0-9196-83196ee53d41" type="NODE">
          <matrix>1 0 0 -16.3281478881836 0 1 0 -3.32237601280212 0 0 1 -1.384663105010986 0 0 0 1</matrix>
          <node id="product-a61f50d9-1b06-47d0-9196-83196ee53d42" name="product-a61f50d9-1b06-47d0-9196-83196ee53d42" type="NODE">
            <matrix>1 0 0 0 0 1 0 0 0 0 1 0 0 0 0 1</matrix>
            <node id="product-79503529-d2a7-11d3-9162-0000863f14a2" name="product-79503529-d2a7-11d3-9162-0000863f14a2" type="NODE">
              <matrix>1 0 0 0 0 1 0 0 0 0 1 0 0 0 0 1</matrix>
              <node id="product-e1101115-ac30-429a-95ac-7e9efa47801b" name="product-e1101115-ac30-429a-95ac-7e9efa47801b" type="NODE">
                <matrix>7.549790126404311e-8 0.9999999999999972 0 15.8281478881836 -0.9999999999999972 7.549790126404311e-8 0 3.67237639427185 0 0 1 0.6543173789978029 0 0 0 1</matrix>
                <node id="product-0b1e5226-9454-67dc-0cd9-52e531c0a100" name="product-0b1e5226-9454-67dc-0cd9-52e531c0a100" type="NODE">
                  <matrix>0 -0.9999999999999998 0 2.05657609814231 0.9999999999999998 0 0 -6.662933190729061 0 0 1 0.8 0 0 0 1</matrix>
                  <node id="product-e1101115-ac30-429a-95ac-7e9efa404425-body" name="product-e1101115-ac30-429a-95ac-7e9efa404425-body" type="NODE">
                    <matrix>0 0.9999999999999998 0 7.162933164304771 -0.9999999999999998 0 0 1.70657567892363 0 0 1 -0.06965427398681645 0 0 0 1</matrix>
                    <instance_geometry url="#representation-521724">
                      <bind_material>
                        <technique_common>
                          <instance_material symbol="IfcSurfaceStyleRendering-521704" target="#IfcSurfaceStyleRendering-521704"/>
                          <instance_material symbol="IfcSurfaceStyleRendering-521717" target="#IfcSurfaceStyleRendering-521717"/>
                        </technique_common>
                      </bind_material>
                    </instance_geometry>
                  </node>
                </node>
              </node>
            </node>
          </node>
        </node>
      </node>
    </visual_scene>
  </library_visual_scenes>
  <scene>
    <instance_visual_scene url="#IfcOpenShell"/>
  </scene>
</COLLADA>