<?xml version="1.0" encoding="utf-8"?>
<COLLADA xmlns="http://www.collada.org/2005/11/COLLADASchema" version="1.4.1" xmlns:xsi="http://www.w3.org/2001/XMLSchema-instance">
  <asset>
    <contributor>
      <authoring_tool>IfcOpenShell 0.8.1-c49ca69</authoring_tool>
    </contributor>
    <created>2025-04-25T00:28:18</created>
    <modified>2025-04-25T00:28:18</modified>
    <unit name="METER" meter="1"/>
    <up_axis>Z_UP</up_axis>
  </asset>
  <library_effects>
    <effect id="IfcSurfaceStyleRendering-521240-fx">
      <profile_COMMON>
        <technique sid="common">
          <lambert>
            <diffuse>
              <color>0.5999999999999999 0.2980392156862745 0.1686274509803922 1</color>
            </diffuse>
            <specular>
              <color>0.5 0.5 0.5 1</color>
            </specular>
            <shininess>
              <float>128</float>
            </shininess>
          </lambert>
        </technique>
      </profile_COMMON>
    </effect>
    <effect id="IfcSurfaceStyleRendering-521304-fx">
      <profile_COMMON>
        <technique sid="common">
          <lambert>
            <diffuse>
              <color>0.4470588235294118 0.3215686274509804 0.2 1</color>
            </diffuse>
            <specular>
              <color>0.5 0.5 0.5 1</color>
            </specular>
            <shininess>
              <float>128</float>
            </shininess>
          </lambert>
        </technique>
      </profile_COMMON>
    </effect>
  </library_effects>
  <library_materials>
    <material id="IfcSurfaceStyleRendering-521240">
      <instance_effect url="#IfcSurfaceStyleRendering-521240-fx"/>
    </material>
    <material id="IfcSurfaceStyleRendering-521304">
      <instance_effect url="#IfcSurfaceStyleRendering-521304-fx"/>
    </material>
  </library_materials>
  <library_geometries>
    <geometry id="representation-521368">
      <mesh>
        <source id="representation-521368-positions">
          <float_array id="representation-521368-positions-array" count="360">0.838 0.2249999999999999 2.108 0.838 0.2000000000000056 2.108 -0.07599999999999995 0.2000000000000056 2.108 -0.07599999999999995 0.2249999999999999 2.108 -0.07599999999999995 0.2249999999999999 2.108 -0.07599999999999995 0.2000000000000056 2.108 -0.07599999999999995 0.2000000000000056 0 -0.07599999999999995 0.2249999999999999 0 -0.07599999999999995 0.2249999999999999 0 -0.07599999999999995 0.2000000000000056 0 0 0.2000000000000056 0 0 0.2249999999999999 0 0 0.2249999999999999 0 0 0.2000000000000056 0 0 0.2000000000000056 2.032 0 0.2249999999999999 2.032 0 0.2249999999999999 2.032 0 0.2000000000000056 2.032 0.762 0.2000000000000056 2.032 0.762 0.2249999999999999 2.032 0.762 0.2249999999999999 2.032 0.762 0.2000000000000056 2.032 0.762 0.2000000000000056 0 0.762 0.2249999999999999 0 0.762 0.2249999999999999 0 0.762 0.2000000000000056 0 0.838 0.2000000000000056 0 0.838 0.2249999999999999 0 0.838 0.2249999999999999 0 0.838 0.2000000000000056 0 0.838 0.2000000000000056 2.108 0.838 0.2249999999999999 2.108 0.838 0.2249999999999999 2.108 -0.07599999999999995 0.2249999999999999 2.108 -0.07599999999999995 0.2249999999999999 0 0 0.2249999999999999 0 0 0.2249999999999999 2.032 0.762 0.2249999999999999 2.032 0.762 0.2249999999999999 0 0.838 0.2249999999999999 0 0.838 0.2000000000000056 2.108 -0.07599999999999995 0.2000000000000056 2.108 -0.07599999999999995 0.2000000000000056 0 0 0.2000000000000056 0 0 0.2000000000000056 2.032 0.762 0.2000000000000056 2.032 0.762 0.2000000000000056 0 0.838 0.2000000000000056 0 -0.07599999999999995 0 2.108 -0.07599999999999995 -0.02500000000000546 2.108 -0.07599999999999995 -0.02500000000000546 0 -0.07599999999999995 0 0 -0.07599999999999995 0 0 -0.07599999999999995 -0.02500000000000546 0 0 -0.02500000000000546 0 0 0 0 0 0 0 0 -0.02500000000000546 0 0 -0.02500000000000546 2.032 0 0 2.032 0 0 2.032 0 -0.02500000000000546 2.032 0.762 -0.02500000000000546 2.032 0.762 0 2.032 0.762 0 2.032 0.762 -0.02500000000000546 2.032 0.762 -0.02500000000000546 0 0.762 0 0 0.762 0 0 0.762 -0.02500000000000546 0 0.838 -0.02500000000000546 0 0.838 0 0 0.838 0 0 0.838 -0.02500000000000546 0 0.838 -0.02500000000000546 2.108 0.838 0 2.108 0.838 0 2.108 0.838 -0.02500000000000546 2.108 -0.07599999999999995 -0.02500000000000546 2.108 -0.07599999999999995 0 2.108 -0.07599999999999995 0 2.108 -0.07599999999999995 0 0 0 0 0 0 0 2.032 0.762 0 2.032 0.762 0 0 0.838 0 0 0.838 0 2.108 -0.07599999999999995 -0.02500000000000546 2.108 -0.07599999999999995 -0.02500000000000546 0 0 -0.02500000000000546 0 0 -0.02500000000000546 2.032 0.762 -0.02500000000000546 2.032 0.762 -0.02500000000000546 0 0.838 -0.02500000000000546 0 0.838 -0.02500000000000546 2.108 0 0.1489999999999952 0 0 0.1489999999999952 2.031999999999999 0.7619999999999998 0.1489999999999952 2.031999999999999 0.7619999999999998 0.1489999999999952 0 0.7619999999999998 0.1489999999999952 0 0.7619999999999998 0.1489999999999952 2.031999999999999 0.7619999999999998 0.1999999999999952 2.031999999999999 0.7619999999999998 0.1999999999999952 0 0.7619999999999998 0.1999999999999952 0 0.7619999999999998 0.1999999999999952 2.031999999999999 0 0.1999999999999952 2.031999999999999 0 0.1999999999999952 0 0 0.1999999999999952 0 0 0.1999999999999952 2.031999999999999 0 0.1489999999999952 2.031999999999999 0 0.1489999999999952 0 0 0.1489999999999952 0 0.7619999999999998 0.1489999999999952 0 0.7619999999999998 0.1999999999999952 0 0 0.1999999999999952 0 0 0.1489999999999952 2.031999999999999 0.7619999999999998 0.1489999999999952 2.031999999999999 0.7619999999999998 0.1999999999999952 2.031999999999999 0 0.1999999999999952 2.031999999999999</float_array>
          <technique_common>
            <accessor source="#representation-521368-positions-array" count="120" stride="3">
              <param name="X" type="float"/>
              <param name="Y" type="float"/>
              <param name="Z" type="float"/>
            </accessor>
          </technique_common>
        </source>
        <source id="representation-521368-normals">
          <float_array id="representation-521368-normals-array" count="360">0 0 1 0 0 1 0 0 1 0 0 1 -1 0 0 -1 0 0 -1 0 0 -1 0 0 0 0 -1 0 0 -1 0 0 -1 0 0 -1 1 0 0 1 0 0 1 0 0 1 0 0 0 0 -1 0 0 -1 0 0 -1 0 0 -1 -1 0 0 -1 0 0 -1 0 0 -1 0 0 0 0 -1 0 0 -1 0 0 -1 0 0 -1 1 0 0 1 0 0 1 0 0 1 0 0 0 1 0 0 1 0 0 1 0 0 1 0 0 1 0 0 1 0 0 1 0 0 1 0 0 -1 0 0 -1 0 0 -1 0 0 -1 0 0 -1 0 0 -1 0 0 -1 0 0 -1 0 -1 0 0 -1 0 0 -1 0 0 -1 0 0 0 0 -1 0 0 -1 0 0 -1 0 0 -1 1 0 0 1 0 0 1 0 0 1 0 0 0 0 -1 0 0 -1 0 0 -1 0 0 -1 -1 0 0 -1 0 0 -1 0 0 -1 0 0 0 0 -1 0 0 -1 0 0 -1 0 0 -1 1 0 0 1 0 0 1 0 0 1 0 0 0 0 1 0 0 1 0 0 1 0 0 1 0 1 0 0 1 0 0 1 0 0 1 0 0 1 0 0 1 0 0 1 0 0 1 0 0 -1 0 0 -1 0 0 -1 0 0 -1 0 0 -1 0 0 -1 0 0 -1 0 0 -1 0 0 -1 0 0 -1 0 0 -1 0 0 -1 0 1 0 0 1 0 0 1 0 0 1 0 0 0 1 0 0 1 0 0 1 0 0 1 0 -1 0 0 -1 0 0 -1 0 0 -1 0 0 0 0 -1 0 0 -1 0 0 -1 0 0 -1 0 0 1 0 0 1 0 0 1 0 0 1</float_array>
          <technique_common>
            <accessor source="#representation-521368-normals-array" count="120" stride="3">
              <param name="X" type="float"/>
              <param name="Y" type="float"/>
              <param name="Z" type="float"/>
            </accessor>
          </technique_common>
        </source>
        <vertices id="representation-521368-vertices">
          <input semantic="POSITION" source="#representation-521368-positions"/>
        </vertices>
        <triangles material="IfcSurfaceStyleRendering-521240" count="56">
          <input semantic="VERTEX" source="#representation-521368-vertices" offset="0"/>
          <input semantic="NORMAL" source="#representation-521368-normals" offset="1"/>
          <p>1 1 0 0 3 3 2 2 1 1 3 3 5 5 4 4 7 7 6 6 5 5 7 7 9 9 8 8 11 11 10 10 9 9 11 11 13 13 12 12 15 15 14 14 13 13 15 15 17 17 16 16 19 19 18 18 17 17 19 19 21 21 20 20 23 23 22 22 21 21 23 23 25 25 24 24 27 27 26 26 25 25 27 27 29 29 28 28 31 31 30 30 29 29 31 31 37 37 36 36 33 33 32 32 37 37 33 33 37 37 32 32 39 39 37 37 39 39 38 38 36 36 35 35 34 34 33 33 36 36 34 34 41 41 44 44 45 45 41 41 45 45 40 40 47 47 40 40 45 45 46 46 47 47 45 45 42 42 43 43 44 44 42 42 44 44 41 41 49 49 48 48 51 51 50 50 49 49 51 51 53 53 52 52 55 55 54 54 53 53 55 55 57 57 56 56 59 59 58 58 57 57 59 59 61 61 60 60 63 63 62 62 61 61 63 63 65 65 64 64 67 67 66 66 65 65 67 67 69 69 68 68 71 71 70 70 69 69 71 71 73 73 72 72 75 75 74 74 73 73 75 75 77 77 76 76 79 79 78 78 77 77 79 79 84 84 83 83 87 87 83 83 80 80 87 87 80 80 83 83 81 81 81 81 83 83 82 82 85 85 84 84 86 86 84 84 87 87 86 86 95 95 91 91 92 92 95 95 88 88 91 91 89 89 91 91 88 88 90 90 91 91 89 89 94 94 92 92 93 93 94 94 95 95 92 92</p>
        </triangles>
        <triangles material="IfcSurfaceStyleRendering-521304" count="12">
          <input semantic="VERTEX" source="#representation-521368-vertices" offset="0"/>
          <input semantic="NORMAL" source="#representation-521368-normals" offset="1"/>
          <p>97 97 96 96 99 99 98 98 97 97 99 99 101 101 100 100 103 103 102 102 101 101 103 103 105 105 104 104 107 107 106 106 105 105 107 107 109 109 108 108 111 111 110 110 109 109 111 111 113 113 112 112 114 114 112 112 115 115 114 114 118 118 116 116 117 117 118 118 119 119 116 116</p>
        </triangles>
      </mesh>
    </geometry>
  </library_geometries>
  <library_visual_scenes>
    <visual_scene id="IfcOpenShell">
      <node id="project" name="project" type="NODE">
        <matrix>1 0 0 0 0 1 0 0 0 0 1 0 0 0 0 1</matrix>
        <node id="product-a61f50d9-1b06-47d0-9196-83196ee53d41" name="product-a61f50d9-1b06-47d0-9196-83196ee53d41" type="NODE">
          <matrix>1 0 0 -11.44814777374263 0 1 0 -7.754933357238769 0 0 1 -4.154317378997803 0 0 0 1</matrix>
          <node id="product-a61f50d9-1b06-47d0-9196-83196ee53d42" name="product-a61f50d9-1b06-47d0-9196-83196ee53d42" type="NODE">
            <matrix>1 0 0 0 0 1 0 0 0 0 1 0 0 0 0 1</matrix>
            <node id="product-44bd8488-e63e-11d3-918b-0000863f1984" name="product-44bd8488-e63e-11d3-918b-0000863f1984" type="NODE">
              <matrix>1 0 0 0 0 1 0 0 0 0 1 3.5 0 0 0 1</matrix>
              <node id="product-e1101115-ac30-429a-95ac-7e9efa47a425" name="product-e1101115-ac30-429a-95ac-7e9efa47a425" type="NODE">
                <matrix>7.549790126404311e-8 0.9999999999999972 0 11.3481473922729 -0.9999999999999972 7.549790126404311e-8 0 9.85737609863281 0 0 1 0.6543173789978027 0 0 0 1</matrix>
                <node id="product-3a0649cd-30da-0358-064c-15e1f8886ffd" name="product-3a0649cd-30da-0358-064c-15e1f8886ffd" type="NODE">
                  <matrix>0.9999999999999998 0 0 2.102443028954702 0 0.9999999999999998 0 0.1000000000000008 0 0 1 0 0 0 0 1</matrix>
                  <node id="product-e1101115-ac30-429a-95ac-7e9efa4022cb-body" name="product-e1101115-ac30-429a-95ac-7e9efa4022cb-body" type="NODE">
                    <matrix>-0.9999999999999885 -1.509958025280859e-7 0 -2.800108474567148e-7 1.509958025280859e-7 -0.9999999999999885 0 2.227397109438069e-7 0 0 1 0 0 0 0 1</matrix>
                    <instance_geometry url="#representation-521368">
                      <bind_material>
                        <technique_common>
                          <instance_material symbol="IfcSurfaceStyleRendering-521240" target="#IfcSurfaceStyleRendering-521240"/>
                          <instance_material symbol="IfcSurfaceStyleRendering-521304" target="#IfcSurfaceStyleRendering-521304"/>
                        </technique_common>
                      </bind_material>
                    </instance_geometry>
                  </node>
                </node>
              </node>
            </node>
          </node>
        </node>
      </node>
    </visual_scene>
  </library_visual_scenes>
  <scene>
    <instance_visual_scene url="#IfcOpenShell"/>
  </scene>
</COLLADA>