<?xml version="1.0" encoding="utf-8"?>
<COLLADA xmlns="http://www.collada.org/2005/11/COLLADASchema" version="1.4.1" xmlns:xsi="http://www.w3.org/2001/XMLSchema-instance">
  <asset>
    <contributor>
      <author>Blender User</author>
      <authoring_tool>Blender 4.3.2 commit date:2024-12-16, commit time:21:10, hash:32f5fdce0a0a</authoring_tool>
    </contributor>
    <created>2025-04-07T18:36:55</created>
    <modified>2025-04-07T18:36:55</modified>
    <unit name="meter" meter="1"/>
    <up_axis>Z_UP</up_axis>
  </asset>
  <library_images/>
  <library_geometries>
    <geometry id="_5_1101-mesh" name="15/1101">
      <mesh>
        <source id="_5_1101-mesh-positions">
          <float_array id="_5_1101-mesh-positions-array" count="24">0 -9.8 -0.1 0 0 -0.1 8.800002 9.53674e-7 -0.1 8.800002 9.53674e-7 0 8.799997 -9.8 0 8.799997 -9.8 -0.1 0 -9.8 0 0 0 0</float_array>
          <technique_common>
            <accessor source="#_5_1101-mesh-positions-array" count="8" stride="3">
              <param name="X" type="float"/>
              <param name="Y" type="float"/>
              <param name="Z" type="float"/>
            </accessor>
          </technique_common>
        </source>
        <source id="_5_1101-mesh-normals">
          <float_array id="_5_1101-mesh-normals-array" count="36">0 0 -1 0 1 0 1 -4.86569e-7 0 0 -1 0 -1 0 0 0 0 1 0 0 -1 0 1 0 1 -4.86569e-7 0 0 -1 0 -1 0 0 0 0 1</float_array>
          <technique_common>
            <accessor source="#_5_1101-mesh-normals-array" count="12" stride="3">
              <param name="X" type="float"/>
              <param name="Y" type="float"/>
              <param name="Z" type="float"/>
            </accessor>
          </technique_common>
        </source>
        <vertices id="_5_1101-mesh-vertices">
          <input semantic="POSITION" source="#_5_1101-mesh-positions"/>
        </vertices>
        <triangles count="12">
          <input semantic="VERTEX" source="#_5_1101-mesh-vertices" offset="0"/>
          <input semantic="NORMAL" source="#_5_1101-mesh-normals" offset="1"/>
          <p>0 0 1 0 2 0 3 1 2 1 1 1 4 2 5 2 2 2 6 3 0 3 5 3 7 4 1 4 0 4 3 5 7 5 6 5 2 6 5 6 0 6 1 7 7 7 3 7 2 8 3 8 4 8 5 9 4 9 6 9 0 10 6 10 7 10 6 11 4 11 3 11</p>
        </triangles>
      </mesh>
    </geometry>
    <geometry id="_5_1003-mesh" name="15/1003">
      <mesh>
        <source id="_5_1003-mesh-positions">
          <float_array id="_5_1003-mesh-positions-array" count="24">0 0.1 0 0 0.1 2 7.2 0.1 2 7.2 0.1 0 0.1 0 0 0.1 0 2 7.099998 0 0 7.099998 0 2</float_array>
          <technique_common>
            <accessor source="#_5_1003-mesh-positions-array" count="8" stride="3">
              <param name="X" type="float"/>
              <param name="Y" type="float"/>
              <param name="Z" type="float"/>
            </accessor>
          </technique_common>
        </source>
        <source id="_5_1003-mesh-normals">
          <float_array id="_5_1003-mesh-normals-array" count="36">0 1 0 0 1 0 -0.7071065 -0.707107 0 -0.7071065 -0.707107 0 0.7071021 -0.7071115 0 0.7071021 -0.7071115 0 0 0 -1 0 0 -1 0 0 1 0 0 1 0 -1 0 0 -1 0</float_array>
          <technique_common>
            <accessor source="#_5_1003-mesh-normals-array" count="12" stride="3">
              <param name="X" type="float"/>
              <param name="Y" type="float"/>
              <param name="Z" type="float"/>
            </accessor>
          </technique_common>
        </source>
        <vertices id="_5_1003-mesh-vertices">
          <input semantic="POSITION" source="#_5_1003-mesh-positions"/>
        </vertices>
        <triangles count="12">
          <input semantic="VERTEX" source="#_5_1003-mesh-vertices" offset="0"/>
          <input semantic="NORMAL" source="#_5_1003-mesh-normals" offset="1"/>
          <p>3 0 0 0 1 0 3 1 1 1 2 1 0 2 4 2 5 2 0 3 5 3 1 3 3 4 2 4 7 4 6 5 3 5 7 5 0 6 3 6 4 6 4 7 3 7 6 7 5 8 2 8 1 8 7 9 2 9 5 9 4 10 6 10 7 10 4 11 7 11 5 11</p>
        </triangles>
      </mesh>
    </geometry>
    <geometry id="_5_950-mesh" name="15/950">
      <mesh>
        <source id="_5_950-mesh-positions">
          <float_array id="_5_950-mesh-positions-array" count="24">0 0.1 0 0 0.1 2 6.199999 0.1 2 6.199999 0.1 0 0.0999996 0 0 0.0999996 0 2 6.099999 0 0 6.099999 0 2</float_array>
          <technique_common>
            <accessor source="#_5_950-mesh-positions-array" count="8" stride="3">
              <param name="X" type="float"/>
              <param name="Y" type="float"/>
              <param name="Z" type="float"/>
            </accessor>
          </technique_common>
        </source>
        <source id="_5_950-mesh-normals">
          <float_array id="_5_950-mesh-normals-array" count="36">0 1 0 0 1 0 -0.707108 -0.7071056 0 -0.707108 -0.7071056 0 0.7071071 -0.7071065 0 0.7071071 -0.7071065 0 0 0 -1 0 0 -1 0 0 1 0 0 1 0 -1 0 0 -1 0</float_array>
          <technique_common>
            <accessor source="#_5_950-mesh-normals-array" count="12" stride="3">
              <param name="X" type="float"/>
              <param name="Y" type="float"/>
              <param name="Z" type="float"/>
            </accessor>
          </technique_common>
        </source>
        <vertices id="_5_950-mesh-vertices">
          <input semantic="POSITION" source="#_5_950-mesh-positions"/>
        </vertices>
        <triangles count="12">
          <input semantic="VERTEX" source="#_5_950-mesh-vertices" offset="0"/>
          <input semantic="NORMAL" source="#_5_950-mesh-normals" offset="1"/>
          <p>3 0 0 0 1 0 3 1 1 1 2 1 5 2 1 2 0 2 5 3 0 3 4 3 2 4 6 4 3 4 2 5 7 5 6 5 0 6 3 6 6 6 0 7 6 7 4 7 7 8 2 8 1 8 5 9 7 9 1 9 4 10 6 10 7 10 4 11 7 11 5 11</p>
        </triangles>
      </mesh>
    </geometry>
    <geometry id="_5_1056-mesh" name="15/1056">
      <mesh>
        <source id="_5_1056-mesh-positions">
          <float_array id="_5_1056-mesh-positions-array" count="24">0 0.1 0 0 0.1 2 6.200001 0.1 2 6.200001 0.1 0 0.1000003 0 0 0.1000003 0 2 6.100001 0 2 6.100001 0 0</float_array>
          <technique_common>
            <accessor source="#_5_1056-mesh-positions-array" count="8" stride="3">
              <param name="X" type="float"/>
              <param name="Y" type="float"/>
              <param name="Z" type="float"/>
            </accessor>
          </technique_common>
        </source>
        <source id="_5_1056-mesh-normals">
          <float_array id="_5_1056-mesh-normals-array" count="36">0 1 0 0 1 0 -0.7071057 -0.7071078 0 -0.7071057 -0.7071078 0 0.7071089 -0.7071048 0 0.7071089 -0.7071048 0 0 0 -1 0 0 -1 0 0 1 0 0 1 0 -1 0 0 -1 0</float_array>
          <technique_common>
            <accessor source="#_5_1056-mesh-normals-array" count="12" stride="3">
              <param name="X" type="float"/>
              <param name="Y" type="float"/>
              <param name="Z" type="float"/>
            </accessor>
          </technique_common>
        </source>
        <vertices id="_5_1056-mesh-vertices">
          <input semantic="POSITION" source="#_5_1056-mesh-positions"/>
        </vertices>
        <triangles count="12">
          <input semantic="VERTEX" source="#_5_1056-mesh-vertices" offset="0"/>
          <input semantic="NORMAL" source="#_5_1056-mesh-normals" offset="1"/>
          <p>3 0 0 0 1 0 3 1 1 1 2 1 5 2 1 2 0 2 5 3 0 3 4 3 2 4 6 4 7 4 2 5 7 5 3 5 0 6 3 6 7 6 0 7 7 7 4 7 6 8 2 8 1 8 5 9 6 9 1 9 5 10 7 10 6 10 4 11 7 11 5 11</p>
        </triangles>
      </mesh>
    </geometry>
    <geometry id="_5_419-mesh" name="15/419">
      <mesh>
        <source id="_5_419-mesh-positions">
          <float_array id="_5_419-mesh-positions-array" count="24">10 0 0 10 0 2 0 0 2 0 0 0 9.900001 0.1 0 9.900001 0.1 2 0.1000004 0.1 0 0.1000004 0.1 2</float_array>
          <technique_common>
            <accessor source="#_5_419-mesh-positions-array" count="8" stride="3">
              <param name="X" type="float"/>
              <param name="Y" type="float"/>
              <param name="Z" type="float"/>
            </accessor>
          </technique_common>
        </source>
        <source id="_5_419-mesh-normals">
          <float_array id="_5_419-mesh-normals-array" count="36">0 -1 0 0 -1 0 0.7071054 0.7071081 0 0.7071054 0.7071081 0 -0.7071053 0.7071083 0 -0.7071053 0.7071083 0 0 0 -1 0 0 -1 0 0 1 0 0 1 0 1 0 0 1 0</float_array>
          <technique_common>
            <accessor source="#_5_419-mesh-normals-array" count="12" stride="3">
              <param name="X" type="float"/>
              <param name="Y" type="float"/>
              <param name="Z" type="float"/>
            </accessor>
          </technique_common>
        </source>
        <vertices id="_5_419-mesh-vertices">
          <input semantic="POSITION" source="#_5_419-mesh-positions"/>
        </vertices>
        <triangles count="12">
          <input semantic="VERTEX" source="#_5_419-mesh-vertices" offset="0"/>
          <input semantic="NORMAL" source="#_5_419-mesh-normals" offset="1"/>
          <p>3 0 0 0 1 0 3 1 1 1 2 1 5 2 1 2 0 2 5 3 0 3 4 3 6 4 3 4 2 4 6 5 2 5 7 5 6 6 4 6 0 6 3 7 6 7 0 7 1 8 5 8 7 8 1 9 7 9 2 9 4 10 6 10 7 10 4 11 7 11 5 11</p>
        </triangles>
      </mesh>
    </geometry>
    <geometry id="_5_392-mesh" name="15/392">
      <mesh>
        <source id="_5_392-mesh-positions">
          <float_array id="_5_392-mesh-positions-array" count="24">8.999998 0 0 8.999998 0 2 0 0 2 0 0 0 8.899997 0.1 0 8.899997 0.1 2 0.09999996 0.1 0 0.09999996 0.1 2</float_array>
          <technique_common>
            <accessor source="#_5_392-mesh-positions-array" count="8" stride="3">
              <param name="X" type="float"/>
              <param name="Y" type="float"/>
              <param name="Z" type="float"/>
            </accessor>
          </technique_common>
        </source>
        <source id="_5_392-mesh-normals">
          <float_array id="_5_392-mesh-normals-array" count="36">0 -1 0 0 -1 0 0.7071054 0.7071081 0 0.7071054 0.7071081 0 -0.7071069 0.7071067 0 -0.7071069 0.7071067 0 0 0 -1 0 0 -1 0 0 1 0 0 1 0 1 0 0 1 0</float_array>
          <technique_common>
            <accessor source="#_5_392-mesh-normals-array" count="12" stride="3">
              <param name="X" type="float"/>
              <param name="Y" type="float"/>
              <param name="Z" type="float"/>
            </accessor>
          </technique_common>
        </source>
        <vertices id="_5_392-mesh-vertices">
          <input semantic="POSITION" source="#_5_392-mesh-positions"/>
        </vertices>
        <triangles count="12">
          <input semantic="VERTEX" source="#_5_392-mesh-vertices" offset="0"/>
          <input semantic="NORMAL" source="#_5_392-mesh-normals" offset="1"/>
          <p>3 0 0 0 1 0 3 1 1 1 2 1 0 2 4 2 5 2 0 3 5 3 1 3 2 4 6 4 3 4 2 5 7 5 6 5 3 6 4 6 0 6 6 7 4 7 3 7 1 8 5 8 2 8 2 9 5 9 7 9 4 10 6 10 7 10 4 11 7 11 5 11</p>
        </triangles>
      </mesh>
    </geometry>
    <geometry id="_5_364-mesh" name="15/364">
      <mesh>
        <source id="_5_364-mesh-positions">
          <float_array id="_5_364-mesh-positions-array" count="24">9.000003 0 0 9.000003 0 2 0 0 2 0 0 0 8.900004 0.1 0 8.900004 0.1 2 0.09999996 0.1 0 0.09999996 0.1 2</float_array>
          <technique_common>
            <accessor source="#_5_364-mesh-positions-array" count="8" stride="3">
              <param name="X" type="float"/>
              <param name="Y" type="float"/>
              <param name="Z" type="float"/>
            </accessor>
          </technique_common>
        </source>
        <source id="_5_364-mesh-normals">
          <float_array id="_5_364-mesh-normals-array" count="36">0 -1 0 0 -1 0 0.7071089 0.7071048 0 0.7071089 0.7071048 0 -0.7071068 0.7071067 0 -0.7071068 0.7071067 0 0 0 -1 0 0 -1 0 0 1 0 0 1 0 1 0 0 1 0</float_array>
          <technique_common>
            <accessor source="#_5_364-mesh-normals-array" count="12" stride="3">
              <param name="X" type="float"/>
              <param name="Y" type="float"/>
              <param name="Z" type="float"/>
            </accessor>
          </technique_common>
        </source>
        <vertices id="_5_364-mesh-vertices">
          <input semantic="POSITION" source="#_5_364-mesh-positions"/>
        </vertices>
        <triangles count="12">
          <input semantic="VERTEX" source="#_5_364-mesh-vertices" offset="0"/>
          <input semantic="NORMAL" source="#_5_364-mesh-normals" offset="1"/>
          <p>3 0 0 0 1 0 3 1 1 1 2 1 5 2 1 2 0 2 5 3 0 3 4 3 7 4 6 4 3 4 2 5 7 5 3 5 6 6 0 6 3 6 6 7 4 7 0 7 2 8 1 8 7 8 1 9 5 9 7 9 4 10 6 10 7 10 4 11 7 11 5 11</p>
        </triangles>
      </mesh>
    </geometry>
    <geometry id="_5_316-mesh" name="15/316">
      <mesh>
        <source id="_5_316-mesh-positions">
          <float_array id="_5_316-mesh-positions-array" count="24">10 0 0 10 0 2 0 0 2 0 0 0 9.900001 0.1 0 9.900001 0.1 2 0.09999954 0.1 0 0.09999954 0.1 2</float_array>
          <technique_common>
            <accessor source="#_5_316-mesh-positions-array" count="8" stride="3">
              <param name="X" type="float"/>
              <param name="Y" type="float"/>
              <param name="Z" type="float"/>
            </accessor>
          </technique_common>
        </source>
        <source id="_5_316-mesh-normals">
          <float_array id="_5_316-mesh-normals-array" count="36">0 -1 0 0 -1 0 0.7071089 0.7071048 0 0.7071089 0.7071048 0 -0.7071083 0.7071052 0 -0.7071083 0.7071052 0 0 0 -1 0 0 -1 0 0 1 0 0 1 0 1 0 0 1 0</float_array>
          <technique_common>
            <accessor source="#_5_316-mesh-normals-array" count="12" stride="3">
              <param name="X" type="float"/>
              <param name="Y" type="float"/>
              <param name="Z" type="float"/>
            </accessor>
          </technique_common>
        </source>
        <vertices id="_5_316-mesh-vertices">
          <input semantic="POSITION" source="#_5_316-mesh-positions"/>
        </vertices>
        <triangles count="12">
          <input semantic="VERTEX" source="#_5_316-mesh-vertices" offset="0"/>
          <input semantic="NORMAL" source="#_5_316-mesh-normals" offset="1"/>
          <p>3 0 0 0 1 0 3 1 1 1 2 1 0 2 4 2 5 2 0 3 5 3 1 3 2 4 6 4 3 4 2 5 7 5 6 5 3 6 4 6 0 6 6 7 4 7 3 7 1 8 5 8 2 8 2 9 5 9 7 9 4 10 6 10 7 10 4 11 7 11 5 11</p>
        </triangles>
      </mesh>
    </geometry>
    <geometry id="_5_1024-mesh" name="15/1024">
      <mesh>
        <source id="_5_1024-mesh-positions">
          <float_array id="_5_1024-mesh-positions-array" count="24">0 0.1 0 0 0.1 2 3.100001 0.1 2 3.100001 0.1 0 0.1000012 0 0 0.1000012 0 2 3.100001 0 2 3.100001 0 0</float_array>
          <technique_common>
            <accessor source="#_5_1024-mesh-positions-array" count="8" stride="3">
              <param name="X" type="float"/>
              <param name="Y" type="float"/>
              <param name="Z" type="float"/>
            </accessor>
          </technique_common>
        </source>
        <source id="_5_1024-mesh-normals">
          <float_array id="_5_1024-mesh-normals-array" count="36">0 1 0 0 1 0 -0.7071024 -0.7071112 0 -0.7071024 -0.7071112 0 1 0 0 1 0 0 0 0 -1 0 0 -1 0 0 1 0 0 1 0 -1 0 0 -1 0</float_array>
          <technique_common>
            <accessor source="#_5_1024-mesh-normals-array" count="12" stride="3">
              <param name="X" type="float"/>
              <param name="Y" type="float"/>
              <param name="Z" type="float"/>
            </accessor>
          </technique_common>
        </source>
        <vertices id="_5_1024-mesh-vertices">
          <input semantic="POSITION" source="#_5_1024-mesh-positions"/>
        </vertices>
        <triangles count="12">
          <input semantic="VERTEX" source="#_5_1024-mesh-vertices" offset="0"/>
          <input semantic="NORMAL" source="#_5_1024-mesh-normals" offset="1"/>
          <p>3 0 0 0 1 0 3 1 1 1 2 1 0 2 4 2 5 2 0 3 5 3 1 3 7 4 3 4 2 4 7 5 2 5 6 5 4 6 3 6 7 6 0 7 3 7 4 7 6 8 2 8 5 8 5 9 2 9 1 9 4 10 7 10 6 10 4 11 6 11 5 11</p>
        </triangles>
      </mesh>
    </geometry>
    <geometry id="_5_897-mesh" name="15/897">
      <mesh>
        <source id="_5_897-mesh-positions">
          <float_array id="_5_897-mesh-positions-array" count="24">0 0 0 0 0 2 0 0.1 2 0 0.1 0 3 0 0 3 0 2 3.1 0.1 2 3.1 0.1 0</float_array>
          <technique_common>
            <accessor source="#_5_897-mesh-positions-array" count="8" stride="3">
              <param name="X" type="float"/>
              <param name="Y" type="float"/>
              <param name="Z" type="float"/>
            </accessor>
          </technique_common>
        </source>
        <source id="_5_897-mesh-normals">
          <float_array id="_5_897-mesh-normals-array" count="36">-1 0 0 -1 0 0 0 -1 0 0 -1 0 0 1 0 0 1 0 0 0 -1 0 0 -1 0 0 1 0 0 1 0.7071071 -0.7071065 0 0.7071071 -0.7071065 0</float_array>
          <technique_common>
            <accessor source="#_5_897-mesh-normals-array" count="12" stride="3">
              <param name="X" type="float"/>
              <param name="Y" type="float"/>
              <param name="Z" type="float"/>
            </accessor>
          </technique_common>
        </source>
        <vertices id="_5_897-mesh-vertices">
          <input semantic="POSITION" source="#_5_897-mesh-positions"/>
        </vertices>
        <triangles count="12">
          <input semantic="VERTEX" source="#_5_897-mesh-vertices" offset="0"/>
          <input semantic="NORMAL" source="#_5_897-mesh-normals" offset="1"/>
          <p>3 0 0 0 1 0 3 1 1 1 2 1 0 2 4 2 5 2 0 3 5 3 1 3 7 4 3 4 2 4 7 5 2 5 6 5 3 6 4 6 0 6 3 7 7 7 4 7 1 8 5 8 2 8 5 9 6 9 2 9 4 10 7 10 6 10 4 11 6 11 5 11</p>
        </triangles>
      </mesh>
    </geometry>
  </library_geometries>
  <library_visual_scenes>
    <visual_scene id="Scene" name="Scene">
      <node id="IfcProject_My_Project" name="IfcProject/My Project" type="NODE">
        <matrix sid="transform">1 0 0 0 0 1 0 0 0 0 1 0 0 0 0 1</matrix>
      </node>
      <node id="IfcSlabType_Unnamed" name="IfcSlabType/Unnamed" type="NODE">
        <matrix sid="transform">1 0 0 0 0 1 0 0 0 0 1 0 0 0 0 1</matrix>
      </node>
      <node id="IfcWallType_Unnamed" name="IfcWallType/Unnamed" type="NODE">
        <matrix sid="transform">1 0 0 0 0 1 0 0 0 0 1 0 0 0 0 1</matrix>
      </node>
      <node id="IfcBuilding_My_Building" name="IfcBuilding/My Building" type="NODE">
        <matrix sid="transform">1 0 0 0 0 1 0 0 0 0 1 0 0 0 0 1</matrix>
      </node>
      <node id="IfcSite_My_Site" name="IfcSite/My Site" type="NODE">
        <matrix sid="transform">1 0 0 0 0 1 0 0 0 0 1 0 0 0 0 1</matrix>
      </node>
      <node id="IfcSlab_Slab" name="IfcSlab/Slab" type="NODE">
        <matrix sid="transform">1 0 0 0.1 0 1 0 9.9 0 0 1 2 0 0 0 1</matrix>
        <instance_geometry url="#_5_1101-mesh" name="IfcSlab/Slab"/>
      </node>
      <node id="IfcWall_Wall_008" name="IfcWall/Wall.008" type="NODE">
        <matrix sid="transform">1 2.38419e-7 0 0.9000016 -2.38419e-7 1 0 8.00535 0 0 1 2 0 0 0 1</matrix>
        <instance_geometry url="#_5_1003-mesh" name="IfcWall/Wall.008"/>
      </node>
      <node id="IfcWall_Wall_007" name="IfcWall/Wall.007" type="NODE">
        <matrix sid="transform">3.13916e-7 -1 0 0.9999997 1 3.13916e-7 0 1.905351 0 0 1 2 0 0 0 1</matrix>
        <instance_geometry url="#_5_950-mesh" name="IfcWall/Wall.007"/>
      </node>
      <node id="IfcWall_Wall_006" name="IfcWall/Wall.006" type="NODE">
        <matrix sid="transform">-2.8213e-7 1 0 8.000001 -1 -2.8213e-7 0 8.105349 0 0 1 2 0 0 0 1</matrix>
        <instance_geometry url="#_5_1056-mesh" name="IfcWall/Wall.006"/>
      </node>
      <node id="IfcWall_Wall_005" name="IfcWall/Wall.005" type="NODE">
        <matrix sid="transform">7.54979e-8 1 0 0 -1 7.54979e-8 0 10 0 0 1 0 0 0 0 1</matrix>
        <instance_geometry url="#_5_419-mesh" name="IfcWall/Wall.005"/>
      </node>
      <node id="IfcWall_Wall_004" name="IfcWall/Wall.004" type="NODE">
        <matrix sid="transform">1 0 0 0 0 1 0 0 0 0 1 0 0 0 0 1</matrix>
        <instance_geometry url="#_5_392-mesh" name="IfcWall/Wall.004"/>
      </node>
      <node id="IfcWall_Wall_003" name="IfcWall/Wall.003" type="NODE">
        <matrix sid="transform">-1 -1.50996e-7 0 9 1.50996e-7 -1 0 10 0 0 1 0 0 0 0 1</matrix>
        <instance_geometry url="#_5_364-mesh" name="IfcWall/Wall.003"/>
      </node>
      <node id="IfcWall_Wall_002" name="IfcWall/Wall.002" type="NODE">
        <matrix sid="transform">1.94707e-7 -1 0 9 1 1.94707e-7 0 0 0 0 1 0 0 0 0 1</matrix>
        <instance_geometry url="#_5_316-mesh" name="IfcWall/Wall.002"/>
      </node>
      <node id="IfcWall_Wall_001" name="IfcWall/Wall.001" type="NODE">
        <matrix sid="transform">-1 -3.89414e-7 0 8.099999 3.89414e-7 -1 0 2.005348 0 0 1 2 0 0 0 1</matrix>
        <instance_geometry url="#_5_1024-mesh" name="IfcWall/Wall.001"/>
      </node>
      <node id="IfcWall_Wall" name="IfcWall/Wall" type="NODE">
        <matrix sid="transform">-1 -3.89414e-7 0 4 3.89414e-7 -1 0 2.00535 0 0 1 2 0 0 0 1</matrix>
        <instance_geometry url="#_5_897-mesh" name="IfcWall/Wall"/>
      </node>
      <node id="IfcBuildingStorey_My_Storey" name="IfcBuildingStorey/My Storey" type="NODE">
        <matrix sid="transform">1 0 0 0 0 1 0 0 0 0 1 0 0 0 0 1</matrix>
      </node>
    </visual_scene>
  </library_visual_scenes>
  <scene>
    <instance_visual_scene url="#Scene"/>
  </scene>
</COLLADA>