<?xml version="1.0" encoding="utf-8"?>
<COLLADA xmlns="http://www.collada.org/2005/11/COLLADASchema" version="1.4.1" xmlns:xsi="http://www.w3.org/2001/XMLSchema-instance">
  <asset>
    <contributor>
      <author>Blender User</author>
      <authoring_tool>Blender 4.3.2 commit date:2024-12-16, commit time:21:10, hash:32f5fdce0a0a</authoring_tool>
    </contributor>
    <created>2025-04-07T19:27:00</created>
    <modified>2025-04-07T19:27:00</modified>
    <unit name="meter" meter="1"/>
    <up_axis>Z_UP</up_axis>
  </asset>
  <library_images/>
  <library_geometries>
    <geometry id="_5_1198_001-mesh" name="15/1198.001">
      <mesh>
        <source id="_5_1198_001-mesh-positions">
          <float_array id="_5_1198_001-mesh-positions-array" count="312">0.02009677 -0.004999995 1.9875 0.02009677 -0.02999997 1.9875 0.02009677 -0.02999997 -0.01250004 0.9200969 -0.004999995 1.9875 0.9200969 -0.02999997 1.9875 0.9200969 -0.004999995 -0.01250004 0.9200969 -0.02999997 -0.01250004 0.8950968 -0.004999995 -0.01250004 0.8950968 -0.02999997 -0.01250004 0.8950968 -0.004999995 1.9625 0.8950968 -0.02999997 1.9625 0.04509687 -0.004999995 1.9625 0.04509687 -0.02999997 1.9625 0.04509687 -0.004999995 -0.01250004 0.04509687 -0.02999997 -0.01250004 0.02009677 -0.004999995 -0.01250004 0.02009677 -0.02999997 1.9875 0.02009677 -0.05499994 1.9875 0.02009677 -0.05499994 -0.01250004 0.9200969 -0.02999997 1.9875 0.9200969 -0.05499994 1.9875 0.9200969 -0.02999997 -0.01250004 0.9200969 -0.05499994 -0.01250004 0.8700967 -0.02999997 -0.01250004 0.8700967 -0.05499994 -0.01250004 0.8700967 -0.02999997 1.9375 0.8700967 -0.05499994 1.9375 0.07009696 -0.02999997 1.9375 0.07009696 -0.05499994 1.9375 0.07009696 -0.02999997 -0.01250004 0.07009696 -0.05499994 -0.01250004 0.02009677 -0.02999997 -0.01250004 0.04509687 0.004999995 0.01249992 0.04509687 -0.02999997 0.01249992 0.8950968 -0.02999997 0.01249992 0.8950968 -0.02999997 1.9625 0.8950968 0.004999995 1.9625 0.8950968 0.004999995 0.01249992 0.04509687 0.004999995 1.9625 0.04509687 -0.02999997 1.9625 0.8450966 -0.06999993 1.0225 0.8450966 -0.06999993 1.0025 0.8450966 -0.02999997 1.0025 0.7250967 -0.06999993 1.0225 0.7250967 -0.06999993 1.0025 0.7250967 -0.04999995 1.0225 0.7250967 -0.04999995 1.0025 0.8250966 -0.04999995 1.0225 0.8250966 -0.04999995 1.0025 0.8250966 -0.02999997 1.0225 0.8250966 -0.02999997 1.0025 0.8450966 -0.02999997 1.0225 0.8450966 0.04500007 1.0225 0.8450966 0.04500007 1.0025 0.8450966 0.004999995 1.0025 0.7250967 0.04500007 1.0225 0.7250967 0.04500007 1.0025 0.7250967 0.02500009 1.0225 0.7250967 0.02500009 1.0025 0.8250966 0.02500009 1.0225 0.8250966 0.02500009 1.0025 0.8250966 0.004999995 1.0225 0.8250966 0.004999995 1.0025 0.8450966 0.004999995 1.0225 0.07009696 0.04500007 -0.01250004 0.07009696 -0.05499994 -0.01250004 0.8700967 -0.05499994 -0.01250004 0.8700967 -0.05499994 0.01249992 0.8700967 0.04500007 0.01249992 0.8700967 0.04500007 -0.01250004 0.07009696 0.04500007 0.01249992 0.07009696 -0.05499994 0.01249992 -0.004903316 -0.05499994 2.0125 -0.004903316 -0.05999994 2.0125 -0.004903316 -0.05999994 -0.01250004 0.9450965 -0.05499994 2.0125 0.9450965 -0.05999994 2.0125 0.9450965 -0.05499994 -0.01250004 0.9450965 -0.05999994 -0.01250004 0.8700967 -0.05499994 -0.01250004 0.8700967 -0.05999994 -0.01250004 0.8700967 -0.05499994 1.9375 0.8700967 -0.05999994 1.9375 0.07009696 -0.05499994 1.9375 0.07009696 -0.05999994 1.9375 0.07009696 -0.05499994 -0.01250004 0.07009696 -0.05999994 -0.01250004 -0.004903316 -0.05499994 -0.01250004 -0.004903316 0 2.0125 -0.004903316 -0.004999995 2.0125 -0.004903316 -0.004999995 -0.01250004 0.9450965 0 2.0125 0.9450965 -0.004999995 2.0125 0.9450965 0 -0.01250004 0.9450965 -0.004999995 -0.01250004 0.8950968 0 -0.01250004 0.8950968 -0.004999995 -0.01250004 0.8950968 0 1.9625 0.8950968 -0.004999995 1.9625 0.04509687 0 1.9625 0.04509687 -0.004999995 1.9625 0.04509687 0 -0.01250004 0.04509687 -0.004999995 -0.01250004 -0.004903316 0 -0.01250004</float_array>
          <technique_common>
            <accessor source="#_5_1198_001-mesh-positions-array" count="104" stride="3">
              <param name="X" type="float"/>
              <param name="Y" type="float"/>
              <param name="Z" type="float"/>
            </accessor>
          </technique_common>
        </source>
        <source id="_5_1198_001-mesh-normals">
          <float_array id="_5_1198_001-mesh-normals-array" count="528">1 0 0 0 0 -1 -1 0 0 0 0 1 1 0 0 0 0 1 -1 0 0 0 0 1 0 1 0 0 1 0 0 1 0 0 1 0 0 1 0 0 1 0 1 0 0 0 0 -1 -1 0 0 0 0 1 1 0 0 0 0 1 -1 0 0 0 0 1 0 -1 0 0 -1 0 0 -1 0 0 -1 0 0 -1 0 0 -1 0 1 0 0 0 0 -1 -1 0 0 0 0 1 1 0 0 0 0 1 -1 0 0 0 0 1 0 1 0 0 1 0 0 1 0 0 1 0 0 1 0 0 1 0 1 0 0 0 0 -1 -1 0 0 0 0 1 1 0 0 0 0 1 -1 0 0 0 0 1 0 -1 0 0 -1 0 0 -1 0 0 -1 0 0 -1 0 0 -1 0 0 0 1 0 1 0 -1 0 0 0 -1 0 1 0 0 0 0 -1 0 0 1 0 1 0 -1 0 0 0 -1 0 1 0 0 0 0 -1 1 0 0 0 -1 0 -1 0 0 0 1 0 -1 0 0 0 1 0 0 0 -1 0 0 -1 0 0 -1 0 0 -1 1 0 0 0 -1 0 -1 0 0 0 1 0 -1 0 0 0 1 0 0 0 1 0 0 1 0 0 1 0 0 1 -1 0 0 0 -1 0 1 0 0 0 1 0 1 0 0 0 1 0 0 0 1 0 0 1 0 0 1 0 0 1 -1 0 0 0 -1 0 1 0 0 0 1 0 1 0 0 0 1 0 0 0 -1 0 0 -1 0 0 -1 0 0 -1 0 0 1 0 1 0 -1 0 0 0 -1 0 1 0 0 0 0 -1 0 0 1 0 1 0 -1 0 0 0 -1 0 1 0 0 0 0 -1 1 0 0 0 0 -1 -1 0 0 0 0 1 1 0 0 0 0 1 -1 0 0 0 0 1 0 1 0 0 1 0 0 1 0 0 1 0 0 1 0 0 1 0 1 0 0 0 0 -1 -1 0 0 0 0 1 1 0 0 0 0 1 -1 0 0 0 0 1 0 -1 0 0 -1 0 0 -1 0 0 -1 0 0 -1 0 0 -1 0 1 0 0 0 0 -1 -1 0 0 0 0 1 1 0 0 0 0 1 -1 0 0 0 0 1 0 1 0 0 1 0 0 1 0 0 1 0 0 1 0 0 1 0 1 0 0 0 0 -1 -1 0 0 0 0 1 1 0 0 0 0 1 -1 0 0 0 0 1 0 -1 0 0 -1 0 0 -1 0 0 -1 0 0 -1 0 0 -1 0</float_array>
          <technique_common>
            <accessor source="#_5_1198_001-mesh-normals-array" count="176" stride="3">
              <param name="X" type="float"/>
              <param name="Y" type="float"/>
              <param name="Z" type="float"/>
            </accessor>
          </technique_common>
        </source>
        <vertices id="_5_1198_001-mesh-vertices">
          <input semantic="POSITION" source="#_5_1198_001-mesh-positions"/>
        </vertices>
        <triangles count="176">
          <input semantic="VERTEX" source="#_5_1198_001-mesh-vertices" offset="0"/>
          <input semantic="NORMAL" source="#_5_1198_001-mesh-normals" offset="1"/>
          <p>0 0 1 0 2 0 3 1 4 1 1 1 5 2 6 2 4 2 7 3 8 3 6 3 9 4 10 4 8 4 11 5 12 5 10 5 13 6 14 6 12 6 15 7 2 7 14 7 4 8 10 8 1 8 1 9 12 9 2 9 10 10 6 10 8 10 4 11 6 11 10 11 12 12 14 12 2 12 1 13 10 13 12 13 2 14 15 14 0 14 1 15 0 15 3 15 4 16 3 16 5 16 6 17 5 17 7 17 8 18 7 18 9 18 10 19 9 19 11 19 12 20 11 20 13 20 14 21 13 21 15 21 9 22 3 22 0 22 0 23 15 23 11 23 9 24 7 24 5 24 9 25 5 25 3 25 11 26 9 26 0 26 13 27 11 27 15 27 16 28 17 28 18 28 19 29 20 29 17 29 21 30 22 30 20 30 23 31 24 31 22 31 25 32 26 32 24 32 27 33 28 33 26 33 29 34 30 34 28 34 31 35 18 35 30 35 20 36 26 36 28 36 17 37 28 37 18 37 26 38 22 38 24 38 20 39 22 39 26 39 28 40 30 40 18 40 17 41 20 41 28 41 18 42 31 42 16 42 17 43 16 43 19 43 20 44 19 44 21 44 22 45 21 45 23 45 24 46 23 46 25 46 26 47 25 47 27 47 28 48 27 48 29 48 30 49 29 49 31 49 25 50 19 50 27 50 16 51 31 51 27 51 25 52 23 52 21 52 25 53 21 53 19 53 27 54 19 54 16 54 29 55 27 55 31 55 32 56 33 56 34 56 35 57 34 57 33 57 36 58 37 58 34 58 38 59 32 59 37 59 39 60 33 60 32 60 39 61 38 61 36 61 34 62 37 62 32 62 33 63 39 63 35 63 34 64 35 64 36 64 37 65 36 65 38 65 32 66 38 66 39 66 36 67 35 67 39 67 40 68 41 68 42 68 43 69 44 69 41 69 45 70 46 70 44 70 47 71 48 71 46 71 49 72 50 72 48 72 51 73 42 73 50 73 44 74 46 74 48 74 48 75 50 75 42 75 41 76 48 76 42 76 41 77 44 77 48 77 42 78 51 78 40 78 41 79 40 79 43 79 44 80 43 80 45 80 46 81 45 81 47 81 48 82 47 82 49 82 50 83 49 83 51 83 45 84 43 84 47 84 43 85 40 85 47 85 40 86 51 86 47 86 47 87 51 87 49 87 52 88 53 88 54 88 55 89 56 89 53 89 57 90 58 90 56 90 59 91 60 91 58 91 61 92 62 92 60 92 63 93 54 93 62 93 56 94 58 94 60 94 60 95 62 95 54 95 53 96 60 96 54 96 53 97 56 97 60 97 54 98 63 98 52 98 53 99 52 99 55 99 56 100 55 100 57 100 58 101 57 101 59 101 60 102 59 102 61 102 62 103 61 103 63 103 57 104 55 104 59 104 55 105 52 105 59 105 52 106 63 106 59 106 59 107 63 107 61 107 64 108 65 108 66 108 67 109 66 109 65 109 68 110 69 110 66 110 70 111 64 111 69 111 71 112 65 112 64 112 71 113 70 113 68 113 66 114 69 114 64 114 65 115 71 115 67 115 66 116 67 116 68 116 69 117 68 117 70 117 64 118 70 118 71 118 68 119 67 119 71 119 72 120 73 120 74 120 75 121 76 121 73 121 77 122 78 122 76 122 79 123 80 123 78 123 81 124 82 124 80 124 83 125 84 125 82 125 85 126 86 126 84 126 87 127 74 127 86 127 76 128 82 128 84 128 73 129 84 129 74 129 82 130 78 130 80 130 76 131 78 131 82 131 84 132 86 132 74 132 73 133 76 133 84 133 74 134 87 134 72 134 73 135 72 135 75 135 76 136 75 136 77 136 78 137 77 137 79 137 80 138 79 138 81 138 82 139 81 139 83 139 84 140 83 140 85 140 86 141 85 141 87 141 81 142 75 142 83 142 72 143 87 143 83 143 81 144 79 144 77 144 81 145 77 145 75 145 83 146 75 146 72 146 85 147 83 147 87 147 88 148 89 148 90 148 91 149 92 149 89 149 93 150 94 150 92 150 95 151 96 151 94 151 97 152 98 152 96 152 99 153 100 153 98 153 101 154 102 154 100 154 103 155 90 155 102 155 92 156 98 156 100 156 89 157 100 157 90 157 98 158 94 158 96 158 92 159 94 159 98 159 100 160 102 160 90 160 89 161 92 161 100 161 90 162 103 162 88 162 89 163 88 163 91 163 92 164 91 164 93 164 94 165 93 165 95 165 96 166 95 166 97 166 98 167 97 167 99 167 100 168 99 168 101 168 102 169 101 169 103 169 97 170 91 170 99 170 88 171 103 171 99 171 97 172 95 172 93 172 97 173 93 173 91 173 99 174 91 174 88 174 101 175 99 175 103 175</p>
        </triangles>
      </mesh>
    </geometry>
  </library_geometries>
  <library_visual_scenes>
    <visual_scene id="Scene" name="Scene">
      <node id="IfcDoor_Door_001" name="IfcDoor/Door.001" type="NODE">
        <matrix sid="transform">1 0 0 0 0 1 0 0 0 0 1 0 0 0 0 1</matrix>
        <instance_geometry url="#_5_1198_001-mesh" name="IfcDoor/Door.001"/>
      </node>
    </visual_scene>
  </library_visual_scenes>
  <scene>
    <instance_visual_scene url="#Scene"/>
  </scene>
</COLLADA>