ISO-10303-21;
HEADER;
FILE_DESCRIPTION(('ViewDefinition[DesignTransferView]'),'2;1');
FILE_NAME('escenarioconVentana.ifc','2025-04-29T13:12:19+02:00',(''),(''),'IfcOpenShell 0.8.1','Bonsai 0.8.1','Nobody');
FILE_SCHEMA(('IFC4'));
ENDSEC;
DATA;
#1=IFCPROJECT('2UDy$mpgD1TB86pY77rwQ$',$,'My Project',$,$,$,$,(#14,#26),#9);
#2=IFCSIUNIT(*,.LENGTHUNIT.,$,.METRE.);
#3=IFCSIUNIT(*,.AREAUNIT.,$,.SQUARE_METRE.);
#4=IFCSIUNIT(*,.VOLUMEUNIT.,$,.CUBIC_METRE.);
#5=IFCDIMENSIONALEXPONENTS(0,0,0,0,0,0,0);
#6=IFCSIUNIT(*,.PLANEANGLEUNIT.,$,.RADIAN.);
#7=IFCMEASUREWITHUNIT(IFCREAL(0.0174532925199433),#6);
#8=IFCCONVERSIONBASEDUNIT(#5,.PLANEANGLEUNIT.,'degree',#7);
#9=IFCUNITASSIGNMENT((#4,#2,#8,#3));
#10=IFCCARTESIANPOINT((0.,0.,0.));
#11=IFCDIRECTION((0.,0.,1.));
#12=IFCDIRECTION((1.,0.,0.));
#13=IFCAXIS2PLACEMENT3D(#10,#11,#12);
#14=IFCGEOMETRICREPRESENTATIONCONTEXT($,'Model',3,1.E-05,#13,$);
#15=IFCGEOMETRICREPRESENTATIONSUBCONTEXT('Body','Model',*,*,*,*,#14,$,.MODEL_VIEW.,$);
#16=IFCGEOMETRICREPRESENTATIONSUBCONTEXT('Axis','Model',*,*,*,*,#14,$,.GRAPH_VIEW.,$);
#17=IFCGEOMETRICREPRESENTATIONSUBCONTEXT('Box','Model',*,*,*,*,#14,$,.MODEL_VIEW.,$);
#18=IFCGEOMETRICREPRESENTATIONSUBCONTEXT('Annotation','Model',*,*,*,*,#14,$,.SECTION_VIEW.,$);
#19=IFCGEOMETRICREPRESENTATIONSUBCONTEXT('Annotation','Model',*,*,*,*,#14,$,.ELEVATION_VIEW.,$);
#20=IFCGEOMETRICREPRESENTATIONSUBCONTEXT('Annotation','Model',*,*,*,*,#14,$,.MODEL_VIEW.,$);
#21=IFCGEOMETRICREPRESENTATIONSUBCONTEXT('Annotation','Model',*,*,*,*,#14,$,.PLAN_VIEW.,$);
#22=IFCGEOMETRICREPRESENTATIONSUBCONTEXT('Profile','Model',*,*,*,*,#14,$,.ELEVATION_VIEW.,$);
#23=IFCCARTESIANPOINT((0.,0.));
#24=IFCDIRECTION((1.,0.));
#25=IFCAXIS2PLACEMENT2D(#23,#24);
#26=IFCGEOMETRICREPRESENTATIONCONTEXT($,'Plan',2,1.E-05,#25,$);
#27=IFCGEOMETRICREPRESENTATIONSUBCONTEXT('Axis','Plan',*,*,*,*,#26,$,.GRAPH_VIEW.,$);
#28=IFCGEOMETRICREPRESENTATIONSUBCONTEXT('Body','Plan',*,*,*,*,#26,$,.PLAN_VIEW.,$);
#29=IFCGEOMETRICREPRESENTATIONSUBCONTEXT('Annotation','Plan',*,*,*,*,#26,$,.PLAN_VIEW.,$);
#30=IFCGEOMETRICREPRESENTATIONSUBCONTEXT('Annotation','Plan',*,*,*,*,#26,$,.REFLECTED_PLAN_VIEW.,$);
#31=IFCSITE('1wx_dXzZPF3gZy8iRe8_pW',$,'My Site',$,$,#54,$,$,$,$,$,$,$,$);
#37=IFCBUILDING('2nHT9Rl2H2uej3VsjC3emk',$,'My Building',$,$,#60,$,$,$,$,$,$);
#43=IFCBUILDINGSTOREY('1uvnRkI1zF89YuxVzrPZ1t',$,'My Storey',$,$,#66,$,$,$,$);
#49=IFCRELAGGREGATES('0W7WoHYWX3Gfv63WRD36RH',$,$,$,#1,(#31));
#50=IFCCARTESIANPOINT((0.,0.,0.));
#51=IFCDIRECTION((0.,0.,1.));
#52=IFCDIRECTION((1.,0.,0.));
#53=IFCAXIS2PLACEMENT3D(#50,#51,#52);
#54=IFCLOCALPLACEMENT($,#53);
#55=IFCRELAGGREGATES('1U_w_gx2bB_QESzdg5kQlF',$,$,$,#31,(#37));
#56=IFCCARTESIANPOINT((0.,0.,0.));
#57=IFCDIRECTION((0.,0.,1.));
#58=IFCDIRECTION((1.,0.,0.));
#59=IFCAXIS2PLACEMENT3D(#56,#57,#58);
#60=IFCLOCALPLACEMENT(#54,#59);
#61=IFCRELAGGREGATES('2YBKZ7CY9FWRmVL8ePeMpL',$,$,$,#37,(#43));
#62=IFCCARTESIANPOINT((0.,0.,0.));
#63=IFCDIRECTION((0.,0.,1.));
#64=IFCDIRECTION((1.,0.,0.));
#65=IFCAXIS2PLACEMENT3D(#62,#63,#64);
#66=IFCLOCALPLACEMENT(#60,#65);
#67=IFCWALLTYPE('1QU8yJspfC5f4ataJQV4u0',$,'Unnamed',$,$,(#72),$,$,$,.SOLIDWALL.);
#68=IFCMATERIAL('Unknown',$,$);
#69=IFCMATERIALLAYERSET((#71),$,$);
#70=IFCRELASSOCIATESMATERIAL('1MQ3hhcHrEYgNhkMnyJ09u',$,$,$,(#67),#69);
#71=IFCMATERIALLAYER(#68,0.1,$,$,$,$,$);
#72=IFCPROPERTYSET('1XxO95r$907vR2p_9lrsdK',$,'EPset_Parametric',$,(#73));
#73=IFCPROPERTYSINGLEVALUE('LayerSetDirection',$,IFCLABEL('AXIS2'),$);
#74=IFCWALL('05rCSZC$fB293MfUE_Ogc2',$,'Wall',$,$,#87,#82,$,$);
#75=IFCRELCONTAINEDINSPATIALSTRUCTURE('1xrS78c4TEJR2tRmOLsk0c',$,$,$,(#1934,#1309,#1334,#762,#687,#74,#151,#2197,#1959,#1653,#1675,#1698,#1359,#2147,#712,#1087,#737,#1384,#101,#1275,#1984,#126,#2513,#2446,#2172),#43);
#76=IFCRELDEFINESBYTYPE('3n_I1h7$DFOQjsoaaFAlaM',$,$,$,(#687,#74,#1334,#151,#2197,#1959,#2147,#712,#1359,#101,#737,#1384,#126,#1984,#2172,#1309,#1934,#762),#67);
#77=IFCMATERIALLAYERSETUSAGE(#69,.AXIS2.,.POSITIVE.,0.,$);
#78=IFCRELASSOCIATESMATERIAL('2IqQvBVxr8B92xEqNN6y39',$,$,$,(#74),#77);
#82=IFCPRODUCTDEFINITIONSHAPE($,$,(#368,#392));
#83=IFCCARTESIANPOINT((0.,0.,0.));
#84=IFCDIRECTION((0.,0.,1.));
#85=IFCDIRECTION((1.,0.,0.));
#86=IFCAXIS2PLACEMENT3D(#83,#84,#85);
#87=IFCLOCALPLACEMENT(#66,#86);
#98=IFCPROPERTYSET('1ff$R5YQ59feyD$3njcf9P',$,'EPset_Parametric',$,(#100));
#99=IFCRELDEFINESBYPROPERTIES('1RZaD$7DrBKwEcdj_EJ_Qv',$,$,$,(#74),#98);
#100=IFCPROPERTYSINGLEVALUE('Engine',$,IFCLABEL('Bonsai.DumbLayer2'),$);
#101=IFCWALL('2BfLlFHWL6rwa6fxck5W0v',$,'Wall',$,$,#112,#107,$,$);
#102=IFCMATERIALLAYERSETUSAGE(#69,.AXIS2.,.POSITIVE.,0.,$);
#103=IFCRELASSOCIATESMATERIAL('0kEngDKkH0OOtJcG$qdiFg',$,$,$,(#101),#102);
#107=IFCPRODUCTDEFINITIONSHAPE($,$,(#292,#316));
#108=IFCCARTESIANPOINT((9.,0.,0.));
#109=IFCDIRECTION((0.,0.,1.));
#110=IFCDIRECTION((7.54979012640431E-08,0.999999999999997,0.));
#111=IFCAXIS2PLACEMENT3D(#108,#109,#110);
#112=IFCLOCALPLACEMENT(#66,#111);
#123=IFCPROPERTYSET('0y2owVu_52cuU8EmS$bs40',$,'EPset_Parametric',$,(#125));
#124=IFCRELDEFINESBYPROPERTIES('0Ld74$DD1DFPlfjqk4AYrr',$,$,$,(#101),#123);
#125=IFCPROPERTYSINGLEVALUE('Engine',$,IFCLABEL('Bonsai.DumbLayer2'),$);
#126=IFCWALL('2wkgGJiFnF79nJWhEXPqFN',$,'Wall',$,$,#137,#132,$,$);
#127=IFCMATERIALLAYERSETUSAGE(#69,.AXIS2.,.POSITIVE.,0.,$);
#128=IFCRELASSOCIATESMATERIAL('3ppPJVhb11h9owzjVZ5AO8',$,$,$,(#126),#127);
#132=IFCPRODUCTDEFINITIONSHAPE($,$,(#340,#364));
#133=IFCCARTESIANPOINT((9.,10.,0.));
#134=IFCDIRECTION((0.,0.,1.));
#135=IFCDIRECTION((-0.999999999999996,8.74227765734755E-08,0.));
#136=IFCAXIS2PLACEMENT3D(#133,#134,#135);
#137=IFCLOCALPLACEMENT(#66,#136);
#148=IFCPROPERTYSET('2hWWB4erLErfavLmMfc_OM',$,'EPset_Parametric',$,(#150));
#149=IFCRELDEFINESBYPROPERTIES('0EJOsyM391khPJziij5ObK',$,$,$,(#126),#148);
#150=IFCPROPERTYSINGLEVALUE('Engine',$,IFCLABEL('Bonsai.DumbLayer2'),$);
#151=IFCWALL('2V_wi7SwP89uvKySByRAjV',$,'Wall',$,$,#162,#157,$,$);
#152=IFCMATERIALLAYERSETUSAGE(#69,.AXIS2.,.POSITIVE.,0.,$);
#153=IFCRELASSOCIATESMATERIAL('08iKS2Le526AhzdkhchPqO',$,$,$,(#151),#152);
#157=IFCPRODUCTDEFINITIONSHAPE($,$,(#395,#419));
#158=IFCCARTESIANPOINT((0.,10.,0.));
#159=IFCDIRECTION((0.,0.,1.));
#160=IFCDIRECTION((-4.37113882867379E-08,-0.999999999999999,0.));
#161=IFCAXIS2PLACEMENT3D(#158,#159,#160);
#162=IFCLOCALPLACEMENT(#66,#161);
#173=IFCPROPERTYSET('2K9J_8bG98r90vngUGGDek',$,'EPset_Parametric',$,(#175));
#174=IFCRELDEFINESBYPROPERTIES('0ouk7jmM57LOnPjalU5lcy',$,$,$,(#151),#173);
#175=IFCPROPERTYSINGLEVALUE('Engine',$,IFCLABEL('Bonsai.DumbLayer2'),$);
#228=IFCRELCONNECTSPATHELEMENTS('1wcZqEfAv3ZxZ9sGv66UV5',$,$,'MITRE',$,#101,#74,(),(),.ATEND.,.ATSTART.);
#269=IFCRELCONNECTSPATHELEMENTS('2tYqjCDxnAVxaAyzWbyT0n',$,$,'MITRE',$,#126,#101,(),(),.ATEND.,.ATSTART.);
#290=IFCCARTESIANPOINTLIST2D(((0.,0.),(10.,2.78141669696197E-07)));
#291=IFCINDEXEDPOLYCURVE(#290,$,.F.);
#292=IFCSHAPEREPRESENTATION(#27,'Axis','Curve2D',(#291));
#293=IFCCARTESIANPOINTLIST2D(((0.,0.),(0.,0.1),(10.0000000000004,0.1),(10.0000000000004,0.),(0.,0.)));
#294=IFCINDEXEDPOLYCURVE(#293,$,.F.);
#295=IFCDIRECTION((0.,0.,1.));
#296=IFCARBITRARYCLOSEDPROFILEDEF(.AREA.,$,#294);
#297=IFCCARTESIANPOINT((0.,0.,0.));
#298=IFCDIRECTION((0.,0.,1.));
#299=IFCDIRECTION((1.,0.,0.));
#300=IFCAXIS2PLACEMENT3D(#297,#298,#299);
#301=IFCEXTRUDEDAREASOLID(#296,#300,#295,2.);
#302=IFCCARTESIANPOINT((10.,2.78141669696197E-07,0.));
#303=IFCDIRECTION((0.707106530666351,0.70710700750351,0.));
#304=IFCDIRECTION((0.70710701960509,-0.707106542767924,0.));
#305=IFCAXIS2PLACEMENT3D(#302,#303,#304);
#306=IFCPLANE(#305);
#307=IFCHALFSPACESOLID(#306,.F.);
#308=IFCBOOLEANCLIPPINGRESULT(.DIFFERENCE.,#301,#307);
#309=IFCCARTESIANPOINT((0.,0.,0.));
#310=IFCDIRECTION((-0.707108318805695,0.707105159759521,0.));
#311=IFCDIRECTION((0.707105201661603,0.707108360707964,-0.));
#312=IFCAXIS2PLACEMENT3D(#309,#310,#311);
#313=IFCPLANE(#312);
#314=IFCHALFSPACESOLID(#313,.F.);
#315=IFCBOOLEANCLIPPINGRESULT(.DIFFERENCE.,#308,#314);
#316=IFCSHAPEREPRESENTATION(#15,'Body','Clipping',(#315));
#317=IFCRELCONNECTSPATHELEMENTS('3MAqNvAwz25AI_W82gs0$p',$,$,'MITRE',$,#151,#126,(),(),.ATEND.,.ATSTART.);
#338=IFCCARTESIANPOINTLIST2D(((-3.97390635953343E-07,-4.05288346883026E-07),(9.00000286102295,0.)));
#339=IFCINDEXEDPOLYCURVE(#338,$,.F.);
#340=IFCSHAPEREPRESENTATION(#27,'Axis','Curve2D',(#339));
#341=IFCCARTESIANPOINTLIST2D(((0.,0.),(0.,0.1),(9.00000296698632,0.1),(9.00000296698632,0.),(0.,0.)));
#342=IFCINDEXEDPOLYCURVE(#341,$,.F.);
#343=IFCDIRECTION((0.,0.,1.));
#344=IFCARBITRARYCLOSEDPROFILEDEF(.AREA.,$,#342);
#345=IFCCARTESIANPOINT((0.,0.,0.));
#346=IFCDIRECTION((0.,0.,1.));
#347=IFCDIRECTION((1.,0.,0.));
#348=IFCAXIS2PLACEMENT3D(#345,#346,#347);
#349=IFCEXTRUDEDAREASOLID(#344,#348,#343,2.);
#350=IFCCARTESIANPOINT((9.00000286102295,0.,0.));
#351=IFCDIRECTION((0.707107901573181,0.707105696201324,0.));
#352=IFCDIRECTION((0.707105678499787,-0.707107883871588,0.));
#353=IFCAXIS2PLACEMENT3D(#350,#351,#352);
#354=IFCPLANE(#353);
#355=IFCHALFSPACESOLID(#354,.F.);
#356=IFCBOOLEANCLIPPINGRESULT(.DIFFERENCE.,#349,#355);
#357=IFCCARTESIANPOINT((-3.97390635953343E-07,-4.05288346883026E-07,0.));
#358=IFCDIRECTION((-0.70710688829422,0.707106649875641,0.));
#359=IFCDIRECTION((0.707106661977246,0.707106900395829,-0.));
#360=IFCAXIS2PLACEMENT3D(#357,#358,#359);
#361=IFCPLANE(#360);
#362=IFCHALFSPACESOLID(#361,.F.);
#363=IFCBOOLEANCLIPPINGRESULT(.DIFFERENCE.,#356,#362);
#364=IFCSHAPEREPRESENTATION(#15,'Body','Clipping',(#363));
#365=IFCRELCONNECTSPATHELEMENTS('05X$9vd9r3sQxPpgVDlKby',$,$,'MITRE',$,#74,#151,(),(),.ATEND.,.ATSTART.);
#366=IFCCARTESIANPOINTLIST2D(((-4.54747350886464E-13,0.),(8.99999713897705,0.)));
#367=IFCINDEXEDPOLYCURVE(#366,$,.F.);
#368=IFCSHAPEREPRESENTATION(#27,'Axis','Curve2D',(#367));
#369=IFCCARTESIANPOINTLIST2D(((0.,0.),(0.,0.1),(8.99999703301275,0.1),(8.99999703301275,0.),(0.,0.)));
#370=IFCINDEXEDPOLYCURVE(#369,$,.F.);
#371=IFCDIRECTION((0.,0.,1.));
#372=IFCARBITRARYCLOSEDPROFILEDEF(.AREA.,$,#370);
#373=IFCCARTESIANPOINT((0.,0.,0.));
#374=IFCDIRECTION((0.,0.,1.));
#375=IFCDIRECTION((1.,0.,0.));
#376=IFCAXIS2PLACEMENT3D(#373,#374,#375);
#377=IFCEXTRUDEDAREASOLID(#372,#376,#371,2.);
#378=IFCCARTESIANPOINT((8.99999713897705,0.,0.));
#379=IFCDIRECTION((0.707105398178101,0.707108080387115,0.));
#380=IFCDIRECTION((0.707108122289863,-0.707105440080689,0.));
#381=IFCAXIS2PLACEMENT3D(#378,#379,#380);
#382=IFCPLANE(#381);
#383=IFCHALFSPACESOLID(#382,.F.);
#384=IFCBOOLEANCLIPPINGRESULT(.DIFFERENCE.,#377,#383);
#385=IFCCARTESIANPOINT((0.,0.,0.));
#386=IFCDIRECTION((-0.70710688829422,0.707106649875641,0.));
#387=IFCDIRECTION((0.707106661977246,0.707106900395829,-0.));
#388=IFCAXIS2PLACEMENT3D(#385,#386,#387);
#389=IFCPLANE(#388);
#390=IFCHALFSPACESOLID(#389,.F.);
#391=IFCBOOLEANCLIPPINGRESULT(.DIFFERENCE.,#384,#390);
#392=IFCSHAPEREPRESENTATION(#15,'Body','Clipping',(#391));
#393=IFCCARTESIANPOINTLIST2D(((0.,4.16864486723137E-14),(10.0000009536743,0.)));
#394=IFCINDEXEDPOLYCURVE(#393,$,.F.);
#395=IFCSHAPEREPRESENTATION(#27,'Axis','Curve2D',(#394));
#396=IFCCARTESIANPOINTLIST2D(((0.,0.),(0.,0.1),(10.0000011444096,0.1),(10.0000011444096,0.),(0.,0.)));
#397=IFCINDEXEDPOLYCURVE(#396,$,.F.);
#398=IFCDIRECTION((0.,0.,1.));
#399=IFCARBITRARYCLOSEDPROFILEDEF(.AREA.,$,#397);
#400=IFCCARTESIANPOINT((0.,0.,0.));
#401=IFCDIRECTION((0.,0.,1.));
#402=IFCDIRECTION((1.,0.,0.));
#403=IFCAXIS2PLACEMENT3D(#400,#401,#402);
#404=IFCEXTRUDEDAREASOLID(#399,#403,#398,2.);
#405=IFCCARTESIANPOINT((10.0000009536743,2.27373675443232E-13,0.));
#406=IFCDIRECTION((0.70710688829422,0.707106649875641,0.));
#407=IFCDIRECTION((0.707106661977246,-0.707106900395829,0.));
#408=IFCAXIS2PLACEMENT3D(#405,#406,#407);
#409=IFCPLANE(#408);
#410=IFCHALFSPACESOLID(#409,.F.);
#411=IFCBOOLEANCLIPPINGRESULT(.DIFFERENCE.,#404,#410);
#412=IFCCARTESIANPOINT((0.,0.,0.));
#413=IFCDIRECTION((-0.707105338573456,0.70710825920105,0.));
#414=IFCDIRECTION((0.7071082414988,0.707105320871279,-0.));
#415=IFCAXIS2PLACEMENT3D(#412,#413,#414);
#416=IFCPLANE(#415);
#417=IFCHALFSPACESOLID(#416,.F.);
#418=IFCBOOLEANCLIPPINGRESULT(.DIFFERENCE.,#411,#417);
#419=IFCSHAPEREPRESENTATION(#15,'Body','Clipping',(#418));
#420=IFCSLABTYPE('3mzuAc3A5DhvhE0Ig8U8SL',$,'Unnamed',$,$,(#424),$,$,$,.FLOOR.);
#421=IFCMATERIALLAYERSET((#423),$,$);
#422=IFCRELASSOCIATESMATERIAL('2bkAihwdDECQD7gILolJbT',$,$,$,(#420),#421);
#423=IFCMATERIALLAYER(#68,0.1,$,$,$,$,$);
#424=IFCPROPERTYSET('21ShRzKz185hNuMY$IzxEH',$,'EPset_Parametric',$,(#425));
#425=IFCPROPERTYSINGLEVALUE('LayerSetDirection',$,IFCLABEL('AXIS3'),$);
#687=IFCWALL('0IZFwkSun8cvEN9jvZOZPX',$,'Wall',$,$,#1071,#693,$,$);
#688=IFCMATERIALLAYERSETUSAGE(#69,.AXIS2.,.POSITIVE.,0.,$);
#689=IFCRELASSOCIATESMATERIAL('1yTLgOGZP5vQ0LSgPyTbfP',$,$,$,(#687),#688);
#693=IFCPRODUCTDEFINITIONSHAPE($,$,(#926,#950));
#709=IFCPROPERTYSET('0lhOGjiKn2Ke9ah1nQBnvE',$,'EPset_Parametric',$,(#711));
#710=IFCRELDEFINESBYPROPERTIES('1dIoZg_U91NOk$enR9$nme',$,$,$,(#687),#709);
#711=IFCPROPERTYSINGLEVALUE('Engine',$,IFCLABEL('Bonsai.DumbLayer2'),$);
#712=IFCWALL('2dGj7y6AP8$wSMK9s9j1hH',$,'Wall',$,$,#1076,#718,$,$);
#713=IFCMATERIALLAYERSETUSAGE(#69,.AXIS2.,.POSITIVE.,0.,$);
#714=IFCRELASSOCIATESMATERIAL('0F9XkXv0DAWuRcF6JjPhCE',$,$,$,(#712),#713);
#718=IFCPRODUCTDEFINITIONSHAPE($,$,(#979,#1003));
#734=IFCPROPERTYSET('21dh92HzL2p9ow1Ask5GwK',$,'EPset_Parametric',$,(#736));
#735=IFCRELDEFINESBYPROPERTIES('07kaEleO12PhSQ095r56EN',$,$,$,(#712),#734);
#736=IFCPROPERTYSINGLEVALUE('Engine',$,IFCLABEL('Bonsai.DumbLayer2'),$);
#737=IFCWALL('08DPseGlD7NeMYUvD1$pZR',$,'Wall',$,$,#1081,#743,$,$);
#738=IFCMATERIALLAYERSETUSAGE(#69,.AXIS2.,.POSITIVE.,0.,$);
#739=IFCRELASSOCIATESMATERIAL('2dqjiuk0P62h8tomWkp9VS',$,$,$,(#737),#738);
#743=IFCPRODUCTDEFINITIONSHAPE($,$,(#1032,#1056));
#759=IFCPROPERTYSET('3m2mnBR01BMQaYWRGMISwQ',$,'EPset_Parametric',$,(#761));
#760=IFCRELDEFINESBYPROPERTIES('36F72ME6nBIwdBjb9KUb9H',$,$,$,(#737),#759);
#761=IFCPROPERTYSINGLEVALUE('Engine',$,IFCLABEL('Bonsai.DumbLayer2'),$);
#762=IFCWALL('1TI2PqSNrDCuKT6ZHXhAA4',$,'Wall',$,$,#1086,#768,$,$);
#763=IFCMATERIALLAYERSETUSAGE(#69,.AXIS2.,.POSITIVE.,0.,$);
#764=IFCRELASSOCIATESMATERIAL('2vQQFFBOD5Lv51I1Jxsz2_',$,$,$,(#762),#763);
#768=IFCPRODUCTDEFINITIONSHAPE($,$,(#1007,#1024));
#784=IFCPROPERTYSET('28tBXhAKvDmB2K1uPY1Uqr',$,'EPset_Parametric',$,(#786));
#785=IFCRELDEFINESBYPROPERTIES('2HEvgIoDb2jxsTfyJOAZky',$,$,$,(#762),#784);
#786=IFCPROPERTYSINGLEVALUE('Engine',$,IFCLABEL('Bonsai.DumbLayer2'),$);
#898=IFCRELCONNECTSPATHELEMENTS('0NxCP_$DHEHB02aRu5f4Pl',$,$,'MITRE',$,#712,#687,(),(),.ATEND.,.ATSTART.);
#924=IFCCARTESIANPOINTLIST2D(((0.0999997407197952,-2.91095147986198E-08),(6.09999895095825,-5.29596775322716E-08)));
#925=IFCINDEXEDPOLYCURVE(#924,$,.F.);
#926=IFCSHAPEREPRESENTATION(#27,'Axis','Curve2D',(#925));
#927=IFCCARTESIANPOINTLIST2D(((0.,0.),(0.,0.1),(6.19999896634032,0.1),(6.19999896634032,0.),(0.,0.)));
#928=IFCINDEXEDPOLYCURVE(#927,$,.F.);
#929=IFCDIRECTION((0.,0.,1.));
#930=IFCARBITRARYCLOSEDPROFILEDEF(.AREA.,$,#928);
#931=IFCCARTESIANPOINT((0.,0.,0.));
#932=IFCDIRECTION((0.,0.,1.));
#933=IFCDIRECTION((1.,0.,0.));
#934=IFCAXIS2PLACEMENT3D(#931,#932,#933);
#935=IFCEXTRUDEDAREASOLID(#930,#934,#929,2.);
#936=IFCCARTESIANPOINT((6.09999895095825,-5.29596775322716E-08,0.));
#937=IFCDIRECTION((0.707106828689575,-0.70710676908493,0.));
#938=IFCDIRECTION((-0.707106751384225,-0.707106810988869,0.));
#939=IFCAXIS2PLACEMENT3D(#936,#937,#938);
#940=IFCPLANE(#939);
#941=IFCHALFSPACESOLID(#940,.F.);
#942=IFCBOOLEANCLIPPINGRESULT(.DIFFERENCE.,#935,#941);
#943=IFCCARTESIANPOINT((0.0999997407197952,-8.87141595740104E-08,0.));
#944=IFCDIRECTION((-0.707107365131378,-0.707106173038483,0.));
#945=IFCDIRECTION((-0.707106185139838,0.707107377232754,0.));
#946=IFCAXIS2PLACEMENT3D(#943,#944,#945);
#947=IFCPLANE(#946);
#948=IFCHALFSPACESOLID(#947,.F.);
#949=IFCBOOLEANCLIPPINGRESULT(.DIFFERENCE.,#942,#948);
#950=IFCSHAPEREPRESENTATION(#15,'Body','Clipping',(#949));
#951=IFCRELCONNECTSPATHELEMENTS('3oNb01$yX7ePwCLoBpEA1M',$,$,'MITRE',$,#737,#712,(),(),.ATEND.,.ATSTART.);
#977=IFCCARTESIANPOINTLIST2D(((0.100000068545341,3.97903932025656E-13),(7.09999942779541,2.27373675443232E-13)));
#978=IFCINDEXEDPOLYCURVE(#977,$,.F.);
#979=IFCSHAPEREPRESENTATION(#27,'Axis','Curve2D',(#978));
#980=IFCCARTESIANPOINTLIST2D(((0.,0.),(0.,0.1),(7.19999974568704,0.1),(7.19999974568704,0.),(0.,0.)));
#981=IFCINDEXEDPOLYCURVE(#980,$,.F.);
#982=IFCDIRECTION((0.,0.,1.));
#983=IFCARBITRARYCLOSEDPROFILEDEF(.AREA.,$,#981);
#984=IFCCARTESIANPOINT((0.,0.,0.));
#985=IFCDIRECTION((0.,0.,1.));
#986=IFCDIRECTION((1.,0.,0.));
#987=IFCAXIS2PLACEMENT3D(#984,#985,#986);
#988=IFCEXTRUDEDAREASOLID(#983,#987,#982,2.);
#989=IFCCARTESIANPOINT((7.09999847412109,0.,0.));
#990=IFCDIRECTION((0.707102298736572,-0.707111239433289,0.));
#991=IFCDIRECTION((-0.707111251520851,-0.707102310823982,0.));
#992=IFCAXIS2PLACEMENT3D(#989,#990,#991);
#993=IFCPLANE(#992);
#994=IFCHALFSPACESOLID(#993,.F.);
#995=IFCBOOLEANCLIPPINGRESULT(.DIFFERENCE.,#988,#994);
#996=IFCCARTESIANPOINT((0.100000068545341,3.97903932025656E-13,0.));
#997=IFCDIRECTION((-0.707106590270996,-0.707106947898865,0.));
#998=IFCDIRECTION((-0.707106960000462,0.707106602372587,0.));
#999=IFCAXIS2PLACEMENT3D(#996,#997,#998);
#1000=IFCPLANE(#999);
#1001=IFCHALFSPACESOLID(#1000,.F.);
#1002=IFCBOOLEANCLIPPINGRESULT(.DIFFERENCE.,#995,#1001);
#1003=IFCSHAPEREPRESENTATION(#15,'Body','Clipping',(#1002));
#1004=IFCRELCONNECTSPATHELEMENTS('3z2jA9soHEPvhle287xcwi',$,$,'MITRE',$,#762,#737,(),(),.ATEND.,.ATSTART.);
#1005=IFCCARTESIANPOINTLIST2D(((0.1000005453825,2.2254562281887E-07),(3.10000109672546,4.37114522355841E-07)));
#1006=IFCINDEXEDPOLYCURVE(#1005,$,.F.);
#1007=IFCSHAPEREPRESENTATION(#27,'Axis','Curve2D',(#1006));
#1008=IFCCARTESIANPOINTLIST2D(((0.,0.),(0.,0.1),(3.10000086753602,0.1),(3.10000086753602,0.),(0.,0.)));
#1009=IFCINDEXEDPOLYCURVE(#1008,$,.F.);
#1010=IFCDIRECTION((0.,0.,1.));
#1011=IFCARBITRARYCLOSEDPROFILEDEF(.AREA.,$,#1009);
#1012=IFCCARTESIANPOINT((0.,0.,0.));
#1013=IFCDIRECTION((0.,0.,1.));
#1014=IFCDIRECTION((1.,0.,0.));
#1015=IFCAXIS2PLACEMENT3D(#1012,#1013,#1014);
#1016=IFCEXTRUDEDAREASOLID(#1011,#1015,#1010,2.);
#1017=IFCCARTESIANPOINT((0.100001022219658,2.2254562281887E-07,0.));
#1018=IFCDIRECTION((-0.707103073596954,-0.707110404968262,0.));
#1019=IFCDIRECTION((-0.707110446862917,0.707103115491175,0.));
#1020=IFCAXIS2PLACEMENT3D(#1017,#1018,#1019);
#1021=IFCPLANE(#1020);
#1022=IFCHALFSPACESOLID(#1021,.F.);
#1023=IFCBOOLEANCLIPPINGRESULT(.DIFFERENCE.,#1016,#1022);
#1024=IFCSHAPEREPRESENTATION(#15,'Body','Clipping',(#1023));
#1030=IFCCARTESIANPOINTLIST2D(((0.100000031292439,2.61874390616867E-07),(6.10000085830688,4.73057752969908E-08)));
#1031=IFCINDEXEDPOLYCURVE(#1030,$,.F.);
#1032=IFCSHAPEREPRESENTATION(#27,'Axis','Curve2D',(#1031));
#1033=IFCCARTESIANPOINTLIST2D(((0.,0.),(0.,0.1),(6.20000081216159,0.1),(6.20000081216159,0.),(0.,0.)));
#1034=IFCINDEXEDPOLYCURVE(#1033,$,.F.);
#1035=IFCDIRECTION((0.,0.,1.));
#1036=IFCARBITRARYCLOSEDPROFILEDEF(.AREA.,$,#1034);
#1037=IFCCARTESIANPOINT((0.,0.,0.));
#1038=IFCDIRECTION((0.,0.,1.));
#1039=IFCDIRECTION((1.,0.,0.));
#1040=IFCAXIS2PLACEMENT3D(#1037,#1038,#1039);
#1041=IFCEXTRUDEDAREASOLID(#1036,#1040,#1035,2.);
#1042=IFCCARTESIANPOINT((6.10000085830688,-4.29531382906134E-07,0.));
#1043=IFCDIRECTION((0.707110285758972,-0.707103192806244,0.));
#1044=IFCDIRECTION((-0.70710323470108,-0.707110327654228,0.));
#1045=IFCAXIS2PLACEMENT3D(#1042,#1043,#1044);
#1046=IFCPLANE(#1045);
#1047=IFCHALFSPACESOLID(#1046,.F.);
#1048=IFCBOOLEANCLIPPINGRESULT(.DIFFERENCE.,#1041,#1047);
#1049=IFCCARTESIANPOINT((0.100000031292439,2.61874390616867E-07,0.));
#1050=IFCDIRECTION((-0.707108080387115,-0.707105457782745,0.));
#1051=IFCDIRECTION((-0.707105469883124,0.707108092487539,0.));
#1052=IFCAXIS2PLACEMENT3D(#1049,#1050,#1051);
#1053=IFCPLANE(#1052);
#1054=IFCHALFSPACESOLID(#1053,.F.);
#1055=IFCBOOLEANCLIPPINGRESULT(.DIFFERENCE.,#1048,#1054);
#1056=IFCSHAPEREPRESENTATION(#15,'Body','Clipping',(#1055));
#1067=IFCCARTESIANPOINT((0.999999701976776,1.90535140037537,2.));
#1068=IFCDIRECTION((0.,0.,1.));
#1069=IFCDIRECTION((3.13916473260163E-07,0.999999999999951,0.));
#1070=IFCAXIS2PLACEMENT3D(#1067,#1068,#1069);
#1071=IFCLOCALPLACEMENT(#66,#1070);
#1072=IFCCARTESIANPOINT((0.900001585483551,8.00535011291504,2.));
#1073=IFCDIRECTION((0.,0.,1.));
#1074=IFCDIRECTION((0.999999999999972,-2.38418579101556E-07,0.));
#1075=IFCAXIS2PLACEMENT3D(#1072,#1073,#1074);
#1076=IFCLOCALPLACEMENT(#66,#1075);
#1077=IFCCARTESIANPOINT((8.00000095367432,8.10534858703613,2.));
#1078=IFCDIRECTION((0.,0.,1.));
#1079=IFCDIRECTION((-2.82129974493717E-07,-0.99999999999996,0.));
#1080=IFCAXIS2PLACEMENT3D(#1077,#1078,#1079);
#1081=IFCLOCALPLACEMENT(#66,#1080);
#1082=IFCCARTESIANPOINT((8.09999942779541,2.00534796714783,2.));
#1083=IFCDIRECTION((0.,0.,1.));
#1084=IFCDIRECTION((-0.999999999999924,3.89414367418765E-07,0.));
#1085=IFCAXIS2PLACEMENT3D(#1082,#1083,#1084);
#1086=IFCLOCALPLACEMENT(#66,#1085);
#1087=IFCSLAB('3khpBVbFnDJuj0ZWNz34kO',$,'Slab',$,$,#1114,#1102,$,$);
#1088=IFCRELDEFINESBYTYPE('3hD5Edl8zDWRaq81jaTUN6',$,$,$,(#1653,#1087),#420);
#1089=IFCMATERIALLAYERSETUSAGE(#421,.AXIS3.,.POSITIVE.,-0.100000001490116,$);
#1090=IFCRELASSOCIATESMATERIAL('3ou261Qs96He4umcqQdDDK',$,$,$,(#1087),#1089);
#1096=IFCCARTESIANPOINTLIST2D(((0.,0.),(8.80000114440918,9.5367431640625E-07),(8.7999963760376,-9.79999923706055),(-4.4703483581543E-08,-9.79999923706055),(0.,0.)));
#1097=IFCINDEXEDPOLYCURVE(#1096,$,$);
#1098=IFCDIRECTION((0.,-0.,1.));
#1099=IFCARBITRARYCLOSEDPROFILEDEF(.AREA.,$,#1097);
#1100=IFCEXTRUDEDAREASOLID(#1099,#1109,#1098,0.1);
#1101=IFCSHAPEREPRESENTATION(#15,'Body','SweptSolid',(#1100));
#1102=IFCPRODUCTDEFINITIONSHAPE($,$,(#1101));
#1103=IFCPROPERTYSET('3hFWOSyCT2KAiEx1aqWNrY',$,'EPset_Parametric',$,(#1105));
#1104=IFCRELDEFINESBYPROPERTIES('2CwlM7zhHFOvV_FImO877e',$,$,$,(#1087),#1103);
#1105=IFCPROPERTYSINGLEVALUE('Engine',$,IFCLABEL('Bonsai.DumbLayer3'),$);
#1106=IFCCARTESIANPOINT((0.,0.,-0.100000001490116));
#1107=IFCDIRECTION((0.,0.,1.));
#1108=IFCDIRECTION((1.,0.,0.));
#1109=IFCAXIS2PLACEMENT3D(#1106,#1107,#1108);
#1110=IFCCARTESIANPOINT((0.100000008940697,9.89999961853027,2.));
#1111=IFCDIRECTION((0.,0.,1.));
#1112=IFCDIRECTION((1.,0.,0.));
#1113=IFCAXIS2PLACEMENT3D(#1110,#1111,#1112);
#1114=IFCLOCALPLACEMENT(#66,#1113);
#1115=IFCDOORTYPE('0ubP9k$KnCxQfi1H7HHcmD',$,'Unnamed',$,$,(#1116),(#1125,#1203,#1222),$,$,.DOOR.,.SINGLE_SWING_LEFT.,$,$);
#1116=IFCPROPERTYSET('1MUpTMzLv82hCEn7R3QKsG',$,'BBIM_Door',$,(#1117));
#1117=IFCPROPERTYSINGLEVALUE('Data',$,IFCTEXT('{"door_type": "SINGLE_SWING_LEFT", "overall_height": 2.0, "overall_width": 0.8999999761581421, "lining_properties": {"lining_depth": 0.05000000074505806, "lining_thickness": 0.05000000074505806, "lining_offset": 0.0, "lining_to_panel_offset_x": 0.02500000037252903, "lining_to_panel_offset_y": 0.02500000037252903, "transom_thickness": 0.0, "casing_thickness": 0.07500000298023224, "casing_depth": 0.004999999888241291, "threshold_thickness": 0.02500000037252903, "threshold_depth": 0.10000000149011612, "threshold_offset": 0.0}, "panel_properties": {"panel_depth": 0.03500000014901161, "panel_width_ratio": 1.0}}'),$);
#1118=IFCCARTESIANPOINTLIST3D(((0.,0.,0.),(0.899999976158142,0.,0.),(0.899999976158142,0.,2.),(0.,0.,2.)));
#1119=IFCINDEXEDPOLYCURVE(#1118,(IFCLINEINDEX((1,2,3,4,1))),$);
#1120=IFCSHAPEREPRESENTATION(#22,'Profile','Curve3D',(#1119));
#1121=IFCCARTESIANPOINT((0.,0.,0.));
#1122=IFCDIRECTION((1.,0.,0.));
#1123=IFCDIRECTION((0.,0.,1.));
#1124=IFCAXIS2PLACEMENT3D(#1121,#1123,#1122);
#1125=IFCREPRESENTATIONMAP(#1124,#1120);
#1126=IFCCARTESIANPOINTLIST2D(((0.,0.),(0.,2.),(0.899999976158142,2.),(0.899999976158142,0.),(0.874999975785613,0.),(0.874999975785613,1.97499999962747),(0.025000000372529,1.97499999962747),(0.025000000372529,0.)));
#1127=IFCINDEXEDPOLYCURVE(#1126,(IFCLINEINDEX((1,2,3,4,5,6,7,8,1))),$);
#1128=IFCARBITRARYCLOSEDPROFILEDEF(.AREA.,$,#1127);
#1129=IFCCARTESIANPOINT((0.,0.025000000372529,0.));
#1130=IFCDIRECTION((0.,-1.,0.));
#1131=IFCDIRECTION((1.,0.,0.));
#1132=IFCAXIS2PLACEMENT3D(#1129,#1130,#1131);
#1133=IFCDIRECTION((0.,0.,-1.));
#1134=IFCEXTRUDEDAREASOLID(#1128,#1132,#1133,0.025000000372529);
#1135=IFCCARTESIANPOINTLIST2D(((0.,0.),(0.,2.),(0.899999976158142,2.),(0.899999976158142,0.),(0.849999975413084,0.),(0.849999975413084,1.94999999925494),(0.0500000007450581,1.94999999925494),(0.0500000007450581,0.)));
#1136=IFCINDEXEDPOLYCURVE(#1135,(IFCLINEINDEX((1,2,3,4,5,6,7,8,1))),$);
#1137=IFCARBITRARYCLOSEDPROFILEDEF(.AREA.,$,#1136);
#1138=IFCCARTESIANPOINT((0.,0.,0.));
#1139=IFCDIRECTION((0.,-1.,0.));
#1140=IFCDIRECTION((1.,0.,0.));
#1141=IFCAXIS2PLACEMENT3D(#1138,#1139,#1140);
#1142=IFCDIRECTION((0.,0.,-1.));
#1143=IFCEXTRUDEDAREASOLID(#1137,#1141,#1142,0.025000000372529);
#1144=IFCCARTESIANPOINTLIST2D(((0.,0.),(0.799999974668026,0.),(0.799999974668026,0.100000001490116),(0.,0.100000001490116)));
#1145=IFCINDEXEDPOLYCURVE(#1144,(IFCLINEINDEX((1,2,3,4,1))),$);
#1146=IFCARBITRARYCLOSEDPROFILEDEF(.AREA.,$,#1145);
#1147=IFCCARTESIANPOINT((0.0500000007450581,0.,0.));
#1148=IFCDIRECTION((0.,0.,1.));
#1149=IFCDIRECTION((1.,0.,0.));
#1150=IFCAXIS2PLACEMENT3D(#1147,#1148,#1149);
#1151=IFCDIRECTION((0.,0.,1.));
#1152=IFCEXTRUDEDAREASOLID(#1146,#1150,#1151,0.025000000372529);
#1153=IFCCARTESIANPOINTLIST2D(((0.,0.),(0.,2.02500000223517),(0.94999998062849,2.02500000223517),(0.94999998062849,0.),(0.874999977648258,0.),(0.874999977648258,1.94999999925494),(0.0750000029802322,1.94999999925494),(0.0750000029802322,0.)));
#1154=IFCINDEXEDPOLYCURVE(#1153,(IFCLINEINDEX((1,2,3,4,5,6,7,8,1))),$);
#1155=IFCARBITRARYCLOSEDPROFILEDEF(.AREA.,$,#1154);
#1156=IFCCARTESIANPOINT((-0.0250000022351742,-0.00499999988824129,0.));
#1157=IFCDIRECTION((0.,-1.,0.));
#1158=IFCDIRECTION((1.,0.,0.));
#1159=IFCAXIS2PLACEMENT3D(#1156,#1157,#1158);
#1160=IFCDIRECTION((0.,0.,-1.));
#1161=IFCEXTRUDEDAREASOLID(#1155,#1159,#1160,0.00499999988824129);
#1162=IFCCARTESIANPOINTLIST2D(((0.,0.),(0.,2.02500000223517),(0.94999998062849,2.02500000223517),(0.94999998062849,0.),(0.899999978020787,0.),(0.899999978020787,1.97499999962747),(0.0500000026077032,1.97499999962747),(0.0500000026077032,0.)));
#1163=IFCINDEXEDPOLYCURVE(#1162,(IFCLINEINDEX((1,2,3,4,5,6,7,8,1))),$);
#1164=IFCARBITRARYCLOSEDPROFILEDEF(.AREA.,$,#1163);
#1165=IFCCARTESIANPOINT((-0.0250000022351742,0.0500000007450581,0.));
#1166=IFCDIRECTION((0.,-1.,0.));
#1167=IFCDIRECTION((1.,0.,0.));
#1168=IFCAXIS2PLACEMENT3D(#1165,#1166,#1167);
#1169=IFCDIRECTION((0.,0.,-1.));
#1170=IFCEXTRUDEDAREASOLID(#1164,#1168,#1169,0.00499999988824129);
#1171=IFCCARTESIANPOINTLIST2D(((0.,0.),(0.849999975413084,0.),(0.849999975413084,0.0350000001490116),(0.,0.0350000001490116)));
#1172=IFCINDEXEDPOLYCURVE(#1171,(IFCLINEINDEX((1,2,3,4,1))),$);
#1173=IFCARBITRARYCLOSEDPROFILEDEF(.AREA.,$,#1172);
#1174=IFCCARTESIANPOINT((0.025000000372529,0.025000000372529,0.025000000372529));
#1175=IFCDIRECTION((0.,0.,1.));
#1176=IFCDIRECTION((1.,0.,0.));
#1177=IFCAXIS2PLACEMENT3D(#1174,#1175,#1176);
#1178=IFCDIRECTION((0.,0.,1.));
#1179=IFCEXTRUDEDAREASOLID(#1173,#1177,#1178,1.94999999925494);
#1180=IFCCARTESIANPOINTLIST2D(((0.,0.),(0.,-0.04),(-0.12,-0.04),(-0.12,-0.02),(-0.02,-0.02),(-0.02,0.)));
#1181=IFCINDEXEDPOLYCURVE(#1180,(IFCLINEINDEX((1,2,3,4,5,6,1))),$);
#1182=IFCARBITRARYCLOSEDPROFILEDEF(.AREA.,$,#1181);
#1183=IFCCARTESIANPOINT((0.824999975785613,0.025000000372529,1.01500000037253));
#1184=IFCDIRECTION((0.,0.,1.));
#1185=IFCDIRECTION((1.,0.,0.));
#1186=IFCAXIS2PLACEMENT3D(#1183,#1184,#1185);
#1187=IFCDIRECTION((0.,0.,1.));
#1188=IFCEXTRUDEDAREASOLID(#1182,#1186,#1187,0.02);
#1189=IFCEXTRUDEDAREASOLID(#1190,#1193,#1197,0.02);
#1190=IFCARBITRARYCLOSEDPROFILEDEF(.AREA.,$,#1191);
#1191=IFCINDEXEDPOLYCURVE(#1192,(IFCLINEINDEX((1,2,3,4,5,6,1))),$);
#1192=IFCCARTESIANPOINTLIST2D(((0.,0.),(0.,0.04),(-0.12,0.04),(-0.12,0.02),(-0.02,0.02),(-0.02,0.)));
#1193=IFCAXIS2PLACEMENT3D(#1194,#1195,#1196);
#1194=IFCCARTESIANPOINT((0.824999975785613,0.0600000005215406,1.01500000037253));
#1195=IFCDIRECTION((0.,0.,1.));
#1196=IFCDIRECTION((1.,0.,0.));
#1197=IFCDIRECTION((0.,0.,1.));
#1198=IFCSHAPEREPRESENTATION(#15,'Body','SolidModel',(#1134,#1143,#1179,#1188,#1189,#1152,#1161,#1170));
#1199=IFCCARTESIANPOINT((0.,0.,0.));
#1200=IFCDIRECTION((1.,0.,0.));
#1201=IFCDIRECTION((0.,0.,1.));
#1202=IFCAXIS2PLACEMENT3D(#1199,#1201,#1200);
#1203=IFCREPRESENTATIONMAP(#1202,#1198);
#1204=IFCCARTESIANPOINTLIST2D(((0.,0.),(0.,0.0500000007450581),(0.025000000372529,0.0500000007450581),(0.025000000372529,0.025000000372529),(0.0500000007450581,0.025000000372529),(0.0500000007450581,0.)));
#1205=IFCINDEXEDPOLYCURVE(#1204,(IFCLINEINDEX((1,2,3,4,5,6,1))),$);
#1206=IFCINDEXEDPOLYCURVE(#1207,(IFCLINEINDEX((1,2,3,4,5,6,1))),$);
#1207=IFCCARTESIANPOINTLIST2D(((0.899999976158142,0.),(0.899999976158142,0.0500000007450581),(0.874999975785613,0.0500000007450581),(0.874999975785613,0.025000000372529),(0.849999975413084,0.025000000372529),(0.849999975413084,0.)));
#1208=IFCDIRECTION((1.,0.));
#1209=IFCCARTESIANPOINT((0.0600000005215406,0.0500000007450581));
#1210=IFCAXIS2PLACEMENT2D(#1209,#1208);
#1211=IFCELLIPSE(#1210,0.814999975264072,0.849999975413084);
#1212=IFCCARTESIANPOINT((0.874999975785613,0.0500000007450581));
#1213=IFCCARTESIANPOINT((0.0600000005215406,0.899999976158142));
#1214=IFCTRIMMEDCURVE(#1211,(#1212),(#1213),.T.,.CARTESIAN.);
#1215=IFCCARTESIANPOINTLIST2D(((0.025000000372529,0.0500000007450581),(0.0600000005215406,0.0500000007450581),(0.0600000005215406,0.899999976158142),(0.025000000372529,0.899999976158142)));
#1216=IFCINDEXEDPOLYCURVE(#1215,(IFCLINEINDEX((1,2,3,4,1))),$);
#1217=IFCSHAPEREPRESENTATION(#28,'Body','Curve2D',(#1205,#1206,#1214,#1216));
#1218=IFCCARTESIANPOINT((0.,0.,0.));
#1219=IFCDIRECTION((1.,0.,0.));
#1220=IFCDIRECTION((0.,0.,1.));
#1221=IFCAXIS2PLACEMENT3D(#1218,#1220,#1219);
#1222=IFCREPRESENTATIONMAP(#1221,#1217);
#1275=IFCDOOR('0S0NG4owH0uBivEhLsmS3F',$,'Door',$,$,#1308,#1284,$,2.,0.899999976158142,$,$,$);
#1276=IFCRELDEFINESBYTYPE('0mB92kn8P1EA9hfeHtmMHb',$,$,$,(#1698,#1675,#1275),#1115);
#1277=IFCCARTESIANPOINT((0.,0.,0.));
#1278=IFCDIRECTION((1.,0.,0.));
#1279=IFCDIRECTION((0.,1.,0.));
#1280=IFCDIRECTION((0.,0.,1.));
#1281=IFCCARTESIANTRANSFORMATIONOPERATOR3D(#1278,#1279,#1277,1.,#1280);
#1282=IFCMAPPEDITEM(#1125,#1281);
#1283=IFCSHAPEREPRESENTATION(#22,'Profile','MappedRepresentation',(#1282));
#1284=IFCPRODUCTDEFINITIONSHAPE($,$,(#1283,#1291,#1298));
#1285=IFCCARTESIANPOINT((0.,0.,0.));
#1286=IFCDIRECTION((1.,0.,0.));
#1287=IFCDIRECTION((0.,1.,0.));
#1288=IFCDIRECTION((0.,0.,1.));
#1289=IFCCARTESIANTRANSFORMATIONOPERATOR3D(#1286,#1287,#1285,1.,#1288);
#1290=IFCMAPPEDITEM(#1203,#1289);
#1291=IFCSHAPEREPRESENTATION(#15,'Body','MappedRepresentation',(#1290));
#1292=IFCCARTESIANPOINT((0.,0.,0.));
#1293=IFCDIRECTION((1.,0.,0.));
#1294=IFCDIRECTION((0.,1.,0.));
#1295=IFCDIRECTION((0.,0.,1.));
#1296=IFCCARTESIANTRANSFORMATIONOPERATOR3D(#1293,#1294,#1292,1.,#1295);
#1297=IFCMAPPEDITEM(#1222,#1296);
#1298=IFCSHAPEREPRESENTATION(#28,'Body','MappedRepresentation',(#1297));
#1304=IFCCARTESIANPOINT((3.99999976158142,2.02034997940063,1.97499990463257));
#1305=IFCDIRECTION((0.,0.,1.));
#1306=IFCDIRECTION((1.,0.,0.));
#1307=IFCAXIS2PLACEMENT3D(#1304,#1305,#1306);
#1308=IFCLOCALPLACEMENT(#66,#1307);
#1309=IFCWALL('02Muquci577gSyRTEwBQKK',$,'Wall',$,$,#1320,#1315,$,$);
#1310=IFCMATERIALLAYERSETUSAGE(#69,.AXIS2.,.POSITIVE.,0.,$);
#1311=IFCRELASSOCIATESMATERIAL('3XsoIWOu14sOnCeTgj0AeJ',$,$,$,(#1309),#1310);
#1315=IFCPRODUCTDEFINITIONSHAPE($,$,(#1601,#1625));
#1316=IFCCARTESIANPOINT((9.,0.,0.));
#1317=IFCDIRECTION((0.,0.,1.));
#1318=IFCDIRECTION((1.,0.,0.));
#1319=IFCAXIS2PLACEMENT3D(#1316,#1317,#1318);
#1320=IFCLOCALPLACEMENT(#66,#1319);
#1331=IFCPROPERTYSET('2OOXmLnTv5cfrqaIraVPyu',$,'EPset_Parametric',$,(#1333));
#1332=IFCRELDEFINESBYPROPERTIES('1YoQZxrm5APRWML6AvqEON',$,$,$,(#1309),#1331);
#1333=IFCPROPERTYSINGLEVALUE('Engine',$,IFCLABEL('Bonsai.DumbLayer2'),$);
#1334=IFCWALL('3EYHkFVyz5Jf9ihLa8vHiy',$,'Wall',$,$,#1345,#1340,$,$);
#1335=IFCMATERIALLAYERSETUSAGE(#69,.AXIS2.,.POSITIVE.,0.,$);
#1336=IFCRELASSOCIATESMATERIAL('0ba$VQr5fAkR_VHMC_sAbG',$,$,$,(#1334),#1335);
#1340=IFCPRODUCTDEFINITIONSHAPE($,$,(#1525,#1549));
#1341=IFCCARTESIANPOINT((18.,0.,0.));
#1342=IFCDIRECTION((0.,0.,1.));
#1343=IFCDIRECTION((7.54979012640431E-08,0.999999999999997,0.));
#1344=IFCAXIS2PLACEMENT3D(#1341,#1342,#1343);
#1345=IFCLOCALPLACEMENT(#66,#1344);
#1356=IFCPROPERTYSET('01n9RhM0j3OwRmVWoIULVn',$,'EPset_Parametric',$,(#1358));
#1357=IFCRELDEFINESBYPROPERTIES('3rmCUz83H5JhCkWhvgSRnG',$,$,$,(#1334),#1356);
#1358=IFCPROPERTYSINGLEVALUE('Engine',$,IFCLABEL('Bonsai.DumbLayer2'),$);
#1359=IFCWALL('02Srpfe5zBXvw$MMAqbp8a',$,'Wall',$,$,#1370,#1365,$,$);
#1360=IFCMATERIALLAYERSETUSAGE(#69,.AXIS2.,.POSITIVE.,0.,$);
#1361=IFCRELASSOCIATESMATERIAL('1wW6zqV6TC7PV93Mu4mH96',$,$,$,(#1359),#1360);
#1365=IFCPRODUCTDEFINITIONSHAPE($,$,(#1573,#1597));
#1366=IFCCARTESIANPOINT((18.,10.,0.));
#1367=IFCDIRECTION((0.,0.,1.));
#1368=IFCDIRECTION((-0.999999999999996,8.74227765734755E-08,0.));
#1369=IFCAXIS2PLACEMENT3D(#1366,#1367,#1368);
#1370=IFCLOCALPLACEMENT(#66,#1369);
#1381=IFCPROPERTYSET('2WsRDI$yH5p8V9sBk_GlQP',$,'EPset_Parametric',$,(#1383));
#1382=IFCRELDEFINESBYPROPERTIES('0aE5AREcbE_Oq$ZDs4SU3L',$,$,$,(#1359),#1381);
#1383=IFCPROPERTYSINGLEVALUE('Engine',$,IFCLABEL('Bonsai.DumbLayer2'),$);
#1384=IFCWALL('256nAo9CvB8usTeZVQc$hL',$,'Wall',$,$,#1395,#1390,$,$);
#1385=IFCMATERIALLAYERSETUSAGE(#69,.AXIS2.,.POSITIVE.,0.,$);
#1386=IFCRELASSOCIATESMATERIAL('2A64oL5RP6iAQqCL1Fk2uM',$,$,$,(#1384),#1385);
#1390=IFCPRODUCTDEFINITIONSHAPE($,$,(#1628,#1652));
#1391=IFCCARTESIANPOINT((9.00000190734863,10.,0.));
#1392=IFCDIRECTION((0.,0.,1.));
#1393=IFCDIRECTION((-1.62920684942944E-07,-0.999999999999987,0.));
#1394=IFCAXIS2PLACEMENT3D(#1391,#1392,#1393);
#1395=IFCLOCALPLACEMENT(#66,#1394);
#1406=IFCPROPERTYSET('2cBBBlD456O9rFNbwRHJ4x',$,'EPset_Parametric',$,(#1408));
#1407=IFCRELDEFINESBYPROPERTIES('0k9ILnsbHETeEoxqw457AU',$,$,$,(#1384),#1406);
#1408=IFCPROPERTYSINGLEVALUE('Engine',$,IFCLABEL('Bonsai.DumbLayer2'),$);
#1461=IFCRELCONNECTSPATHELEMENTS('1onWh45wL6JgmsuSxyoHd7',$,$,'MITRE',$,#1334,#1309,(),(),.ATEND.,.ATSTART.);
#1502=IFCRELCONNECTSPATHELEMENTS('0aZDRWOS163POLZDISZVR8',$,$,'MITRE',$,#1359,#1334,(),(),.ATEND.,.ATSTART.);
#1523=IFCCARTESIANPOINTLIST2D(((0.,0.),(10.,-6.75532646710053E-07)));
#1524=IFCINDEXEDPOLYCURVE(#1523,$,.F.);
#1525=IFCSHAPEREPRESENTATION(#27,'Axis','Curve2D',(#1524));
#1526=IFCCARTESIANPOINTLIST2D(((0.,0.),(0.,0.1),(10.0000000000007,0.1),(10.0000000000007,0.),(0.,0.)));
#1527=IFCINDEXEDPOLYCURVE(#1526,$,.F.);
#1528=IFCDIRECTION((0.,0.,1.));
#1529=IFCARBITRARYCLOSEDPROFILEDEF(.AREA.,$,#1527);
#1530=IFCCARTESIANPOINT((0.,0.,0.));
#1531=IFCDIRECTION((0.,0.,1.));
#1532=IFCDIRECTION((1.,0.,0.));
#1533=IFCAXIS2PLACEMENT3D(#1530,#1531,#1532);
#1534=IFCEXTRUDEDAREASOLID(#1529,#1533,#1528,2.);
#1535=IFCCARTESIANPOINT((10.,-6.75532646710053E-07,0.));
#1536=IFCDIRECTION((0.707106530666351,0.70710700750351,0.));
#1537=IFCDIRECTION((0.70710701960509,-0.707106542767924,0.));
#1538=IFCAXIS2PLACEMENT3D(#1535,#1536,#1537);
#1539=IFCPLANE(#1538);
#1540=IFCHALFSPACESOLID(#1539,.F.);
#1541=IFCBOOLEANCLIPPINGRESULT(.DIFFERENCE.,#1534,#1540);
#1542=IFCCARTESIANPOINT((0.,0.,0.));
#1543=IFCDIRECTION((-0.707108318805695,0.707105159759521,0.));
#1544=IFCDIRECTION((0.707105201661603,0.707108360707964,-0.));
#1545=IFCAXIS2PLACEMENT3D(#1542,#1543,#1544);
#1546=IFCPLANE(#1545);
#1547=IFCHALFSPACESOLID(#1546,.F.);
#1548=IFCBOOLEANCLIPPINGRESULT(.DIFFERENCE.,#1541,#1547);
#1549=IFCSHAPEREPRESENTATION(#15,'Body','Clipping',(#1548));
#1550=IFCRELCONNECTSPATHELEMENTS('3S5wwm2JT1BQTiHh5TFJo9',$,$,'MITRE',$,#1384,#1359,(),(),.ATEND.,.ATSTART.);
#1571=IFCCARTESIANPOINTLIST2D(((-3.97390635953343E-07,1.43097850013874E-07),(9.00000190734863,5.48386083210062E-07)));
#1572=IFCINDEXEDPOLYCURVE(#1571,$,.F.);
#1573=IFCSHAPEREPRESENTATION(#27,'Axis','Curve2D',(#1572));
#1574=IFCCARTESIANPOINTLIST2D(((0.,0.),(0.,0.1),(9.00000211927606,0.1),(9.00000211927606,0.),(0.,0.)));
#1575=IFCINDEXEDPOLYCURVE(#1574,$,.F.);
#1576=IFCDIRECTION((0.,0.,1.));
#1577=IFCARBITRARYCLOSEDPROFILEDEF(.AREA.,$,#1575);
#1578=IFCCARTESIANPOINT((0.,0.,0.));
#1579=IFCDIRECTION((0.,0.,1.));
#1580=IFCDIRECTION((1.,0.,0.));
#1581=IFCAXIS2PLACEMENT3D(#1578,#1579,#1580);
#1582=IFCEXTRUDEDAREASOLID(#1577,#1581,#1576,2.);
#1583=IFCCARTESIANPOINT((9.00000190734863,5.48386083210062E-07,0.));
#1584=IFCDIRECTION((0.707106649875641,0.70710688829422,0.));
#1585=IFCDIRECTION((0.707106900395829,-0.707106661977246,0.));
#1586=IFCAXIS2PLACEMENT3D(#1583,#1584,#1585);
#1587=IFCPLANE(#1586);
#1588=IFCHALFSPACESOLID(#1587,.F.);
#1589=IFCBOOLEANCLIPPINGRESULT(.DIFFERENCE.,#1582,#1588);
#1590=IFCCARTESIANPOINT((-3.97390635953343E-07,1.43097850013874E-07,0.));
#1591=IFCDIRECTION((-0.70710688829422,0.707106649875641,0.));
#1592=IFCDIRECTION((0.707106661977246,0.707106900395829,-0.));
#1593=IFCAXIS2PLACEMENT3D(#1590,#1591,#1592);
#1594=IFCPLANE(#1593);
#1595=IFCHALFSPACESOLID(#1594,.F.);
#1596=IFCBOOLEANCLIPPINGRESULT(.DIFFERENCE.,#1589,#1595);
#1597=IFCSHAPEREPRESENTATION(#15,'Body','Clipping',(#1596));
#1598=IFCRELCONNECTSPATHELEMENTS('1CB$6CFwT6KPQ16DY$baat',$,$,'MITRE',$,#1309,#1384,(),(),.ATEND.,.ATSTART.);
#1599=IFCCARTESIANPOINTLIST2D(((0.,0.),(8.99999618530273,0.)));
#1600=IFCINDEXEDPOLYCURVE(#1599,$,.F.);
#1601=IFCSHAPEREPRESENTATION(#27,'Axis','Curve2D',(#1600));
#1602=IFCCARTESIANPOINTLIST2D(((0.,0.),(0.,0.1),(8.99999618530193,0.1),(8.99999618530193,0.),(0.,0.)));
#1603=IFCINDEXEDPOLYCURVE(#1602,$,.F.);
#1604=IFCDIRECTION((0.,0.,1.));
#1605=IFCARBITRARYCLOSEDPROFILEDEF(.AREA.,$,#1603);
#1606=IFCCARTESIANPOINT((0.,0.,0.));
#1607=IFCDIRECTION((0.,0.,1.));
#1608=IFCDIRECTION((1.,0.,0.));
#1609=IFCAXIS2PLACEMENT3D(#1606,#1607,#1608);
#1610=IFCEXTRUDEDAREASOLID(#1605,#1609,#1604,2.);
#1611=IFCCARTESIANPOINT((8.99999618530273,0.,0.));
#1612=IFCDIRECTION((0.707105398178101,0.707108080387115,0.));
#1613=IFCDIRECTION((0.707108122289863,-0.707105440080689,0.));
#1614=IFCAXIS2PLACEMENT3D(#1611,#1612,#1613);
#1615=IFCPLANE(#1614);
#1616=IFCHALFSPACESOLID(#1615,.F.);
#1617=IFCBOOLEANCLIPPINGRESULT(.DIFFERENCE.,#1610,#1616);
#1618=IFCCARTESIANPOINT((0.,0.,0.));
#1619=IFCDIRECTION((-0.707105398178101,0.707108080387115,0.));
#1620=IFCDIRECTION((0.707108122289863,0.707105440080689,-0.));
#1621=IFCAXIS2PLACEMENT3D(#1618,#1619,#1620);
#1622=IFCPLANE(#1621);
#1623=IFCHALFSPACESOLID(#1622,.F.);
#1624=IFCBOOLEANCLIPPINGRESULT(.DIFFERENCE.,#1617,#1623);
#1625=IFCSHAPEREPRESENTATION(#15,'Body','Clipping',(#1624));
#1626=IFCCARTESIANPOINTLIST2D(((-3.57740645995364E-08,2.78142124443548E-07),(10.0000009536743,-9.5367431640625E-07)));
#1627=IFCINDEXEDPOLYCURVE(#1626,$,.F.);
#1628=IFCSHAPEREPRESENTATION(#27,'Axis','Curve2D',(#1627));
#1629=IFCCARTESIANPOINTLIST2D(((0.,0.),(0.,0.1),(10.0000011444093,0.1),(10.0000011444093,0.),(0.,0.)));
#1630=IFCINDEXEDPOLYCURVE(#1629,$,.F.);
#1631=IFCDIRECTION((0.,0.,1.));
#1632=IFCARBITRARYCLOSEDPROFILEDEF(.AREA.,$,#1630);
#1633=IFCCARTESIANPOINT((0.,0.,0.));
#1634=IFCDIRECTION((0.,0.,1.));
#1635=IFCDIRECTION((1.,0.,0.));
#1636=IFCAXIS2PLACEMENT3D(#1633,#1634,#1635);
#1637=IFCEXTRUDEDAREASOLID(#1632,#1636,#1631,2.);
#1638=IFCCARTESIANPOINT((10.0000009536743,-9.5367431640625E-07,0.));
#1639=IFCDIRECTION((0.707108318805695,0.707105159759521,0.));
#1640=IFCDIRECTION((0.707105201661603,-0.707108360707964,0.));
#1641=IFCAXIS2PLACEMENT3D(#1638,#1639,#1640);
#1642=IFCPLANE(#1641);
#1643=IFCHALFSPACESOLID(#1642,.F.);
#1644=IFCBOOLEANCLIPPINGRESULT(.DIFFERENCE.,#1637,#1643);
#1645=IFCCARTESIANPOINT((-3.57740645995364E-08,2.78142124443548E-07,0.));
#1646=IFCDIRECTION((-0.707106530666351,0.70710700750351,0.));
#1647=IFCDIRECTION((0.70710701960509,0.707106542767924,-0.));
#1648=IFCAXIS2PLACEMENT3D(#1645,#1646,#1647);
#1649=IFCPLANE(#1648);
#1650=IFCHALFSPACESOLID(#1649,.F.);
#1651=IFCBOOLEANCLIPPINGRESULT(.DIFFERENCE.,#1644,#1650);
#1652=IFCSHAPEREPRESENTATION(#15,'Body','Clipping',(#1651));
#1653=IFCSLAB('2Vy7BvX8X48QjKkyj4BCXr',$,'Slab',$,$,#2364,#1667,$,$);
#1654=IFCMATERIALLAYERSETUSAGE(#421,.AXIS3.,.POSITIVE.,-0.100000001490116,$);
#1655=IFCRELASSOCIATESMATERIAL('334Fkk3in3B8GFNdQBqI4T',$,$,$,(#1653),#1654);
#1661=IFCCARTESIANPOINTLIST2D(((0.,0.),(8.79999542236328,0.),(8.79999923706055,9.79999923706055),(-1.9073486328125E-06,9.80000114440918),(0.,0.)));
#1662=IFCINDEXEDPOLYCURVE(#1661,$,$);
#1663=IFCDIRECTION((0.,-0.,1.));
#1664=IFCARBITRARYCLOSEDPROFILEDEF(.AREA.,$,#1662);
#1665=IFCEXTRUDEDAREASOLID(#1664,#1674,#1663,0.1);
#1666=IFCSHAPEREPRESENTATION(#15,'Body','SweptSolid',(#1665));
#1667=IFCPRODUCTDEFINITIONSHAPE($,$,(#1666));
#1668=IFCPROPERTYSET('1fGGjKX7bC28RzcuL6Qp7a',$,'EPset_Parametric',$,(#1670));
#1669=IFCRELDEFINESBYPROPERTIES('3WwuNffq9CMgHpN4d5FhUp',$,$,$,(#1653),#1668);
#1670=IFCPROPERTYSINGLEVALUE('Engine',$,IFCLABEL('Bonsai.DumbLayer3'),$);
#1671=IFCCARTESIANPOINT((0.,0.,-0.100000001490116));
#1672=IFCDIRECTION((0.,0.,1.));
#1673=IFCDIRECTION((1.,0.,0.));
#1674=IFCAXIS2PLACEMENT3D(#1671,#1672,#1673);
#1675=IFCDOOR('0ESY8acebCD9KC_SRxdRoR',$,'Door',$,$,#2354,#1683,$,2.,0.899999976158142,$,$,$);
#1676=IFCCARTESIANPOINT((0.,0.,0.));
#1677=IFCDIRECTION((1.,0.,0.));
#1678=IFCDIRECTION((0.,1.,0.));
#1679=IFCDIRECTION((0.,0.,1.));
#1680=IFCCARTESIANTRANSFORMATIONOPERATOR3D(#1677,#1678,#1676,1.,#1679);
#1681=IFCMAPPEDITEM(#1125,#1680);
#1682=IFCSHAPEREPRESENTATION(#22,'Profile','MappedRepresentation',(#1681));
#1683=IFCPRODUCTDEFINITIONSHAPE($,$,(#1682,#1690,#1697));
#1684=IFCCARTESIANPOINT((0.,0.,0.));
#1685=IFCDIRECTION((1.,0.,0.));
#1686=IFCDIRECTION((0.,1.,0.));
#1687=IFCDIRECTION((0.,0.,1.));
#1688=IFCCARTESIANTRANSFORMATIONOPERATOR3D(#1685,#1686,#1684,1.,#1687);
#1689=IFCMAPPEDITEM(#1203,#1688);
#1690=IFCSHAPEREPRESENTATION(#15,'Body','MappedRepresentation',(#1689));
#1691=IFCCARTESIANPOINT((0.,0.,0.));
#1692=IFCDIRECTION((1.,0.,0.));
#1693=IFCDIRECTION((0.,1.,0.));
#1694=IFCDIRECTION((0.,0.,1.));
#1695=IFCCARTESIANTRANSFORMATIONOPERATOR3D(#1692,#1693,#1691,1.,#1694);
#1696=IFCMAPPEDITEM(#1222,#1695);
#1697=IFCSHAPEREPRESENTATION(#28,'Body','MappedRepresentation',(#1696));
#1698=IFCDOOR('3xuUtrQBT7shhrA3mjVmkT',$,'Door',$,$,#2359,#1706,$,2.,0.899999976158142,$,$,$);
#1699=IFCCARTESIANPOINT((0.,0.,0.));
#1700=IFCDIRECTION((1.,0.,0.));
#1701=IFCDIRECTION((0.,1.,0.));
#1702=IFCDIRECTION((0.,0.,1.));
#1703=IFCCARTESIANTRANSFORMATIONOPERATOR3D(#1700,#1701,#1699,1.,#1702);
#1704=IFCMAPPEDITEM(#1125,#1703);
#1705=IFCSHAPEREPRESENTATION(#22,'Profile','MappedRepresentation',(#1704));
#1706=IFCPRODUCTDEFINITIONSHAPE($,$,(#1705,#1713,#1720));
#1707=IFCCARTESIANPOINT((0.,0.,0.));
#1708=IFCDIRECTION((1.,0.,0.));
#1709=IFCDIRECTION((0.,1.,0.));
#1710=IFCDIRECTION((0.,0.,1.));
#1711=IFCCARTESIANTRANSFORMATIONOPERATOR3D(#1708,#1709,#1707,1.,#1710);
#1712=IFCMAPPEDITEM(#1203,#1711);
#1713=IFCSHAPEREPRESENTATION(#15,'Body','MappedRepresentation',(#1712));
#1714=IFCCARTESIANPOINT((0.,0.,0.));
#1715=IFCDIRECTION((1.,0.,0.));
#1716=IFCDIRECTION((0.,1.,0.));
#1717=IFCDIRECTION((0.,0.,1.));
#1718=IFCCARTESIANTRANSFORMATIONOPERATOR3D(#1715,#1716,#1714,1.,#1717);
#1719=IFCMAPPEDITEM(#1222,#1718);
#1720=IFCSHAPEREPRESENTATION(#28,'Body','MappedRepresentation',(#1719));
#1934=IFCWALL('2HFVV8Dn19pOYE9OqImYLN',$,'Wall',$,$,#1945,#1940,$,$);
#1935=IFCMATERIALLAYERSETUSAGE(#69,.AXIS2.,.POSITIVE.,0.,$);
#1936=IFCRELASSOCIATESMATERIAL('1NkNrRh7X4HAS6uaN1P9EC',$,$,$,(#1934),#1935);
#1940=IFCPRODUCTDEFINITIONSHAPE($,$,(#2076,#2093));
#1941=IFCCARTESIANPOINT((11.9750003814697,2.01534986495972,2.));
#1942=IFCDIRECTION((0.,0.,1.));
#1943=IFCDIRECTION((-0.997802971612295,0.0662512629439889,0.));
#1944=IFCAXIS2PLACEMENT3D(#1941,#1942,#1943);
#1945=IFCLOCALPLACEMENT(#66,#1944);
#1956=IFCPROPERTYSET('1DMz7U4Ez1Ge_jFoIuKKtJ',$,'EPset_Parametric',$,(#1958));
#1957=IFCRELDEFINESBYPROPERTIES('09vKQxPL1CUeB7002rVKyI',$,$,$,(#1934),#1956);
#1958=IFCPROPERTYSINGLEVALUE('Engine',$,IFCLABEL('Bonsai.DumbLayer2'),$);
#1959=IFCWALL('0YZJUTYyTBPeUJQRrrdE0I',$,'Wall',$,$,#2073,#1965,$,$);
#1960=IFCMATERIALLAYERSETUSAGE(#69,.AXIS2.,.POSITIVE.,0.,$);
#1961=IFCRELASSOCIATESMATERIAL('0_Otfc2G9FpxbqxrmQ3pGz',$,$,$,(#1959),#1960);
#1965=IFCPRODUCTDEFINITIONSHAPE($,$,(#2122,#2146));
#1981=IFCPROPERTYSET('3WbuBcJq9C2e2DFa1fiA5Q',$,'EPset_Parametric',$,(#1983));
#1982=IFCRELDEFINESBYPROPERTIES('2WhwPSYpr7eBGhFPWN1wJo',$,$,$,(#1959),#1981);
#1983=IFCPROPERTYSINGLEVALUE('Engine',$,IFCLABEL('Bonsai.DumbLayer2'),$);
#1984=IFCWALL('0IqC5ic6X42uzaiM6FxOQ2',$,'Wall',$,$,#2119,#1990,$,$);
#1985=IFCMATERIALLAYERSETUSAGE(#69,.AXIS2.,.POSITIVE.,0.,$);
#1986=IFCRELASSOCIATESMATERIAL('1tXYCbjS18YOnIjYoWmOio',$,$,$,(#1984),#1985);
#1990=IFCPRODUCTDEFINITIONSHAPE($,$,(#2097,#2114));
#2006=IFCPROPERTYSET('0iFbTrzAnEBBITu$_$5BQ1',$,'EPset_Parametric',$,(#2008));
#2007=IFCRELDEFINESBYPROPERTIES('22fmHSg4nFUu5vXHYupcz3',$,$,$,(#1984),#2006);
#2008=IFCPROPERTYSINGLEVALUE('Engine',$,IFCLABEL('Bonsai.DumbLayer2'),$);
#2048=IFCRELCONNECTSPATHELEMENTS('2NDpbGDHDFJxB27Y4JjB0C',$,$,'MITRE',$,#1959,#1934,(),(),.ATEND.,.ATSTART.);
#2069=IFCCARTESIANPOINT((10.1358728408813,2.03724241256714,2.));
#2070=IFCDIRECTION((0.,0.,1.));
#2071=IFCDIRECTION((-0.0454210297753706,0.998967932445354,0.));
#2072=IFCAXIS2PLACEMENT3D(#2069,#2070,#2071);
#2073=IFCLOCALPLACEMENT(#66,#2072);
#2074=IFCCARTESIANPOINTLIST2D(((2.98023223876953E-07,1.19209289550781E-07),(1.84775876998901,4.17232513427734E-07)));
#2075=IFCINDEXEDPOLYCURVE(#2074,$,.F.);
#2076=IFCSHAPEREPRESENTATION(#27,'Axis','Curve2D',(#2075));
#2077=IFCCARTESIANPOINTLIST2D(((0.,0.),(0.,0.1),(1.94838390456352,0.1),(1.94838390456352,0.),(0.,0.)));
#2078=IFCINDEXEDPOLYCURVE(#2077,$,.F.);
#2079=IFCDIRECTION((0.,0.,1.));
#2080=IFCARBITRARYCLOSEDPROFILEDEF(.AREA.,$,#2078);
#2081=IFCCARTESIANPOINT((0.,0.,0.));
#2082=IFCDIRECTION((0.,0.,1.));
#2083=IFCDIRECTION((1.,0.,0.));
#2084=IFCAXIS2PLACEMENT3D(#2081,#2082,#2083);
#2085=IFCEXTRUDEDAREASOLID(#2080,#2084,#2079,2.);
#2086=IFCCARTESIANPOINT((1.84775686264038,2.98023223876953E-07,-2.));
#2087=IFCDIRECTION((0.745485246181488,-0.666522085666656,0.));
#2088=IFCDIRECTION((-0.666522104677299,-0.74548526744433,0.));
#2089=IFCAXIS2PLACEMENT3D(#2086,#2087,#2088);
#2090=IFCPLANE(#2089);
#2091=IFCHALFSPACESOLID(#2090,.F.);
#2092=IFCBOOLEANCLIPPINGRESULT(.DIFFERENCE.,#2085,#2091);
#2093=IFCSHAPEREPRESENTATION(#15,'Body','Clipping',(#2092));
#2094=IFCRELCONNECTSPATHELEMENTS('3JGVjtgl1CkeAl5Y4qrbO7',$,$,'MITRE',$,#1984,#1959,(),(),.ATEND.,.ATSTART.);
#2095=IFCCARTESIANPOINTLIST2D(((0.106724075973034,-2.08616256713867E-07),(1.27456557750702,-2.08616256713867E-07)));
#2096=IFCINDEXEDPOLYCURVE(#2095,$,.F.);
#2097=IFCSHAPEREPRESENTATION(#27,'Axis','Curve2D',(#2096));
#2098=IFCCARTESIANPOINTLIST2D(((0.,0.),(0.,0.1),(1.27456501543124,0.1),(1.27456501543124,0.),(0.,0.)));
#2099=IFCINDEXEDPOLYCURVE(#2098,$,.F.);
#2100=IFCDIRECTION((0.,0.,1.));
#2101=IFCARBITRARYCLOSEDPROFILEDEF(.AREA.,$,#2099);
#2102=IFCCARTESIANPOINT((0.,0.,0.));
#2103=IFCDIRECTION((0.,0.,1.));
#2104=IFCDIRECTION((1.,0.,0.));
#2105=IFCAXIS2PLACEMENT3D(#2102,#2103,#2104);
#2106=IFCEXTRUDEDAREASOLID(#2101,#2105,#2100,2.);
#2107=IFCCARTESIANPOINT((0.10672502219677,2.83122062683105E-07,-2.));
#2108=IFCDIRECTION((-0.6837437748909,-0.729722201824188,0.));
#2109=IFCDIRECTION((-0.729722186668881,0.6837437606905,0.));
#2110=IFCAXIS2PLACEMENT3D(#2107,#2108,#2109);
#2111=IFCPLANE(#2110);
#2112=IFCHALFSPACESOLID(#2111,.F.);
#2113=IFCBOOLEANCLIPPINGRESULT(.DIFFERENCE.,#2106,#2112);
#2114=IFCSHAPEREPRESENTATION(#15,'Body','Clipping',(#2113));
#2115=IFCCARTESIANPOINT((9.85067939758301,5.96495914459229,2.));
#2116=IFCDIRECTION((0.,0.,1.));
#2117=IFCDIRECTION((0.999808245435921,-0.0195824502640826,0.));
#2118=IFCAXIS2PLACEMENT3D(#2115,#2116,#2117);
#2119=IFCLOCALPLACEMENT(#66,#2118);
#2120=IFCCARTESIANPOINTLIST2D(((0.100627303123474,-2.38418579101562E-07),(3.92968225479126,9.83476638793945E-07)));
#2121=IFCINDEXEDPOLYCURVE(#2120,$,.F.);
#2122=IFCSHAPEREPRESENTATION(#27,'Axis','Curve2D',(#2121));
#2123=IFCCARTESIANPOINTLIST2D(((0.,0.),(0.,0.1),(4.03640578994598,0.1),(4.03640578994598,0.),(0.,0.)));
#2124=IFCINDEXEDPOLYCURVE(#2123,$,.F.);
#2125=IFCDIRECTION((0.,0.,1.));
#2126=IFCARBITRARYCLOSEDPROFILEDEF(.AREA.,$,#2124);
#2127=IFCCARTESIANPOINT((0.,0.,0.));
#2128=IFCDIRECTION((0.,0.,1.));
#2129=IFCDIRECTION((1.,0.,0.));
#2130=IFCAXIS2PLACEMENT3D(#2127,#2128,#2129);
#2131=IFCEXTRUDEDAREASOLID(#2126,#2130,#2125,2.);
#2132=IFCCARTESIANPOINT((3.92968368530273,-2.98023223876953E-08,-2.));
#2133=IFCDIRECTION((0.683757722377777,-0.729709148406982,0.));
#2134=IFCDIRECTION((-0.729709124990584,-0.683757700435962,0.));
#2135=IFCAXIS2PLACEMENT3D(#2132,#2133,#2134);
#2136=IFCPLANE(#2135);
#2137=IFCHALFSPACESOLID(#2136,.F.);
#2138=IFCBOOLEANCLIPPINGRESULT(.DIFFERENCE.,#2131,#2137);
#2139=IFCCARTESIANPOINT((0.100627541542053,-2.45869159698486E-07,-2.));
#2140=IFCDIRECTION((-0.745494425296783,-0.666511833667755,0.));
#2141=IFCDIRECTION((-0.666511846142279,0.745494439249556,0.));
#2142=IFCAXIS2PLACEMENT3D(#2139,#2140,#2141);
#2143=IFCPLANE(#2142);
#2144=IFCHALFSPACESOLID(#2143,.F.);
#2145=IFCBOOLEANCLIPPINGRESULT(.DIFFERENCE.,#2138,#2144);
#2146=IFCSHAPEREPRESENTATION(#15,'Body','Clipping',(#2145));
#2147=IFCWALL('1G0FpsMJHDmAXizLeLLY2h',$,'Wall',$,$,#2158,#2153,$,$);
#2148=IFCMATERIALLAYERSETUSAGE(#69,.AXIS2.,.POSITIVE.,0.,$);
#2149=IFCRELASSOCIATESMATERIAL('1bqbDLWZ91nwiWIJcUGxiK',$,$,$,(#2147),#2148);
#2153=IFCPRODUCTDEFINITIONSHAPE($,$,(#2284,#2301));
#2154=IFCCARTESIANPOINT((12.9250001907349,2.01534986495972,2.));
#2155=IFCDIRECTION((0.,0.,1.));
#2156=IFCDIRECTION((0.999999614892679,0.000877618649141041,0.));
#2157=IFCAXIS2PLACEMENT3D(#2154,#2155,#2156);
#2158=IFCLOCALPLACEMENT(#66,#2157);
#2169=IFCPROPERTYSET('3rqxlOMFDAwxt7FSxlXvPP',$,'EPset_Parametric',$,(#2171));
#2170=IFCRELDEFINESBYPROPERTIES('0RUdCtKTHFCRsgKhllKWu$',$,$,$,(#2147),#2169);
#2171=IFCPROPERTYSINGLEVALUE('Engine',$,IFCLABEL('Bonsai.DumbLayer2'),$);
#2172=IFCWALL('1h9skUsCn47AQfG0YFxxxy',$,'Wall',$,$,#2183,#2178,$,$);
#2173=IFCMATERIALLAYERSETUSAGE(#69,.AXIS2.,.POSITIVE.,0.,$);
#2174=IFCRELASSOCIATESMATERIAL('1pD42Orw1CWev$3a34kWaj',$,$,$,(#2172),#2173);
#2178=IFCPRODUCTDEFINITIONSHAPE($,$,(#2325,#2349));
#2179=IFCCARTESIANPOINT((16.1634902954102,2.01819181442261,2.));
#2180=IFCDIRECTION((0.,0.,1.));
#2181=IFCDIRECTION((-0.0707544104112727,0.997493766099495,0.));
#2182=IFCAXIS2PLACEMENT3D(#2179,#2180,#2181);
#2183=IFCLOCALPLACEMENT(#66,#2182);
#2194=IFCPROPERTYSET('3$$QOorO582e0InMzxGCkC',$,'EPset_Parametric',$,(#2196));
#2195=IFCRELDEFINESBYPROPERTIES('2SlV3GNIf2sv5HflYx10k7',$,$,$,(#2172),#2194);
#2196=IFCPROPERTYSINGLEVALUE('Engine',$,IFCLABEL('Bonsai.DumbLayer2'),$);
#2197=IFCWALL('3OFNsIhuvAsBjt7mPuQdOx',$,'Wall',$,$,#2208,#2203,$,$);
#2198=IFCMATERIALLAYERSETUSAGE(#69,.AXIS2.,.POSITIVE.,0.,$);
#2199=IFCRELASSOCIATESMATERIAL('2LjMCEPuH7sgxFiedWDaV4',$,$,$,(#2197),#2198);
#2203=IFCPRODUCTDEFINITIONSHAPE($,$,(#2305,#2322));
#2204=IFCCARTESIANPOINT((15.7724752426147,7.53070640563965,2.));
#2205=IFCDIRECTION((0.,0.,1.));
#2206=IFCDIRECTION((-0.926625918450746,-0.375984583800069,0.));
#2207=IFCAXIS2PLACEMENT3D(#2204,#2205,#2206);
#2208=IFCLOCALPLACEMENT(#66,#2207);
#2219=IFCPROPERTYSET('25FzrsnybCahFHk5eH2QAQ',$,'EPset_Parametric',$,(#2221));
#2220=IFCRELDEFINESBYPROPERTIES('0llm6D_c5DDQxQZlt84wqg',$,$,$,(#2197),#2219);
#2221=IFCPROPERTYSINGLEVALUE('Engine',$,IFCLABEL('Bonsai.DumbLayer2'),$);
#2261=IFCRELCONNECTSPATHELEMENTS('28cax87hT2BgG5Mydvb3PB',$,$,'MITRE',$,#2172,#2147,(),(),.ATEND.,.ATSTART.);
#2282=IFCCARTESIANPOINTLIST2D(((-3.57511453330517E-07,2.1420419216156E-08),(3.23849129676819,5.02914190292358E-08)));
#2283=IFCINDEXEDPOLYCURVE(#2282,$,.F.);
#2284=IFCSHAPEREPRESENTATION(#27,'Axis','Curve2D',(#2283));
#2285=IFCCARTESIANPOINTLIST2D(((0.,0.),(0.,0.1),(3.23849129106659,0.1),(3.23849129106659,0.),(0.,0.)));
#2286=IFCINDEXEDPOLYCURVE(#2285,$,.F.);
#2287=IFCDIRECTION((0.,0.,1.));
#2288=IFCARBITRARYCLOSEDPROFILEDEF(.AREA.,$,#2286);
#2289=IFCCARTESIANPOINT((0.,0.,0.));
#2290=IFCDIRECTION((0.,0.,1.));
#2291=IFCDIRECTION((1.,0.,0.));
#2292=IFCAXIS2PLACEMENT3D(#2289,#2290,#2291);
#2293=IFCEXTRUDEDAREASOLID(#2288,#2292,#2287,2.);
#2294=IFCCARTESIANPOINT((3.23849129676819,2.88709998130798E-07,-2.));
#2295=IFCDIRECTION((0.681958198547363,0.731391251087189,0.));
#2296=IFCDIRECTION((0.731391197427634,-0.681958148514534,0.));
#2297=IFCAXIS2PLACEMENT3D(#2294,#2295,#2296);
#2298=IFCPLANE(#2297);
#2299=IFCHALFSPACESOLID(#2298,.F.);
#2300=IFCBOOLEANCLIPPINGRESULT(.DIFFERENCE.,#2293,#2299);
#2301=IFCSHAPEREPRESENTATION(#15,'Body','Clipping',(#2300));
#2302=IFCRELCONNECTSPATHELEMENTS('1yC9xadgDFC8iJ0bKtaRrM',$,$,'MITRE',$,#2197,#2172,(),(),.ATEND.,.ATSTART.);
#2303=IFCCARTESIANPOINTLIST2D(((-2.38418579101562E-06,-3.57627868652344E-07),(4.0711932182312,-3.57627868652344E-07)));
#2304=IFCINDEXEDPOLYCURVE(#2303,$,.F.);
#2305=IFCSHAPEREPRESENTATION(#27,'Axis','Curve2D',(#2304));
#2306=IFCCARTESIANPOINTLIST2D(((0.,0.),(0.,0.1),(4.07119340205476,0.1),(4.07119340205476,0.),(0.,0.)));
#2307=IFCINDEXEDPOLYCURVE(#2306,$,.F.);
#2308=IFCDIRECTION((0.,0.,1.));
#2309=IFCARBITRARYCLOSEDPROFILEDEF(.AREA.,$,#2307);
#2310=IFCCARTESIANPOINT((0.,0.,0.));
#2311=IFCDIRECTION((0.,0.,1.));
#2312=IFCDIRECTION((1.,0.,0.));
#2313=IFCAXIS2PLACEMENT3D(#2310,#2311,#2312);
#2314=IFCEXTRUDEDAREASOLID(#2309,#2313,#2308,2.);
#2315=IFCCARTESIANPOINT((0.,1.19209289550781E-07,-2.));
#2316=IFCDIRECTION((-0.58759593963623,0.809154629707336,0.));
#2317=IFCDIRECTION((0.809154547556387,0.587595879979445,-0.));
#2318=IFCAXIS2PLACEMENT3D(#2315,#2316,#2317);
#2319=IFCPLANE(#2318);
#2320=IFCHALFSPACESOLID(#2319,.F.);
#2321=IFCBOOLEANCLIPPINGRESULT(.DIFFERENCE.,#2314,#2320);
#2322=IFCSHAPEREPRESENTATION(#15,'Body','Clipping',(#2321));
#2323=IFCCARTESIANPOINTLIST2D(((-3.57627868652344E-07,-4.61935997009277E-07),(5.52636671066284,-6.55651092529297E-07)));
#2324=IFCINDEXEDPOLYCURVE(#2323,$,.F.);
#2325=IFCSHAPEREPRESENTATION(#27,'Axis','Curve2D',(#2324));
#2326=IFCCARTESIANPOINTLIST2D(((0.,0.),(0.,0.1),(5.52636355548098,0.1),(5.52636355548098,0.),(0.,0.)));
#2327=IFCINDEXEDPOLYCURVE(#2326,$,.F.);
#2328=IFCDIRECTION((0.,0.,1.));
#2329=IFCARBITRARYCLOSEDPROFILEDEF(.AREA.,$,#2327);
#2330=IFCCARTESIANPOINT((0.,0.,0.));
#2331=IFCDIRECTION((0.,0.,1.));
#2332=IFCDIRECTION((1.,0.,0.));
#2333=IFCAXIS2PLACEMENT3D(#2330,#2331,#2332);
#2334=IFCEXTRUDEDAREASOLID(#2329,#2333,#2328,2.);
#2335=IFCCARTESIANPOINT((5.52636528015137,1.37090682983398E-06,-2.));
#2336=IFCDIRECTION((0.587582528591156,0.809164583683014,0.));
#2337=IFCDIRECTION((0.809164360599472,-0.587582366596929,0.));
#2338=IFCAXIS2PLACEMENT3D(#2335,#2336,#2337);
#2339=IFCPLANE(#2338);
#2340=IFCHALFSPACESOLID(#2339,.F.);
#2341=IFCBOOLEANCLIPPINGRESULT(.DIFFERENCE.,#2334,#2340);
#2342=IFCCARTESIANPOINT((-1.19209289550781E-07,-4.91738319396973E-07,-2.));
#2343=IFCDIRECTION((-0.681948959827423,0.73140013217926,0.));
#2344=IFCDIRECTION((0.731399935739327,0.681948776669119,-0.));
#2345=IFCAXIS2PLACEMENT3D(#2342,#2343,#2344);
#2346=IFCPLANE(#2345);
#2347=IFCHALFSPACESOLID(#2346,.F.);
#2348=IFCBOOLEANCLIPPINGRESULT(.DIFFERENCE.,#2341,#2347);
#2349=IFCSHAPEREPRESENTATION(#15,'Body','Clipping',(#2348));
#2350=IFCCARTESIANPOINT((12.,2.02034997940063,2.));
#2351=IFCDIRECTION((0.,0.,1.));
#2352=IFCDIRECTION((1.,0.,0.));
#2353=IFCAXIS2PLACEMENT3D(#2350,#2351,#2352);
#2354=IFCLOCALPLACEMENT(#66,#2353);
#2355=IFCCARTESIANPOINT((12.,6.,2.));
#2356=IFCDIRECTION((0.,0.,1.));
#2357=IFCDIRECTION((-0.999999999999996,-8.74227765734755E-08,0.));
#2358=IFCAXIS2PLACEMENT3D(#2355,#2356,#2357);
#2359=IFCLOCALPLACEMENT(#66,#2358);
#2360=IFCCARTESIANPOINT((9.10000419616699,0.100000001490116,2.));
#2361=IFCDIRECTION((0.,0.,1.));
#2362=IFCDIRECTION((1.,0.,0.));
#2363=IFCAXIS2PLACEMENT3D(#2360,#2361,#2362);
#2364=IFCLOCALPLACEMENT(#66,#2363);
#2365=IFCWINDOWTYPE('0F8hxT31P2Du7MYQvPhxzy',$,'Unnamed',$,$,(#2366),(#2375,#2423,#2445),$,$,.WINDOW.,.SINGLE_PANEL.,$,$);
#2366=IFCPROPERTYSET('2k7ORB7k97K9uz0pHZfsfZ',$,'BBIM_Window',$,(#2367));
#2367=IFCPROPERTYSINGLEVALUE('Data',$,IFCTEXT('{"window_type": "SINGLE_PANEL", "overall_height": 0.8999999761581421, "overall_width": 0.6000000238418579, "lining_properties": {"lining_depth": 0.05000000074505806, "lining_thickness": 0.05000000074505806, "lining_offset": 0.05000000074505806, "lining_to_panel_offset_x": 0.02500000037252903, "lining_to_panel_offset_y": 0.02500000037252903}, "panel_properties": {"frame_depth": [0.03500000014901161, 0.03500000014901161, 0.03500000014901161], "frame_thickness": [0.03500000014901161, 0.03500000014901161, 0.03500000014901161]}}'),$);
#2368=IFCCARTESIANPOINTLIST3D(((0.,0.,0.),(0.600000023841858,0.,0.),(0.600000023841858,0.,0.899999976158142),(0.,0.,0.899999976158142)));
#2369=IFCINDEXEDPOLYCURVE(#2368,(IFCLINEINDEX((1,2,3,4,1))),$);
#2370=IFCSHAPEREPRESENTATION(#22,'Profile','Curve3D',(#2369));
#2371=IFCCARTESIANPOINT((0.,0.,0.));
#2372=IFCDIRECTION((1.,0.,0.));
#2373=IFCDIRECTION((0.,0.,1.));
#2374=IFCAXIS2PLACEMENT3D(#2371,#2373,#2372);
#2375=IFCREPRESENTATIONMAP(#2374,#2370);
#2376=IFCCARTESIANPOINTLIST2D(((0.,0.),(0.600000023841858,0.),(0.600000023841858,0.899999976158142),(0.,0.899999976158142)));
#2377=IFCINDEXEDPOLYCURVE(#2376,(IFCLINEINDEX((1,2,3,4,1))),$);
#2378=IFCCARTESIANPOINTLIST2D(((0.025000000372529,0.025000000372529),(0.575000023469329,0.025000000372529),(0.575000023469329,0.874999975785613),(0.025000000372529,0.874999975785613)));
#2379=IFCINDEXEDPOLYCURVE(#2378,(IFCLINEINDEX((1,2,3,4,1))),$);
#2380=IFCARBITRARYPROFILEDEFWITHVOIDS(.AREA.,$,#2377,(#2379));
#2381=IFCCARTESIANPOINT((0.,0.0900000017136335,0.));
#2382=IFCDIRECTION((0.,-1.,0.));
#2383=IFCDIRECTION((1.,0.,0.));
#2384=IFCAXIS2PLACEMENT3D(#2381,#2382,#2383);
#2385=IFCDIRECTION((0.,0.,-1.));
#2386=IFCEXTRUDEDAREASOLID(#2380,#2384,#2385,0.00999999977648258);
#2387=IFCCARTESIANPOINTLIST2D(((0.,0.),(0.600000023841858,0.),(0.600000023841858,0.899999976158142),(0.,0.899999976158142)));
#2388=IFCINDEXEDPOLYCURVE(#2387,(IFCLINEINDEX((1,2,3,4,1))),$);
#2389=IFCCARTESIANPOINTLIST2D(((0.0500000007450581,0.0500000007450581),(0.5500000230968,0.0500000007450581),(0.5500000230968,0.849999975413084),(0.0500000007450581,0.849999975413084)));
#2390=IFCINDEXEDPOLYCURVE(#2389,(IFCLINEINDEX((1,2,3,4,1))),$);
#2391=IFCARBITRARYPROFILEDEFWITHVOIDS(.AREA.,$,#2388,(#2390));
#2392=IFCCARTESIANPOINT((0.,0.0500000007450581,0.));
#2393=IFCDIRECTION((0.,-1.,0.));
#2394=IFCDIRECTION((1.,0.,0.));
#2395=IFCAXIS2PLACEMENT3D(#2392,#2393,#2394);
#2396=IFCDIRECTION((0.,0.,-1.));
#2397=IFCEXTRUDEDAREASOLID(#2391,#2395,#2396,0.0400000009685755);
#2398=IFCCARTESIANPOINTLIST2D(((0.,0.),(0.5500000230968,0.),(0.5500000230968,0.849999975413084),(0.,0.849999975413084)));
#2399=IFCINDEXEDPOLYCURVE(#2398,(IFCLINEINDEX((1,2,3,4,1))),$);
#2400=IFCCARTESIANPOINTLIST2D(((0.0350000001490116,0.0350000001490116),(0.515000022947788,0.0350000001490116),(0.515000022947788,0.814999975264072),(0.0350000001490116,0.814999975264072)));
#2401=IFCINDEXEDPOLYCURVE(#2400,(IFCLINEINDEX((1,2,3,4,1))),$);
#2402=IFCARBITRARYPROFILEDEFWITHVOIDS(.AREA.,$,#2399,(#2401));
#2403=IFCCARTESIANPOINT((0.025000000372529,0.0900000017136335,0.025000000372529));
#2404=IFCDIRECTION((0.,-1.,0.));
#2405=IFCDIRECTION((1.,0.,0.));
#2406=IFCAXIS2PLACEMENT3D(#2403,#2404,#2405);
#2407=IFCDIRECTION((0.,0.,-1.));
#2408=IFCEXTRUDEDAREASOLID(#2402,#2406,#2407,0.0350000001490116);
#2409=IFCINDEXEDPOLYCURVE(#2410,(IFCLINEINDEX((1,2,3,4,1))),$);
#2410=IFCCARTESIANPOINTLIST2D(((0.0350000001490116,0.0350000001490116),(0.515000022947788,0.0350000001490116),(0.515000022947788,0.814999975264072),(0.0350000001490116,0.814999975264072)));
#2411=IFCARBITRARYCLOSEDPROFILEDEF(.AREA.,$,#2409);
#2412=IFCCARTESIANPOINT((0.025000000372529,0.102500001788139,0.025000000372529));
#2413=IFCDIRECTION((0.,-1.,0.));
#2414=IFCDIRECTION((1.,0.,0.));
#2415=IFCAXIS2PLACEMENT3D(#2412,#2413,#2414);
#2416=IFCDIRECTION((0.,0.,-1.));
#2417=IFCEXTRUDEDAREASOLID(#2411,#2415,#2416,0.01);
#2418=IFCSHAPEREPRESENTATION(#15,'Body','SolidModel',(#2386,#2397,#2408,#2417));
#2419=IFCCARTESIANPOINT((0.,0.,0.));
#2420=IFCDIRECTION((1.,0.,0.));
#2421=IFCDIRECTION((0.,0.,1.));
#2422=IFCAXIS2PLACEMENT3D(#2419,#2421,#2420);
#2423=IFCREPRESENTATIONMAP(#2422,#2418);
#2424=IFCCARTESIANPOINTLIST2D(((0.0500000007450581,0.0500000007450581),(0.5500000230968,0.0500000007450581)));
#2425=IFCINDEXEDPOLYCURVE(#2424,$,$);
#2426=IFCCARTESIANPOINTLIST2D(((0.,0.100000001490116),(0.025000000372529,0.100000001490116),(0.025000000372529,0.0900000017136335),(0.0500000007450581,0.0900000017136335),(0.0500000007450581,0.0500000007450581),(0.,0.0500000007450581)));
#2427=IFCINDEXEDPOLYCURVE(#2426,(IFCLINEINDEX((1,2,3,4,5,6,1))),$);
#2428=IFCCARTESIANPOINTLIST2D(((0.600000023841858,0.100000001490116),(0.575000023469329,0.100000001490116),(0.575000023469329,0.0900000017136335),(0.5500000230968,0.0900000017136335),(0.5500000230968,0.0500000007450581),(0.600000023841858,0.0500000007450581)));
#2429=IFCINDEXEDPOLYCURVE(#2428,(IFCLINEINDEX((1,2,3,4,5,6,1))),$);
#2430=IFCCARTESIANPOINTLIST2D(((0.025000000372529,0.0900000017136335),(0.0600000005215406,0.0900000017136335),(0.0600000005215406,0.125000001862645),(0.025000000372529,0.125000001862645)));
#2431=IFCINDEXEDPOLYCURVE(#2430,(IFCLINEINDEX((1,2,3,4,1))),$);
#2432=IFCINDEXEDPOLYCURVE(#2433,(IFCLINEINDEX((1,2,3,4,1))),$);
#2433=IFCCARTESIANPOINTLIST2D(((0.575000023469329,0.0900000017136335),(0.540000023320317,0.0900000017136335),(0.540000023320317,0.125000001862645),(0.575000023469329,0.125000001862645)));
#2434=IFCCARTESIANPOINTLIST2D(((0.0600000005215406,0.0900000017136335),(0.540000023320317,0.0900000017136335)));
#2435=IFCINDEXEDPOLYCURVE(#2434,$,$);
#2436=IFCINDEXEDPOLYCURVE(#2437,$,$);
#2437=IFCCARTESIANPOINTLIST2D(((0.0600000005215406,0.125000001862645),(0.540000023320317,0.125000001862645)));
#2438=IFCINDEXEDPOLYCURVE(#2439,$,$);
#2439=IFCCARTESIANPOINTLIST2D(((0.0600000005215406,0.107500001788139),(0.540000023320317,0.107500001788139)));
#2440=IFCSHAPEREPRESENTATION(#28,'Body','Curve2D',(#2425,#2427,#2429,#2431,#2432,#2435,#2436,#2438));
#2441=IFCCARTESIANPOINT((0.,0.,0.));
#2442=IFCDIRECTION((1.,0.,0.));
#2443=IFCDIRECTION((0.,0.,1.));
#2444=IFCAXIS2PLACEMENT3D(#2441,#2443,#2442);
#2445=IFCREPRESENTATIONMAP(#2444,#2440);
#2446=IFCWINDOW('06VSAmXC90pgMnrNrthNVu',$,'Window',$,$,#2512,#2455,$,0.899999976158142,0.600000023841858,$,$,$);
#2447=IFCRELDEFINESBYTYPE('2Vj1ZQ$TbEHBkmcSCqrNDd',$,$,$,(#2513,#2446),#2365);
#2448=IFCCARTESIANPOINT((0.,0.,0.));
#2449=IFCDIRECTION((1.,0.,0.));
#2450=IFCDIRECTION((0.,1.,0.));
#2451=IFCDIRECTION((0.,0.,1.));
#2452=IFCCARTESIANTRANSFORMATIONOPERATOR3D(#2449,#2450,#2448,1.,#2451);
#2453=IFCMAPPEDITEM(#2375,#2452);
#2454=IFCSHAPEREPRESENTATION(#22,'Profile','MappedRepresentation',(#2453));
#2455=IFCPRODUCTDEFINITIONSHAPE($,$,(#2454,#2462,#2469));
#2456=IFCCARTESIANPOINT((0.,0.,0.));
#2457=IFCDIRECTION((1.,0.,0.));
#2458=IFCDIRECTION((0.,1.,0.));
#2459=IFCDIRECTION((0.,0.,1.));
#2460=IFCCARTESIANTRANSFORMATIONOPERATOR3D(#2457,#2458,#2456,1.,#2459);
#2461=IFCMAPPEDITEM(#2423,#2460);
#2462=IFCSHAPEREPRESENTATION(#15,'Body','MappedRepresentation',(#2461));
#2463=IFCCARTESIANPOINT((0.,0.,0.));
#2464=IFCDIRECTION((1.,0.,0.));
#2465=IFCDIRECTION((0.,1.,0.));
#2466=IFCDIRECTION((0.,0.,1.));
#2467=IFCCARTESIANTRANSFORMATIONOPERATOR3D(#2464,#2465,#2463,1.,#2466);
#2468=IFCMAPPEDITEM(#2445,#2467);
#2469=IFCSHAPEREPRESENTATION(#28,'Body','MappedRepresentation',(#2468));
#2508=IFCCARTESIANPOINT((2.44999980926514,1.90535044670105,2.00000023841858));
#2509=IFCDIRECTION((0.,0.,1.));
#2510=IFCDIRECTION((1.,0.,0.));
#2511=IFCAXIS2PLACEMENT3D(#2508,#2509,#2510);
#2512=IFCLOCALPLACEMENT(#66,#2511);
#2513=IFCWINDOW('3MdxIa0Db04wmuhqC_D3Bl',$,'Window',$,$,#2540,#2521,$,0.899999976158142,0.600000023841858,$,$,$);
#2514=IFCCARTESIANPOINT((0.,0.,0.));
#2515=IFCDIRECTION((1.,0.,0.));
#2516=IFCDIRECTION((0.,1.,0.));
#2517=IFCDIRECTION((0.,0.,1.));
#2518=IFCCARTESIANTRANSFORMATIONOPERATOR3D(#2515,#2516,#2514,1.,#2517);
#2519=IFCMAPPEDITEM(#2375,#2518);
#2520=IFCSHAPEREPRESENTATION(#22,'Profile','MappedRepresentation',(#2519));
#2521=IFCPRODUCTDEFINITIONSHAPE($,$,(#2520,#2528,#2535));
#2522=IFCCARTESIANPOINT((0.,0.,0.));
#2523=IFCDIRECTION((1.,0.,0.));
#2524=IFCDIRECTION((0.,1.,0.));
#2525=IFCDIRECTION((0.,0.,1.));
#2526=IFCCARTESIANTRANSFORMATIONOPERATOR3D(#2523,#2524,#2522,1.,#2525);
#2527=IFCMAPPEDITEM(#2423,#2526);
#2528=IFCSHAPEREPRESENTATION(#15,'Body','MappedRepresentation',(#2527));
#2529=IFCCARTESIANPOINT((0.,0.,0.));
#2530=IFCDIRECTION((1.,0.,0.));
#2531=IFCDIRECTION((0.,1.,0.));
#2532=IFCDIRECTION((0.,0.,1.));
#2533=IFCCARTESIANTRANSFORMATIONOPERATOR3D(#2530,#2531,#2529,1.,#2532);
#2534=IFCMAPPEDITEM(#2445,#2533);
#2535=IFCSHAPEREPRESENTATION(#28,'Body','MappedRepresentation',(#2534));
#2536=IFCCARTESIANPOINT((4.32913398742676,5.72221183776855,2.22260975837708));
#2537=IFCDIRECTION((0.,0.,1.));
#2538=IFCDIRECTION((-4.37113882867379E-08,0.999999999999999,0.));
#2539=IFCAXIS2PLACEMENT3D(#2536,#2537,#2538);
#2540=IFCLOCALPLACEMENT(#66,#2539);
ENDSEC;
END-ISO-10303-21;
