ISO-10303-21;
HEADER;
FILE_DESCRIPTION(('ViewDefinition[DesignTransferView]'),'2;1');
FILE_NAME('paredes.ifc','2025-04-07T18:36:36+02:00',(''),(''),'IfcOpenShell 0.8.1','Bonsai 0.8.1','Nobody');
FILE_SCHEMA(('IFC4'));
ENDSEC;
DATA;
#1=IFCPROJECT('2UDy$mpgD1TB86pY77rwQ$',$,'My Project',$,$,$,$,(#14,#26),#9);
#2=IFCSIUNIT(*,.LENGTHUNIT.,$,.METRE.);
#3=IFCSIUNIT(*,.AREAUNIT.,$,.SQUARE_METRE.);
#4=IFCSIUNIT(*,.VOLUMEUNIT.,$,.CUBIC_METRE.);
#5=IFCDIMENSIONALEXPONENTS(0,0,0,0,0,0,0);
#6=IFCSIUNIT(*,.PLANEANGLEUNIT.,$,.RADIAN.);
#7=IFCMEASUREWITHUNIT(IFCREAL(0.0174532925199433),#6);
#8=IFCCONVERSIONBASEDUNIT(#5,.PLANEANGLEUNIT.,'degree',#7);
#9=IFCUNITASSIGNMENT((#4,#2,#8,#3));
#10=IFCCARTESIANPOINT((0.,0.,0.));
#11=IFCDIRECTION((0.,0.,1.));
#12=IFCDIRECTION((1.,0.,0.));
#13=IFCAXIS2PLACEMENT3D(#10,#11,#12);
#14=IFCGEOMETRICREPRESENTATIONCONTEXT($,'Model',3,1.E-05,#13,$);
#15=IFCGEOMETRICREPRESENTATIONSUBCONTEXT('Body','Model',*,*,*,*,#14,$,.MODEL_VIEW.,$);
#16=IFCGEOMETRICREPRESENTATIONSUBCONTEXT('Axis','Model',*,*,*,*,#14,$,.GRAPH_VIEW.,$);
#17=IFCGEOMETRICREPRESENTATIONSUBCONTEXT('Box','Model',*,*,*,*,#14,$,.MODEL_VIEW.,$);
#18=IFCGEOMETRICREPRESENTATIONSUBCONTEXT('Annotation','Model',*,*,*,*,#14,$,.SECTION_VIEW.,$);
#19=IFCGEOMETRICREPRESENTATIONSUBCONTEXT('Annotation','Model',*,*,*,*,#14,$,.ELEVATION_VIEW.,$);
#20=IFCGEOMETRICREPRESENTATIONSUBCONTEXT('Annotation','Model',*,*,*,*,#14,$,.MODEL_VIEW.,$);
#21=IFCGEOMETRICREPRESENTATIONSUBCONTEXT('Annotation','Model',*,*,*,*,#14,$,.PLAN_VIEW.,$);
#22=IFCGEOMETRICREPRESENTATIONSUBCONTEXT('Profile','Model',*,*,*,*,#14,$,.ELEVATION_VIEW.,$);
#23=IFCCARTESIANPOINT((0.,0.));
#24=IFCDIRECTION((1.,0.));
#25=IFCAXIS2PLACEMENT2D(#23,#24);
#26=IFCGEOMETRICREPRESENTATIONCONTEXT($,'Plan',2,1.E-05,#25,$);
#27=IFCGEOMETRICREPRESENTATIONSUBCONTEXT('Axis','Plan',*,*,*,*,#26,$,.GRAPH_VIEW.,$);
#28=IFCGEOMETRICREPRESENTATIONSUBCONTEXT('Body','Plan',*,*,*,*,#26,$,.PLAN_VIEW.,$);
#29=IFCGEOMETRICREPRESENTATIONSUBCONTEXT('Annotation','Plan',*,*,*,*,#26,$,.PLAN_VIEW.,$);
#30=IFCGEOMETRICREPRESENTATIONSUBCONTEXT('Annotation','Plan',*,*,*,*,#26,$,.REFLECTED_PLAN_VIEW.,$);
#31=IFCSITE('1wx_dXzZPF3gZy8iRe8_pW',$,'My Site',$,$,#54,$,$,$,$,$,$,$,$);
#37=IFCBUILDING('2nHT9Rl2H2uej3VsjC3emk',$,'My Building',$,$,#60,$,$,$,$,$,$);
#43=IFCBUILDINGSTOREY('1uvnRkI1zF89YuxVzrPZ1t',$,'My Storey',$,$,#66,$,$,$,$);
#49=IFCRELAGGREGATES('0W7WoHYWX3Gfv63WRD36RH',$,$,$,#1,(#31));
#50=IFCCARTESIANPOINT((0.,0.,0.));
#51=IFCDIRECTION((0.,0.,1.));
#52=IFCDIRECTION((1.,0.,0.));
#53=IFCAXIS2PLACEMENT3D(#50,#51,#52);
#54=IFCLOCALPLACEMENT($,#53);
#55=IFCRELAGGREGATES('1U_w_gx2bB_QESzdg5kQlF',$,$,$,#31,(#37));
#56=IFCCARTESIANPOINT((0.,0.,0.));
#57=IFCDIRECTION((0.,0.,1.));
#58=IFCDIRECTION((1.,0.,0.));
#59=IFCAXIS2PLACEMENT3D(#56,#57,#58);
#60=IFCLOCALPLACEMENT(#54,#59);
#61=IFCRELAGGREGATES('2YBKZ7CY9FWRmVL8ePeMpL',$,$,$,#37,(#43));
#62=IFCCARTESIANPOINT((0.,0.,0.));
#63=IFCDIRECTION((0.,0.,1.));
#64=IFCDIRECTION((1.,0.,0.));
#65=IFCAXIS2PLACEMENT3D(#62,#63,#64);
#66=IFCLOCALPLACEMENT(#60,#65);
#67=IFCWALLTYPE('1QU8yJspfC5f4ataJQV4u0',$,'Unnamed',$,$,(#72),$,$,$,.SOLIDWALL.);
#68=IFCMATERIAL('Unknown',$,$);
#69=IFCMATERIALLAYERSET((#71),$,$);
#70=IFCRELASSOCIATESMATERIAL('1MQ3hhcHrEYgNhkMnyJ09u',$,$,$,(#67),#69);
#71=IFCMATERIALLAYER(#68,0.1,$,$,$,$,$);
#72=IFCPROPERTYSET('1XxO95r$907vR2p_9lrsdK',$,'EPset_Parametric',$,(#73));
#73=IFCPROPERTYSINGLEVALUE('LayerSetDirection',$,IFCLABEL('AXIS2'),$);
#74=IFCWALL('05rCSZC$fB293MfUE_Ogc2',$,'Wall',$,$,#87,#82,$,$);
#75=IFCRELCONTAINEDINSPATIALSTRUCTURE('1xrS78c4TEJR2tRmOLsk0c',$,$,$,(#151,#662,#126,#712,#1087,#762,#687,#101,#74,#737),#43);
#76=IFCRELDEFINESBYTYPE('3n_I1h7$DFOQjsoaaFAlaM',$,$,$,(#712,#762,#687,#101,#74,#737,#151,#662,#126),#67);
#77=IFCMATERIALLAYERSETUSAGE(#69,.AXIS2.,.POSITIVE.,0.,$);
#78=IFCRELASSOCIATESMATERIAL('2IqQvBVxr8B92xEqNN6y39',$,$,$,(#74),#77);
#82=IFCPRODUCTDEFINITIONSHAPE($,$,(#368,#392));
#83=IFCCARTESIANPOINT((0.,0.,0.));
#84=IFCDIRECTION((0.,0.,1.));
#85=IFCDIRECTION((1.,0.,0.));
#86=IFCAXIS2PLACEMENT3D(#83,#84,#85);
#87=IFCLOCALPLACEMENT(#66,#86);
#98=IFCPROPERTYSET('1ff$R5YQ59feyD$3njcf9P',$,'EPset_Parametric',$,(#100));
#99=IFCRELDEFINESBYPROPERTIES('1RZaD$7DrBKwEcdj_EJ_Qv',$,$,$,(#74),#98);
#100=IFCPROPERTYSINGLEVALUE('Engine',$,IFCLABEL('Bonsai.DumbLayer2'),$);
#101=IFCWALL('2BfLlFHWL6rwa6fxck5W0v',$,'Wall',$,$,#112,#107,$,$);
#102=IFCMATERIALLAYERSETUSAGE(#69,.AXIS2.,.POSITIVE.,0.,$);
#103=IFCRELASSOCIATESMATERIAL('0kEngDKkH0OOtJcG$qdiFg',$,$,$,(#101),#102);
#107=IFCPRODUCTDEFINITIONSHAPE($,$,(#292,#316));
#108=IFCCARTESIANPOINT((9.,0.,0.));
#109=IFCDIRECTION((0.,0.,1.));
#110=IFCDIRECTION((7.54979012640431E-08,0.999999999999997,0.));
#111=IFCAXIS2PLACEMENT3D(#108,#109,#110);
#112=IFCLOCALPLACEMENT(#66,#111);
#123=IFCPROPERTYSET('0y2owVu_52cuU8EmS$bs40',$,'EPset_Parametric',$,(#125));
#124=IFCRELDEFINESBYPROPERTIES('0Ld74$DD1DFPlfjqk4AYrr',$,$,$,(#101),#123);
#125=IFCPROPERTYSINGLEVALUE('Engine',$,IFCLABEL('Bonsai.DumbLayer2'),$);
#126=IFCWALL('2wkgGJiFnF79nJWhEXPqFN',$,'Wall',$,$,#137,#132,$,$);
#127=IFCMATERIALLAYERSETUSAGE(#69,.AXIS2.,.POSITIVE.,0.,$);
#128=IFCRELASSOCIATESMATERIAL('3ppPJVhb11h9owzjVZ5AO8',$,$,$,(#126),#127);
#132=IFCPRODUCTDEFINITIONSHAPE($,$,(#340,#364));
#133=IFCCARTESIANPOINT((9.,10.,0.));
#134=IFCDIRECTION((0.,0.,1.));
#135=IFCDIRECTION((-0.999999999999996,8.74227765734755E-08,0.));
#136=IFCAXIS2PLACEMENT3D(#133,#134,#135);
#137=IFCLOCALPLACEMENT(#66,#136);
#148=IFCPROPERTYSET('2hWWB4erLErfavLmMfc_OM',$,'EPset_Parametric',$,(#150));
#149=IFCRELDEFINESBYPROPERTIES('0EJOsyM391khPJziij5ObK',$,$,$,(#126),#148);
#150=IFCPROPERTYSINGLEVALUE('Engine',$,IFCLABEL('Bonsai.DumbLayer2'),$);
#151=IFCWALL('2V_wi7SwP89uvKySByRAjV',$,'Wall',$,$,#162,#157,$,$);
#152=IFCMATERIALLAYERSETUSAGE(#69,.AXIS2.,.POSITIVE.,0.,$);
#153=IFCRELASSOCIATESMATERIAL('08iKS2Le526AhzdkhchPqO',$,$,$,(#151),#152);
#157=IFCPRODUCTDEFINITIONSHAPE($,$,(#395,#419));
#158=IFCCARTESIANPOINT((0.,10.,0.));
#159=IFCDIRECTION((0.,0.,1.));
#160=IFCDIRECTION((-4.37113882867379E-08,-0.999999999999999,0.));
#161=IFCAXIS2PLACEMENT3D(#158,#159,#160);
#162=IFCLOCALPLACEMENT(#66,#161);
#173=IFCPROPERTYSET('2K9J_8bG98r90vngUGGDek',$,'EPset_Parametric',$,(#175));
#174=IFCRELDEFINESBYPROPERTIES('0ouk7jmM57LOnPjalU5lcy',$,$,$,(#151),#173);
#175=IFCPROPERTYSINGLEVALUE('Engine',$,IFCLABEL('Bonsai.DumbLayer2'),$);
#228=IFCRELCONNECTSPATHELEMENTS('1wcZqEfAv3ZxZ9sGv66UV5',$,$,'MITRE',$,#101,#74,(),(),.ATEND.,.ATSTART.);
#269=IFCRELCONNECTSPATHELEMENTS('2tYqjCDxnAVxaAyzWbyT0n',$,$,'MITRE',$,#126,#101,(),(),.ATEND.,.ATSTART.);
#290=IFCCARTESIANPOINTLIST2D(((0.,0.),(10.,2.78141669696197E-07)));
#291=IFCINDEXEDPOLYCURVE(#290,$,.F.);
#292=IFCSHAPEREPRESENTATION(#27,'Axis','Curve2D',(#291));
#293=IFCCARTESIANPOINTLIST2D(((0.,0.),(0.,0.1),(10.0000000000004,0.1),(10.0000000000004,0.),(0.,0.)));
#294=IFCINDEXEDPOLYCURVE(#293,$,.F.);
#295=IFCDIRECTION((0.,0.,1.));
#296=IFCARBITRARYCLOSEDPROFILEDEF(.AREA.,$,#294);
#297=IFCCARTESIANPOINT((0.,0.,0.));
#298=IFCDIRECTION((0.,0.,1.));
#299=IFCDIRECTION((1.,0.,0.));
#300=IFCAXIS2PLACEMENT3D(#297,#298,#299);
#301=IFCEXTRUDEDAREASOLID(#296,#300,#295,2.);
#302=IFCCARTESIANPOINT((10.,2.78141669696197E-07,0.));
#303=IFCDIRECTION((0.707106530666351,0.70710700750351,0.));
#304=IFCDIRECTION((0.70710701960509,-0.707106542767924,0.));
#305=IFCAXIS2PLACEMENT3D(#302,#303,#304);
#306=IFCPLANE(#305);
#307=IFCHALFSPACESOLID(#306,.F.);
#308=IFCBOOLEANCLIPPINGRESULT(.DIFFERENCE.,#301,#307);
#309=IFCCARTESIANPOINT((0.,0.,0.));
#310=IFCDIRECTION((-0.707108318805695,0.707105159759521,0.));
#311=IFCDIRECTION((0.707105201661603,0.707108360707964,-0.));
#312=IFCAXIS2PLACEMENT3D(#309,#310,#311);
#313=IFCPLANE(#312);
#314=IFCHALFSPACESOLID(#313,.F.);
#315=IFCBOOLEANCLIPPINGRESULT(.DIFFERENCE.,#308,#314);
#316=IFCSHAPEREPRESENTATION(#15,'Body','Clipping',(#315));
#317=IFCRELCONNECTSPATHELEMENTS('3MAqNvAwz25AI_W82gs0$p',$,$,'MITRE',$,#151,#126,(),(),.ATEND.,.ATSTART.);
#338=IFCCARTESIANPOINTLIST2D(((-3.97390635953343E-07,-4.05288346883026E-07),(9.00000286102295,0.)));
#339=IFCINDEXEDPOLYCURVE(#338,$,.F.);
#340=IFCSHAPEREPRESENTATION(#27,'Axis','Curve2D',(#339));
#341=IFCCARTESIANPOINTLIST2D(((0.,0.),(0.,0.1),(9.00000296698632,0.1),(9.00000296698632,0.),(0.,0.)));
#342=IFCINDEXEDPOLYCURVE(#341,$,.F.);
#343=IFCDIRECTION((0.,0.,1.));
#344=IFCARBITRARYCLOSEDPROFILEDEF(.AREA.,$,#342);
#345=IFCCARTESIANPOINT((0.,0.,0.));
#346=IFCDIRECTION((0.,0.,1.));
#347=IFCDIRECTION((1.,0.,0.));
#348=IFCAXIS2PLACEMENT3D(#345,#346,#347);
#349=IFCEXTRUDEDAREASOLID(#344,#348,#343,2.);
#350=IFCCARTESIANPOINT((9.00000286102295,0.,0.));
#351=IFCDIRECTION((0.707107901573181,0.707105696201324,0.));
#352=IFCDIRECTION((0.707105678499787,-0.707107883871588,0.));
#353=IFCAXIS2PLACEMENT3D(#350,#351,#352);
#354=IFCPLANE(#353);
#355=IFCHALFSPACESOLID(#354,.F.);
#356=IFCBOOLEANCLIPPINGRESULT(.DIFFERENCE.,#349,#355);
#357=IFCCARTESIANPOINT((-3.97390635953343E-07,-4.05288346883026E-07,0.));
#358=IFCDIRECTION((-0.70710688829422,0.707106649875641,0.));
#359=IFCDIRECTION((0.707106661977246,0.707106900395829,-0.));
#360=IFCAXIS2PLACEMENT3D(#357,#358,#359);
#361=IFCPLANE(#360);
#362=IFCHALFSPACESOLID(#361,.F.);
#363=IFCBOOLEANCLIPPINGRESULT(.DIFFERENCE.,#356,#362);
#364=IFCSHAPEREPRESENTATION(#15,'Body','Clipping',(#363));
#365=IFCRELCONNECTSPATHELEMENTS('05X$9vd9r3sQxPpgVDlKby',$,$,'MITRE',$,#74,#151,(),(),.ATEND.,.ATSTART.);
#366=IFCCARTESIANPOINTLIST2D(((-4.54747350886464E-13,0.),(8.99999713897705,0.)));
#367=IFCINDEXEDPOLYCURVE(#366,$,.F.);
#368=IFCSHAPEREPRESENTATION(#27,'Axis','Curve2D',(#367));
#369=IFCCARTESIANPOINTLIST2D(((0.,0.),(0.,0.1),(8.99999703301275,0.1),(8.99999703301275,0.),(0.,0.)));
#370=IFCINDEXEDPOLYCURVE(#369,$,.F.);
#371=IFCDIRECTION((0.,0.,1.));
#372=IFCARBITRARYCLOSEDPROFILEDEF(.AREA.,$,#370);
#373=IFCCARTESIANPOINT((0.,0.,0.));
#374=IFCDIRECTION((0.,0.,1.));
#375=IFCDIRECTION((1.,0.,0.));
#376=IFCAXIS2PLACEMENT3D(#373,#374,#375);
#377=IFCEXTRUDEDAREASOLID(#372,#376,#371,2.);
#378=IFCCARTESIANPOINT((8.99999713897705,0.,0.));
#379=IFCDIRECTION((0.707105398178101,0.707108080387115,0.));
#380=IFCDIRECTION((0.707108122289863,-0.707105440080689,0.));
#381=IFCAXIS2PLACEMENT3D(#378,#379,#380);
#382=IFCPLANE(#381);
#383=IFCHALFSPACESOLID(#382,.F.);
#384=IFCBOOLEANCLIPPINGRESULT(.DIFFERENCE.,#377,#383);
#385=IFCCARTESIANPOINT((0.,0.,0.));
#386=IFCDIRECTION((-0.70710688829422,0.707106649875641,0.));
#387=IFCDIRECTION((0.707106661977246,0.707106900395829,-0.));
#388=IFCAXIS2PLACEMENT3D(#385,#386,#387);
#389=IFCPLANE(#388);
#390=IFCHALFSPACESOLID(#389,.F.);
#391=IFCBOOLEANCLIPPINGRESULT(.DIFFERENCE.,#384,#390);
#392=IFCSHAPEREPRESENTATION(#15,'Body','Clipping',(#391));
#393=IFCCARTESIANPOINTLIST2D(((0.,4.16864486723137E-14),(10.0000009536743,0.)));
#394=IFCINDEXEDPOLYCURVE(#393,$,.F.);
#395=IFCSHAPEREPRESENTATION(#27,'Axis','Curve2D',(#394));
#396=IFCCARTESIANPOINTLIST2D(((0.,0.),(0.,0.1),(10.0000011444096,0.1),(10.0000011444096,0.),(0.,0.)));
#397=IFCINDEXEDPOLYCURVE(#396,$,.F.);
#398=IFCDIRECTION((0.,0.,1.));
#399=IFCARBITRARYCLOSEDPROFILEDEF(.AREA.,$,#397);
#400=IFCCARTESIANPOINT((0.,0.,0.));
#401=IFCDIRECTION((0.,0.,1.));
#402=IFCDIRECTION((1.,0.,0.));
#403=IFCAXIS2PLACEMENT3D(#400,#401,#402);
#404=IFCEXTRUDEDAREASOLID(#399,#403,#398,2.);
#405=IFCCARTESIANPOINT((10.0000009536743,2.27373675443232E-13,0.));
#406=IFCDIRECTION((0.70710688829422,0.707106649875641,0.));
#407=IFCDIRECTION((0.707106661977246,-0.707106900395829,0.));
#408=IFCAXIS2PLACEMENT3D(#405,#406,#407);
#409=IFCPLANE(#408);
#410=IFCHALFSPACESOLID(#409,.F.);
#411=IFCBOOLEANCLIPPINGRESULT(.DIFFERENCE.,#404,#410);
#412=IFCCARTESIANPOINT((0.,0.,0.));
#413=IFCDIRECTION((-0.707105338573456,0.70710825920105,0.));
#414=IFCDIRECTION((0.7071082414988,0.707105320871279,-0.));
#415=IFCAXIS2PLACEMENT3D(#412,#413,#414);
#416=IFCPLANE(#415);
#417=IFCHALFSPACESOLID(#416,.F.);
#418=IFCBOOLEANCLIPPINGRESULT(.DIFFERENCE.,#411,#417);
#419=IFCSHAPEREPRESENTATION(#15,'Body','Clipping',(#418));
#420=IFCSLABTYPE('3mzuAc3A5DhvhE0Ig8U8SL',$,'Unnamed',$,$,(#424),$,$,$,.FLOOR.);
#421=IFCMATERIALLAYERSET((#423),$,$);
#422=IFCRELASSOCIATESMATERIAL('2bkAihwdDECQD7gILolJbT',$,$,$,(#420),#421);
#423=IFCMATERIALLAYER(#68,0.1,$,$,$,$,$);
#424=IFCPROPERTYSET('21ShRzKz185hNuMY$IzxEH',$,'EPset_Parametric',$,(#425));
#425=IFCPROPERTYSINGLEVALUE('LayerSetDirection',$,IFCLABEL('AXIS3'),$);
#662=IFCWALL('1jrN2aLNn3ZP3sCU09IBHa',$,'Wall',$,$,#1066,#668,$,$);
#663=IFCMATERIALLAYERSETUSAGE(#69,.AXIS2.,.POSITIVE.,0.,$);
#664=IFCRELASSOCIATESMATERIAL('00jeYStcn2MO2AJizQITio',$,$,$,(#662),#663);
#668=IFCPRODUCTDEFINITIONSHAPE($,$,(#880,#897));
#684=IFCPROPERTYSET('0Z8SVO94D6oAJ0puQ6fjar',$,'EPset_Parametric',$,(#686));
#685=IFCRELDEFINESBYPROPERTIES('2lARaJtGL0nPfq4b9dUDi3',$,$,$,(#662),#684);
#686=IFCPROPERTYSINGLEVALUE('Engine',$,IFCLABEL('Bonsai.DumbLayer2'),$);
#687=IFCWALL('0IZFwkSun8cvEN9jvZOZPX',$,'Wall',$,$,#1071,#693,$,$);
#688=IFCMATERIALLAYERSETUSAGE(#69,.AXIS2.,.POSITIVE.,0.,$);
#689=IFCRELASSOCIATESMATERIAL('1yTLgOGZP5vQ0LSgPyTbfP',$,$,$,(#687),#688);
#693=IFCPRODUCTDEFINITIONSHAPE($,$,(#926,#950));
#709=IFCPROPERTYSET('0lhOGjiKn2Ke9ah1nQBnvE',$,'EPset_Parametric',$,(#711));
#710=IFCRELDEFINESBYPROPERTIES('1dIoZg_U91NOk$enR9$nme',$,$,$,(#687),#709);
#711=IFCPROPERTYSINGLEVALUE('Engine',$,IFCLABEL('Bonsai.DumbLayer2'),$);
#712=IFCWALL('2dGj7y6AP8$wSMK9s9j1hH',$,'Wall',$,$,#1076,#718,$,$);
#713=IFCMATERIALLAYERSETUSAGE(#69,.AXIS2.,.POSITIVE.,0.,$);
#714=IFCRELASSOCIATESMATERIAL('0F9XkXv0DAWuRcF6JjPhCE',$,$,$,(#712),#713);
#718=IFCPRODUCTDEFINITIONSHAPE($,$,(#979,#1003));
#734=IFCPROPERTYSET('21dh92HzL2p9ow1Ask5GwK',$,'EPset_Parametric',$,(#736));
#735=IFCRELDEFINESBYPROPERTIES('07kaEleO12PhSQ095r56EN',$,$,$,(#712),#734);
#736=IFCPROPERTYSINGLEVALUE('Engine',$,IFCLABEL('Bonsai.DumbLayer2'),$);
#737=IFCWALL('08DPseGlD7NeMYUvD1$pZR',$,'Wall',$,$,#1081,#743,$,$);
#738=IFCMATERIALLAYERSETUSAGE(#69,.AXIS2.,.POSITIVE.,0.,$);
#739=IFCRELASSOCIATESMATERIAL('2dqjiuk0P62h8tomWkp9VS',$,$,$,(#737),#738);
#743=IFCPRODUCTDEFINITIONSHAPE($,$,(#1032,#1056));
#759=IFCPROPERTYSET('3m2mnBR01BMQaYWRGMISwQ',$,'EPset_Parametric',$,(#761));
#760=IFCRELDEFINESBYPROPERTIES('36F72ME6nBIwdBjb9KUb9H',$,$,$,(#737),#759);
#761=IFCPROPERTYSINGLEVALUE('Engine',$,IFCLABEL('Bonsai.DumbLayer2'),$);
#762=IFCWALL('1TI2PqSNrDCuKT6ZHXhAA4',$,'Wall',$,$,#1086,#768,$,$);
#763=IFCMATERIALLAYERSETUSAGE(#69,.AXIS2.,.POSITIVE.,0.,$);
#764=IFCRELASSOCIATESMATERIAL('2vQQFFBOD5Lv51I1Jxsz2_',$,$,$,(#762),#763);
#768=IFCPRODUCTDEFINITIONSHAPE($,$,(#1007,#1024));
#784=IFCPROPERTYSET('28tBXhAKvDmB2K1uPY1Uqr',$,'EPset_Parametric',$,(#786));
#785=IFCRELDEFINESBYPROPERTIES('2HEvgIoDb2jxsTfyJOAZky',$,$,$,(#762),#784);
#786=IFCPROPERTYSINGLEVALUE('Engine',$,IFCLABEL('Bonsai.DumbLayer2'),$);
#852=IFCRELCONNECTSPATHELEMENTS('3oM3PaVafB4fZ8474_xHV1',$,$,'MITRE',$,#687,#662,(),(),.ATEND.,.ATSTART.);
#878=IFCCARTESIANPOINTLIST2D(((-7.53375388740096E-08,-1.27145881378965E-07),(3.,8.74228760494589E-08)));
#879=IFCINDEXEDPOLYCURVE(#878,$,.F.);
#880=IFCSHAPEREPRESENTATION(#27,'Axis','Curve2D',(#879));
#881=IFCCARTESIANPOINTLIST2D(((0.,0.),(0.,0.1),(3.09999994462551,0.1),(3.09999994462551,0.),(0.,0.)));
#882=IFCINDEXEDPOLYCURVE(#881,$,.F.);
#883=IFCDIRECTION((0.,0.,1.));
#884=IFCARBITRARYCLOSEDPROFILEDEF(.AREA.,$,#882);
#885=IFCCARTESIANPOINT((0.,0.,0.));
#886=IFCDIRECTION((0.,0.,1.));
#887=IFCDIRECTION((1.,0.,0.));
#888=IFCAXIS2PLACEMENT3D(#885,#886,#887);
#889=IFCEXTRUDEDAREASOLID(#884,#888,#883,2.);
#890=IFCCARTESIANPOINT((3.,8.74228760494589E-08,0.));
#891=IFCDIRECTION((0.707106471061707,-0.707107126712799,0.));
#892=IFCDIRECTION((-0.70710710901201,-0.707106453360933,0.));
#893=IFCAXIS2PLACEMENT3D(#890,#891,#892);
#894=IFCPLANE(#893);
#895=IFCHALFSPACESOLID(#894,.F.);
#896=IFCBOOLEANCLIPPINGRESULT(.DIFFERENCE.,#889,#895);
#897=IFCSHAPEREPRESENTATION(#15,'Body','Clipping',(#896));
#898=IFCRELCONNECTSPATHELEMENTS('0NxCP_$DHEHB02aRu5f4Pl',$,$,'MITRE',$,#712,#687,(),(),.ATEND.,.ATSTART.);
#924=IFCCARTESIANPOINTLIST2D(((0.0999997407197952,-2.91095147986198E-08),(6.09999895095825,-5.29596775322716E-08)));
#925=IFCINDEXEDPOLYCURVE(#924,$,.F.);
#926=IFCSHAPEREPRESENTATION(#27,'Axis','Curve2D',(#925));
#927=IFCCARTESIANPOINTLIST2D(((0.,0.),(0.,0.1),(6.19999896634032,0.1),(6.19999896634032,0.),(0.,0.)));
#928=IFCINDEXEDPOLYCURVE(#927,$,.F.);
#929=IFCDIRECTION((0.,0.,1.));
#930=IFCARBITRARYCLOSEDPROFILEDEF(.AREA.,$,#928);
#931=IFCCARTESIANPOINT((0.,0.,0.));
#932=IFCDIRECTION((0.,0.,1.));
#933=IFCDIRECTION((1.,0.,0.));
#934=IFCAXIS2PLACEMENT3D(#931,#932,#933);
#935=IFCEXTRUDEDAREASOLID(#930,#934,#929,2.);
#936=IFCCARTESIANPOINT((6.09999895095825,-5.29596775322716E-08,0.));
#937=IFCDIRECTION((0.707106828689575,-0.70710676908493,0.));
#938=IFCDIRECTION((-0.707106751384225,-0.707106810988869,0.));
#939=IFCAXIS2PLACEMENT3D(#936,#937,#938);
#940=IFCPLANE(#939);
#941=IFCHALFSPACESOLID(#940,.F.);
#942=IFCBOOLEANCLIPPINGRESULT(.DIFFERENCE.,#935,#941);
#943=IFCCARTESIANPOINT((0.0999997407197952,-8.87141595740104E-08,0.));
#944=IFCDIRECTION((-0.707107365131378,-0.707106173038483,0.));
#945=IFCDIRECTION((-0.707106185139838,0.707107377232754,0.));
#946=IFCAXIS2PLACEMENT3D(#943,#944,#945);
#947=IFCPLANE(#946);
#948=IFCHALFSPACESOLID(#947,.F.);
#949=IFCBOOLEANCLIPPINGRESULT(.DIFFERENCE.,#942,#948);
#950=IFCSHAPEREPRESENTATION(#15,'Body','Clipping',(#949));
#951=IFCRELCONNECTSPATHELEMENTS('3oNb01$yX7ePwCLoBpEA1M',$,$,'MITRE',$,#737,#712,(),(),.ATEND.,.ATSTART.);
#977=IFCCARTESIANPOINTLIST2D(((0.100000068545341,3.97903932025656E-13),(7.09999942779541,2.27373675443232E-13)));
#978=IFCINDEXEDPOLYCURVE(#977,$,.F.);
#979=IFCSHAPEREPRESENTATION(#27,'Axis','Curve2D',(#978));
#980=IFCCARTESIANPOINTLIST2D(((0.,0.),(0.,0.1),(7.19999974568704,0.1),(7.19999974568704,0.),(0.,0.)));
#981=IFCINDEXEDPOLYCURVE(#980,$,.F.);
#982=IFCDIRECTION((0.,0.,1.));
#983=IFCARBITRARYCLOSEDPROFILEDEF(.AREA.,$,#981);
#984=IFCCARTESIANPOINT((0.,0.,0.));
#985=IFCDIRECTION((0.,0.,1.));
#986=IFCDIRECTION((1.,0.,0.));
#987=IFCAXIS2PLACEMENT3D(#984,#985,#986);
#988=IFCEXTRUDEDAREASOLID(#983,#987,#982,2.);
#989=IFCCARTESIANPOINT((7.09999847412109,0.,0.));
#990=IFCDIRECTION((0.707102298736572,-0.707111239433289,0.));
#991=IFCDIRECTION((-0.707111251520851,-0.707102310823982,0.));
#992=IFCAXIS2PLACEMENT3D(#989,#990,#991);
#993=IFCPLANE(#992);
#994=IFCHALFSPACESOLID(#993,.F.);
#995=IFCBOOLEANCLIPPINGRESULT(.DIFFERENCE.,#988,#994);
#996=IFCCARTESIANPOINT((0.100000068545341,3.97903932025656E-13,0.));
#997=IFCDIRECTION((-0.707106590270996,-0.707106947898865,0.));
#998=IFCDIRECTION((-0.707106960000462,0.707106602372587,0.));
#999=IFCAXIS2PLACEMENT3D(#996,#997,#998);
#1000=IFCPLANE(#999);
#1001=IFCHALFSPACESOLID(#1000,.F.);
#1002=IFCBOOLEANCLIPPINGRESULT(.DIFFERENCE.,#995,#1001);
#1003=IFCSHAPEREPRESENTATION(#15,'Body','Clipping',(#1002));
#1004=IFCRELCONNECTSPATHELEMENTS('3z2jA9soHEPvhle287xcwi',$,$,'MITRE',$,#762,#737,(),(),.ATEND.,.ATSTART.);
#1005=IFCCARTESIANPOINTLIST2D(((0.1000005453825,2.2254562281887E-07),(3.10000109672546,4.37114522355841E-07)));
#1006=IFCINDEXEDPOLYCURVE(#1005,$,.F.);
#1007=IFCSHAPEREPRESENTATION(#27,'Axis','Curve2D',(#1006));
#1008=IFCCARTESIANPOINTLIST2D(((0.,0.),(0.,0.1),(3.10000086753602,0.1),(3.10000086753602,0.),(0.,0.)));
#1009=IFCINDEXEDPOLYCURVE(#1008,$,.F.);
#1010=IFCDIRECTION((0.,0.,1.));
#1011=IFCARBITRARYCLOSEDPROFILEDEF(.AREA.,$,#1009);
#1012=IFCCARTESIANPOINT((0.,0.,0.));
#1013=IFCDIRECTION((0.,0.,1.));
#1014=IFCDIRECTION((1.,0.,0.));
#1015=IFCAXIS2PLACEMENT3D(#1012,#1013,#1014);
#1016=IFCEXTRUDEDAREASOLID(#1011,#1015,#1010,2.);
#1017=IFCCARTESIANPOINT((0.100001022219658,2.2254562281887E-07,0.));
#1018=IFCDIRECTION((-0.707103073596954,-0.707110404968262,0.));
#1019=IFCDIRECTION((-0.707110446862917,0.707103115491175,0.));
#1020=IFCAXIS2PLACEMENT3D(#1017,#1018,#1019);
#1021=IFCPLANE(#1020);
#1022=IFCHALFSPACESOLID(#1021,.F.);
#1023=IFCBOOLEANCLIPPINGRESULT(.DIFFERENCE.,#1016,#1022);
#1024=IFCSHAPEREPRESENTATION(#15,'Body','Clipping',(#1023));
#1030=IFCCARTESIANPOINTLIST2D(((0.100000031292439,2.61874390616867E-07),(6.10000085830688,4.73057752969908E-08)));
#1031=IFCINDEXEDPOLYCURVE(#1030,$,.F.);
#1032=IFCSHAPEREPRESENTATION(#27,'Axis','Curve2D',(#1031));
#1033=IFCCARTESIANPOINTLIST2D(((0.,0.),(0.,0.1),(6.20000081216159,0.1),(6.20000081216159,0.),(0.,0.)));
#1034=IFCINDEXEDPOLYCURVE(#1033,$,.F.);
#1035=IFCDIRECTION((0.,0.,1.));
#1036=IFCARBITRARYCLOSEDPROFILEDEF(.AREA.,$,#1034);
#1037=IFCCARTESIANPOINT((0.,0.,0.));
#1038=IFCDIRECTION((0.,0.,1.));
#1039=IFCDIRECTION((1.,0.,0.));
#1040=IFCAXIS2PLACEMENT3D(#1037,#1038,#1039);
#1041=IFCEXTRUDEDAREASOLID(#1036,#1040,#1035,2.);
#1042=IFCCARTESIANPOINT((6.10000085830688,-4.29531382906134E-07,0.));
#1043=IFCDIRECTION((0.707110285758972,-0.707103192806244,0.));
#1044=IFCDIRECTION((-0.70710323470108,-0.707110327654228,0.));
#1045=IFCAXIS2PLACEMENT3D(#1042,#1043,#1044);
#1046=IFCPLANE(#1045);
#1047=IFCHALFSPACESOLID(#1046,.F.);
#1048=IFCBOOLEANCLIPPINGRESULT(.DIFFERENCE.,#1041,#1047);
#1049=IFCCARTESIANPOINT((0.100000031292439,2.61874390616867E-07,0.));
#1050=IFCDIRECTION((-0.707108080387115,-0.707105457782745,0.));
#1051=IFCDIRECTION((-0.707105469883124,0.707108092487539,0.));
#1052=IFCAXIS2PLACEMENT3D(#1049,#1050,#1051);
#1053=IFCPLANE(#1052);
#1054=IFCHALFSPACESOLID(#1053,.F.);
#1055=IFCBOOLEANCLIPPINGRESULT(.DIFFERENCE.,#1048,#1054);
#1056=IFCSHAPEREPRESENTATION(#15,'Body','Clipping',(#1055));
#1062=IFCCARTESIANPOINT((3.99999976158142,2.00534987449646,2.));
#1063=IFCDIRECTION((0.,0.,1.));
#1064=IFCDIRECTION((-0.999999999999924,3.89414367418765E-07,0.));
#1065=IFCAXIS2PLACEMENT3D(#1062,#1063,#1064);
#1066=IFCLOCALPLACEMENT(#66,#1065);
#1067=IFCCARTESIANPOINT((0.999999701976776,1.90535140037537,2.));
#1068=IFCDIRECTION((0.,0.,1.));
#1069=IFCDIRECTION((3.13916473260163E-07,0.999999999999951,0.));
#1070=IFCAXIS2PLACEMENT3D(#1067,#1068,#1069);
#1071=IFCLOCALPLACEMENT(#66,#1070);
#1072=IFCCARTESIANPOINT((0.900001585483551,8.00535011291504,2.));
#1073=IFCDIRECTION((0.,0.,1.));
#1074=IFCDIRECTION((0.999999999999972,-2.38418579101556E-07,0.));
#1075=IFCAXIS2PLACEMENT3D(#1072,#1073,#1074);
#1076=IFCLOCALPLACEMENT(#66,#1075);
#1077=IFCCARTESIANPOINT((8.00000095367432,8.10534858703613,2.));
#1078=IFCDIRECTION((0.,0.,1.));
#1079=IFCDIRECTION((-2.82129974493717E-07,-0.99999999999996,0.));
#1080=IFCAXIS2PLACEMENT3D(#1077,#1078,#1079);
#1081=IFCLOCALPLACEMENT(#66,#1080);
#1082=IFCCARTESIANPOINT((8.09999942779541,2.00534796714783,2.));
#1083=IFCDIRECTION((0.,0.,1.));
#1084=IFCDIRECTION((-0.999999999999924,3.89414367418765E-07,0.));
#1085=IFCAXIS2PLACEMENT3D(#1082,#1083,#1084);
#1086=IFCLOCALPLACEMENT(#66,#1085);
#1087=IFCSLAB('3khpBVbFnDJuj0ZWNz34kO',$,'Slab',$,$,#1114,#1102,$,$);
#1088=IFCRELDEFINESBYTYPE('3hD5Edl8zDWRaq81jaTUN6',$,$,$,(#1087),#420);
#1089=IFCMATERIALLAYERSETUSAGE(#421,.AXIS3.,.POSITIVE.,-0.100000001490116,$);
#1090=IFCRELASSOCIATESMATERIAL('3ou261Qs96He4umcqQdDDK',$,$,$,(#1087),#1089);
#1096=IFCCARTESIANPOINTLIST2D(((0.,0.),(8.80000114440918,9.5367431640625E-07),(8.7999963760376,-9.79999923706055),(-4.4703483581543E-08,-9.79999923706055),(0.,0.)));
#1097=IFCINDEXEDPOLYCURVE(#1096,$,$);
#1098=IFCDIRECTION((0.,-0.,1.));
#1099=IFCARBITRARYCLOSEDPROFILEDEF(.AREA.,$,#1097);
#1100=IFCEXTRUDEDAREASOLID(#1099,#1109,#1098,0.1);
#1101=IFCSHAPEREPRESENTATION(#15,'Body','SweptSolid',(#1100));
#1102=IFCPRODUCTDEFINITIONSHAPE($,$,(#1101));
#1103=IFCPROPERTYSET('3hFWOSyCT2KAiEx1aqWNrY',$,'EPset_Parametric',$,(#1105));
#1104=IFCRELDEFINESBYPROPERTIES('2CwlM7zhHFOvV_FImO877e',$,$,$,(#1087),#1103);
#1105=IFCPROPERTYSINGLEVALUE('Engine',$,IFCLABEL('Bonsai.DumbLayer3'),$);
#1106=IFCCARTESIANPOINT((0.,0.,-0.100000001490116));
#1107=IFCDIRECTION((0.,0.,1.));
#1108=IFCDIRECTION((1.,0.,0.));
#1109=IFCAXIS2PLACEMENT3D(#1106,#1107,#1108);
#1110=IFCCARTESIANPOINT((0.100000008940697,9.89999961853027,2.));
#1111=IFCDIRECTION((0.,0.,1.));
#1112=IFCDIRECTION((1.,0.,0.));
#1113=IFCAXIS2PLACEMENT3D(#1110,#1111,#1112);
#1114=IFCLOCALPLACEMENT(#66,#1113);
ENDSEC;
END-ISO-10303-21;
