ISO-10303-21;
HEADER;
FILE_DESCRIPTION(('ViewDefinition[DesignTransferView]'),'2;1');
FILE_NAME('puerta.ifc','2025-04-07T18:55:37+02:00',(''),(''),'IfcOpenShell 0.8.1','Bonsai 0.8.1','Nobody');
FILE_SCHEMA(('IFC4'));
ENDSEC;
DATA;
#1=IFCPROJECT('2UDy$mpgD1TB86pY77rwQ$',$,'My Project',$,$,$,$,(#14,#26),#9);
#2=IFCSIUNIT(*,.LENGTHUNIT.,$,.METRE.);
#3=IFCSIUNIT(*,.AREAUNIT.,$,.SQUARE_METRE.);
#4=IFCSIUNIT(*,.VOLUMEUNIT.,$,.CUBIC_METRE.);
#5=IFCDIMENSIONALEXPONENTS(0,0,0,0,0,0,0);
#6=IFCSIUNIT(*,.PLANEANGLEUNIT.,$,.RADIAN.);
#7=IFCMEASUREWITHUNIT(IFCREAL(0.0174532925199433),#6);
#8=IFCCONVERSIONBASEDUNIT(#5,.PLANEANGLEUNIT.,'degree',#7);
#9=IFCUNITASSIGNMENT((#4,#2,#8,#3));
#10=IFCCARTESIANPOINT((0.,0.,0.));
#11=IFCDIRECTION((0.,0.,1.));
#12=IFCDIRECTION((1.,0.,0.));
#13=IFCAXIS2PLACEMENT3D(#10,#11,#12);
#14=IFCGEOMETRICREPRESENTATIONCONTEXT($,'Model',3,1.E-05,#13,$);
#15=IFCGEOMETRICREPRESENTATIONSUBCONTEXT('Body','Model',*,*,*,*,#14,$,.MODEL_VIEW.,$);
#16=IFCGEOMETRICREPRESENTATIONSUBCONTEXT('Axis','Model',*,*,*,*,#14,$,.GRAPH_VIEW.,$);
#17=IFCGEOMETRICREPRESENTATIONSUBCONTEXT('Box','Model',*,*,*,*,#14,$,.MODEL_VIEW.,$);
#18=IFCGEOMETRICREPRESENTATIONSUBCONTEXT('Annotation','Model',*,*,*,*,#14,$,.SECTION_VIEW.,$);
#19=IFCGEOMETRICREPRESENTATIONSUBCONTEXT('Annotation','Model',*,*,*,*,#14,$,.ELEVATION_VIEW.,$);
#20=IFCGEOMETRICREPRESENTATIONSUBCONTEXT('Annotation','Model',*,*,*,*,#14,$,.MODEL_VIEW.,$);
#21=IFCGEOMETRICREPRESENTATIONSUBCONTEXT('Annotation','Model',*,*,*,*,#14,$,.PLAN_VIEW.,$);
#22=IFCGEOMETRICREPRESENTATIONSUBCONTEXT('Profile','Model',*,*,*,*,#14,$,.ELEVATION_VIEW.,$);
#23=IFCCARTESIANPOINT((0.,0.));
#24=IFCDIRECTION((1.,0.));
#25=IFCAXIS2PLACEMENT2D(#23,#24);
#26=IFCGEOMETRICREPRESENTATIONCONTEXT($,'Plan',2,1.E-05,#25,$);
#27=IFCGEOMETRICREPRESENTATIONSUBCONTEXT('Axis','Plan',*,*,*,*,#26,$,.GRAPH_VIEW.,$);
#28=IFCGEOMETRICREPRESENTATIONSUBCONTEXT('Body','Plan',*,*,*,*,#26,$,.PLAN_VIEW.,$);
#29=IFCGEOMETRICREPRESENTATIONSUBCONTEXT('Annotation','Plan',*,*,*,*,#26,$,.PLAN_VIEW.,$);
#30=IFCGEOMETRICREPRESENTATIONSUBCONTEXT('Annotation','Plan',*,*,*,*,#26,$,.REFLECTED_PLAN_VIEW.,$);
#31=IFCSITE('1wx_dXzZPF3gZy8iRe8_pW',$,'My Site',$,$,#54,$,$,$,$,$,$,$,$);
#37=IFCBUILDING('2nHT9Rl2H2uej3VsjC3emk',$,'My Building',$,$,#60,$,$,$,$,$,$);
#43=IFCBUILDINGSTOREY('1uvnRkI1zF89YuxVzrPZ1t',$,'My Storey',$,$,#66,$,$,$,$);
#49=IFCRELAGGREGATES('0W7WoHYWX3Gfv63WRD36RH',$,$,$,#1,(#31));
#50=IFCCARTESIANPOINT((0.,0.,0.));
#51=IFCDIRECTION((0.,0.,1.));
#52=IFCDIRECTION((1.,0.,0.));
#53=IFCAXIS2PLACEMENT3D(#50,#51,#52);
#54=IFCLOCALPLACEMENT($,#53);
#55=IFCRELAGGREGATES('1U_w_gx2bB_QESzdg5kQlF',$,$,$,#31,(#37));
#56=IFCCARTESIANPOINT((0.,0.,0.));
#57=IFCDIRECTION((0.,0.,1.));
#58=IFCDIRECTION((1.,0.,0.));
#59=IFCAXIS2PLACEMENT3D(#56,#57,#58);
#60=IFCLOCALPLACEMENT(#54,#59);
#61=IFCRELAGGREGATES('2YBKZ7CY9FWRmVL8ePeMpL',$,$,$,#37,(#43));
#62=IFCCARTESIANPOINT((0.,0.,0.));
#63=IFCDIRECTION((0.,0.,1.));
#64=IFCDIRECTION((1.,0.,0.));
#65=IFCAXIS2PLACEMENT3D(#62,#63,#64);
#66=IFCLOCALPLACEMENT(#60,#65);
#67=IFCWALLTYPE('1QU8yJspfC5f4ataJQV4u0',$,'Unnamed',$,$,(#72),$,$,$,.SOLIDWALL.);
#68=IFCMATERIAL('Unknown',$,$);
#69=IFCMATERIALLAYERSET((#71),$,$);
#70=IFCRELASSOCIATESMATERIAL('1MQ3hhcHrEYgNhkMnyJ09u',$,$,$,(#67),#69);
#71=IFCMATERIALLAYER(#68,0.1,$,$,$,$,$);
#72=IFCPROPERTYSET('1XxO95r$907vR2p_9lrsdK',$,'EPset_Parametric',$,(#73));
#73=IFCPROPERTYSINGLEVALUE('LayerSetDirection',$,IFCLABEL('AXIS2'),$);
#75=IFCRELCONTAINEDINSPATIALSTRUCTURE('1xrS78c4TEJR2tRmOLsk0c',$,$,$,(#1275),#43);
#420=IFCSLABTYPE('3mzuAc3A5DhvhE0Ig8U8SL',$,'Unnamed',$,$,(#424),$,$,$,.FLOOR.);
#421=IFCMATERIALLAYERSET((#423),$,$);
#422=IFCRELASSOCIATESMATERIAL('2bkAihwdDECQD7gILolJbT',$,$,$,(#420),#421);
#423=IFCMATERIALLAYER(#68,0.1,$,$,$,$,$);
#424=IFCPROPERTYSET('21ShRzKz185hNuMY$IzxEH',$,'EPset_Parametric',$,(#425));
#425=IFCPROPERTYSINGLEVALUE('LayerSetDirection',$,IFCLABEL('AXIS3'),$);
#1115=IFCDOORTYPE('0ubP9k$KnCxQfi1H7HHcmD',$,'Unnamed',$,$,(#1116),(#1125,#1203,#1222),$,$,.DOOR.,.SINGLE_SWING_LEFT.,$,$);
#1116=IFCPROPERTYSET('1MUpTMzLv82hCEn7R3QKsG',$,'BBIM_Door',$,(#1117));
#1117=IFCPROPERTYSINGLEVALUE('Data',$,IFCTEXT('{"door_type": "SINGLE_SWING_LEFT", "overall_height": 2.0, "overall_width": 0.8999999761581421, "lining_properties": {"lining_depth": 0.05000000074505806, "lining_thickness": 0.05000000074505806, "lining_offset": 0.0, "lining_to_panel_offset_x": 0.02500000037252903, "lining_to_panel_offset_y": 0.02500000037252903, "transom_thickness": 0.0, "casing_thickness": 0.07500000298023224, "casing_depth": 0.004999999888241291, "threshold_thickness": 0.02500000037252903, "threshold_depth": 0.10000000149011612, "threshold_offset": 0.0}, "panel_properties": {"panel_depth": 0.03500000014901161, "panel_width_ratio": 1.0}}'),$);
#1118=IFCCARTESIANPOINTLIST3D(((0.,0.,0.),(0.899999976158142,0.,0.),(0.899999976158142,0.,2.),(0.,0.,2.)));
#1119=IFCINDEXEDPOLYCURVE(#1118,(IFCLINEINDEX((1,2,3,4,1))),$);
#1120=IFCSHAPEREPRESENTATION(#22,'Profile','Curve3D',(#1119));
#1121=IFCCARTESIANPOINT((0.,0.,0.));
#1122=IFCDIRECTION((1.,0.,0.));
#1123=IFCDIRECTION((0.,0.,1.));
#1124=IFCAXIS2PLACEMENT3D(#1121,#1123,#1122);
#1125=IFCREPRESENTATIONMAP(#1124,#1120);
#1126=IFCCARTESIANPOINTLIST2D(((0.,0.),(0.,2.),(0.899999976158142,2.),(0.899999976158142,0.),(0.874999975785613,0.),(0.874999975785613,1.97499999962747),(0.025000000372529,1.97499999962747),(0.025000000372529,0.)));
#1127=IFCINDEXEDPOLYCURVE(#1126,(IFCLINEINDEX((1,2,3,4,5,6,7,8,1))),$);
#1128=IFCARBITRARYCLOSEDPROFILEDEF(.AREA.,$,#1127);
#1129=IFCCARTESIANPOINT((0.,0.025000000372529,0.));
#1130=IFCDIRECTION((0.,-1.,0.));
#1131=IFCDIRECTION((1.,0.,0.));
#1132=IFCAXIS2PLACEMENT3D(#1129,#1130,#1131);
#1133=IFCDIRECTION((0.,0.,-1.));
#1134=IFCEXTRUDEDAREASOLID(#1128,#1132,#1133,0.025000000372529);
#1135=IFCCARTESIANPOINTLIST2D(((0.,0.),(0.,2.),(0.899999976158142,2.),(0.899999976158142,0.),(0.849999975413084,0.),(0.849999975413084,1.94999999925494),(0.0500000007450581,1.94999999925494),(0.0500000007450581,0.)));
#1136=IFCINDEXEDPOLYCURVE(#1135,(IFCLINEINDEX((1,2,3,4,5,6,7,8,1))),$);
#1137=IFCARBITRARYCLOSEDPROFILEDEF(.AREA.,$,#1136);
#1138=IFCCARTESIANPOINT((0.,0.,0.));
#1139=IFCDIRECTION((0.,-1.,0.));
#1140=IFCDIRECTION((1.,0.,0.));
#1141=IFCAXIS2PLACEMENT3D(#1138,#1139,#1140);
#1142=IFCDIRECTION((0.,0.,-1.));
#1143=IFCEXTRUDEDAREASOLID(#1137,#1141,#1142,0.025000000372529);
#1144=IFCCARTESIANPOINTLIST2D(((0.,0.),(0.799999974668026,0.),(0.799999974668026,0.100000001490116),(0.,0.100000001490116)));
#1145=IFCINDEXEDPOLYCURVE(#1144,(IFCLINEINDEX((1,2,3,4,1))),$);
#1146=IFCARBITRARYCLOSEDPROFILEDEF(.AREA.,$,#1145);
#1147=IFCCARTESIANPOINT((0.0500000007450581,0.,0.));
#1148=IFCDIRECTION((0.,0.,1.));
#1149=IFCDIRECTION((1.,0.,0.));
#1150=IFCAXIS2PLACEMENT3D(#1147,#1148,#1149);
#1151=IFCDIRECTION((0.,0.,1.));
#1152=IFCEXTRUDEDAREASOLID(#1146,#1150,#1151,0.025000000372529);
#1153=IFCCARTESIANPOINTLIST2D(((0.,0.),(0.,2.02500000223517),(0.94999998062849,2.02500000223517),(0.94999998062849,0.),(0.874999977648258,0.),(0.874999977648258,1.94999999925494),(0.0750000029802322,1.94999999925494),(0.0750000029802322,0.)));
#1154=IFCINDEXEDPOLYCURVE(#1153,(IFCLINEINDEX((1,2,3,4,5,6,7,8,1))),$);
#1155=IFCARBITRARYCLOSEDPROFILEDEF(.AREA.,$,#1154);
#1156=IFCCARTESIANPOINT((-0.0250000022351742,-0.00499999988824129,0.));
#1157=IFCDIRECTION((0.,-1.,0.));
#1158=IFCDIRECTION((1.,0.,0.));
#1159=IFCAXIS2PLACEMENT3D(#1156,#1157,#1158);
#1160=IFCDIRECTION((0.,0.,-1.));
#1161=IFCEXTRUDEDAREASOLID(#1155,#1159,#1160,0.00499999988824129);
#1162=IFCCARTESIANPOINTLIST2D(((0.,0.),(0.,2.02500000223517),(0.94999998062849,2.02500000223517),(0.94999998062849,0.),(0.899999978020787,0.),(0.899999978020787,1.97499999962747),(0.0500000026077032,1.97499999962747),(0.0500000026077032,0.)));
#1163=IFCINDEXEDPOLYCURVE(#1162,(IFCLINEINDEX((1,2,3,4,5,6,7,8,1))),$);
#1164=IFCARBITRARYCLOSEDPROFILEDEF(.AREA.,$,#1163);
#1165=IFCCARTESIANPOINT((-0.0250000022351742,0.0500000007450581,0.));
#1166=IFCDIRECTION((0.,-1.,0.));
#1167=IFCDIRECTION((1.,0.,0.));
#1168=IFCAXIS2PLACEMENT3D(#1165,#1166,#1167);
#1169=IFCDIRECTION((0.,0.,-1.));
#1170=IFCEXTRUDEDAREASOLID(#1164,#1168,#1169,0.00499999988824129);
#1171=IFCCARTESIANPOINTLIST2D(((0.,0.),(0.849999975413084,0.),(0.849999975413084,0.0350000001490116),(0.,0.0350000001490116)));
#1172=IFCINDEXEDPOLYCURVE(#1171,(IFCLINEINDEX((1,2,3,4,1))),$);
#1173=IFCARBITRARYCLOSEDPROFILEDEF(.AREA.,$,#1172);
#1174=IFCCARTESIANPOINT((0.025000000372529,0.025000000372529,0.025000000372529));
#1175=IFCDIRECTION((0.,0.,1.));
#1176=IFCDIRECTION((1.,0.,0.));
#1177=IFCAXIS2PLACEMENT3D(#1174,#1175,#1176);
#1178=IFCDIRECTION((0.,0.,1.));
#1179=IFCEXTRUDEDAREASOLID(#1173,#1177,#1178,1.94999999925494);
#1180=IFCCARTESIANPOINTLIST2D(((0.,0.),(0.,-0.04),(-0.12,-0.04),(-0.12,-0.02),(-0.02,-0.02),(-0.02,0.)));
#1181=IFCINDEXEDPOLYCURVE(#1180,(IFCLINEINDEX((1,2,3,4,5,6,1))),$);
#1182=IFCARBITRARYCLOSEDPROFILEDEF(.AREA.,$,#1181);
#1183=IFCCARTESIANPOINT((0.824999975785613,0.025000000372529,1.01500000037253));
#1184=IFCDIRECTION((0.,0.,1.));
#1185=IFCDIRECTION((1.,0.,0.));
#1186=IFCAXIS2PLACEMENT3D(#1183,#1184,#1185);
#1187=IFCDIRECTION((0.,0.,1.));
#1188=IFCEXTRUDEDAREASOLID(#1182,#1186,#1187,0.02);
#1189=IFCEXTRUDEDAREASOLID(#1190,#1193,#1197,0.02);
#1190=IFCARBITRARYCLOSEDPROFILEDEF(.AREA.,$,#1191);
#1191=IFCINDEXEDPOLYCURVE(#1192,(IFCLINEINDEX((1,2,3,4,5,6,1))),$);
#1192=IFCCARTESIANPOINTLIST2D(((0.,0.),(0.,0.04),(-0.12,0.04),(-0.12,0.02),(-0.02,0.02),(-0.02,0.)));
#1193=IFCAXIS2PLACEMENT3D(#1194,#1195,#1196);
#1194=IFCCARTESIANPOINT((0.824999975785613,0.0600000005215406,1.01500000037253));
#1195=IFCDIRECTION((0.,0.,1.));
#1196=IFCDIRECTION((1.,0.,0.));
#1197=IFCDIRECTION((0.,0.,1.));
#1198=IFCSHAPEREPRESENTATION(#15,'Body','SolidModel',(#1134,#1143,#1179,#1188,#1189,#1152,#1161,#1170));
#1199=IFCCARTESIANPOINT((0.,0.,0.));
#1200=IFCDIRECTION((1.,0.,0.));
#1201=IFCDIRECTION((0.,0.,1.));
#1202=IFCAXIS2PLACEMENT3D(#1199,#1201,#1200);
#1203=IFCREPRESENTATIONMAP(#1202,#1198);
#1204=IFCCARTESIANPOINTLIST2D(((0.,0.),(0.,0.0500000007450581),(0.025000000372529,0.0500000007450581),(0.025000000372529,0.025000000372529),(0.0500000007450581,0.025000000372529),(0.0500000007450581,0.)));
#1205=IFCINDEXEDPOLYCURVE(#1204,(IFCLINEINDEX((1,2,3,4,5,6,1))),$);
#1206=IFCINDEXEDPOLYCURVE(#1207,(IFCLINEINDEX((1,2,3,4,5,6,1))),$);
#1207=IFCCARTESIANPOINTLIST2D(((0.899999976158142,0.),(0.899999976158142,0.0500000007450581),(0.874999975785613,0.0500000007450581),(0.874999975785613,0.025000000372529),(0.849999975413084,0.025000000372529),(0.849999975413084,0.)));
#1208=IFCDIRECTION((1.,0.));
#1209=IFCCARTESIANPOINT((0.0600000005215406,0.0500000007450581));
#1210=IFCAXIS2PLACEMENT2D(#1209,#1208);
#1211=IFCELLIPSE(#1210,0.814999975264072,0.849999975413084);
#1212=IFCCARTESIANPOINT((0.874999975785613,0.0500000007450581));
#1213=IFCCARTESIANPOINT((0.0600000005215406,0.899999976158142));
#1214=IFCTRIMMEDCURVE(#1211,(#1212),(#1213),.T.,.CARTESIAN.);
#1215=IFCCARTESIANPOINTLIST2D(((0.025000000372529,0.0500000007450581),(0.0600000005215406,0.0500000007450581),(0.0600000005215406,0.899999976158142),(0.025000000372529,0.899999976158142)));
#1216=IFCINDEXEDPOLYCURVE(#1215,(IFCLINEINDEX((1,2,3,4,1))),$);
#1217=IFCSHAPEREPRESENTATION(#28,'Body','Curve2D',(#1205,#1206,#1214,#1216));
#1218=IFCCARTESIANPOINT((0.,0.,0.));
#1219=IFCDIRECTION((1.,0.,0.));
#1220=IFCDIRECTION((0.,0.,1.));
#1221=IFCAXIS2PLACEMENT3D(#1218,#1220,#1219);
#1222=IFCREPRESENTATIONMAP(#1221,#1217);
#1275=IFCDOOR('0S0NG4owH0uBivEhLsmS3F',$,'Door',$,$,#1313,#1284,$,2.,0.899999976158142,$,$,$);
#1276=IFCRELDEFINESBYTYPE('0mB92kn8P1EA9hfeHtmMHb',$,$,$,(#1275),#1115);
#1277=IFCCARTESIANPOINT((0.,0.,0.));
#1278=IFCDIRECTION((1.,0.,0.));
#1279=IFCDIRECTION((0.,1.,0.));
#1280=IFCDIRECTION((0.,0.,1.));
#1281=IFCCARTESIANTRANSFORMATIONOPERATOR3D(#1278,#1279,#1277,1.,#1280);
#1282=IFCMAPPEDITEM(#1125,#1281);
#1283=IFCSHAPEREPRESENTATION(#22,'Profile','MappedRepresentation',(#1282));
#1284=IFCPRODUCTDEFINITIONSHAPE($,$,(#1283,#1291,#1298));
#1285=IFCCARTESIANPOINT((0.,0.,0.));
#1286=IFCDIRECTION((1.,0.,0.));
#1287=IFCDIRECTION((0.,1.,0.));
#1288=IFCDIRECTION((0.,0.,1.));
#1289=IFCCARTESIANTRANSFORMATIONOPERATOR3D(#1286,#1287,#1285,1.,#1288);
#1290=IFCMAPPEDITEM(#1203,#1289);
#1291=IFCSHAPEREPRESENTATION(#15,'Body','MappedRepresentation',(#1290));
#1292=IFCCARTESIANPOINT((0.,0.,0.));
#1293=IFCDIRECTION((1.,0.,0.));
#1294=IFCDIRECTION((0.,1.,0.));
#1295=IFCDIRECTION((0.,0.,1.));
#1296=IFCCARTESIANTRANSFORMATIONOPERATOR3D(#1293,#1294,#1292,1.,#1295);
#1297=IFCMAPPEDITEM(#1222,#1296);
#1298=IFCSHAPEREPRESENTATION(#28,'Body','MappedRepresentation',(#1297));
#1309=IFCCARTESIANPOINT((0.,0.,0.));
#1310=IFCDIRECTION((0.,0.,1.));
#1311=IFCDIRECTION((1.,0.,0.));
#1312=IFCAXIS2PLACEMENT3D(#1309,#1310,#1311);
#1313=IFCLOCALPLACEMENT(#66,#1312);
ENDSEC;
END-ISO-10303-21;
