<?xml version="1.0" encoding="utf-8"?>
<COLLADA xmlns="http://www.collada.org/2005/11/COLLADASchema" version="1.4.1" xmlns:xsi="http://www.w3.org/2001/XMLSchema-instance">
  <asset>
    <contributor>
      <authoring_tool>IfcOpenShell 0.8.1-c49ca69</authoring_tool>
    </contributor>
    <created>2025-05-08T14:35:19</created>
    <modified>2025-05-08T14:35:19</modified>
    <unit name="METER" meter="1"/>
    <up_axis>Z_UP</up_axis>
  </asset>
  <library_effects>
    <effect id="IfcWindow-fx">
      <profile_COMMON>
        <technique sid="common">
          <lambert>
            <diffuse>
              <color>0.75 0.8 0.75 1</color>
            </diffuse>
            <transparency>
              <float>0.6999999999999999</float>
            </transparency>
          </lambert>
        </technique>
      </profile_COMMON>
    </effect>
  </library_effects>
  <library_materials>
    <material id="IfcWindow">
      <instance_effect url="#IfcWindow-fx"/>
    </material>
  </library_materials>
  <library_geometries>
    <geometry id="representation-2418">
      <mesh>
        <source id="representation-2418-positions">
          <float_array id="representation-2418-positions-array" count="504">0 0.09000000171363342 0 0 0.1000000014901161 0 0.600000023841858 0.1000000014901161 0 0.600000023841858 0.09000000171363342 0 0.600000023841858 0.09000000171363342 0 0.600000023841858 0.1000000014901161 0 0.600000023841858 0.1000000014901161 0.8999999761581419 0.600000023841858 0.09000000171363342 0.8999999761581419 0.600000023841858 0.09000000171363342 0.8999999761581419 0.600000023841858 0.1000000014901161 0.8999999761581419 0 0.1000000014901161 0.8999999761581419 0 0.09000000171363342 0.8999999761581419 0 0.09000000171363342 0.8999999761581419 0 0.1000000014901161 0.8999999761581419 0 0.1000000014901161 0 0 0.09000000171363342 0 0.02500000037252891 0.09000000171363342 0.8749999757856129 0.02500000037252891 0.1000000014901161 0.8749999757856129 0.02500000037252891 0.1000000014901161 0.02500000037252891 0.02500000037252891 0.09000000171363342 0.02500000037252891 0.5750000234693289 0.09000000171363342 0.8749999757856129 0.5750000234693289 0.1000000014901161 0.8749999757856129 0.02500000037252891 0.1000000014901161 0.8749999757856129 0.02500000037252891 0.09000000171363342 0.8749999757856129 0.5750000234693289 0.09000000171363342 0.02500000037252891 0.5750000234693289 0.1000000014901161 0.02500000037252891 0.5750000234693289 0.1000000014901161 0.8749999757856129 0.5750000234693289 0.09000000171363342 0.8749999757856129 0.02500000037252891 0.09000000171363342 0.02500000037252891 0.02500000037252891 0.1000000014901161 0.02500000037252891 0.5750000234693289 0.1000000014901161 0.02500000037252891 0.5750000234693289 0.09000000171363342 0.02500000037252891 0 0.09000000171363342 0 0.600000023841858 0.09000000171363342 0 0.600000023841858 0.09000000171363342 0.8999999761581419 0 0.09000000171363342 0.8999999761581419 0.02500000037252891 0.09000000171363342 0.8749999757856129 0.02500000037252891 0.09000000171363342 0.02500000037252891 0.5750000234693289 0.09000000171363342 0.8749999757856129 0.5750000234693289 0.09000000171363342 0.02500000037252891 0 0.1000000014901161 0 0.600000023841858 0.1000000014901161 0 0.600000023841858 0.1000000014901161 0.8999999761581419 0 0.1000000014901161 0.8999999761581419 0.02500000037252891 0.1000000014901161 0.8749999757856129 0.02500000037252891 0.1000000014901161 0.02500000037252891 0.5750000234693289 0.1000000014901161 0.8749999757856129 0.5750000234693289 0.1000000014901161 0.02500000037252891 0 0.05000000074505805 0 0 0.09000000171363353 0 0.600000023841858 0.09000000171363353 0 0.600000023841858 0.05000000074505805 0 0.600000023841858 0.05000000074505805 0 0.600000023841858 0.09000000171363353 0 0.600000023841858 0.09000000171363353 0.8999999761581419 0.600000023841858 0.05000000074505805 0.8999999761581419 0.600000023841858 0.05000000074505805 0.8999999761581419 0.600000023841858 0.09000000171363353 0.8999999761581419 0 0.09000000171363353 0.8999999761581419 0 0.05000000074505805 0.8999999761581419 0 0.05000000074505805 0.8999999761581419 0 0.09000000171363353 0.8999999761581419 0 0.09000000171363353 0 0 0.05000000074505805 0 0.05000000074505805 0.05000000074505805 0.849999975413084 0.05000000074505805 0.09000000171363353 0.849999975413084 0.05000000074505805 0.09000000171363353 0.05000000074505805 0.05000000074505805 0.05000000074505805 0.05000000074505805 0.5500000230967999 0.05000000074505805 0.849999975413084 0.5500000230967999 0.09000000171363353 0.849999975413084 0.05000000074505805 0.09000000171363353 0.849999975413084 0.05000000074505805 0.05000000074505805 0.849999975413084 0.5500000230967999 0.05000000074505805 0.05000000074505805 0.5500000230967999 0.09000000171363353 0.05000000074505805 0.5500000230967999 0.09000000171363353 0.849999975413084 0.5500000230967999 0.05000000074505805 0.849999975413084 0.05000000074505805 0.05000000074505805 0.05000000074505805 0.05000000074505805 0.09000000171363353 0.05000000074505805 0.5500000230967999 0.09000000171363353 0.05000000074505805 0.5500000230967999 0.05000000074505805 0.05000000074505805 0 0.05000000074505805 0 0.600000023841858 0.05000000074505805 0 0.600000023841858 0.05000000074505805 0.8999999761581419 0 0.05000000074505805 0.8999999761581419 0.05000000074505805 0.05000000074505805 0.849999975413084 0.05000000074505805 0.05000000074505805 0.05000000074505805 0.5500000230967999 0.05000000074505805 0.849999975413084 0.5500000230967999 0.05000000074505805 0.05000000074505805 0 0.09000000171363353 0 0.600000023841858 0.09000000171363353 0 0.600000023841858 0.09000000171363353 0.8999999761581419 0 0.09000000171363353 0.8999999761581419 0.05000000074505805 0.09000000171363353 0.849999975413084 0.05000000074505805 0.09000000171363353 0.05000000074505805 0.5500000230967999 0.09000000171363353 0.849999975413084 0.5500000230967999 0.09000000171363353 0.05000000074505805 0.02500000037252891 0.09000000171363342 0.02500000037252891 0.02500000037252891 0.1250000018626451 0.02500000037252891 0.5750000234693289 0.1250000018626451 0.02500000037252891 0.5750000234693289 0.09000000171363342 0.02500000037252891 0.5750000234693289 0.09000000171363342 0.02500000037252891 0.5750000234693289 0.1250000018626451 0.02500000037252891 0.5750000234693289 0.1250000018626451 0.874999975785613 0.5750000234693289 0.09000000171363342 0.874999975785613 0.5750000234693289 0.09000000171363342 0.874999975785613 0.5750000234693289 0.1250000018626451 0.874999975785613 0.02500000037252891 0.1250000018626451 0.874999975785613 0.02500000037252891 0.09000000171363342 0.874999975785613 0.02500000037252891 0.09000000171363342 0.874999975785613 0.02500000037252891 0.1250000018626451 0.874999975785613 0.02500000037252891 0.1250000018626451 0.02500000037252891 0.02500000037252891 0.09000000171363342 0.02500000037252891 0.06000000052154053 0.09000000171363342 0.839999975636601 0.06000000052154053 0.1250000018626451 0.839999975636601 0.06000000052154053 0.1250000018626451 0.06000000052154053 0.06000000052154053 0.09000000171363342 0.06000000052154053 0.540000023320317 0.09000000171363342 0.839999975636601 0.540000023320317 0.1250000018626451 0.839999975636601 0.06000000052154053 0.1250000018626451 0.839999975636601 0.06000000052154053 0.09000000171363342 0.839999975636601 0.540000023320317 0.09000000171363342 0.06000000052154053 0.540000023320317 0.1250000018626451 0.06000000052154053 0.540000023320317 0.1250000018626451 0.839999975636601 0.540000023320317 0.09000000171363342 0.839999975636601 0.06000000052154053 0.09000000171363342 0.06000000052154053 0.06000000052154053 0.1250000018626451 0.06000000052154053 0.540000023320317 0.1250000018626451 0.06000000052154053 0.540000023320317 0.09000000171363342 0.06000000052154053 0.02500000037252891 0.09000000171363342 0.02500000037252891 0.5750000234693289 0.09000000171363342 0.02500000037252891 0.5750000234693289 0.09000000171363342 0.874999975785613 0.02500000037252891 0.09000000171363342 0.874999975785613 0.06000000052154053 0.09000000171363342 0.839999975636601 0.06000000052154053 0.09000000171363342 0.06000000052154053 0.540000023320317 0.09000000171363342 0.839999975636601 0.540000023320317 0.09000000171363342 0.06000000052154053 0.02500000037252891 0.1250000018626451 0.02500000037252891 0.5750000234693289 0.1250000018626451 0.02500000037252891 0.5750000234693289 0.1250000018626451 0.874999975785613 0.02500000037252891 0.1250000018626451 0.874999975785613 0.06000000052154053 0.1250000018626451 0.839999975636601 0.06000000052154053 0.1250000018626451 0.06000000052154053 0.540000023320317 0.1250000018626451 0.839999975636601 0.540000023320317 0.1250000018626451 0.06000000052154053 0.06000000052154053 0.102500001788139 0.06000000052154053 0.06000000052154053 0.112500001788139 0.06000000052154053 0.540000023320317 0.112500001788139 0.06000000052154053 0.540000023320317 0.102500001788139 0.06000000052154053 0.540000023320317 0.102500001788139 0.06000000052154053 0.540000023320317 0.112500001788139 0.06000000052154053 0.540000023320317 0.112500001788139 0.839999975636601 0.540000023320317 0.102500001788139 0.839999975636601 0.540000023320317 0.102500001788139 0.839999975636601 0.540000023320317 0.112500001788139 0.839999975636601 0.06000000052154053 0.112500001788139 0.839999975636601 0.06000000052154053 0.102500001788139 0.839999975636601 0.06000000052154053 0.102500001788139 0.839999975636601 0.06000000052154053 0.112500001788139 0.839999975636601 0.06000000052154053 0.112500001788139 0.06000000052154053 0.06000000052154053 0.102500001788139 0.06000000052154053 0.06000000052154053 0.102500001788139 0.06000000052154053 0.540000023320317 0.102500001788139 0.06000000052154053 0.540000023320317 0.102500001788139 0.839999975636601 0.06000000052154053 0.102500001788139 0.839999975636601 0.06000000052154053 0.112500001788139 0.06000000052154053 0.540000023320317 0.112500001788139 0.06000000052154053 0.540000023320317 0.112500001788139 0.839999975636601 0.06000000052154053 0.112500001788139 0.839999975636601</float_array>
          <technique_common>
            <accessor source="#representation-2418-positions-array" count="168" stride="3">
              <param name="X" type="float"/>
              <param name="Y" type="float"/>
              <param name="Z" type="float"/>
            </accessor>
          </technique_common>
        </source>
        <source id="representation-2418-normals">
          <float_array id="representation-2418-normals-array" count="504">0 0 -1 0 0 -1 0 0 -1 0 0 -1 1 0 0 1 0 0 1 0 0 1 0 0 0 0 1 0 0 1 0 0 1 0 0 1 -1 0 0 -1 0 0 -1 0 0 -1 0 0 1 0 0 1 0 0 1 0 0 1 0 0 0 0 -1 0 0 -1 0 0 -1 0 0 -1 -1 0 0 -1 0 0 -1 0 0 -1 0 0 0 0 1 0 0 1 0 0 1 0 0 1 0 -1 0 0 -1 0 0 -1 0 0 -1 0 0 -1 0 0 -1 0 0 -1 0 0 -1 0 0 1 0 0 1 0 0 1 0 0 1 0 0 1 0 0 1 0 0 1 0 0 1 0 0 0 -1 0 0 -1 0 0 -1 0 0 -1 1 0 0 1 0 0 1 0 0 1 0 0 0 0 1 0 0 1 0 0 1 0 0 1 -1 0 0 -1 0 0 -1 0 0 -1 0 0 1 0 0 1 0 0 1 0 0 1 0 0 0 0 -1 0 0 -1 0 0 -1 0 0 -1 -1 0 0 -1 0 0 -1 0 0 -1 0 0 0 0 1 0 0 1 0 0 1 0 0 1 0 -1 0 0 -1 0 0 -1 0 0 -1 0 0 -1 0 0 -1 0 0 -1 0 0 -1 0 0 1 0 0 1 0 0 1 0 0 1 0 0 1 0 0 1 0 0 1 0 0 1 0 0 0 -1 0 0 -1 0 0 -1 0 0 -1 1 0 0 1 0 0 1 0 0 1 0 0 0 0 1 0 0 1 0 0 1 0 0 1 -1 0 0 -1 0 0 -1 0 0 -1 0 0 1 0 0 1 0 0 1 0 0 1 0 0 0 0 -1 0 0 -1 0 0 -1 0 0 -1 -1 0 0 -1 0 0 -1 0 0 -1 0 0 0 0 1 0 0 1 0 0 1 0 0 1 0 -1 0 0 -1 0 0 -1 0 0 -1 0 0 -1 0 0 -1 0 0 -1 0 0 -1 0 0 1 0 0 1 0 0 1 0 0 1 0 0 1 0 0 1 0 0 1 0 0 1 0 0 0 -1 0 0 -1 0 0 -1 0 0 -1 1 0 0 1 0 0 1 0 0 1 0 0 0 0 1 0 0 1 0 0 1 0 0 1 -1 0 0 -1 0 0 -1 0 0 -1 0 0 0 -1 0 0 -1 0 0 -1 0 0 -1 0 0 1 0 0 1 0 0 1 0 0 1 0</float_array>
          <technique_common>
            <accessor source="#representation-2418-normals-array" count="168" stride="3">
              <param name="X" type="float"/>
              <param name="Y" type="float"/>
              <param name="Z" type="float"/>
            </accessor>
          </technique_common>
        </source>
        <vertices id="representation-2418-vertices">
          <input semantic="POSITION" source="#representation-2418-positions"/>
        </vertices>
        <triangles material="IfcWindow" count="108">
          <input semantic="VERTEX" source="#representation-2418-vertices" offset="0"/>
          <input semantic="NORMAL" source="#representation-2418-normals" offset="1"/>
          <p>3 3 0 0 1 1 3 3 1 1 2 2 7 7 4 4 5 5 7 7 5 5 6 6 11 11 8 8 9 9 11 11 9 9 10 10 15 15 12 12 13 13 15 15 13 13 14 14 17 17 16 16 19 19 18 18 17 17 19 19 21 21 20 20 23 23 22 22 21 21 23 23 25 25 24 24 27 27 26 26 25 25 27 27 29 29 28 28 31 31 30 30 29 29 31 31 33 33 39 39 37 37 33 33 37 37 32 32 36 36 35 35 32 32 36 36 32 32 37 37 34 34 36 36 38 38 34 34 38 38 39 39 34 34 35 35 36 36 34 34 39 39 33 33 45 45 47 47 41 41 40 40 45 45 41 41 40 40 43 43 44 44 45 45 40 40 44 44 46 46 44 44 42 42 47 47 46 46 42 42 44 44 43 43 42 42 41 41 47 47 42 42 51 51 48 48 49 49 51 51 49 49 50 50 55 55 52 52 53 53 55 55 53 53 54 54 59 59 56 56 57 57 59 59 57 57 58 58 63 63 60 60 61 61 63 63 61 61 62 62 65 65 64 64 67 67 66 66 65 65 67 67 69 69 68 68 71 71 70 70 69 69 71 71 73 73 72 72 75 75 74 74 73 73 75 75 77 77 76 76 79 79 78 78 77 77 79 79 87 87 80 80 81 81 87 87 85 85 80 80 84 84 83 83 80 80 84 84 80 80 85 85 82 82 84 84 86 86 82 82 86 86 87 87 82 82 83 83 84 84 82 82 87 87 81 81 89 89 88 88 95 95 88 88 93 93 95 95 88 88 91 91 92 92 93 93 88 88 92 92 94 94 92 92 90 90 95 95 94 94 90 90 92 92 91 91 90 90 89 89 95 95 90 90 99 99 96 96 97 97 99 99 97 97 98 98 103 103 100 100 101 101 103 103 101 101 102 102 107 107 104 104 105 105 107 107 105 105 106 106 111 111 108 108 109 109 111 111 109 109 110 110 113 113 112 112 115 115 114 114 113 113 115 115 117 117 116 116 119 119 118 118 117 117 119 119 121 121 120 120 123 123 122 122 121 121 123 123 125 125 124 124 127 127 126 126 125 125 127 127 129 129 135 135 133 133 129 129 133 133 128 128 131 131 133 133 132 132 131 131 128 128 133 133 130 130 132 132 134 134 130 130 134 134 135 135 130 130 135 135 129 129 130 130 131 131 132 132 141 141 143 143 137 137 136 136 141 141 137 137 140 140 141 141 139 139 141 141 136 136 139 139 142 142 140 140 138 138 143 143 142 142 138 138 137 137 143 143 138 138 140 140 139 139 138 138 147 147 144 144 145 145 147 147 145 145 146 146 151 151 148 148 149 149 151 151 149 149 150 150 155 155 152 152 153 153 155 155 153 153 154 154 159 159 156 156 157 157 159 159 157 157 158 158 162 162 160 160 161 161 162 162 163 163 160 160 165 165 164 164 166 166 164 164 167 167 166 166</p>
        </triangles>
      </mesh>
    </geometry>
  </library_geometries>
  <library_visual_scenes>
    <visual_scene id="IfcOpenShell">
      <node id="project" name="project" type="NODE">
        <matrix>1 0 0 0 0 1 0 0 0 0 1 0 0 0 0 1</matrix>
        <node id="product-7aefe9e1-f636-4f0e-a8fc-22c6e823ece0" name="product-7aefe9e1-f636-4f0e-a8fc-22c6e823ece0" type="NODE">
          <matrix>1 0 0 -2.44999980926514 0 1 0 -1.90535044670105 0 0 1 -2.00000023841858 0 0 0 1</matrix>
          <node id="product-b145d25b-bc24-42e2-8b43-7f6b4c0e8c2e" name="product-b145d25b-bc24-42e2-8b43-7f6b4c0e8c2e" type="NODE">
            <matrix>1 0 0 0 0 1 0 0 0 0 1 0 0 0 0 1</matrix>
            <node id="product-78e716ee-481f-4f20-98b8-edff75663077" name="product-78e716ee-481f-4f20-98b8-edff75663077" type="NODE">
              <matrix>1 0 0 0 0 1 0 0 0 0 1 0 0 0 0 1</matrix>
              <node id="product-067dc2b0-84c2-40ce-a5b1-d57d77ad77f8-body" name="product-067dc2b0-84c2-40ce-a5b1-d57d77ad77f8-body" type="NODE">
                <matrix>1 0 0 2.44999980926514 0 1 0 1.90535044670105 0 0 1 2.00000023841858 0 0 0 1</matrix>
                <instance_geometry url="#representation-2418">
                  <bind_material>
                    <technique_common>
                      <instance_material symbol="IfcWindow" target="#IfcWindow"/>
                    </technique_common>
                  </bind_material>
                </instance_geometry>
              </node>
            </node>
          </node>
        </node>
      </node>
    </visual_scene>
  </library_visual_scenes>
  <scene>
    <instance_visual_scene url="#IfcOpenShell"/>
  </scene>
</COLLADA>