<?xml version="1.0" encoding="utf-8"?>
<COLLADA xmlns="http://www.collada.org/2005/11/COLLADASchema" version="1.4.1" xmlns:xsi="http://www.w3.org/2001/XMLSchema-instance">
  <asset>
    <contributor>
      <authoring_tool>IfcOpenShell 0.8.1-c49ca69</authoring_tool>
    </contributor>
    <created>2025-05-08T14:35:19</created>
    <modified>2025-05-08T14:35:19</modified>
    <unit name="METER" meter="1"/>
    <up_axis>Z_UP</up_axis>
  </asset>
  <library_effects>
    <effect id="IfcDoor-fx">
      <profile_COMMON>
        <technique sid="common">
          <lambert>
            <diffuse>
              <color>0.55 0.3 0.15 1</color>
            </diffuse>
          </lambert>
        </technique>
      </profile_COMMON>
    </effect>
  </library_effects>
  <library_materials>
    <material id="IfcDoor">
      <instance_effect url="#IfcDoor-fx"/>
    </material>
  </library_materials>
  <library_geometries>
    <geometry id="representation-1198">
      <mesh>
        <source id="representation-1198-positions">
          <float_array id="representation-1198-positions-array" count="936">0 0.02500000037252891 0 0 0.05000000074505794 0 0 0.05000000074505794 2 0 0.02500000037252891 2 0 0.02500000037252891 2 0 0.05000000074505794 2 0.8999999761581419 0.05000000074505794 2 0.8999999761581419 0.02500000037252891 2 0.8999999761581419 0.02500000037252891 2 0.8999999761581419 0.05000000074505794 2 0.8999999761581419 0.05000000074505794 0 0.8999999761581419 0.02500000037252891 0 0.8999999761581419 0.02500000037252891 0 0.8999999761581419 0.05000000074505794 0 0.8749999757856129 0.05000000074505794 0 0.8749999757856129 0.02500000037252891 0 0.8749999757856129 0.02500000037252891 0 0.8749999757856129 0.05000000074505794 0 0.8749999757856129 0.05000000074505794 1.97499999962747 0.8749999757856129 0.02500000037252891 1.97499999962747 0.8749999757856129 0.02500000037252891 1.97499999962747 0.8749999757856129 0.05000000074505794 1.97499999962747 0.02500000037252891 0.05000000074505794 1.97499999962747 0.02500000037252891 0.02500000037252891 1.97499999962747 0.02500000037252891 0.02500000037252891 1.97499999962747 0.02500000037252891 0.05000000074505794 1.97499999962747 0.02500000037252891 0.05000000074505794 0 0.02500000037252891 0.02500000037252891 0 0.02500000037252891 0.02500000037252891 0 0.02500000037252891 0.05000000074505794 0 0 0.05000000074505794 0 0 0.02500000037252891 0 0 0.02500000037252891 0 0 0.02500000037252891 2 0.8999999761581419 0.02500000037252891 2 0.8999999761581419 0.02500000037252891 0 0.8749999757856129 0.02500000037252891 0 0.8749999757856129 0.02500000037252891 1.97499999962747 0.02500000037252891 0.02500000037252891 1.97499999962747 0.02500000037252891 0.02500000037252891 0 0 0.05000000074505794 0 0 0.05000000074505794 2 0.8999999761581419 0.05000000074505794 2 0.8999999761581419 0.05000000074505794 0 0.8749999757856129 0.05000000074505794 0 0.8749999757856129 0.05000000074505794 1.97499999962747 0.02500000037252891 0.05000000074505794 1.97499999962747 0.02500000037252891 0.05000000074505794 0 0 0 0 0 0.02500000037252891 0 0 0.02500000037252891 2 0 0 2 0 0 2 0 0.02500000037252891 2 0.8999999761581419 0.02500000037252891 2 0.8999999761581419 0 2 0.8999999761581419 0 2 0.8999999761581419 0.02500000037252891 2 0.8999999761581419 0.02500000037252891 0 0.8999999761581419 0 0 0.8999999761581419 0 0 0.8999999761581419 0.02500000037252891 0 0.849999975413084 0.02500000037252891 0 0.849999975413084 0 0 0.849999975413084 0 0 0.849999975413084 0.02500000037252891 0 0.849999975413084 0.02500000037252891 1.94999999925494 0.849999975413084 0 1.94999999925494 0.849999975413084 0 1.94999999925494 0.849999975413084 0.02500000037252891 1.94999999925494 0.05000000074505805 0.02500000037252891 1.94999999925494 0.05000000074505805 0 1.94999999925494 0.05000000074505805 0 1.94999999925494 0.05000000074505805 0.02500000037252891 1.94999999925494 0.05000000074505805 0.02500000037252891 0 0.05000000074505805 0 0 0.05000000074505805 0 0 0.05000000074505805 0.02500000037252891 0 0 0.02500000037252891 0 0 0 0 0 0 0 0 0 2 0.8999999761581419 0 2 0.8999999761581419 0 0 0.849999975413084 0 0 0.849999975413084 0 1.94999999925494 0.05000000074505805 0 1.94999999925494 0.05000000074505805 0 0 0 0.02500000037252891 0 0 0.02500000037252891 2 0.8999999761581419 0.02500000037252891 2 0.8999999761581419 0.02500000037252891 0 0.849999975413084 0.02500000037252891 0 0.849999975413084 0.02500000037252891 1.94999999925494 0.05000000074505805 0.02500000037252891 1.94999999925494 0.05000000074505805 0.02500000037252891 0 0.02500000037252891 0.02500000037252891 0.02500000037252891 0.02500000037252891 0.02500000037252891 1.974999999627469 0.874999975785613 0.02500000037252891 1.974999999627469 0.874999975785613 0.02500000037252891 0.02500000037252891 0.874999975785613 0.02500000037252891 0.02500000037252891 0.874999975785613 0.02500000037252891 1.974999999627469 0.874999975785613 0.06000000052154053 1.974999999627469 0.874999975785613 0.06000000052154053 0.02500000037252891 0.874999975785613 0.06000000052154053 0.02500000037252891 0.874999975785613 0.06000000052154053 1.974999999627469 0.02500000037252891 0.06000000052154053 1.974999999627469 0.02500000037252891 0.06000000052154053 0.02500000037252891 0.02500000037252891 0.06000000052154053 0.02500000037252891 0.02500000037252891 0.06000000052154053 1.974999999627469 0.02500000037252891 0.02500000037252891 1.974999999627469 0.02500000037252891 0.02500000037252891 0.02500000037252891 0.02500000037252891 0.02500000037252891 0.02500000037252891 0.874999975785613 0.02500000037252891 0.02500000037252891 0.874999975785613 0.06000000052154053 0.02500000037252891 0.02500000037252891 0.06000000052154053 0.02500000037252891 0.02500000037252891 0.02500000037252891 1.974999999627469 0.874999975785613 0.02500000037252891 1.974999999627469 0.874999975785613 0.06000000052154053 1.974999999627469 0.02500000037252891 0.06000000052154053 1.974999999627469 0.824999975785613 0.02500000037252891 1.01500000037253 0.824999975785613 0.02500000037252891 1.03500000037253 0.824999975785613 -0.014999999627471 1.03500000037253 0.824999975785613 -0.014999999627471 1.01500000037253 0.824999975785613 -0.014999999627471 1.01500000037253 0.824999975785613 -0.014999999627471 1.03500000037253 0.704999975785613 -0.014999999627471 1.03500000037253 0.704999975785613 -0.014999999627471 1.01500000037253 0.704999975785613 -0.014999999627471 1.01500000037253 0.704999975785613 -0.014999999627471 1.03500000037253 0.704999975785613 0.005000000372528901 1.03500000037253 0.704999975785613 0.005000000372528901 1.01500000037253 0.704999975785613 0.005000000372528901 1.01500000037253 0.704999975785613 0.005000000372528901 1.03500000037253 0.8049999757856129 0.005000000372528901 1.03500000037253 0.8049999757856129 0.005000000372528901 1.01500000037253 0.8049999757856129 0.005000000372528901 1.01500000037253 0.8049999757856129 0.005000000372528901 1.03500000037253 0.8049999757856129 0.02500000037252891 1.03500000037253 0.8049999757856129 0.02500000037252891 1.01500000037253 0.8049999757856129 0.02500000037252891 1.01500000037253 0.8049999757856129 0.02500000037252891 1.03500000037253 0.824999975785613 0.02500000037252891 1.03500000037253 0.824999975785613 0.02500000037252891 1.01500000037253 0.824999975785613 0.02500000037252891 1.01500000037253 0.824999975785613 -0.014999999627471 1.01500000037253 0.704999975785613 -0.014999999627471 1.01500000037253 0.704999975785613 0.005000000372528901 1.01500000037253 0.8049999757856129 0.005000000372528901 1.01500000037253 0.8049999757856129 0.02500000037252891 1.01500000037253 0.824999975785613 0.02500000037252891 1.03500000037253 0.824999975785613 -0.014999999627471 1.03500000037253 0.704999975785613 -0.014999999627471 1.03500000037253 0.704999975785613 0.005000000372528901 1.03500000037253 0.8049999757856129 0.005000000372528901 1.03500000037253 0.8049999757856129 0.02500000037252891 1.03500000037253 0.824999975785613 0.06000000052154053 1.01500000037253 0.824999975785613 0.06000000052154053 1.03500000037253 0.824999975785613 0.1000000005215405 1.03500000037253 0.824999975785613 0.1000000005215405 1.01500000037253 0.824999975785613 0.1000000005215405 1.01500000037253 0.824999975785613 0.1000000005215405 1.03500000037253 0.704999975785613 0.1000000005215405 1.03500000037253 0.704999975785613 0.1000000005215405 1.01500000037253 0.704999975785613 0.1000000005215405 1.01500000037253 0.704999975785613 0.1000000005215405 1.03500000037253 0.704999975785613 0.08000000052154054 1.03500000037253 0.704999975785613 0.08000000052154054 1.01500000037253 0.704999975785613 0.08000000052154054 1.01500000037253 0.704999975785613 0.08000000052154054 1.03500000037253 0.8049999757856129 0.08000000052154054 1.03500000037253 0.8049999757856129 0.08000000052154054 1.01500000037253 0.8049999757856129 0.08000000052154054 1.01500000037253 0.8049999757856129 0.08000000052154054 1.03500000037253 0.8049999757856129 0.06000000052154053 1.03500000037253 0.8049999757856129 0.06000000052154053 1.01500000037253 0.8049999757856129 0.06000000052154053 1.01500000037253 0.8049999757856129 0.06000000052154053 1.03500000037253 0.824999975785613 0.06000000052154053 1.03500000037253 0.824999975785613 0.06000000052154053 1.01500000037253 0.824999975785613 0.06000000052154053 1.01500000037253 0.824999975785613 0.1000000005215405 1.01500000037253 0.704999975785613 0.1000000005215405 1.01500000037253 0.704999975785613 0.08000000052154054 1.01500000037253 0.8049999757856129 0.08000000052154054 1.01500000037253 0.8049999757856129 0.06000000052154053 1.01500000037253 0.824999975785613 0.06000000052154053 1.03500000037253 0.824999975785613 0.1000000005215405 1.03500000037253 0.704999975785613 0.1000000005215405 1.03500000037253 0.704999975785613 0.08000000052154054 1.03500000037253 0.8049999757856129 0.08000000052154054 1.03500000037253 0.8049999757856129 0.06000000052154053 1.03500000037253 0.05000000074505805 0 0 0.05000000074505805 0 0.02500000037252891 0.849999975413084 0 0.02500000037252891 0.849999975413084 0 0 0.849999975413084 0 0 0.849999975413084 0 0.02500000037252891 0.849999975413084 0.100000001490116 0.02500000037252891 0.849999975413084 0.100000001490116 0 0.849999975413084 0.100000001490116 0 0.849999975413084 0.100000001490116 0.02500000037252891 0.05000000074505805 0.100000001490116 0.02500000037252891 0.05000000074505805 0.100000001490116 0 0.05000000074505805 0.100000001490116 0 0.05000000074505805 0.100000001490116 0.02500000037252891 0.05000000074505805 0 0.02500000037252891 0.05000000074505805 0 0 0.05000000074505805 0 0 0.849999975413084 0 0 0.849999975413084 0.100000001490116 0 0.05000000074505805 0.100000001490116 0 0.05000000074505805 0 0.02500000037252891 0.849999975413084 0 0.02500000037252891 0.849999975413084 0.100000001490116 0.02500000037252891 0.05000000074505805 0.100000001490116 0.02500000037252891 -0.02500000223517417 -0.004999999888241291 0 -0.02500000223517417 0 0 -0.02500000223517417 0 2.02500000223517 -0.02500000223517417 -0.004999999888241291 2.02500000223517 -0.02500000223517417 -0.004999999888241291 2.02500000223517 -0.02500000223517417 0 2.02500000223517 0.9249999783933158 0 2.02500000223517 0.9249999783933158 -0.004999999888241291 2.02500000223517 0.9249999783933158 -0.004999999888241291 2.02500000223517 0.9249999783933158 0 2.02500000223517 0.9249999783933158 0 0 0.9249999783933158 -0.004999999888241291 0 0.9249999783933158 -0.004999999888241291 0 0.9249999783933158 0 0 0.8499999754130838 0 0 0.8499999754130838 -0.004999999888241291 0 0.8499999754130838 -0.004999999888241291 0 0.8499999754130838 0 0 0.8499999754130838 0 1.94999999925494 0.8499999754130838 -0.004999999888241291 1.94999999925494 0.8499999754130838 -0.004999999888241291 1.94999999925494 0.8499999754130838 0 1.94999999925494 0.05000000074505794 0 1.94999999925494 0.05000000074505794 -0.004999999888241291 1.94999999925494 0.05000000074505794 -0.004999999888241291 1.94999999925494 0.05000000074505794 0 1.94999999925494 0.05000000074505794 0 0 0.05000000074505794 -0.004999999888241291 0 0.05000000074505794 -0.004999999888241291 0 0.05000000074505794 0 0 -0.02500000223517417 0 0 -0.02500000223517417 -0.004999999888241291 0 -0.02500000223517417 -0.004999999888241291 0 -0.02500000223517417 -0.004999999888241291 2.02500000223517 0.9249999783933158 -0.004999999888241291 2.02500000223517 0.9249999783933158 -0.004999999888241291 0 0.8499999754130838 -0.004999999888241291 0 0.8499999754130838 -0.004999999888241291 1.94999999925494 0.05000000074505794 -0.004999999888241291 1.94999999925494 0.05000000074505794 -0.004999999888241291 0 -0.02500000223517417 0 0 -0.02500000223517417 0 2.02500000223517 0.9249999783933158 0 2.02500000223517 0.9249999783933158 0 0 0.8499999754130838 0 0 0.8499999754130838 0 1.94999999925494 0.05000000074505794 0 1.94999999925494 0.05000000074505794 0 0 -0.02500000223517417 0.05000000074505805 0 -0.02500000223517417 0.05500000063329935 0 -0.02500000223517417 0.05500000063329935 2.02500000223517 -0.02500000223517417 0.05000000074505805 2.02500000223517 -0.02500000223517417 0.05000000074505805 2.02500000223517 -0.02500000223517417 0.05500000063329935 2.02500000223517 0.9249999783933158 0.05500000063329935 2.02500000223517 0.9249999783933158 0.05000000074505805 2.02500000223517 0.9249999783933158 0.05000000074505805 2.02500000223517 0.9249999783933158 0.05500000063329935 2.02500000223517 0.9249999783933158 0.05500000063329935 0 0.9249999783933158 0.05000000074505805 0 0.9249999783933158 0.05000000074505805 0 0.9249999783933158 0.05500000063329935 0 0.8749999757856128 0.05500000063329935 0 0.8749999757856128 0.05000000074505805 0 0.8749999757856128 0.05000000074505805 0 0.8749999757856128 0.05500000063329935 0 0.8749999757856128 0.05500000063329935 1.97499999962747 0.8749999757856128 0.05000000074505805 1.97499999962747 0.8749999757856128 0.05000000074505805 1.97499999962747 0.8749999757856128 0.05500000063329935 1.97499999962747 0.02500000037252891 0.05500000063329935 1.97499999962747 0.02500000037252891 0.05000000074505805 1.97499999962747 0.02500000037252891 0.05000000074505805 1.97499999962747 0.02500000037252891 0.05500000063329935 1.97499999962747 0.02500000037252891 0.05500000063329935 0 0.02500000037252891 0.05000000074505805 0 0.02500000037252891 0.05000000074505805 0 0.02500000037252891 0.05500000063329935 0 -0.02500000223517417 0.05500000063329935 0 -0.02500000223517417 0.05000000074505805 0 -0.02500000223517417 0.05000000074505805 0 -0.02500000223517417 0.05000000074505805 2.02500000223517 0.9249999783933158 0.05000000074505805 2.02500000223517 0.9249999783933158 0.05000000074505805 0 0.8749999757856128 0.05000000074505805 0 0.8749999757856128 0.05000000074505805 1.97499999962747 0.02500000037252891 0.05000000074505805 1.97499999962747 0.02500000037252891 0.05000000074505805 0 -0.02500000223517417 0.05500000063329935 0 -0.02500000223517417 0.05500000063329935 2.02500000223517 0.9249999783933158 0.05500000063329935 2.02500000223517 0.9249999783933158 0.05500000063329935 0 0.8749999757856128 0.05500000063329935 0 0.8749999757856128 0.05500000063329935 1.97499999962747 0.02500000037252891 0.05500000063329935 1.97499999962747 0.02500000037252891 0.05500000063329935 0</float_array>
          <technique_common>
            <accessor source="#representation-1198-positions-array" count="312" stride="3">
              <param name="X" type="float"/>
              <param name="Y" type="float"/>
              <param name="Z" type="float"/>
            </accessor>
          </technique_common>
        </source>
        <source id="representation-1198-normals">
          <float_array id="representation-1198-normals-array" count="936">-1 0 0 -1 0 0 -1 0 0 -1 0 0 0 0 1 0 0 1 0 0 1 0 0 1 1 0 0 1 0 0 1 0 0 1 0 0 0 0 -1 0 0 -1 0 0 -1 0 0 -1 -1 0 0 -1 0 0 -1 0 0 -1 0 0 0 0 -1 0 0 -1 0 0 -1 0 0 -1 1 0 0 1 0 0 1 0 0 1 0 0 0 0 -1 0 0 -1 0 0 -1 0 0 -1 0 -1 0 0 -1 0 0 -1 0 0 -1 0 0 -1 0 0 -1 0 0 -1 0 0 -1 0 0 1 0 0 1 0 0 1 0 0 1 0 0 1 0 0 1 0 0 1 0 0 1 0 -1 0 0 -1 0 0 -1 0 0 -1 0 0 0 0 1 0 0 1 0 0 1 0 0 1 1 0 0 1 0 0 1 0 0 1 0 0 0 0 -1 0 0 -1 0 0 -1 0 0 -1 -1 0 0 -1 0 0 -1 0 0 -1 0 0 0 0 -1 0 0 -1 0 0 -1 0 0 -1 1 0 0 1 0 0 1 0 0 1 0 0 0 0 -1 0 0 -1 0 0 -1 0 0 -1 0 -1 0 0 -1 0 0 -1 0 0 -1 0 0 -1 0 0 -1 0 0 -1 0 0 -1 0 0 1 0 0 1 0 0 1 0 0 1 0 0 1 0 0 1 0 0 1 0 0 1 0 0 -1 0 0 -1 0 0 -1 0 0 -1 0 1 0 0 1 0 0 1 0 0 1 0 0 0 1 0 0 1 0 0 1 0 0 1 0 -1 0 0 -1 0 0 -1 0 0 -1 0 0 0 0 -1 0 0 -1 0 0 -1 0 0 -1 0 0 1 0 0 1 0 0 1 0 0 1 1 0 0 1 0 0 1 0 0 1 0 0 0 -1 0 0 -1 0 0 -1 0 0 -1 0 -1 0 0 -1 0 0 -1 0 0 -1 0 0 0 1 0 0 1 0 0 1 0 0 1 0 -1 0 0 -1 0 0 -1 0 0 -1 0 0 0 1 0 0 1 0 0 1 0 0 1 0 0 0 -1 0 0 -1 0 0 -1 0 0 -1 0 0 -1 0 0 -1 0 0 1 0 0 1 0 0 1 0 0 1 0 0 1 0 0 1 1 0 0 1 0 0 1 0 0 1 0 0 0 1 0 0 1 0 0 1 0 0 1 0 -1 0 0 -1 0 0 -1 0 0 -1 0 0 0 -1 0 0 -1 0 0 -1 0 0 -1 0 -1 0 0 -1 0 0 -1 0 0 -1 0 0 0 -1 0 0 -1 0 0 -1 0 0 -1 0 0 0 -1 0 0 -1 0 0 -1 0 0 -1 0 0 -1 0 0 -1 0 0 1 0 0 1 0 0 1 0 0 1 0 0 1 0 0 1 0 -1 0 0 -1 0 0 -1 0 0 -1 0 1 0 0 1 0 0 1 0 0 1 0 0 0 1 0 0 1 0 0 1 0 0 1 0 -1 0 0 -1 0 0 -1 0 0 -1 0 0 0 0 -1 0 0 -1 0 0 -1 0 0 -1 0 0 1 0 0 1 0 0 1 0 0 1 -1 0 0 -1 0 0 -1 0 0 -1 0 0 0 0 1 0 0 1 0 0 1 0 0 1 1 0 0 1 0 0 1 0 0 1 0 0 0 0 -1 0 0 -1 0 0 -1 0 0 -1 -1 0 0 -1 0 0 -1 0 0 -1 0 0 0 0 -1 0 0 -1 0 0 -1 0 0 -1 1 0 0 1 0 0 1 0 0 1 0 0 0 0 -1 0 0 -1 0 0 -1 0 0 -1 0 -1 0 0 -1 0 0 -1 0 0 -1 0 0 -1 0 0 -1 0 0 -1 0 0 -1 0 0 1 0 0 1 0 0 1 0 0 1 0 0 1 0 0 1 0 0 1 0 0 1 0 -1 0 0 -1 0 0 -1 0 0 -1 0 0 0 0 1 0 0 1 0 0 1 0 0 1 1 0 0 1 0 0 1 0 0 1 0 0 0 0 -1 0 0 -1 0 0 -1 0 0 -1 -1 0 0 -1 0 0 -1 0 0 -1 0 0 0 0 -1 0 0 -1 0 0 -1 0 0 -1 1 0 0 1 0 0 1 0 0 1 0 0 0 0 -1 0 0 -1 0 0 -1 0 0 -1 0 -1 0 0 -1 0 0 -1 0 0 -1 0 0 -1 0 0 -1 0 0 -1 0 0 -1 0 0 1 0 0 1 0 0 1 0 0 1 0 0 1 0 0 1 0 0 1 0 0 1 0</float_array>
          <technique_common>
            <accessor source="#representation-1198-normals-array" count="312" stride="3">
              <param name="X" type="float"/>
              <param name="Y" type="float"/>
              <param name="Z" type="float"/>
            </accessor>
          </technique_common>
        </source>
        <vertices id="representation-1198-vertices">
          <input semantic="POSITION" source="#representation-1198-positions"/>
        </vertices>
        <triangles material="IfcDoor" count="176">
          <input semantic="VERTEX" source="#representation-1198-vertices" offset="0"/>
          <input semantic="NORMAL" source="#representation-1198-normals" offset="1"/>
          <p>1 1 0 0 3 3 2 2 1 1 3 3 5 5 4 4 7 7 6 6 5 5 7 7 9 9 8 8 11 11 10 10 9 9 11 11 13 13 12 12 15 15 14 14 13 13 15 15 17 17 16 16 19 19 18 18 17 17 19 19 21 21 20 20 23 23 22 22 21 21 23 23 25 25 24 24 27 27 26 26 25 25 27 27 29 29 28 28 31 31 30 30 29 29 31 31 36 36 35 35 37 37 37 37 35 35 34 34 32 32 39 39 38 38 38 38 37 37 33 33 32 32 38 38 33 33 37 37 34 34 33 33 45 45 43 43 44 44 42 42 43 43 45 45 46 46 47 47 40 40 41 41 45 45 46 46 41 41 46 46 40 40 41 41 42 42 45 45 49 49 48 48 51 51 50 50 49 49 51 51 53 53 52 52 55 55 54 54 53 53 55 55 57 57 56 56 59 59 58 58 57 57 59 59 61 61 60 60 63 63 62 62 61 61 63 63 65 65 64 64 67 67 66 66 65 65 67 67 69 69 68 68 71 71 70 70 69 69 71 71 73 73 72 72 75 75 74 74 73 73 75 75 77 77 76 76 79 79 78 78 77 77 79 79 84 84 83 83 85 85 85 85 83 83 82 82 80 80 87 87 86 86 86 86 85 85 81 81 80 80 86 86 81 81 85 85 82 82 81 81 93 93 91 91 92 92 90 90 91 91 93 93 94 94 95 95 88 88 89 89 93 93 94 94 89 89 94 94 88 88 89 89 90 90 93 93 97 97 96 96 99 99 98 98 97 97 99 99 101 101 100 100 103 103 102 102 101 101 103 103 105 105 104 104 107 107 106 106 105 105 107 107 109 109 108 108 111 111 110 110 109 109 111 111 113 113 112 112 114 114 112 112 115 115 114 114 118 118 116 116 117 117 118 118 119 119 116 116 123 123 120 120 121 121 123 123 121 121 122 122 127 127 124 124 125 125 127 127 125 125 126 126 131 131 128 128 129 129 131 131 129 129 130 130 135 135 132 132 133 133 135 135 133 133 134 134 139 139 136 136 137 137 139 139 137 137 138 138 143 143 140 140 141 141 143 143 141 141 142 142 144 144 145 145 148 148 149 149 144 144 148 148 146 146 148 148 145 145 147 147 148 148 146 146 154 154 151 151 150 150 154 154 150 150 155 155 151 151 154 154 152 152 152 152 154 154 153 153 157 157 156 156 159 159 158 158 157 157 159 159 161 161 160 160 163 163 162 162 161 161 163 163 165 165 164 164 167 167 166 166 165 165 167 167 169 169 168 168 171 171 170 170 169 169 171 171 173 173 172 172 175 175 174 174 173 173 175 175 177 177 176 176 179 179 178 178 177 177 179 179 183 183 182 182 184 184 180 180 185 185 184 184 180 180 184 184 181 181 184 184 182 182 181 181 190 190 188 188 189 189 190 190 191 191 186 186 187 187 190 190 186 186 187 187 188 188 190 190 193 193 192 192 195 195 194 194 193 193 195 195 197 197 196 196 199 199 198 198 197 197 199 199 201 201 200 200 203 203 202 202 201 201 203 203 205 205 204 204 207 207 206 206 205 205 207 207 209 209 208 208 210 210 208 208 211 211 210 210 214 214 212 212 213 213 214 214 215 215 212 212 217 217 216 216 219 219 218 218 217 217 219 219 221 221 220 220 223 223 222 222 221 221 223 223 225 225 224 224 227 227 226 226 225 225 227 227 229 229 228 228 231 231 230 230 229 229 231 231 233 233 232 232 235 235 234 234 233 233 235 235 237 237 236 236 239 239 238 238 237 237 239 239 241 241 240 240 243 243 242 242 241 241 243 243 245 245 244 244 247 247 246 246 245 245 247 247 251 251 250 250 253 253 252 252 251 251 253 253 248 248 255 255 254 254 254 254 253 253 249 249 253 253 250 250 249 249 248 248 254 254 249 249 261 261 258 258 259 259 261 261 259 259 260 260 262 262 263 263 256 256 257 257 261 261 262 262 257 257 258 258 261 261 257 257 262 262 256 256 265 265 264 264 267 267 266 266 265 265 267 267 269 269 268 268 271 271 270 270 269 269 271 271 273 273 272 272 275 275 274 274 273 273 275 275 277 277 276 276 279 279 278 278 277 277 279 279 281 281 280 280 283 283 282 282 281 281 283 283 285 285 284 284 287 287 286 286 285 285 287 287 289 289 288 288 291 291 290 290 289 289 291 291 293 293 292 292 295 295 294 294 293 293 295 295 299 299 298 298 301 301 300 300 299 299 301 301 296 296 303 303 302 302 302 302 301 301 297 297 301 301 298 298 297 297 296 296 302 302 297 297 309 309 306 306 307 307 309 309 307 307 308 308 310 310 311 311 304 304 305 305 309 309 310 310 305 305 306 306 309 309 305 305 310 310 304 304</p>
        </triangles>
      </mesh>
    </geometry>
  </library_geometries>
  <library_visual_scenes>
    <visual_scene id="IfcOpenShell">
      <node id="project" name="project" type="NODE">
        <matrix>1 0 0 0 0 1 0 0 0 0 1 0 0 0 0 1</matrix>
        <node id="product-7aefe9e1-f636-4f0e-a8fc-22c6e823ece0" name="product-7aefe9e1-f636-4f0e-a8fc-22c6e823ece0" type="NODE">
          <matrix>1 0 0 -3.99999976158142 0 1 0 -2.02034997940063 0 0 1 -1.97499990463257 0 0 0 1</matrix>
          <node id="product-b145d25b-bc24-42e2-8b43-7f6b4c0e8c2e" name="product-b145d25b-bc24-42e2-8b43-7f6b4c0e8c2e" type="NODE">
            <matrix>1 0 0 0 0 1 0 0 0 0 1 0 0 0 0 1</matrix>
            <node id="product-78e716ee-481f-4f20-98b8-edff75663077" name="product-78e716ee-481f-4f20-98b8-edff75663077" type="NODE">
              <matrix>1 0 0 0 0 1 0 0 0 0 1 0 0 0 0 1</matrix>
              <node id="product-1c017404-cba4-40e0-bb39-3ab576c1c0cf-body" name="product-1c017404-cba4-40e0-bb39-3ab576c1c0cf-body" type="NODE">
                <matrix>1 0 0 3.99999976158142 0 1 0 2.02034997940063 0 0 1 1.97499990463257 0 0 0 1</matrix>
                <instance_geometry url="#representation-1198">
                  <bind_material>
                    <technique_common>
                      <instance_material symbol="IfcDoor" target="#IfcDoor"/>
                    </technique_common>
                  </bind_material>
                </instance_geometry>
              </node>
            </node>
          </node>
        </node>
      </node>
    </visual_scene>
  </library_visual_scenes>
  <scene>
    <instance_visual_scene url="#IfcOpenShell"/>
  </scene>
</COLLADA>