<?xml version="1.0" encoding="utf-8"?>
<COLLADA xmlns="http://www.collada.org/2005/11/COLLADASchema" version="1.4.1" xmlns:xsi="http://www.w3.org/2001/XMLSchema-instance">
  <asset>
    <contributor>
      <authoring_tool>IfcOpenShell 0.8.1-c49ca69</authoring_tool>
    </contributor>
    <created>2025-05-08T14:35:19</created>
    <modified>2025-05-08T14:35:19</modified>
    <unit name="METER" meter="1"/>
    <up_axis>Z_UP</up_axis>
  </asset>
  <library_effects>
    <effect id="IfcMaterial-68-fx">
      <profile_COMMON>
        <technique sid="common">
          <lambert/>
        </technique>
      </profile_COMMON>
    </effect>
  </library_effects>
  <library_materials>
    <material id="IfcMaterial-68">
      <instance_effect url="#IfcMaterial-68-fx"/>
    </material>
  </library_materials>
  <library_geometries>
    <geometry id="representation-1597-material-68">
      <mesh>
        <source id="representation-1597-material-68-positions">
          <float_array id="representation-1597-material-68-positions-array" count="72">9.000002119276059 0 0 9.000002119276059 0 2 0 0 2 0 0 0 9.000002119276059 0 0 9.000002119276059 0 2 8.900002422017411 0.0999999999999999 0 8.900002422017411 0.0999999999999999 2 0 0 2 0.0999994257940886 0.0999999999999999 2 0.0999994257940886 0.0999999999999999 0 0 0 0 0 0 0 0.0999994257940886 0.0999999999999999 0 8.900002422017411 0.0999999999999999 0 9.000002119276059 0 0 0 0 2 0.0999994257940886 0.0999999999999999 2 8.900002422017411 0.0999999999999999 2 9.000002119276059 0 2 0.0999994257940886 0.0999999999999999 0 8.900002422017411 0.0999999999999999 0 0.0999994257940886 0.0999999999999999 2 8.900002422017411 0.0999999999999999 2</float_array>
          <technique_common>
            <accessor source="#representation-1597-material-68-positions-array" count="24" stride="3">
              <param name="X" type="float"/>
              <param name="Y" type="float"/>
              <param name="Z" type="float"/>
            </accessor>
          </technique_common>
        </source>
        <source id="representation-1597-material-68-normals">
          <float_array id="representation-1597-material-68-normals-array" count="72">0 -1 0 0 -1 0 0 -1 0 0 -1 0 0.707106661977246 0.707106900395829 0 0.707106661977246 0.707106900395829 0 0.707106661977246 0.707106900395829 0 0.707106661977246 0.707106900395829 0 -0.707106900395829 0.707106661977246 0 -0.707106900395829 0.707106661977246 0 -0.707106900395829 0.707106661977246 0 -0.707106900395829 0.707106661977246 0 0 0 -1 0 0 -1 0 0 -1 0 0 -1 0 0 1 0 0 1 0 0 1 0 0 1 0 1 0 0 1 0 0 1 0 0 1 0</float_array>
          <technique_common>
            <accessor source="#representation-1597-material-68-normals-array" count="24" stride="3">
              <param name="X" type="float"/>
              <param name="Y" type="float"/>
              <param name="Z" type="float"/>
            </accessor>
          </technique_common>
        </source>
        <vertices id="representation-1597-material-68-vertices">
          <input semantic="POSITION" source="#representation-1597-material-68-positions"/>
        </vertices>
        <triangles material="IfcMaterial-68" count="12">
          <input semantic="VERTEX" source="#representation-1597-material-68-vertices" offset="0"/>
          <input semantic="NORMAL" source="#representation-1597-material-68-normals" offset="1"/>
          <p>3 3 0 0 1 1 3 3 1 1 2 2 4 4 6 6 7 7 4 4 7 7 5 5 8 8 9 9 10 10 8 8 10 10 11 11 12 12 14 14 15 15 13 13 14 14 12 12 19 19 18 18 16 16 16 16 18 18 17 17 21 21 20 20 22 22 21 21 22 22 23 23</p>
        </triangles>
      </mesh>
    </geometry>
    <geometry id="representation-2349-material-68">
      <mesh>
        <source id="representation-2349-material-68-positions">
          <float_array id="representation-2349-material-68-positions-array" count="72">5.526363555480981 0 0 5.526363555480981 0 2 0 0 2 0 0 0 5.526363555480981 0 0 5.526363555480981 0 2 5.388656370948339 0.0999999999999999 0 5.388656370948339 0.0999999999999999 2 0 0 2 0.1072518559149294 0.0999999999999999 2 0.1072518559149294 0.0999999999999999 0 0 0 0 5.526363555480981 0 0 0 0 0 0.1072518559149294 0.0999999999999999 0 5.388656370948339 0.0999999999999999 0 5.526363555480981 0 2 0 0 2 0.1072518559149294 0.0999999999999999 2 5.388656370948339 0.0999999999999999 2 0.1072518559149294 0.0999999999999999 0 5.388656370948339 0.0999999999999999 0 0.1072518559149294 0.0999999999999999 2 5.388656370948339 0.0999999999999999 2</float_array>
          <technique_common>
            <accessor source="#representation-2349-material-68-positions-array" count="24" stride="3">
              <param name="X" type="float"/>
              <param name="Y" type="float"/>
              <param name="Z" type="float"/>
            </accessor>
          </technique_common>
        </source>
        <source id="representation-2349-material-68-normals">
          <float_array id="representation-2349-material-68-normals-array" count="72">0 -1 0 0 -1 0 0 -1 0 0 -1 0 0.5875823665969286 0.8091643605994722 0 0.5875823665969286 0.8091643605994722 0 0.5875823665969286 0.8091643605994722 0 0.5875823665969286 0.8091643605994722 0 -0.681948776669119 0.7313999357393273 0 -0.681948776669119 0.7313999357393273 0 -0.681948776669119 0.7313999357393273 0 -0.681948776669119 0.7313999357393273 0 0 0 -1 0 0 -1 0 0 -1 0 0 -1 0 0 1 0 0 1 0 0 1 0 0 1 0 1 0 0 1 0 0 1 0 0 1 0</float_array>
          <technique_common>
            <accessor source="#representation-2349-material-68-normals-array" count="24" stride="3">
              <param name="X" type="float"/>
              <param name="Y" type="float"/>
              <param name="Z" type="float"/>
            </accessor>
          </technique_common>
        </source>
        <vertices id="representation-2349-material-68-vertices">
          <input semantic="POSITION" source="#representation-2349-material-68-positions"/>
        </vertices>
        <triangles material="IfcMaterial-68" count="12">
          <input semantic="VERTEX" source="#representation-2349-material-68-vertices" offset="0"/>
          <input semantic="NORMAL" source="#representation-2349-material-68-normals" offset="1"/>
          <p>3 3 0 0 1 1 3 3 1 1 2 2 4 4 6 6 7 7 4 4 7 7 5 5 10 10 8 8 9 9 10 10 11 11 8 8 13 13 14 14 15 15 13 13 15 15 12 12 19 19 18 18 17 17 16 16 19 19 17 17 21 21 20 20 22 22 21 21 22 22 23 23</p>
        </triangles>
      </mesh>
    </geometry>
    <geometry id="representation-2322-material-68">
      <mesh>
        <source id="representation-2322-material-68-positions">
          <float_array id="representation-2322-material-68-positions-array" count="72">4.071193402054761 0 0 4.071193402054761 0 2 0 0 2 0 0 0 4.071193402054761 0.0999999999999999 0 4.071193402054761 0.0999999999999999 2 4.071193402054761 0 2 4.071193402054761 0 0 0 0 0 0.1377057958604654 0.0999999999999999 0 0 0 2 0.1377057958604654 0.0999999999999999 2 0 0 0 0.1377057958604654 0.0999999999999999 0 4.071193402054761 0.0999999999999999 0 4.071193402054761 0 0 0 0 2 0.1377057958604654 0.0999999999999999 2 4.071193402054761 0.0999999999999999 2 4.071193402054761 0 2 0.1377057958604654 0.0999999999999999 0 4.071193402054761 0.0999999999999999 0 0.1377057958604654 0.0999999999999999 2 4.071193402054761 0.0999999999999999 2</float_array>
          <technique_common>
            <accessor source="#representation-2322-material-68-positions-array" count="24" stride="3">
              <param name="X" type="float"/>
              <param name="Y" type="float"/>
              <param name="Z" type="float"/>
            </accessor>
          </technique_common>
        </source>
        <source id="representation-2322-material-68-normals">
          <float_array id="representation-2322-material-68-normals-array" count="72">0 -1 0 0 -1 0 0 -1 0 0 -1 0 1 0 0 1 0 0 1 0 0 1 0 0 -0.5875958799794448 0.8091545475563872 0 -0.5875958799794448 0.8091545475563872 0 -0.5875958799794448 0.8091545475563872 0 -0.5875958799794448 0.8091545475563872 0 0 0 -1 0 0 -1 0 0 -1 0 0 -1 0 0 1 0 0 1 0 0 1 0 0 1 0 1 0 0 1 0 0 1 0 0 1 0</float_array>
          <technique_common>
            <accessor source="#representation-2322-material-68-normals-array" count="24" stride="3">
              <param name="X" type="float"/>
              <param name="Y" type="float"/>
              <param name="Z" type="float"/>
            </accessor>
          </technique_common>
        </source>
        <vertices id="representation-2322-material-68-vertices">
          <input semantic="POSITION" source="#representation-2322-material-68-positions"/>
        </vertices>
        <triangles material="IfcMaterial-68" count="12">
          <input semantic="VERTEX" source="#representation-2322-material-68-vertices" offset="0"/>
          <input semantic="NORMAL" source="#representation-2322-material-68-normals" offset="1"/>
          <p>3 3 0 0 1 1 3 3 1 1 2 2 7 7 4 4 5 5 7 7 5 5 6 6 9 9 8 8 10 10 9 9 10 10 11 11 13 13 14 14 15 15 12 12 13 13 15 15 19 19 18 18 17 17 19 19 17 17 16 16 21 21 20 20 22 22 21 21 22 22 23 23</p>
        </triangles>
      </mesh>
    </geometry>
    <geometry id="representation-2301-material-68">
      <mesh>
        <source id="representation-2301-material-68-positions">
          <float_array id="representation-2301-material-68-positions-array" count="72">0 0 0 0 0 2 0 0.0999999999999999 2 0 0.0999999999999999 0 3.23849129106659 0 0 3.23849129106659 0 2 0 0 2 0 0 0 0 0.0999999999999999 0 3.131242913942754 0.0999999999999999 0 0 0.0999999999999999 2 3.131242913942754 0.0999999999999999 2 3.23849129106659 0 0 0 0 0 0 0.0999999999999999 0 3.131242913942754 0.0999999999999999 0 3.23849129106659 0 2 0 0 2 0 0.0999999999999999 2 3.131242913942754 0.0999999999999999 2 3.23849129106659 0 0 3.23849129106659 0 2 3.131242913942754 0.0999999999999999 0 3.131242913942754 0.0999999999999999 2</float_array>
          <technique_common>
            <accessor source="#representation-2301-material-68-positions-array" count="24" stride="3">
              <param name="X" type="float"/>
              <param name="Y" type="float"/>
              <param name="Z" type="float"/>
            </accessor>
          </technique_common>
        </source>
        <source id="representation-2301-material-68-normals">
          <float_array id="representation-2301-material-68-normals-array" count="72">-1 0 0 -1 0 0 -1 0 0 -1 0 0 0 -1 0 0 -1 0 0 -1 0 0 -1 0 0 1 0 0 1 0 0 1 0 0 1 0 0 0 -1 0 0 -1 0 0 -1 0 0 -1 0 0 1 0 0 1 0 0 1 0 0 1 0.681958148514534 0.7313911974276342 0 0.681958148514534 0.7313911974276342 0 0.681958148514534 0.7313911974276342 0 0.681958148514534 0.7313911974276342 0</float_array>
          <technique_common>
            <accessor source="#representation-2301-material-68-normals-array" count="24" stride="3">
              <param name="X" type="float"/>
              <param name="Y" type="float"/>
              <param name="Z" type="float"/>
            </accessor>
          </technique_common>
        </source>
        <vertices id="representation-2301-material-68-vertices">
          <input semantic="POSITION" source="#representation-2301-material-68-positions"/>
        </vertices>
        <triangles material="IfcMaterial-68" count="12">
          <input semantic="VERTEX" source="#representation-2301-material-68-vertices" offset="0"/>
          <input semantic="NORMAL" source="#representation-2301-material-68-normals" offset="1"/>
          <p>3 3 0 0 1 1 3 3 1 1 2 2 7 7 4 4 5 5 7 7 5 5 6 6 9 9 8 8 10 10 9 9 10 10 11 11 13 13 15 15 12 12 14 14 15 15 13 13 16 16 19 19 17 17 17 17 19 19 18 18 20 20 22 22 23 23 20 20 23 23 21 21</p>
        </triangles>
      </mesh>
    </geometry>
    <geometry id="representation-2146-material-68">
      <mesh>
        <source id="representation-2146-material-68-positions">
          <float_array id="representation-2146-material-68-positions-array" count="72">3.929683717107895 0 0 0.100627321721892 0 0 3.929683717107895 0 2 0.100627321721892 0 2 4.03640578994598 0.0999999999999999 0 3.929683717107895 0 0 0.100627321721892 0 0 0.0112219806420557 0.0999999999999999 0 0.0112219806420557 0.0999999999999999 0 0.0112219806420557 0.0999999999999999 2 0.100627321721892 0 0 0.100627321721892 0 2 4.03640578994598 0.0999999999999999 2 3.929683717107895 0 2 0.100627321721892 0 2 0.0112219806420557 0.0999999999999999 2 4.03640578994598 0.0999999999999999 2 3.929683717107895 0 2 3.929683717107895 0 0 4.03640578994598 0.0999999999999999 0 0.0112219806420557 0.0999999999999999 0 4.03640578994598 0.0999999999999999 0 0.0112219806420557 0.0999999999999999 2 4.03640578994598 0.0999999999999999 2</float_array>
          <technique_common>
            <accessor source="#representation-2146-material-68-positions-array" count="24" stride="3">
              <param name="X" type="float"/>
              <param name="Y" type="float"/>
              <param name="Z" type="float"/>
            </accessor>
          </technique_common>
        </source>
        <source id="representation-2146-material-68-normals">
          <float_array id="representation-2146-material-68-normals-array" count="72">0 -1 0 0 -1 0 0 -1 0 0 -1 0 0 0 -1 0 0 -1 0 0 -1 0 0 -1 -0.7454944392495562 -0.6665118461422795 0 -0.7454944392495562 -0.6665118461422795 0 -0.7454944392495562 -0.6665118461422795 0 -0.7454944392495562 -0.6665118461422795 0 0 0 1 0 0 1 0 0 1 0 0 1 0.6837577004359626 -0.7297091249905843 0 0.6837577004359626 -0.7297091249905843 0 0.6837577004359626 -0.7297091249905843 0 0.6837577004359626 -0.7297091249905843 0 0 1 0 0 1 0 0 1 0 0 1 0</float_array>
          <technique_common>
            <accessor source="#representation-2146-material-68-normals-array" count="24" stride="3">
              <param name="X" type="float"/>
              <param name="Y" type="float"/>
              <param name="Z" type="float"/>
            </accessor>
          </technique_common>
        </source>
        <vertices id="representation-2146-material-68-vertices">
          <input semantic="POSITION" source="#representation-2146-material-68-positions"/>
        </vertices>
        <triangles material="IfcMaterial-68" count="12">
          <input semantic="VERTEX" source="#representation-2146-material-68-vertices" offset="0"/>
          <input semantic="NORMAL" source="#representation-2146-material-68-normals" offset="1"/>
          <p>1 1 0 0 2 2 1 1 2 2 3 3 7 7 4 4 5 5 7 7 5 5 6 6 11 11 9 9 8 8 11 11 8 8 10 10 13 13 12 12 15 15 14 14 13 13 15 15 18 18 16 16 17 17 18 18 19 19 16 16 21 21 20 20 22 22 21 21 22 22 23 23</p>
        </triangles>
      </mesh>
    </geometry>
    <geometry id="representation-2114-material-68">
      <mesh>
        <source id="representation-2114-material-68-positions">
          <float_array id="representation-2114-material-68-positions-array" count="72">0 0.0999999999999999 0 0 0.0999999999999999 2 1.27456501543124 0.0999999999999999 2 1.27456501543124 0.0999999999999999 0 0 0.0999999999999999 0 0 0.0999999999999999 2 0.1067253243574075 0 0 0.1067253243574075 0 2 1.27456501543124 0.0999999999999999 0 1.27456501543124 0.0999999999999999 2 1.27456501543124 0 2 1.27456501543124 0 0 0 0.0999999999999999 0 1.27456501543124 0.0999999999999999 0 1.27456501543124 0 0 0.1067253243574075 0 0 0 0.0999999999999999 2 1.27456501543124 0.0999999999999999 2 1.27456501543124 0 2 0.1067253243574075 0 2 1.27456501543124 0 0 0.1067253243574075 0 0 1.27456501543124 0 2 0.1067253243574075 0 2</float_array>
          <technique_common>
            <accessor source="#representation-2114-material-68-positions-array" count="24" stride="3">
              <param name="X" type="float"/>
              <param name="Y" type="float"/>
              <param name="Z" type="float"/>
            </accessor>
          </technique_common>
        </source>
        <source id="representation-2114-material-68-normals">
          <float_array id="representation-2114-material-68-normals-array" count="72">0 1 0 0 1 0 0 1 0 0 1 0 -0.6837437606904999 -0.7297221866688804 0 -0.6837437606904999 -0.7297221866688804 0 -0.6837437606904999 -0.7297221866688804 0 -0.6837437606904999 -0.7297221866688804 0 1 0 0 1 0 0 1 0 0 1 0 0 0 0 -1 0 0 -1 0 0 -1 0 0 -1 0 0 1 0 0 1 0 0 1 0 0 1 0 -1 0 0 -1 0 0 -1 0 0 -1 0</float_array>
          <technique_common>
            <accessor source="#representation-2114-material-68-normals-array" count="24" stride="3">
              <param name="X" type="float"/>
              <param name="Y" type="float"/>
              <param name="Z" type="float"/>
            </accessor>
          </technique_common>
        </source>
        <vertices id="representation-2114-material-68-vertices">
          <input semantic="POSITION" source="#representation-2114-material-68-positions"/>
        </vertices>
        <triangles material="IfcMaterial-68" count="12">
          <input semantic="VERTEX" source="#representation-2114-material-68-vertices" offset="0"/>
          <input semantic="NORMAL" source="#representation-2114-material-68-normals" offset="1"/>
          <p>3 3 0 0 1 1 3 3 1 1 2 2 4 4 6 6 7 7 4 4 7 7 5 5 11 11 8 8 9 9 11 11 9 9 10 10 15 15 13 13 14 14 12 12 13 13 15 15 18 18 17 17 19 19 19 19 17 17 16 16 21 21 20 20 22 22 21 21 22 22 23 23</p>
        </triangles>
      </mesh>
    </geometry>
    <geometry id="representation-2093-material-68">
      <mesh>
        <source id="representation-2093-material-68-positions">
          <float_array id="representation-2093-material-68-positions-array" count="72">0 0 0 0 0 2 0 0.0999999999999999 2 0 0.0999999999999999 0 1.847756596184321 0 0 0 0 0 1.847756596184321 0 2 0 0 2 0 0.0999999999999999 0 1.937164413318289 0.0999999999999999 0 0 0.0999999999999999 2 1.937164413318289 0.0999999999999999 2 1.847756596184321 0 0 0 0 0 0 0.0999999999999999 0 1.937164413318289 0.0999999999999999 0 1.847756596184321 0 2 0 0 2 0 0.0999999999999999 2 1.937164413318289 0.0999999999999999 2 1.937164413318289 0.0999999999999999 2 1.937164413318289 0.0999999999999999 0 1.847756596184321 0 2 1.847756596184321 0 0</float_array>
          <technique_common>
            <accessor source="#representation-2093-material-68-positions-array" count="24" stride="3">
              <param name="X" type="float"/>
              <param name="Y" type="float"/>
              <param name="Z" type="float"/>
            </accessor>
          </technique_common>
        </source>
        <source id="representation-2093-material-68-normals">
          <float_array id="representation-2093-material-68-normals-array" count="72">-1 0 0 -1 0 0 -1 0 0 -1 0 0 0 -1 0 0 -1 0 0 -1 0 0 -1 0 0 1 0 0 1 0 0 1 0 0 1 0 0 0 -1 0 0 -1 0 0 -1 0 0 -1 0 0 1 0 0 1 0 0 1 0 0 1 0.7454852674443298 -0.6665221046772987 0 0.7454852674443298 -0.6665221046772987 0 0.7454852674443298 -0.6665221046772987 0 0.7454852674443298 -0.6665221046772987 0</float_array>
          <technique_common>
            <accessor source="#representation-2093-material-68-normals-array" count="24" stride="3">
              <param name="X" type="float"/>
              <param name="Y" type="float"/>
              <param name="Z" type="float"/>
            </accessor>
          </technique_common>
        </source>
        <vertices id="representation-2093-material-68-vertices">
          <input semantic="POSITION" source="#representation-2093-material-68-positions"/>
        </vertices>
        <triangles material="IfcMaterial-68" count="12">
          <input semantic="VERTEX" source="#representation-2093-material-68-vertices" offset="0"/>
          <input semantic="NORMAL" source="#representation-2093-material-68-normals" offset="1"/>
          <p>3 3 0 0 1 1 3 3 1 1 2 2 5 5 4 4 6 6 5 5 6 6 7 7 9 9 8 8 10 10 9 9 10 10 11 11 14 14 12 12 13 13 14 14 15 15 12 12 17 17 16 16 18 18 16 16 19 19 18 18 20 20 22 22 23 23 20 20 23 23 21 21</p>
        </triangles>
      </mesh>
    </geometry>
    <geometry id="representation-1666-material-68">
      <mesh>
        <source id="representation-1666-material-68-positions">
          <float_array id="representation-1666-material-68-positions-array" count="72">0 0 -0.100000001490116 0 0 -1.49011598893356e-9 8.799995422363279 0 -1.49011598893356e-9 8.799995422363279 0 -0.100000001490116 8.799995422363279 0 -0.100000001490116 8.799995422363279 0 -1.49011598893356e-9 8.79999923706055 9.79999923706055 -1.49011598893356e-9 8.79999923706055 9.79999923706055 -0.100000001490116 8.79999923706055 9.79999923706055 -0.100000001490116 8.79999923706055 9.79999923706055 -1.49011598893356e-9 -1.9073486328125e-6 9.800001144409179 -1.49011598893356e-9 -1.9073486328125e-6 9.800001144409179 -0.100000001490116 -1.9073486328125e-6 9.800001144409179 -0.100000001490116 -1.9073486328125e-6 9.800001144409179 -1.49011598893356e-9 0 0 -1.49011598893356e-9 0 0 -0.100000001490116 0 0 -0.100000001490116 8.799995422363279 0 -0.100000001490116 8.79999923706055 9.79999923706055 -0.100000001490116 -1.9073486328125e-6 9.800001144409179 -0.100000001490116 0 0 -1.49011598893356e-9 8.799995422363279 0 -1.49011598893356e-9 8.79999923706055 9.79999923706055 -1.49011598893356e-9 -1.9073486328125e-6 9.800001144409179 -1.49011598893356e-9</float_array>
          <technique_common>
            <accessor source="#representation-1666-material-68-positions-array" count="24" stride="3">
              <param name="X" type="float"/>
              <param name="Y" type="float"/>
              <param name="Z" type="float"/>
            </accessor>
          </technique_common>
        </source>
        <source id="representation-1666-material-68-normals">
          <float_array id="representation-1666-material-68-normals-array" count="72">0 -1 0 0 -1 0 0 -1 0 0 -1 0 0.9999999999999242 -3.892548538705781e-7 0 0.9999999999999242 -3.892548538705781e-7 0 0.9999999999999242 -3.892548538705781e-7 0 0.9999999999999242 -3.892548538705781e-7 0 2.167441342290641e-7 0.9999999999999765 0 2.167441342290641e-7 0.9999999999999765 0 2.167441342290641e-7 0.9999999999999765 0 2.167441342290641e-7 0.9999999999999765 0 -0.9999999999999811 -1.94627388783581e-7 0 -0.9999999999999811 -1.94627388783581e-7 0 -0.9999999999999811 -1.94627388783581e-7 0 -0.9999999999999811 -1.94627388783581e-7 0 0 0 -1 0 0 -1 0 0 -1 0 0 -1 0 0 1 0 0 1 0 0 1 0 0 1</float_array>
          <technique_common>
            <accessor source="#representation-1666-material-68-normals-array" count="24" stride="3">
              <param name="X" type="float"/>
              <param name="Y" type="float"/>
              <param name="Z" type="float"/>
            </accessor>
          </technique_common>
        </source>
        <vertices id="representation-1666-material-68-vertices">
          <input semantic="POSITION" source="#representation-1666-material-68-positions"/>
        </vertices>
        <triangles material="IfcMaterial-68" count="12">
          <input semantic="VERTEX" source="#representation-1666-material-68-vertices" offset="0"/>
          <input semantic="NORMAL" source="#representation-1666-material-68-normals" offset="1"/>
          <p>1 1 0 0 3 3 2 2 1 1 3 3 5 5 4 4 7 7 6 6 5 5 7 7 9 9 8 8 11 11 10 10 9 9 11 11 13 13 12 12 15 15 14 14 13 13 15 15 17 17 16 16 18 18 16 16 19 19 18 18 22 22 20 20 21 21 22 22 23 23 20 20</p>
        </triangles>
      </mesh>
    </geometry>
    <geometry id="representation-1652-material-68">
      <mesh>
        <source id="representation-1652-material-68-positions">
          <float_array id="representation-1652-material-68-positions-array" count="72">10.0000011444093 0 0 10.0000011444093 0 2 0 0 2 0 0 0 10.0000011444093 0 0 10.0000011444093 0 2 9.900000446759866 0.0999999999999999 0 9.900000446759866 0.0999999999999999 2 0 0 2 0.09999975351860501 0.0999999999999999 2 0.09999975351860501 0.0999999999999999 0 0 0 0 10.0000011444093 0 0 0 0 0 0.09999975351860501 0.0999999999999999 0 9.900000446759866 0.0999999999999999 0 10.0000011444093 0 2 0 0 2 0.09999975351860501 0.0999999999999999 2 9.900000446759866 0.0999999999999999 2 0.09999975351860501 0.0999999999999999 0 9.900000446759866 0.0999999999999999 0 0.09999975351860501 0.0999999999999999 2 9.900000446759866 0.0999999999999999 2</float_array>
          <technique_common>
            <accessor source="#representation-1652-material-68-positions-array" count="24" stride="3">
              <param name="X" type="float"/>
              <param name="Y" type="float"/>
              <param name="Z" type="float"/>
            </accessor>
          </technique_common>
        </source>
        <source id="representation-1652-material-68-normals">
          <float_array id="representation-1652-material-68-normals-array" count="72">0 -1 0 0 -1 0 0 -1 0 0 -1 0 0.707108360707964 0.7071052016616028 0 0.707108360707964 0.7071052016616028 0 0.707108360707964 0.7071052016616028 0 0.707108360707964 0.7071052016616028 0 -0.7071065427679238 0.7071070196050909 0 -0.7071065427679238 0.7071070196050909 0 -0.7071065427679238 0.7071070196050909 0 -0.7071065427679238 0.7071070196050909 0 0 0 -1 0 0 -1 0 0 -1 0 0 -1 0 0 1 0 0 1 0 0 1 0 0 1 0 1 0 0 1 0 0 1 0 0 1 0</float_array>
          <technique_common>
            <accessor source="#representation-1652-material-68-normals-array" count="24" stride="3">
              <param name="X" type="float"/>
              <param name="Y" type="float"/>
              <param name="Z" type="float"/>
            </accessor>
          </technique_common>
        </source>
        <vertices id="representation-1652-material-68-vertices">
          <input semantic="POSITION" source="#representation-1652-material-68-positions"/>
        </vertices>
        <triangles material="IfcMaterial-68" count="12">
          <input semantic="VERTEX" source="#representation-1652-material-68-vertices" offset="0"/>
          <input semantic="NORMAL" source="#representation-1652-material-68-normals" offset="1"/>
          <p>3 3 0 0 1 1 3 3 1 1 2 2 7 7 5 5 4 4 7 7 4 4 6 6 10 10 8 8 9 9 10 10 11 11 8 8 14 14 15 15 12 12 13 13 14 14 12 12 16 16 19 19 18 18 16 16 18 18 17 17 21 21 20 20 22 22 21 21 22 22 23 23</p>
        </triangles>
      </mesh>
    </geometry>
    <geometry id="representation-1625-material-68">
      <mesh>
        <source id="representation-1625-material-68-positions">
          <float_array id="representation-1625-material-68-positions-array" count="72">8.999996185301929 0 0 8.999996185301929 0 2 0 0 2 0 0 0 8.999996185301929 0 0 8.999996185301929 0 2 8.899995805980353 0.0999999999999999 0 8.899995805980353 0.0999999999999999 2 0 0 0 0.1000003793223783 0.0999999999999999 0 0 0 2 0.1000003793223783 0.0999999999999999 2 8.999996185301929 0 0 0 0 0 0.1000003793223783 0.0999999999999999 0 8.899995805980353 0.0999999999999999 0 8.999996185301929 0 2 0 0 2 0.1000003793223783 0.0999999999999999 2 8.899995805980353 0.0999999999999999 2 0.1000003793223783 0.0999999999999999 0 8.899995805980353 0.0999999999999999 0 0.1000003793223783 0.0999999999999999 2 8.899995805980353 0.0999999999999999 2</float_array>
          <technique_common>
            <accessor source="#representation-1625-material-68-positions-array" count="24" stride="3">
              <param name="X" type="float"/>
              <param name="Y" type="float"/>
              <param name="Z" type="float"/>
            </accessor>
          </technique_common>
        </source>
        <source id="representation-1625-material-68-normals">
          <float_array id="representation-1625-material-68-normals-array" count="72">0 -1 0 0 -1 0 0 -1 0 0 -1 0 0.7071054400806893 0.7071081222898621 0 0.7071054400806893 0.7071081222898621 0 0.7071054400806893 0.7071081222898621 0 0.7071054400806893 0.7071081222898621 0 -0.7071054400806893 0.7071081222898621 0 -0.7071054400806893 0.7071081222898621 0 -0.7071054400806893 0.7071081222898621 0 -0.7071054400806893 0.7071081222898621 0 0 0 -1 0 0 -1 0 0 -1 0 0 -1 0 0 1 0 0 1 0 0 1 0 0 1 0 1 0 0 1 0 0 1 0 0 1 0</float_array>
          <technique_common>
            <accessor source="#representation-1625-material-68-normals-array" count="24" stride="3">
              <param name="X" type="float"/>
              <param name="Y" type="float"/>
              <param name="Z" type="float"/>
            </accessor>
          </technique_common>
        </source>
        <vertices id="representation-1625-material-68-vertices">
          <input semantic="POSITION" source="#representation-1625-material-68-positions"/>
        </vertices>
        <triangles material="IfcMaterial-68" count="12">
          <input semantic="VERTEX" source="#representation-1625-material-68-vertices" offset="0"/>
          <input semantic="NORMAL" source="#representation-1625-material-68-normals" offset="1"/>
          <p>3 3 0 0 1 1 3 3 1 1 2 2 4 4 6 6 7 7 4 4 7 7 5 5 9 9 8 8 10 10 9 9 10 10 11 11 14 14 15 15 12 12 13 13 14 14 12 12 16 16 19 19 18 18 16 16 18 18 17 17 21 21 20 20 22 22 21 21 22 22 23 23</p>
        </triangles>
      </mesh>
    </geometry>
    <geometry id="representation-316-material-68">
      <mesh>
        <source id="representation-316-material-68-positions">
          <float_array id="representation-316-material-68-positions-array" count="72">10.0000000000004 0 0 10.0000000000004 0 2 0 0 2 0 0 0 10.0000000000004 0 0 10.0000000000004 0 2 9.900000210706876 0.0999999999999999 0 9.900000210706876 0.0999999999999999 2 0 0 0 0.09999955324437714 0.0999999999999999 0 0 0 2 0.09999955324437714 0.0999999999999999 2 10.0000000000004 0 0 0 0 0 0.09999955324437714 0.0999999999999999 0 9.900000210706876 0.0999999999999999 0 10.0000000000004 0 2 0 0 2 0.09999955324437714 0.0999999999999999 2 9.900000210706876 0.0999999999999999 2 0.09999955324437714 0.0999999999999999 0 9.900000210706876 0.0999999999999999 0 0.09999955324437714 0.0999999999999999 2 9.900000210706876 0.0999999999999999 2</float_array>
          <technique_common>
            <accessor source="#representation-316-material-68-positions-array" count="24" stride="3">
              <param name="X" type="float"/>
              <param name="Y" type="float"/>
              <param name="Z" type="float"/>
            </accessor>
          </technique_common>
        </source>
        <source id="representation-316-material-68-normals">
          <float_array id="representation-316-material-68-normals-array" count="72">0 -1 0 0 -1 0 0 -1 0 0 -1 0 0.7071065427679238 0.7071070196050909 0 0.7071065427679238 0.7071070196050909 0 0.7071065427679238 0.7071070196050909 0 0.7071065427679238 0.7071070196050909 0 -0.707108360707964 0.7071052016616028 0 -0.707108360707964 0.7071052016616028 0 -0.707108360707964 0.7071052016616028 0 -0.707108360707964 0.7071052016616028 0 0 0 -1 0 0 -1 0 0 -1 0 0 -1 0 0 1 0 0 1 0 0 1 0 0 1 0 1 0 0 1 0 0 1 0 0 1 0</float_array>
          <technique_common>
            <accessor source="#representation-316-material-68-normals-array" count="24" stride="3">
              <param name="X" type="float"/>
              <param name="Y" type="float"/>
              <param name="Z" type="float"/>
            </accessor>
          </technique_common>
        </source>
        <vertices id="representation-316-material-68-vertices">
          <input semantic="POSITION" source="#representation-316-material-68-positions"/>
        </vertices>
        <triangles material="IfcMaterial-68" count="12">
          <input semantic="VERTEX" source="#representation-316-material-68-vertices" offset="0"/>
          <input semantic="NORMAL" source="#representation-316-material-68-normals" offset="1"/>
          <p>3 3 0 0 1 1 3 3 1 1 2 2 4 4 6 6 7 7 4 4 7 7 5 5 10 10 9 9 8 8 10 10 11 11 9 9 13 13 15 15 12 12 14 14 15 15 13 13 16 16 19 19 17 17 17 17 19 19 18 18 21 21 20 20 22 22 21 21 22 22 23 23</p>
        </triangles>
      </mesh>
    </geometry>
    <geometry id="representation-1549-material-68">
      <mesh>
        <source id="representation-1549-material-68-positions">
          <float_array id="representation-1549-material-68-positions-array" count="72">10.0000000000007 0 0 10.0000000000007 0 2 0 0 2 0 0 0 10.0000000000007 0 0 10.0000000000007 0 2 9.899999257031916 0.0999999999999999 0 9.899999257031916 0.0999999999999999 2 0 0 0 0.09999955324437714 0.0999999999999999 0 0 0 2 0.09999955324437714 0.0999999999999999 2 10.0000000000007 0 0 0 0 0 0.09999955324437714 0.0999999999999999 0 9.899999257031916 0.0999999999999999 0 10.0000000000007 0 2 0 0 2 0.09999955324437714 0.0999999999999999 2 9.899999257031916 0.0999999999999999 2 0.09999955324437714 0.0999999999999999 0 9.899999257031916 0.0999999999999999 0 0.09999955324437714 0.0999999999999999 2 9.899999257031916 0.0999999999999999 2</float_array>
          <technique_common>
            <accessor source="#representation-1549-material-68-positions-array" count="24" stride="3">
              <param name="X" type="float"/>
              <param name="Y" type="float"/>
              <param name="Z" type="float"/>
            </accessor>
          </technique_common>
        </source>
        <source id="representation-1549-material-68-normals">
          <float_array id="representation-1549-material-68-normals-array" count="72">0 -1 0 0 -1 0 0 -1 0 0 -1 0 0.7071065427679238 0.7071070196050909 0 0.7071065427679238 0.7071070196050909 0 0.7071065427679238 0.7071070196050909 0 0.7071065427679238 0.7071070196050909 0 -0.707108360707964 0.7071052016616028 0 -0.707108360707964 0.7071052016616028 0 -0.707108360707964 0.7071052016616028 0 -0.707108360707964 0.7071052016616028 0 0 0 -1 0 0 -1 0 0 -1 0 0 -1 0 0 1 0 0 1 0 0 1 0 0 1 0 1 0 0 1 0 0 1 0 0 1 0</float_array>
          <technique_common>
            <accessor source="#representation-1549-material-68-normals-array" count="24" stride="3">
              <param name="X" type="float"/>
              <param name="Y" type="float"/>
              <param name="Z" type="float"/>
            </accessor>
          </technique_common>
        </source>
        <vertices id="representation-1549-material-68-vertices">
          <input semantic="POSITION" source="#representation-1549-material-68-positions"/>
        </vertices>
        <triangles material="IfcMaterial-68" count="12">
          <input semantic="VERTEX" source="#representation-1549-material-68-vertices" offset="0"/>
          <input semantic="NORMAL" source="#representation-1549-material-68-normals" offset="1"/>
          <p>3 3 0 0 1 1 3 3 1 1 2 2 4 4 6 6 7 7 4 4 7 7 5 5 10 10 9 9 8 8 10 10 11 11 9 9 13 13 15 15 12 12 14 14 15 15 13 13 16 16 19 19 17 17 17 17 19 19 18 18 21 21 20 20 22 22 21 21 22 22 23 23</p>
        </triangles>
      </mesh>
    </geometry>
    <geometry id="representation-1101-material-68">
      <mesh>
        <source id="representation-1101-material-68-positions">
          <float_array id="representation-1101-material-68-positions-array" count="72">0 0 -0.100000001490116 0 0 -1.49011598893356e-9 8.800001144409179 9.5367431640625e-7 -1.49011598893356e-9 8.800001144409179 9.5367431640625e-7 -0.100000001490116 8.800001144409179 9.5367431640625e-7 -0.100000001490116 8.800001144409179 9.5367431640625e-7 -1.49011598893356e-9 8.799996376037599 -9.79999923706055 -1.49011598893356e-9 8.799996376037599 -9.79999923706055 -0.100000001490116 8.799996376037599 -9.79999923706055 -0.100000001490116 8.799996376037599 -9.79999923706055 -1.49011598893356e-9 -4.470348358154301e-8 -9.79999923706055 -1.49011598893356e-9 -4.470348358154301e-8 -9.79999923706055 -0.100000001490116 -4.470348358154301e-8 -9.79999923706055 -0.100000001490116 -4.470348358154301e-8 -9.79999923706055 -1.49011598893356e-9 0 0 -1.49011598893356e-9 0 0 -0.100000001490116 0 0 -0.100000001490116 8.800001144409179 9.5367431640625e-7 -0.100000001490116 8.799996376037599 -9.79999923706055 -0.100000001490116 -4.470348358154301e-8 -9.79999923706055 -0.100000001490116 0 0 -1.49011598893356e-9 8.800001144409179 9.5367431640625e-7 -1.49011598893356e-9 8.799996376037599 -9.79999923706055 -1.49011598893356e-9 -4.470348358154301e-8 -9.79999923706055 -1.49011598893356e-9</float_array>
          <technique_common>
            <accessor source="#representation-1101-material-68-positions-array" count="24" stride="3">
              <param name="X" type="float"/>
              <param name="Y" type="float"/>
              <param name="Z" type="float"/>
            </accessor>
          </technique_common>
        </source>
        <source id="representation-1101-material-68-normals">
          <float_array id="representation-1101-material-68-normals-array" count="72">-1.083720673163927e-7 0.9999999999999941 0 -1.083720673163927e-7 0.9999999999999941 0 -1.083720673163927e-7 0.9999999999999941 0 -1.083720673163927e-7 0.9999999999999941 0 0.9999999999998816 -4.865685191274232e-7 0 0.9999999999998816 -4.865685191274232e-7 0 0.9999999999998816 -4.865685191274232e-7 0 0.9999999999998816 -4.865685191274232e-7 0 0 -1 0 0 -1 0 0 -1 0 0 -1 0 -1 4.561580312423733e-9 0 -1 4.561580312423733e-9 0 -1 4.561580312423733e-9 0 -1 4.561580312423733e-9 0 0 0 -1 0 0 -1 0 0 -1 0 0 -1 0 0 1 0 0 1 0 0 1 0 0 1</float_array>
          <technique_common>
            <accessor source="#representation-1101-material-68-normals-array" count="24" stride="3">
              <param name="X" type="float"/>
              <param name="Y" type="float"/>
              <param name="Z" type="float"/>
            </accessor>
          </technique_common>
        </source>
        <vertices id="representation-1101-material-68-vertices">
          <input semantic="POSITION" source="#representation-1101-material-68-positions"/>
        </vertices>
        <triangles material="IfcMaterial-68" count="12">
          <input semantic="VERTEX" source="#representation-1101-material-68-vertices" offset="0"/>
          <input semantic="NORMAL" source="#representation-1101-material-68-normals" offset="1"/>
          <p>3 3 0 0 1 1 3 3 1 1 2 2 7 7 4 4 5 5 7 7 5 5 6 6 11 11 8 8 9 9 11 11 9 9 10 10 15 15 12 12 13 13 15 15 13 13 14 14 16 16 17 17 18 18 16 16 18 18 19 19 22 22 21 21 20 20 23 23 22 22 20 20</p>
        </triangles>
      </mesh>
    </geometry>
    <geometry id="representation-1056-material-68">
      <mesh>
        <source id="representation-1056-material-68-positions">
          <float_array id="representation-1056-material-68-positions-array" count="72">0 0.0999999999999999 0 0 0.0999999999999999 2 6.20000081216159 0.0999999999999999 2 6.20000081216159 0.0999999999999999 0 0 0.0999999999999999 0 0 0.0999999999999999 2 0.1000002931658583 0 0 0.1000002931658583 0 2 6.20000081216159 0.0999999999999999 2 6.100001287833955 0 2 6.100001287833955 0 0 6.20000081216159 0.0999999999999999 0 0 0.0999999999999999 0 6.20000081216159 0.0999999999999999 0 6.100001287833955 0 0 0.1000002931658583 0 0 0 0.0999999999999999 2 6.20000081216159 0.0999999999999999 2 6.100001287833955 0 2 0.1000002931658583 0 2 6.100001287833955 0 0 0.1000002931658583 0 0 6.100001287833955 0 2 0.1000002931658583 0 2</float_array>
          <technique_common>
            <accessor source="#representation-1056-material-68-positions-array" count="24" stride="3">
              <param name="X" type="float"/>
              <param name="Y" type="float"/>
              <param name="Z" type="float"/>
            </accessor>
          </technique_common>
        </source>
        <source id="representation-1056-material-68-normals">
          <float_array id="representation-1056-material-68-normals-array" count="72">0 1 0 0 1 0 0 1 0 0 1 0 -0.7071080924875391 -0.7071054698831242 0 -0.7071080924875391 -0.7071054698831242 0 -0.7071080924875391 -0.7071054698831242 0 -0.7071080924875391 -0.7071054698831242 0 0.7071103276542279 -0.7071032347010798 0 0.7071103276542279 -0.7071032347010798 0 0.7071103276542279 -0.7071032347010798 0 0.7071103276542279 -0.7071032347010798 0 0 0 -1 0 0 -1 0 0 -1 0 0 -1 0 0 1 0 0 1 0 0 1 0 0 1 0 -1 0 0 -1 0 0 -1 0 0 -1 0</float_array>
          <technique_common>
            <accessor source="#representation-1056-material-68-normals-array" count="24" stride="3">
              <param name="X" type="float"/>
              <param name="Y" type="float"/>
              <param name="Z" type="float"/>
            </accessor>
          </technique_common>
        </source>
        <vertices id="representation-1056-material-68-vertices">
          <input semantic="POSITION" source="#representation-1056-material-68-positions"/>
        </vertices>
        <triangles material="IfcMaterial-68" count="12">
          <input semantic="VERTEX" source="#representation-1056-material-68-vertices" offset="0"/>
          <input semantic="NORMAL" source="#representation-1056-material-68-normals" offset="1"/>
          <p>3 3 0 0 1 1 3 3 1 1 2 2 7 7 5 5 4 4 7 7 4 4 6 6 8 8 9 9 10 10 8 8 10 10 11 11 12 12 13 13 14 14 12 12 14 14 15 15 18 18 17 17 16 16 19 19 18 18 16 16 23 23 20 20 22 22 21 21 20 20 23 23</p>
        </triangles>
      </mesh>
    </geometry>
    <geometry id="representation-1024-material-68">
      <mesh>
        <source id="representation-1024-material-68-positions">
          <float_array id="representation-1024-material-68-positions-array" count="72">0 0.0999999999999999 0 0 0.0999999999999999 2 3.10000086753602 0.0999999999999999 2 3.10000086753602 0.0999999999999999 0 0 0.0999999999999999 0 0 0.0999999999999999 2 0.1000012447675882 0 0 0.1000012447675882 0 2 3.10000086753602 0.0999999999999999 0 3.10000086753602 0.0999999999999999 2 3.10000086753602 0 2 3.10000086753602 0 0 0 0.0999999999999999 0 3.10000086753602 0.0999999999999999 0 3.10000086753602 0 0 0.1000012447675882 0 0 0 0.0999999999999999 2 3.10000086753602 0.0999999999999999 2 3.10000086753602 0 2 0.1000012447675882 0 2 3.10000086753602 0 0 0.1000012447675882 0 0 3.10000086753602 0 2 0.1000012447675882 0 2</float_array>
          <technique_common>
            <accessor source="#representation-1024-material-68-positions-array" count="24" stride="3">
              <param name="X" type="float"/>
              <param name="Y" type="float"/>
              <param name="Z" type="float"/>
            </accessor>
          </technique_common>
        </source>
        <source id="representation-1024-material-68-normals">
          <float_array id="representation-1024-material-68-normals-array" count="72">0 1 0 0 1 0 0 1 0 0 1 0 -0.7071031154911747 -0.7071104468629171 0 -0.7071031154911747 -0.7071104468629171 0 -0.7071031154911747 -0.7071104468629171 0 -0.7071031154911747 -0.7071104468629171 0 1 0 0 1 0 0 1 0 0 1 0 0 0 0 -1 0 0 -1 0 0 -1 0 0 -1 0 0 1 0 0 1 0 0 1 0 0 1 0 -1 0 0 -1 0 0 -1 0 0 -1 0</float_array>
          <technique_common>
            <accessor source="#representation-1024-material-68-normals-array" count="24" stride="3">
              <param name="X" type="float"/>
              <param name="Y" type="float"/>
              <param name="Z" type="float"/>
            </accessor>
          </technique_common>
        </source>
        <vertices id="representation-1024-material-68-vertices">
          <input semantic="POSITION" source="#representation-1024-material-68-positions"/>
        </vertices>
        <triangles material="IfcMaterial-68" count="12">
          <input semantic="VERTEX" source="#representation-1024-material-68-vertices" offset="0"/>
          <input semantic="NORMAL" source="#representation-1024-material-68-normals" offset="1"/>
          <p>3 3 0 0 1 1 3 3 1 1 2 2 4 4 6 6 7 7 4 4 7 7 5 5 11 11 8 8 9 9 11 11 9 9 10 10 15 15 13 13 14 14 12 12 13 13 15 15 18 18 17 17 19 19 19 19 17 17 16 16 21 21 20 20 22 22 21 21 22 22 23 23</p>
        </triangles>
      </mesh>
    </geometry>
    <geometry id="representation-1003-material-68">
      <mesh>
        <source id="representation-1003-material-68-positions">
          <float_array id="representation-1003-material-68-positions-array" count="72">0 0.0999999999999999 0 0 0.0999999999999999 2 7.199999745687041 0.0999999999999999 2 7.199999745687041 0.0999999999999999 0 0 0.0999999999999999 0 0 0.0999999999999999 2 0.1000000685457385 0 0 0.1000000685457385 0 2 7.199999745687041 0.0999999999999999 0 7.099998474121091 0 0 7.199999745687041 0.0999999999999999 2 7.099998474121091 0 2 0.1000000685457385 0 0 0 0.0999999999999999 0 7.199999745687041 0.0999999999999999 0 7.099998474121091 0 0 0.1000000685457385 0 2 0 0.0999999999999999 2 7.199999745687041 0.0999999999999999 2 7.099998474121091 0 2 7.099998474121091 0 0 0.1000000685457385 0 0 7.099998474121091 0 2 0.1000000685457385 0 2</float_array>
          <technique_common>
            <accessor source="#representation-1003-material-68-positions-array" count="24" stride="3">
              <param name="X" type="float"/>
              <param name="Y" type="float"/>
              <param name="Z" type="float"/>
            </accessor>
          </technique_common>
        </source>
        <source id="representation-1003-material-68-normals">
          <float_array id="representation-1003-material-68-normals-array" count="72">0 1 0 0 1 0 0 1 0 0 1 0 -0.7071066023725873 -0.7071069600004625 0 -0.7071066023725873 -0.7071069600004625 0 -0.7071066023725873 -0.7071069600004625 0 -0.7071066023725873 -0.7071069600004625 0 0.7071023108239817 -0.7071112515208516 0 0.7071023108239817 -0.7071112515208516 0 0.7071023108239817 -0.7071112515208516 0 0.7071023108239817 -0.7071112515208516 0 0 0 -1 0 0 -1 0 0 -1 0 0 -1 0 0 1 0 0 1 0 0 1 0 0 1 0 -1 0 0 -1 0 0 -1 0 0 -1 0</float_array>
          <technique_common>
            <accessor source="#representation-1003-material-68-normals-array" count="24" stride="3">
              <param name="X" type="float"/>
              <param name="Y" type="float"/>
              <param name="Z" type="float"/>
            </accessor>
          </technique_common>
        </source>
        <vertices id="representation-1003-material-68-vertices">
          <input semantic="POSITION" source="#representation-1003-material-68-positions"/>
        </vertices>
        <triangles material="IfcMaterial-68" count="12">
          <input semantic="VERTEX" source="#representation-1003-material-68-vertices" offset="0"/>
          <input semantic="NORMAL" source="#representation-1003-material-68-normals" offset="1"/>
          <p>3 3 0 0 1 1 3 3 1 1 2 2 4 4 6 6 7 7 4 4 7 7 5 5 8 8 10 10 11 11 9 9 8 8 11 11 13 13 14 14 12 12 12 12 14 14 15 15 16 16 18 18 17 17 19 19 18 18 16 16 21 21 20 20 22 22 21 21 22 22 23 23</p>
        </triangles>
      </mesh>
    </geometry>
    <geometry id="representation-950-material-68">
      <mesh>
        <source id="representation-950-material-68-positions">
          <float_array id="representation-950-material-68-positions-array" count="72">0 0.0999999999999999 0 0 0.0999999999999999 2 6.19999896634032 0.0999999999999999 2 6.19999896634032 0.0999999999999999 0 0 0.0999999999999999 0 0 0.0999999999999999 2 0.09999965200578486 0 0 0.09999965200578486 0 2 6.19999896634032 0.0999999999999999 0 6.099999003917924 0 0 6.19999896634032 0.0999999999999999 2 6.099999003917924 0 2 0 0.0999999999999999 0 6.19999896634032 0.0999999999999999 0 6.099999003917924 0 0 0.09999965200578486 0 0 0 0.0999999999999999 2 6.19999896634032 0.0999999999999999 2 6.099999003917924 0 2 0.09999965200578486 0 2 6.099999003917924 0 0 0.09999965200578486 0 0 6.099999003917924 0 2 0.09999965200578486 0 2</float_array>
          <technique_common>
            <accessor source="#representation-950-material-68-positions-array" count="24" stride="3">
              <param name="X" type="float"/>
              <param name="Y" type="float"/>
              <param name="Z" type="float"/>
            </accessor>
          </technique_common>
        </source>
        <source id="representation-950-material-68-normals">
          <float_array id="representation-950-material-68-normals-array" count="72">0 1 0 0 1 0 0 1 0 0 1 0 -0.7071073772327539 -0.7071061851398386 0 -0.7071073772327539 -0.7071061851398386 0 -0.7071073772327539 -0.7071061851398386 0 -0.7071073772327539 -0.7071061851398386 0 0.7071068109888686 -0.7071067513842251 0 0.7071068109888686 -0.7071067513842251 0 0.7071068109888686 -0.7071067513842251 0 0.7071068109888686 -0.7071067513842251 0 0 0 -1 0 0 -1 0 0 -1 0 0 -1 0 0 1 0 0 1 0 0 1 0 0 1 0 -1 0 0 -1 0 0 -1 0 0 -1 0</float_array>
          <technique_common>
            <accessor source="#representation-950-material-68-normals-array" count="24" stride="3">
              <param name="X" type="float"/>
              <param name="Y" type="float"/>
              <param name="Z" type="float"/>
            </accessor>
          </technique_common>
        </source>
        <vertices id="representation-950-material-68-vertices">
          <input semantic="POSITION" source="#representation-950-material-68-positions"/>
        </vertices>
        <triangles material="IfcMaterial-68" count="12">
          <input semantic="VERTEX" source="#representation-950-material-68-vertices" offset="0"/>
          <input semantic="NORMAL" source="#representation-950-material-68-normals" offset="1"/>
          <p>3 3 0 0 1 1 3 3 1 1 2 2 7 7 5 5 4 4 7 7 4 4 6 6 10 10 9 9 8 8 10 10 11 11 9 9 12 12 13 13 14 14 12 12 14 14 15 15 18 18 17 17 16 16 19 19 18 18 16 16 21 21 20 20 22 22 21 21 22 22 23 23</p>
        </triangles>
      </mesh>
    </geometry>
    <geometry id="representation-419-material-68">
      <mesh>
        <source id="representation-419-material-68-positions">
          <float_array id="representation-419-material-68-positions-array" count="72">10.0000011444096 0 0 10.0000011444096 0 2 0 0 2 0 0 0 10.0000011444096 0 0 10.0000011444096 0 2 9.900000987392001 0.0999999999999999 0 9.900000987392001 0.0999999999999999 2 0 0 0 0.1000004130399581 0.0999999999999999 0 0 0 2 0.1000004130399581 0.0999999999999999 2 10.0000011444096 0 0 0 0 0 0.1000004130399581 0.0999999999999999 0 9.900000987392001 0.0999999999999999 0 10.0000011444096 0 2 0 0 2 0.1000004130399581 0.0999999999999999 2 9.900000987392001 0.0999999999999999 2 0.1000004130399581 0.0999999999999999 0 9.900000987392001 0.0999999999999999 0 0.1000004130399581 0.0999999999999999 2 9.900000987392001 0.0999999999999999 2</float_array>
          <technique_common>
            <accessor source="#representation-419-material-68-positions-array" count="24" stride="3">
              <param name="X" type="float"/>
              <param name="Y" type="float"/>
              <param name="Z" type="float"/>
            </accessor>
          </technique_common>
        </source>
        <source id="representation-419-material-68-normals">
          <float_array id="representation-419-material-68-normals-array" count="72">0 -1 0 0 -1 0 0 -1 0 0 -1 0 0.707106900395829 0.707106661977246 0 0.707106900395829 0.707106661977246 0 0.707106900395829 0.707106661977246 0 0.707106900395829 0.707106661977246 0 -0.7071053208712791 0.7071082414988 0 -0.7071053208712791 0.7071082414988 0 -0.7071053208712791 0.7071082414988 0 -0.7071053208712791 0.7071082414988 0 0 0 -1 0 0 -1 0 0 -1 0 0 -1 0 0 1 0 0 1 0 0 1 0 0 1 0 1 0 0 1 0 0 1 0 0 1 0</float_array>
          <technique_common>
            <accessor source="#representation-419-material-68-normals-array" count="24" stride="3">
              <param name="X" type="float"/>
              <param name="Y" type="float"/>
              <param name="Z" type="float"/>
            </accessor>
          </technique_common>
        </source>
        <vertices id="representation-419-material-68-vertices">
          <input semantic="POSITION" source="#representation-419-material-68-positions"/>
        </vertices>
        <triangles material="IfcMaterial-68" count="12">
          <input semantic="VERTEX" source="#representation-419-material-68-vertices" offset="0"/>
          <input semantic="NORMAL" source="#representation-419-material-68-normals" offset="1"/>
          <p>3 3 0 0 1 1 3 3 1 1 2 2 7 7 5 5 4 4 7 7 4 4 6 6 9 9 8 8 10 10 9 9 10 10 11 11 14 14 15 15 12 12 13 13 14 14 12 12 16 16 19 19 18 18 16 16 18 18 17 17 21 21 20 20 22 22 21 21 22 22 23 23</p>
        </triangles>
      </mesh>
    </geometry>
    <geometry id="representation-392-material-68">
      <mesh>
        <source id="representation-392-material-68-positions">
          <float_array id="representation-392-material-68-positions-array" count="72">8.99999703301275 0 0 8.99999703301275 0 2 0 0 2 0 0 0 8.99999703301275 0 0 8.99999703301275 0 2 8.899996759654673 0.0999999999999999 0 8.899996759654673 0.0999999999999999 2 0 0 0 0.09999996628252627 0.0999999999999999 0 0 0 2 0.09999996628252627 0.0999999999999999 2 8.99999703301275 0 0 0 0 0 0.09999996628252627 0.0999999999999999 0 8.899996759654673 0.0999999999999999 0 8.99999703301275 0 2 0 0 2 0.09999996628252627 0.0999999999999999 2 8.899996759654673 0.0999999999999999 2 0.09999996628252627 0.0999999999999999 0 8.899996759654673 0.0999999999999999 0 0.09999996628252627 0.0999999999999999 2 8.899996759654673 0.0999999999999999 2</float_array>
          <technique_common>
            <accessor source="#representation-392-material-68-positions-array" count="24" stride="3">
              <param name="X" type="float"/>
              <param name="Y" type="float"/>
              <param name="Z" type="float"/>
            </accessor>
          </technique_common>
        </source>
        <source id="representation-392-material-68-normals">
          <float_array id="representation-392-material-68-normals-array" count="72">0 -1 0 0 -1 0 0 -1 0 0 -1 0 0.7071054400806893 0.7071081222898621 0 0.7071054400806893 0.7071081222898621 0 0.7071054400806893 0.7071081222898621 0 0.7071054400806893 0.7071081222898621 0 -0.707106900395829 0.707106661977246 0 -0.707106900395829 0.707106661977246 0 -0.707106900395829 0.707106661977246 0 -0.707106900395829 0.707106661977246 0 0 0 -1 0 0 -1 0 0 -1 0 0 -1 0 0 1 0 0 1 0 0 1 0 0 1 0 1 0 0 1 0 0 1 0 0 1 0</float_array>
          <technique_common>
            <accessor source="#representation-392-material-68-normals-array" count="24" stride="3">
              <param name="X" type="float"/>
              <param name="Y" type="float"/>
              <param name="Z" type="float"/>
            </accessor>
          </technique_common>
        </source>
        <vertices id="representation-392-material-68-vertices">
          <input semantic="POSITION" source="#representation-392-material-68-positions"/>
        </vertices>
        <triangles material="IfcMaterial-68" count="12">
          <input semantic="VERTEX" source="#representation-392-material-68-vertices" offset="0"/>
          <input semantic="NORMAL" source="#representation-392-material-68-normals" offset="1"/>
          <p>3 3 0 0 1 1 3 3 1 1 2 2 4 4 6 6 7 7 4 4 7 7 5 5 10 10 9 9 8 8 10 10 11 11 9 9 13 13 15 15 12 12 14 14 15 15 13 13 16 16 19 19 17 17 17 17 19 19 18 18 21 21 20 20 22 22 21 21 22 22 23 23</p>
        </triangles>
      </mesh>
    </geometry>
    <geometry id="representation-364-material-68">
      <mesh>
        <source id="representation-364-material-68-positions">
          <float_array id="representation-364-material-68-positions-array" count="72">9.00000296698632 0 0 9.00000296698632 0 2 0 0 2 0 0 0 9.00000296698632 0 0 9.00000296698632 0 2 8.900003172909134 0.0999999999999999 0 8.900003172909134 0.0999999999999999 2 0 0 0 0.09999997418010053 0.0999999999999999 0 0 0 2 0.09999997418010053 0.0999999999999999 2 9.00000296698632 0 0 0 0 0 0.09999997418010053 0.0999999999999999 0 8.900003172909134 0.0999999999999999 0 9.00000296698632 0 2 0 0 2 0.09999997418010053 0.0999999999999999 2 8.900003172909134 0.0999999999999999 2 0.09999997418010053 0.0999999999999999 0 8.900003172909134 0.0999999999999999 0 0.09999997418010053 0.0999999999999999 2 8.900003172909134 0.0999999999999999 2</float_array>
          <technique_common>
            <accessor source="#representation-364-material-68-positions-array" count="24" stride="3">
              <param name="X" type="float"/>
              <param name="Y" type="float"/>
              <param name="Z" type="float"/>
            </accessor>
          </technique_common>
        </source>
        <source id="representation-364-material-68-normals">
          <float_array id="representation-364-material-68-normals-array" count="72">0 -1 0 0 -1 0 0 -1 0 0 -1 0 0.7071078838715886 0.7071056784997867 0 0.7071078838715886 0.7071056784997867 0 0.7071078838715886 0.7071056784997867 0 0.7071078838715886 0.7071056784997867 0 -0.707106900395829 0.707106661977246 0 -0.707106900395829 0.707106661977246 0 -0.707106900395829 0.707106661977246 0 -0.707106900395829 0.707106661977246 0 0 0 -1 0 0 -1 0 0 -1 0 0 -1 0 0 1 0 0 1 0 0 1 0 0 1 0 1 0 0 1 0 0 1 0 0 1 0</float_array>
          <technique_common>
            <accessor source="#representation-364-material-68-normals-array" count="24" stride="3">
              <param name="X" type="float"/>
              <param name="Y" type="float"/>
              <param name="Z" type="float"/>
            </accessor>
          </technique_common>
        </source>
        <vertices id="representation-364-material-68-vertices">
          <input semantic="POSITION" source="#representation-364-material-68-positions"/>
        </vertices>
        <triangles material="IfcMaterial-68" count="12">
          <input semantic="VERTEX" source="#representation-364-material-68-vertices" offset="0"/>
          <input semantic="NORMAL" source="#representation-364-material-68-normals" offset="1"/>
          <p>3 3 0 0 1 1 3 3 1 1 2 2 7 7 5 5 4 4 7 7 4 4 6 6 11 11 9 9 8 8 10 10 11 11 8 8 14 14 12 12 13 13 14 14 15 15 12 12 17 17 16 16 18 18 16 16 19 19 18 18 21 21 20 20 22 22 21 21 22 22 23 23</p>
        </triangles>
      </mesh>
    </geometry>
  </library_geometries>
  <library_visual_scenes>
    <visual_scene id="IfcOpenShell">
      <node id="project" name="project" type="NODE">
        <matrix>1 0 0 0 0 1 0 0 0 0 1 0 0 0 0 1</matrix>
        <node id="product-7aefe9e1-f636-4f0e-a8fc-22c6e823ece0" name="product-7aefe9e1-f636-4f0e-a8fc-22c6e823ece0" type="NODE">
          <matrix>1 0 0 0 0 1 0 0 0 0 1 0 0 0 0 1</matrix>
          <node id="product-b145d25b-bc24-42e2-8b43-7f6b4c0e8c2e" name="product-b145d25b-bc24-42e2-8b43-7f6b4c0e8c2e" type="NODE">
            <matrix>1 0 0 0 0 1 0 0 0 0 1 0 0 0 0 1</matrix>
            <node id="product-78e716ee-481f-4f20-98b8-edff75663077" name="product-78e716ee-481f-4f20-98b8-edff75663077" type="NODE">
              <matrix>1 0 0 0 0 1 0 0 0 0 1 0 0 0 0 1</matrix>
              <node id="product-02735ce9-a05f-4b87-9ebf-5962b4973224-body" name="product-02735ce9-a05f-4b87-9ebf-5962b4973224-body" type="NODE">
                <matrix>-0.9999999999999962 -8.742277657347552e-8 0 18 8.742277657347552e-8 -0.9999999999999962 0 10 0 0 1 0 0 0 0 1</matrix>
                <instance_geometry url="#representation-1597-material-68">
                  <bind_material>
                    <technique_common>
                      <instance_material symbol="IfcMaterial-68" target="#IfcMaterial-68"/>
                    </technique_common>
                  </bind_material>
                </instance_geometry>
              </node>
              <node id="product-6b276b9e-d8cc-441c-a6a9-40088fefbefc-body" name="product-6b276b9e-d8cc-441c-a6a9-40088fefbefc-body" type="NODE">
                <matrix>-0.07075441041127261 -0.9974937660994945 0 16.1634902954102 0.9974937660994945 -0.07075441041127261 0 2.01819181442261 0 0 1 2 0 0 0 1</matrix>
                <instance_geometry url="#representation-2349-material-68">
                  <bind_material>
                    <technique_common>
                      <instance_material symbol="IfcMaterial-68" target="#IfcMaterial-68"/>
                    </technique_common>
                  </bind_material>
                </instance_geometry>
              </node>
              <node id="product-d83d7d92-af8e-4ad8-bb77-1f06786a763b-body" name="product-d83d7d92-af8e-4ad8-bb77-1f06786a763b-body" type="NODE">
                <matrix>-0.9266259184507461 0.375984583800069 0 15.7724752426147 -0.375984583800069 -0.9266259184507461 0 7.530706405639651 0 0 1 2 0 0 0 1</matrix>
                <instance_geometry url="#representation-2322-material-68">
                  <bind_material>
                    <technique_common>
                      <instance_material symbol="IfcMaterial-68" target="#IfcMaterial-68"/>
                    </technique_common>
                  </bind_material>
                </instance_geometry>
              </node>
              <node id="product-5000fcf6-5934-4dc0-a86c-f55a155620ab-body" name="product-5000fcf6-5934-4dc0-a86c-f55a155620ab-body" type="NODE">
                <matrix>0.9999996148926791 -8.776186491410411e-4 0 12.9250001907349 8.776186491410411e-4 0.9999996148926791 0 2.01534986495972 0 0 1 2 0 0 0 1</matrix>
                <instance_geometry url="#representation-2301-material-68">
                  <bind_material>
                    <technique_common>
                      <instance_material symbol="IfcMaterial-68" target="#IfcMaterial-68"/>
                    </technique_common>
                  </bind_material>
                </instance_geometry>
              </node>
              <node id="product-228d379d-8bc7-4b66-8793-69bd759ce012-body" name="product-228d379d-8bc7-4b66-8793-69bd759ce012-body" type="NODE">
                <matrix>-0.04542102977537054 -0.9989679324453537 0 10.1358728408813 0.9989679324453537 -0.04542102977537054 0 2.03724241256714 0 0 1 2 0 0 0 1</matrix>
                <instance_geometry url="#representation-2146-material-68">
                  <bind_material>
                    <technique_common>
                      <instance_material symbol="IfcMaterial-68" target="#IfcMaterial-68"/>
                    </technique_common>
                  </bind_material>
                </instance_geometry>
              </node>
              <node id="product-12d0c16c-9868-440b-8f64-b1618fed8682-body" name="product-12d0c16c-9868-440b-8f64-b1618fed8682-body" type="NODE">
                <matrix>0.9998082454359209 0.01958245026408256 0 9.850679397583009 -0.01958245026408256 0.9998082454359209 0 5.96495914459229 0 0 1 2 0 0 0 1</matrix>
                <instance_geometry url="#representation-2114-material-68">
                  <bind_material>
                    <technique_common>
                      <instance_material symbol="IfcMaterial-68" target="#IfcMaterial-68"/>
                    </technique_common>
                  </bind_material>
                </instance_geometry>
              </node>
              <node id="product-913df7c8-3710-49cd-888e-258d12c22557-body" name="product-913df7c8-3710-49cd-888e-258d12c22557-body" type="NODE">
                <matrix>-0.997802971612295 -0.06625126294398886 0 11.9750003814697 0.06625126294398886 -0.997802971612295 0 2.01534986495972 0 0 1 2 0 0 0 1</matrix>
                <instance_geometry url="#representation-2093-material-68">
                  <bind_material>
                    <technique_common>
                      <instance_material symbol="IfcMaterial-68" target="#IfcMaterial-68"/>
                    </technique_common>
                  </bind_material>
                </instance_geometry>
              </node>
              <node id="product-9ff072f9-8488-4421-ab54-bbcb442cc875-body" name="product-9ff072f9-8488-4421-ab54-bbcb442cc875-body" type="NODE">
                <matrix>1 0 0 9.10000419616699 0 1 0 0.100000001490116 0 0 1 2 0 0 0 1</matrix>
                <instance_geometry url="#representation-1666-material-68">
                  <bind_material>
                    <technique_common>
                      <instance_material symbol="IfcMaterial-68" target="#IfcMaterial-68"/>
                    </technique_common>
                  </bind_material>
                </instance_geometry>
              </node>
              <node id="product-851b12b2-24ce-4b23-8d9d-a237da9bfad5-body" name="product-851b12b2-24ce-4b23-8d9d-a237da9bfad5-body" type="NODE">
                <matrix>-1.62920684942944e-7 0.9999999999999867 0 9.000001907348629 -0.9999999999999867 -1.62920684942944e-7 0 10 0 0 1 0 0 0 0 1</matrix>
                <instance_geometry url="#representation-1652-material-68">
                  <bind_material>
                    <technique_common>
                      <instance_material symbol="IfcMaterial-68" target="#IfcMaterial-68"/>
                    </technique_common>
                  </bind_material>
                </instance_geometry>
              </node>
              <node id="product-025b8d38-9ac1-471e-a73c-6dd3ba2da514-body" name="product-025b8d38-9ac1-471e-a73c-6dd3ba2da514-body" type="NODE">
                <matrix>1 0 0 9 0 1 0 0 0 0 1 0 0 0 0 1</matrix>
                <instance_geometry url="#representation-1625-material-68">
                  <bind_material>
                    <technique_common>
                      <instance_material symbol="IfcMaterial-68" target="#IfcMaterial-68"/>
                    </technique_common>
                  </bind_material>
                </instance_geometry>
              </node>
              <node id="product-8ba55bcf-4605-46d7-a906-a7b9ae160039-body" name="product-8ba55bcf-4605-46d7-a906-a7b9ae160039-body" type="NODE">
                <matrix>7.549790126404311e-8 -0.9999999999999972 0 9 0.9999999999999972 7.549790126404311e-8 0 0 0 0 1 0 0 0 0 1</matrix>
                <instance_geometry url="#representation-316-material-68">
                  <bind_material>
                    <technique_common>
                      <instance_material symbol="IfcMaterial-68" target="#IfcMaterial-68"/>
                    </technique_common>
                  </bind_material>
                </instance_geometry>
              </node>
              <node id="product-ce891b8f-7fcf-454e-926c-ad5908e51b3c-body" name="product-ce891b8f-7fcf-454e-926c-ad5908e51b3c-body" type="NODE">
                <matrix>7.549790126404311e-8 -0.9999999999999972 0 18 0.9999999999999972 7.549790126404311e-8 0 0 0 0 1 0 0 0 0 1</matrix>
                <instance_geometry url="#representation-1549-material-68">
                  <bind_material>
                    <technique_common>
                      <instance_material symbol="IfcMaterial-68" target="#IfcMaterial-68"/>
                    </technique_common>
                  </bind_material>
                </instance_geometry>
              </node>
              <node id="product-eeaf32df-94fc-4d4f-8b40-8e05fd0c4b98-body" name="product-eeaf32df-94fc-4d4f-8b40-8e05fd0c4b98-body" type="NODE">
                <matrix>1 0 0 0.100000008940697 0 1 0 9.899999618530269 0 0 1 2 0 0 0 1</matrix>
                <instance_geometry url="#representation-1101-material-68">
                  <bind_material>
                    <technique_common>
                      <instance_material symbol="IfcMaterial-68" target="#IfcMaterial-68"/>
                    </technique_common>
                  </bind_material>
                </instance_geometry>
              </node>
              <node id="product-08359da8-42f3-475e-85a2-7b9341ff38db-body" name="product-08359da8-42f3-475e-85a2-7b9341ff38db-body" type="NODE">
                <matrix>-2.82129974493717e-7 0.9999999999999602 0 8.000000953674319 -0.9999999999999602 -2.82129974493717e-7 0 8.105348587036129 0 0 1 2 0 0 0 1</matrix>
                <instance_geometry url="#representation-1056-material-68">
                  <bind_material>
                    <technique_common>
                      <instance_material symbol="IfcMaterial-68" target="#IfcMaterial-68"/>
                    </technique_common>
                  </bind_material>
                </instance_geometry>
              </node>
              <node id="product-5d482674-717d-4d33-851d-1a3461aca284-body" name="product-5d482674-717d-4d33-851d-1a3461aca284-body" type="NODE">
                <matrix>-0.9999999999999241 -3.894143674187651e-7 0 8.09999942779541 3.894143674187651e-7 -0.9999999999999241 0 2.00534796714783 0 0 1 2 0 0 0 1</matrix>
                <instance_geometry url="#representation-1024-material-68">
                  <bind_material>
                    <technique_common>
                      <instance_material symbol="IfcMaterial-68" target="#IfcMaterial-68"/>
                    </technique_common>
                  </bind_material>
                </instance_geometry>
              </node>
              <node id="product-a742d1fc-18a6-48ff-a716-509d89b41ad1-body" name="product-a742d1fc-18a6-48ff-a716-509d89b41ad1-body" type="NODE">
                <matrix>0.9999999999999715 2.384185791015559e-7 0 0.900001585483551 -2.384185791015559e-7 0.9999999999999715 0 8.00535011291504 0 0 1 2 0 0 0 1</matrix>
                <instance_geometry url="#representation-1003-material-68">
                  <bind_material>
                    <technique_common>
                      <instance_material symbol="IfcMaterial-68" target="#IfcMaterial-68"/>
                    </technique_common>
                  </bind_material>
                </instance_geometry>
              </node>
              <node id="product-128cfeae-738c-489b-9397-26de63623661-body" name="product-128cfeae-738c-489b-9397-26de63623661-body" type="NODE">
                <matrix>3.13916473260163e-7 -0.9999999999999508 0 0.999999701976776 0.9999999999999508 3.13916473260163e-7 0 1.90535140037537 0 0 1 2 0 0 0 1</matrix>
                <instance_geometry url="#representation-950-material-68">
                  <bind_material>
                    <technique_common>
                      <instance_material symbol="IfcMaterial-68" target="#IfcMaterial-68"/>
                    </technique_common>
                  </bind_material>
                </instance_geometry>
              </node>
              <node id="product-9ffbab07-73a6-4827-8e54-f1c2fc6cab5f-body" name="product-9ffbab07-73a6-4827-8e54-f1c2fc6cab5f-body" type="NODE">
                <matrix>-4.371138828673791e-8 0.9999999999999991 0 0 -0.9999999999999991 -4.371138828673791e-8 0 10 0 0 1 0 0 0 0 1</matrix>
                <instance_geometry url="#representation-419-material-68">
                  <bind_material>
                    <technique_common>
                      <instance_material symbol="IfcMaterial-68" target="#IfcMaterial-68"/>
                    </technique_common>
                  </bind_material>
                </instance_geometry>
              </node>
              <node id="product-05d4c723-33fa-4b08-90d6-a5e3be62a982-body" name="product-05d4c723-33fa-4b08-90d6-a5e3be62a982-body" type="NODE">
                <matrix>1 0 0 0 0 1 0 0 0 0 1 0 0 0 0 1</matrix>
                <instance_geometry url="#representation-392-material-68">
                  <bind_material>
                    <technique_common>
                      <instance_material symbol="IfcMaterial-68" target="#IfcMaterial-68"/>
                    </technique_common>
                  </bind_material>
                </instance_geometry>
              </node>
              <node id="product-babaa413-b0fc-4f1c-9c53-82b3a16743d7-body" name="product-babaa413-b0fc-4f1c-9c53-82b3a16743d7-body" type="NODE">
                <matrix>-0.9999999999999962 -8.742277657347552e-8 0 9 8.742277657347552e-8 -0.9999999999999962 0 10 0 0 1 0 0 0 0 1</matrix>
                <instance_geometry url="#representation-364-material-68">
                  <bind_material>
                    <technique_common>
                      <instance_material symbol="IfcMaterial-68" target="#IfcMaterial-68"/>
                    </technique_common>
                  </bind_material>
                </instance_geometry>
              </node>
            </node>
          </node>
        </node>
      </node>
    </visual_scene>
  </library_visual_scenes>
  <scene>
    <instance_visual_scene url="#IfcOpenShell"/>
  </scene>
</COLLADA>